<svg width="254" height="73" viewBox="0 0 254 73" fill="none" xmlns="http://www.w3.org/2000/svg">
<path d="M11.3015 24.9203L9.74191 35.9529C9.69883 36.2556 9.6008 36.4945 9.4493 36.6667C9.2978 36.8403 9.06906 36.9263 8.76753 36.9263C8.5076 36.9263 8.31302 36.8507 8.18231 36.6993C8.05161 36.548 8.00853 36.3001 8.0516 35.9529L12.0159 8.04708C12.059 7.74437 12.1556 7.50695 12.3086 7.33333C12.4601 7.1612 12.6665 7.07365 12.925 7.07365C13.228 7.07365 13.4448 7.17159 13.5741 7.36598C13.7033 7.56037 13.7464 7.7874 13.7033 8.04708L12.0798 19.4685H19.2257L20.9146 7.39862C21.2606 4.88938 20.8923 3.0286 19.8095 1.81775C18.7267 0.606907 16.7779 0 13.9632 0C11.2347 0 9.13441 0.595036 7.66245 1.78511C6.189 2.97518 5.27998 4.84635 4.9339 7.39862L0.841819 36.6014C0.495737 39.1551 0.864099 41.0248 1.94542 42.2149C3.02674 43.405 4.95469 44 7.72632 44C10.5841 44 12.7289 43.3931 14.1578 42.1822C15.5867 40.9714 16.4734 39.1106 16.821 36.6014L18.4444 24.9203H11.3015Z" fill="white"/>
<path d="M36.3753 22.3576C37.3066 21.1675 37.88 19.7519 38.0968 18.1063L39.5911 7.5277C39.8941 5.32117 39.4603 3.62362 38.2914 2.43354C37.1224 1.24347 35.2598 0.648438 32.7051 0.648438H31.6653H31.5361H24.5209L18.5439 43.35H25.6899L28.0619 26.3982C28.1421 26.3878 28.2209 26.3759 28.2996 26.3656L28.7422 43.3486H36.0174L34.1859 24.3653C35.0252 23.8162 35.7559 23.1485 36.3753 22.3576ZM30.6761 7.72357H31.4069C31.753 7.72357 31.9921 7.82151 32.1213 8.0159C32.252 8.21029 32.2728 8.54564 32.1867 9.02197L30.9524 17.9772C30.9093 18.4105 30.8009 18.7666 30.6271 19.0485C30.4533 19.3305 30.2261 19.5471 29.9453 19.697C29.6854 19.8365 29.3571 19.9092 28.9695 19.9196L30.6761 7.72357Z" fill="white"/>
<path d="M45.4865 36.2778L47.1307 24.5315H52.7468L53.7211 17.5216H48.111L49.4835 7.72356H55.7352L56.7096 0.649902H50.4727H50.4088H43.3283L37.3513 43.3515H44.4319H44.4972H50.7326L51.7724 36.2778H45.4865Z" fill="white"/>
<path d="M61.4851 0.649902L52.2612 43.3515H59.6017L60.8836 36.1473H63.3314L62.5887 43.3515H69.8639L72.6578 0.649902H61.4851ZM64.0607 29.0736H62.1431L66.6986 3.4856L64.0607 29.0736Z" fill="white"/>
<path d="M227.223 20.4419C227.223 20.3559 227.179 20.2698 227.093 20.1822L226.964 19.9879C225.967 18.3437 225.275 16.9934 224.885 15.9324C224.495 14.8729 224.365 13.8016 224.495 12.7198L225.21 8.04708C225.253 7.74437 225.35 7.50695 225.503 7.33333C225.654 7.1612 225.86 7.07365 226.12 7.07365C226.423 7.07365 226.64 7.1612 226.769 7.33333C226.899 7.50695 226.942 7.74585 226.899 8.04708L225.859 15.0554H233.005L234.11 7.39714C234.499 4.93093 234.143 3.08202 233.038 1.84891C231.933 0.61581 229.973 0 227.159 0C224.43 0 222.34 0.584648 220.891 1.75246C219.439 2.92027 218.52 4.80183 218.129 7.39862L217.48 12.2005C217.133 14.5361 217.274 16.5705 217.902 18.3007C218.529 20.0309 219.536 21.9777 220.923 24.1412L221.118 24.5953C222.07 26.1964 222.752 27.5378 223.165 28.6196C223.576 29.7013 223.695 30.74 223.523 31.7342L222.937 35.9529C222.894 36.2556 222.796 36.4945 222.645 36.6667C222.492 36.8403 222.264 36.9263 221.963 36.9263C221.703 36.9263 221.508 36.8507 221.378 36.6993C221.249 36.548 221.204 36.3001 221.249 35.9529L222.158 29.3333H215.012L214.037 36.6014C213.691 39.1551 214.07 41.0248 215.174 42.2149C216.279 43.405 218.215 44 220.987 44C223.759 44 225.859 43.405 227.288 42.2149C228.717 41.0248 229.626 39.1551 230.016 36.6014L230.602 32.2536C230.948 30.004 230.819 28.026 230.212 26.3151C229.604 24.6072 228.607 22.6485 227.223 20.4419Z" fill="white"/>
<path d="M251.42 1.81775C250.337 0.606907 248.388 0 245.574 0C242.845 0 240.745 0.595036 239.273 1.78511C237.801 2.97518 236.89 4.84635 236.544 7.39862L232.452 36.6014C232.106 39.1551 232.474 41.0248 233.557 42.2149C234.639 43.405 236.567 44 239.338 44C242.196 44 244.339 43.3931 245.77 42.1822C247.198 40.9714 248.085 39.1106 248.433 36.6014L250.056 24.9203H242.91L241.351 35.9529C241.308 36.2556 241.21 36.4945 241.058 36.6667C240.905 36.8403 240.678 36.9263 240.376 36.9263C240.116 36.9263 239.922 36.8507 239.791 36.6993C239.662 36.548 239.617 36.3001 239.662 35.9529L243.625 8.04708C243.668 7.74437 243.764 7.50695 243.917 7.33333C244.069 7.1612 244.275 7.07365 244.535 7.07365C244.838 7.07365 245.055 7.17159 245.184 7.36598C245.314 7.56037 245.357 7.7874 245.314 8.04708L243.69 19.4685H250.836L252.525 7.39862C252.871 4.88938 252.503 3.0286 251.42 1.81775Z" fill="white"/>
<path d="M95.0745 3.13245L90.8101 28.7027C89.8803 34.2553 88.0503 38.011 85.2148 40.1879C83.0656 41.838 80.4172 42.574 76.6282 42.574C75.1711 42.574 73.7362 42.4686 72.3489 42.3662C72.2405 42.3588 72.1336 42.3499 72.0266 42.3425L75.2245 33.1187C76.2524 33.3487 77.2461 33.4659 78.1833 33.4659C81.3441 33.4659 83.2839 31.89 83.7919 28.9074L88.0355 3.98865C88.1201 3.49155 88.5479 3.13097 89.0515 3.13097H95.0745M95.8037 2.51367H89.0529C88.2494 2.51367 87.5617 3.09238 87.4265 3.88478L83.1829 28.8036C82.6512 31.9242 80.5598 32.8471 78.1833 32.8471C77.0767 32.8471 75.9301 32.6735 74.8235 32.3857L71.177 42.9004C72.8985 43.0162 74.7418 43.1898 76.6267 43.1898C82.8962 43.1898 89.3292 41.283 91.4191 28.8021L95.8037 2.51367Z" fill="white"/>
<path d="M109.94 2.09239C113.759 2.09239 116.676 2.42923 118.403 4.02885L115.223 13.3758C115.073 13.815 115.146 14.3018 115.416 14.6787C115.687 15.0556 116.125 15.2811 116.59 15.2811H119.875C119.844 15.4844 119.811 15.6818 119.78 15.8761L117.527 29.3987C116.533 35.4411 114.996 39.0306 112.541 41.0383C110.163 42.9837 106.93 43.3828 102.812 43.3828C98.0542 43.3828 95.5143 42.675 94.0408 40.9389C92.355 38.952 92.0148 35.3476 92.9729 29.6006L95.2261 16.0794C96.1931 10.2686 97.7749 6.61674 100.202 4.58531C102.316 2.81356 105.136 2.09239 109.94 2.09239ZM104.53 34.4484C106.351 34.4484 107.73 34.0151 108.744 33.1248C109.666 32.3146 110.243 31.1631 110.509 29.5991L112.762 16.0809C113.04 14.4427 112.821 13.2289 112.096 12.3712C111.332 11.4661 110.063 11.0268 108.218 11.0268C106.397 11.0268 105.019 11.4601 104.004 12.3505C103.082 13.1606 102.506 14.3121 102.24 15.8761L99.9851 29.3973V29.4017V29.4062C99.7311 31.0533 99.9643 32.2701 100.698 33.1248C101.464 34.0151 102.718 34.4484 104.53 34.4484ZM109.94 1.4751C101.294 1.4751 96.6639 3.67124 94.6141 15.9771L92.3609 29.4982C90.3126 41.8055 94.2042 44.0001 102.81 44.0001C111.456 44.0001 116.046 42.2091 118.136 29.4982L120.389 15.9771C120.465 15.5245 120.532 15.0882 120.591 14.6638H116.59C116.025 14.6638 115.627 14.1088 115.808 13.5747L119.113 3.86414C117.301 1.91136 114.191 1.4751 109.94 1.4751ZM104.53 33.8311C101.089 33.8311 100.187 32.1558 100.596 29.4982L102.85 15.9771C103.3 13.3194 104.775 11.6441 108.218 11.6441C111.701 11.6441 112.603 13.3194 112.151 15.9771L109.898 29.4982C109.448 32.1558 107.972 33.8311 104.53 33.8311Z" fill="white"/>
<path d="M150.18 15.3893L157.465 15.5199L157.168 17.9772L157.085 18.6687H157.783H166.718L165.116 26.4961H155.881H155.377L155.276 26.9888L153.901 33.6573L153.748 34.3993H154.507H165.869L164.295 42.341H144.815L150.18 15.3893ZM150.011 14.769C149.814 14.769 149.645 14.907 149.607 15.0999L144.059 42.9598H164.801L166.621 33.7835H154.505L155.881 27.1149H165.621L167.477 18.0514H157.783L158.162 14.9145L150.019 14.769C150.016 14.769 150.014 14.769 150.011 14.769Z" fill="white"/>
<path d="M212.375 3.10706L209.024 19.1537H204.897H204.371L204.286 19.6716L202.85 28.4102L202.732 29.1284H203.46H206.94L204.181 42.3423H196.91L200.421 24.9557L201.302 20.5931L199.264 24.5506L190.106 42.3423H183.61L181.318 24.8682L180.851 21.3009L180.1 24.8192L176.363 42.3423H169.096L177.29 3.10854H184.739L188.744 28.7886C188.806 29.1922 189.151 29.486 189.561 29.486C189.856 29.486 190.131 29.3257 190.278 29.066L204.92 3.10854H212.375M213.136 2.48977H204.799C204.65 2.48977 204.512 2.56989 204.439 2.69899L189.737 28.7619C189.697 28.8331 189.627 28.8672 189.559 28.8672C189.465 28.8672 189.372 28.8049 189.354 28.6921L185.269 2.48828H177.124C176.929 2.48828 176.76 2.6248 176.72 2.81622L168.335 42.9581H176.864L180.705 24.9468L183.068 42.9581H190.483L199.814 24.8311L196.154 42.9581H204.684L207.702 28.5096H203.46L204.897 19.771H209.526L213.136 2.48977Z" fill="white"/>
<path d="M174.857 3.13247L171.913 11.7167C171.771 12.1337 171.378 12.4127 170.937 12.4127H145.691C145.272 12.4127 144.898 12.6619 144.739 13.0492L133.65 39.8347L133.648 39.8377L133.647 39.8407C132.971 41.5293 131.404 42.2831 128.567 42.2831C125.811 42.2831 124.598 41.6109 124.513 40.038L123.141 13.389C123.113 12.8415 122.661 12.4127 122.112 12.4127H118.045L121.263 3.13247H130.128L130.382 26.0183C130.388 26.5896 130.842 27.0378 131.417 27.0378C131.861 27.0378 132.243 26.7647 132.387 26.3418L140.36 3.13247H142.98H149.771H174.857ZM175.723 2.51369H149.771H142.98H140.213C140.036 2.51369 139.88 2.62498 139.823 2.79118L131.802 26.14C131.736 26.3314 131.576 26.419 131.416 26.419C131.209 26.419 131.001 26.2721 130.998 26.0109L130.743 2.92027C130.74 2.69472 130.557 2.51221 130.33 2.51221H121.115C120.94 2.51221 120.782 2.6235 120.726 2.78969L117.364 12.4824C117.272 12.7495 117.47 13.0285 117.754 13.0285H122.11C122.33 13.0285 122.511 13.2006 122.521 13.4187L123.894 40.0677C124.017 42.3217 126.024 42.8989 128.565 42.8989C131.105 42.8989 133.318 42.3217 134.22 40.0677L145.309 13.2822C145.373 13.1279 145.523 13.0285 145.691 13.0285H170.937C171.643 13.0285 172.27 12.5803 172.497 11.9141L175.723 2.51369Z" fill="white"/>
<path d="M204.7 27.192H216.567L217.412 21.0918H205.755L204.7 27.192Z" fill="white"/>
<path d="M4.46006 57.006C3.81206 59.058 3.48806 60.3 3.48806 60.732C3.48806 60.876 3.53006 60.996 3.61406 61.092C3.71006 61.176 3.83006 61.218 3.97406 61.218C5.35406 61.218 6.87806 60.996 8.54607 60.552C9.08606 60.408 9.39806 60.336 9.48206 60.336C9.66206 60.336 9.75207 60.462 9.75207 60.714C9.75207 61.146 9.08607 61.59 7.75407 62.046C6.43406 62.502 5.15606 62.73 3.92006 62.73C3.36806 62.73 2.88206 62.568 2.46206 62.244C2.05406 61.92 1.85006 61.512 1.85006 61.02C1.85006 60.528 2.02406 59.688 2.37206 58.5C2.73206 57.312 3.09206 56.046 3.45206 54.702C3.81206 53.358 3.99206 52.224 3.99206 51.3C3.99206 51.168 4.01606 51.03 4.06406 50.886C4.26806 50.442 5.57606 50.22 7.98806 50.22C10.4001 50.22 11.6061 50.394 11.6061 50.742C11.6061 50.982 11.3481 51.144 10.8321 51.228C10.4001 51.312 9.82406 51.39 9.10406 51.462C8.39606 51.522 7.89806 51.57 7.61006 51.606C7.32206 51.63 6.62606 51.738 5.52206 51.93V51.984C5.52206 52.8 5.30006 54.03 4.85606 55.674C4.92806 55.686 5.16806 55.692 5.57606 55.692C5.99606 55.692 6.55406 55.662 7.25006 55.602C7.94606 55.542 8.46806 55.512 8.81606 55.512C9.17606 55.512 9.35606 55.596 9.35606 55.764C9.35606 56.184 8.86406 56.496 7.88007 56.7C6.89606 56.904 5.75606 57.006 4.46006 57.006ZM13.5674 59.598C14.7194 57.642 15.6554 56.19 16.3754 55.242C17.1074 54.282 17.7014 53.802 18.1574 53.802C18.6254 53.802 19.0634 54.048 19.4714 54.54C19.8914 55.032 20.1014 55.554 20.1014 56.106C20.1014 56.97 19.9034 58.026 19.5074 59.274C18.7874 61.578 18.1394 62.73 17.5634 62.73C17.2994 62.73 17.1674 62.55 17.1674 62.19C17.1674 61.938 17.2934 61.428 17.5454 60.66C17.8094 59.88 18.0494 59.118 18.2654 58.374C18.4934 57.618 18.6074 57.054 18.6074 56.682C18.6074 56.298 18.5474 56.016 18.4274 55.836C18.3194 55.656 18.2054 55.566 18.0854 55.566C17.9774 55.566 17.8634 55.602 17.7434 55.674C17.6234 55.746 17.4854 55.866 17.3294 56.034C17.1854 56.202 17.0474 56.37 16.9154 56.538C16.7834 56.694 16.6154 56.922 16.4114 57.222C16.2194 57.522 16.0574 57.78 15.9254 57.996C15.7934 58.2 15.6014 58.5 15.3494 58.896C15.0974 59.292 14.9054 59.592 14.7734 59.796C14.6414 60 14.4674 60.276 14.2514 60.624C14.0354 60.972 13.8614 61.242 13.7294 61.434C13.6094 61.626 13.4714 61.836 13.3154 62.064C13.0154 62.508 12.7754 62.73 12.5954 62.73C12.4274 62.73 12.2294 62.598 12.0014 62.334C11.7734 62.058 11.6594 61.818 11.6594 61.614C11.6594 61.554 11.7014 61.392 11.7854 61.128C12.0134 60.432 12.2654 59.574 12.5414 58.554C12.8174 57.522 12.9674 56.352 12.9914 55.044C13.0274 54.168 13.1534 53.73 13.3694 53.73C13.6334 53.73 13.8974 53.868 14.1614 54.144C14.4254 54.42 14.5574 54.726 14.5574 55.062C14.5574 55.386 14.4554 56.022 14.2514 56.97C14.0594 57.906 13.8314 58.782 13.5674 59.598ZM23.417 60.93C23.417 61.158 23.549 61.272 23.813 61.272C24.269 61.272 24.821 61.146 25.469 60.894C26.129 60.63 26.495 60.498 26.567 60.498C26.783 60.498 26.891 60.612 26.891 60.84C26.891 61.188 26.531 61.59 25.811 62.046C25.103 62.502 24.455 62.73 23.867 62.73C23.291 62.73 22.811 62.574 22.427 62.262C22.043 61.938 21.851 61.608 21.851 61.272C21.851 60.936 21.923 60.51 22.067 59.994C22.211 59.466 22.415 58.776 22.679 57.924C22.955 57.06 23.171 56.346 23.327 55.782C22.763 55.914 22.385 55.98 22.193 55.98C22.001 55.98 21.809 55.884 21.617 55.692C21.437 55.488 21.347 55.296 21.347 55.116C21.347 54.828 22.127 54.552 23.687 54.288C23.903 53.292 24.011 52.41 24.011 51.642C24.011 51.282 24.131 51.102 24.371 51.102C24.575 51.102 24.827 51.234 25.127 51.498C25.427 51.75 25.577 52.038 25.577 52.362C25.577 52.686 25.475 53.256 25.271 54.072C25.955 54.012 26.501 53.982 26.909 53.982C27.629 53.982 27.989 54.138 27.989 54.45C27.989 54.63 27.791 54.78 27.395 54.9C27.011 55.02 26.195 55.206 24.947 55.458C24.695 56.406 24.377 57.492 23.993 58.716C23.609 59.928 23.417 60.666 23.417 60.93ZM29.442 55.998L29.388 54.648C29.388 54.084 29.52 53.802 29.784 53.802C30.012 53.802 30.228 53.952 30.432 54.252C30.648 54.54 30.756 54.888 30.756 55.296C30.756 55.692 30.744 55.992 30.72 56.196C31.764 54.612 32.754 53.82 33.69 53.82C34.278 53.82 34.572 53.964 34.572 54.252C34.572 54.396 34.506 54.528 34.374 54.648C34.242 54.768 34.032 54.906 33.744 55.062C33.108 55.338 32.568 55.764 32.124 56.34C31.692 56.904 31.338 57.546 31.062 58.266C30.786 58.986 30.564 59.592 30.396 60.084C30.24 60.576 30.12 60.96 30.036 61.236C29.952 61.512 29.856 61.782 29.748 62.046C29.556 62.526 29.334 62.766 29.082 62.766C28.878 62.766 28.71 62.652 28.578 62.424C28.458 62.184 28.398 61.956 28.398 61.74C28.398 61.512 28.5 61.068 28.704 60.408C29.196 58.896 29.442 57.426 29.442 55.998ZM41.5029 56.79C41.5029 57.426 41.1549 57.948 40.4589 58.356C39.7749 58.752 38.9949 58.95 38.1189 58.95C37.2549 58.95 36.4689 58.854 35.7609 58.662C35.5929 59.19 35.5089 59.664 35.5089 60.084C35.5089 60.492 35.6349 60.81 35.8869 61.038C36.1509 61.266 36.5769 61.38 37.1649 61.38C37.7649 61.38 38.3769 61.278 39.0009 61.074C39.6369 60.858 39.9849 60.75 40.0449 60.75C40.3569 60.75 40.5129 60.87 40.5129 61.11C40.5129 61.434 40.1469 61.788 39.4149 62.172C38.6829 62.544 37.9689 62.73 37.2729 62.73C36.3369 62.73 35.5749 62.454 34.9869 61.902C34.3989 61.338 34.1049 60.63 34.1049 59.778C34.1049 58.926 34.3329 58.038 34.7889 57.114C35.2449 56.178 35.8329 55.392 36.5529 54.756C37.2729 54.12 37.9869 53.802 38.6949 53.802C39.4029 53.802 40.0449 54.138 40.6209 54.81C41.2089 55.482 41.5029 56.142 41.5029 56.79ZM38.7849 55.224C38.3409 55.224 37.8789 55.458 37.3989 55.926C36.9189 56.382 36.5109 56.952 36.1749 57.636C36.6549 57.744 37.2009 57.798 37.8129 57.798C38.4249 57.798 38.9589 57.702 39.4149 57.51C39.8709 57.306 40.0989 57.042 40.0989 56.718C40.0989 56.394 39.9489 56.064 39.6489 55.728C39.3609 55.392 39.0729 55.224 38.7849 55.224ZM49.5525 57.87C49.5525 58.35 49.3425 58.896 48.9225 59.508C48.5985 60.24 48.2505 61.296 47.8785 62.676C47.5065 64.044 47.1945 65.022 46.9425 65.61C46.4385 66.834 45.6645 67.446 44.6205 67.446C43.7685 67.446 43.0485 67.212 42.4605 66.744C41.8845 66.288 41.5965 65.832 41.5965 65.376C41.5965 65.184 41.6565 64.992 41.7765 64.8C41.8845 64.608 41.9985 64.512 42.1185 64.512C42.2505 64.512 42.3945 64.602 42.5505 64.782C42.7065 64.962 42.8505 65.154 42.9825 65.358C43.1265 65.574 43.3365 65.772 43.6125 65.952C43.9005 66.132 44.1765 66.222 44.4405 66.222C44.7045 66.222 44.9025 66.18 45.0345 66.096C45.1665 66.024 45.2925 65.898 45.4125 65.718C45.5325 65.55 45.6345 65.376 45.7185 65.196C45.8025 65.028 45.8925 64.782 45.9885 64.458C46.0965 64.146 46.1805 63.876 46.2405 63.648C46.3005 63.42 46.3845 63.102 46.4925 62.694C46.6005 62.274 46.6905 61.938 46.7625 61.686C45.8265 62.382 45.0645 62.73 44.4765 62.73C43.8885 62.73 43.3785 62.496 42.9465 62.028C42.5145 61.548 42.2985 60.996 42.2985 60.372C42.2985 59.736 42.5325 58.896 43.0005 57.852C43.4805 56.808 44.1225 55.872 44.9265 55.044C45.7305 54.216 46.5165 53.802 47.2845 53.802C47.7765 53.802 48.1905 53.988 48.5265 54.36C49.0785 54.972 49.3545 55.842 49.3545 56.97C49.3545 57.114 49.3485 57.216 49.3365 57.276C49.4805 57.48 49.5525 57.678 49.5525 57.87ZM43.7565 60.552C43.7565 60.756 43.8225 60.924 43.9545 61.056C44.0865 61.176 44.2545 61.236 44.4585 61.236C45.0585 61.236 45.7665 60.882 46.5825 60.174C47.3985 59.454 47.9745 58.62 48.3105 57.672C48.2625 57.516 48.2205 57.276 48.1845 56.952C48.1485 56.628 48.1125 56.37 48.0765 56.178C48.0405 55.986 47.9625 55.794 47.8425 55.602C47.7225 55.398 47.5665 55.296 47.3745 55.296C46.9065 55.296 46.3785 55.632 45.7905 56.304C45.2025 56.976 44.7165 57.726 44.3325 58.554C43.9485 59.382 43.7565 60.048 43.7565 60.552ZM55.7554 53.802C56.2954 53.802 56.7934 54.078 57.2494 54.63C57.7054 55.17 57.9334 55.662 57.9334 56.106C57.9334 56.538 57.7834 56.982 57.4834 57.438C57.6274 57.618 57.6994 57.774 57.6994 57.906C57.6994 58.242 57.6214 58.818 57.4654 59.634C57.3214 60.45 57.2314 60.984 57.1954 61.236C57.1714 61.488 57.1474 61.692 57.1234 61.848C57.0994 61.992 57.0694 62.136 57.0334 62.28C56.9854 62.58 56.8774 62.73 56.7094 62.73C56.4934 62.73 56.3134 62.544 56.1694 62.172C56.0374 61.788 55.9594 61.296 55.9354 60.696C54.8674 62.052 53.8774 62.73 52.9654 62.73C52.4134 62.73 51.8674 62.496 51.3274 62.028C50.7994 61.548 50.5354 61.056 50.5354 60.552C50.5354 59.832 50.7994 58.944 51.3274 57.888C51.8554 56.82 52.5394 55.872 53.3794 55.044C54.2194 54.216 55.0114 53.802 55.7554 53.802ZM56.5834 56.97C56.5834 55.854 56.3614 55.296 55.9174 55.296C55.4494 55.296 54.9034 55.632 54.2794 56.304C53.6554 56.964 53.1274 57.714 52.6954 58.554C52.2634 59.394 52.0474 60.06 52.0474 60.552C52.0474 60.756 52.1314 60.924 52.2994 61.056C52.4674 61.176 52.6654 61.236 52.8934 61.236C53.4574 61.236 54.0934 60.858 54.8014 60.102C55.5094 59.334 56.0014 58.404 56.2774 57.312C56.3134 57.132 56.4154 57.024 56.5834 56.988V56.97ZM61.1689 59.598C62.3209 57.642 63.2569 56.19 63.9769 55.242C64.7089 54.282 65.3029 53.802 65.7589 53.802C66.2269 53.802 66.6649 54.048 67.0729 54.54C67.4929 55.032 67.7029 55.554 67.7029 56.106C67.7029 56.97 67.5049 58.026 67.1089 59.274C66.3889 61.578 65.7409 62.73 65.1649 62.73C64.9009 62.73 64.7689 62.55 64.7689 62.19C64.7689 61.938 64.8949 61.428 65.1469 60.66C65.4109 59.88 65.6509 59.118 65.8669 58.374C66.0949 57.618 66.2089 57.054 66.2089 56.682C66.2089 56.298 66.1489 56.016 66.0289 55.836C65.9209 55.656 65.8069 55.566 65.6869 55.566C65.5789 55.566 65.4649 55.602 65.3449 55.674C65.2249 55.746 65.0869 55.866 64.9309 56.034C64.7869 56.202 64.6489 56.37 64.5169 56.538C64.3849 56.694 64.2169 56.922 64.0129 57.222C63.8209 57.522 63.6589 57.78 63.5269 57.996C63.3949 58.2 63.2029 58.5 62.9509 58.896C62.6989 59.292 62.5069 59.592 62.3749 59.796C62.2429 60 62.0689 60.276 61.8529 60.624C61.6369 60.972 61.4629 61.242 61.3309 61.434C61.2109 61.626 61.0729 61.836 60.9169 62.064C60.6169 62.508 60.3769 62.73 60.1969 62.73C60.0289 62.73 59.8309 62.598 59.6029 62.334C59.3749 62.058 59.2609 61.818 59.2609 61.614C59.2609 61.554 59.3029 61.392 59.3869 61.128C59.6149 60.432 59.8669 59.574 60.1429 58.554C60.4189 57.522 60.5689 56.352 60.5929 55.044C60.6289 54.168 60.7549 53.73 60.9709 53.73C61.2349 53.73 61.4989 53.868 61.7629 54.144C62.0269 54.42 62.1589 54.726 62.1589 55.062C62.1589 55.386 62.0569 56.022 61.8529 56.97C61.6609 57.906 61.4329 58.782 61.1689 59.598ZM76.7066 48.762C76.8986 48.762 77.1326 48.942 77.4086 49.302C77.6966 49.65 77.8406 49.98 77.8406 50.292C77.8406 50.604 77.6906 51.492 77.3906 52.956C77.0906 54.408 76.7426 55.914 76.3466 57.474C75.4826 60.978 74.9126 62.73 74.6366 62.73C74.4686 62.73 74.2826 62.628 74.0786 62.424C73.8866 62.208 73.7906 62.022 73.7906 61.866C73.7906 61.71 73.8326 61.398 73.9166 60.93C72.7406 62.13 71.7146 62.73 70.8386 62.73C70.3106 62.73 69.8306 62.49 69.3986 62.01C68.9786 61.53 68.7686 61.032 68.7686 60.516C68.7686 59.772 68.9666 58.89 69.3626 57.87C69.7706 56.838 70.3526 55.902 71.1086 55.062C71.8646 54.222 72.6686 53.802 73.5206 53.802C74.3726 53.802 74.9666 54.312 75.3026 55.332C75.9146 52.788 76.2506 50.778 76.3106 49.302C76.3106 48.942 76.4426 48.762 76.7066 48.762ZM74.7266 57.6C74.7266 56.952 74.6126 56.406 74.3846 55.962C74.1686 55.518 73.9046 55.296 73.5926 55.296C73.0766 55.296 72.5486 55.614 72.0086 56.25C71.4686 56.886 71.0366 57.618 70.7126 58.446C70.4006 59.262 70.2446 59.97 70.2446 60.57C70.2446 60.786 70.3226 60.96 70.4786 61.092C70.6346 61.224 70.8206 61.29 71.0366 61.29C71.5046 61.29 72.1346 60.954 72.9266 60.282C73.7306 59.61 74.3126 58.818 74.6726 57.906L74.7266 57.69V57.6ZM83.421 56.862C83.421 56.454 83.355 56.07 83.223 55.71C83.091 55.338 82.899 55.068 82.647 54.9C81.819 55.128 81.105 55.77 80.505 56.826C79.917 57.87 79.623 58.854 79.623 59.778C79.623 60.702 79.851 61.278 80.307 61.506C81.171 61.338 81.903 60.75 82.503 59.742C83.115 58.722 83.421 57.762 83.421 56.862ZM78.687 57.024C79.107 56.088 79.653 55.32 80.325 54.72C81.009 54.108 81.705 53.802 82.413 53.802C83.133 53.802 83.733 54.108 84.213 54.72C84.693 55.32 84.933 56.058 84.933 56.934C84.933 57.798 84.723 58.686 84.303 59.598C83.883 60.498 83.301 61.248 82.557 61.848C81.825 62.436 81.045 62.73 80.217 62.73C79.605 62.73 79.095 62.448 78.687 61.884C78.279 61.32 78.075 60.606 78.075 59.742C78.075 58.866 78.279 57.96 78.687 57.024ZM105.012 53.802C105.372 53.802 105.69 54.054 105.966 54.558C106.254 55.05 106.398 55.614 106.398 56.25C106.398 56.874 106.284 57.69 106.056 58.698C105.84 59.706 105.546 60.63 105.174 61.47C104.802 62.31 104.436 62.73 104.076 62.73C103.824 62.73 103.698 62.568 103.698 62.244C103.698 61.908 103.902 61.098 104.31 59.814C104.73 58.518 104.94 57.492 104.94 56.736C104.94 55.968 104.82 55.584 104.58 55.584C104.28 55.584 103.932 55.848 103.536 56.376C103.152 56.904 102.738 57.54 102.294 58.284C101.85 59.028 101.61 59.43 101.574 59.49C101.538 59.538 101.49 59.61 101.43 59.706C101.382 59.802 101.322 59.904 101.25 60.012C101.19 60.12 101.022 60.444 100.746 60.984C100.482 61.524 100.248 61.95 100.044 62.262C99.8399 62.562 99.6599 62.712 99.5039 62.712C99.3599 62.712 99.1979 62.616 99.0179 62.424C98.8379 62.232 98.7479 62.052 98.7479 61.884C98.7479 61.716 98.8559 61.368 99.0719 60.84C99.6959 59.28 100.008 57.828 100.008 56.484C100.008 56.232 99.9539 56.022 99.8459 55.854C99.7379 55.674 99.6179 55.584 99.4859 55.584C99.3539 55.584 99.2159 55.644 99.0719 55.764C98.9279 55.872 98.7479 56.076 98.5319 56.376C98.3159 56.664 98.1239 56.94 97.9559 57.204C97.7879 57.468 97.5299 57.882 97.1819 58.446C96.8459 58.998 96.5879 59.412 96.4079 59.688C96.2399 59.952 96.0419 60.264 95.8139 60.624C95.5859 60.972 95.4059 61.242 95.2739 61.434C95.1539 61.626 95.0159 61.836 94.8599 62.064C94.5359 62.508 94.2959 62.73 94.1399 62.73C93.9959 62.73 93.8039 62.598 93.5639 62.334C93.3239 62.058 93.2039 61.854 93.2039 61.722C93.2039 61.578 93.2279 61.404 93.2759 61.2C93.3239 60.996 93.3719 60.798 93.4199 60.606C93.4799 60.414 93.5639 60.132 93.6719 59.76C93.7919 59.376 93.9239 58.932 94.0679 58.428C94.2239 57.912 94.3379 57.21 94.4099 56.322C94.4939 55.422 94.5539 54.768 94.5899 54.36C94.6259 53.94 94.7279 53.73 94.8959 53.73C95.1599 53.73 95.4179 53.868 95.6699 54.144C95.9339 54.42 96.0659 54.696 96.0659 54.972C96.0659 56.028 95.6699 57.768 94.8779 60.192C96.2219 57.672 97.0679 56.178 97.4159 55.71C97.7639 55.242 98.0639 54.864 98.3159 54.576C98.7839 54.06 99.2579 53.802 99.7379 53.802C100.026 53.802 100.368 54.054 100.764 54.558C101.172 55.05 101.376 55.548 101.376 56.052C101.376 56.556 101.304 57.18 101.16 57.924C102.576 55.176 103.86 53.802 105.012 53.802ZM112.48 53.802C113.02 53.802 113.518 54.078 113.974 54.63C114.43 55.17 114.658 55.662 114.658 56.106C114.658 56.538 114.508 56.982 114.208 57.438C114.352 57.618 114.424 57.774 114.424 57.906C114.424 58.242 114.346 58.818 114.19 59.634C114.046 60.45 113.956 60.984 113.92 61.236C113.896 61.488 113.872 61.692 113.848 61.848C113.824 61.992 113.794 62.136 113.758 62.28C113.71 62.58 113.602 62.73 113.434 62.73C113.218 62.73 113.038 62.544 112.894 62.172C112.762 61.788 112.684 61.296 112.66 60.696C111.592 62.052 110.602 62.73 109.69 62.73C109.138 62.73 108.592 62.496 108.052 62.028C107.524 61.548 107.26 61.056 107.26 60.552C107.26 59.832 107.524 58.944 108.052 57.888C108.58 56.82 109.264 55.872 110.104 55.044C110.944 54.216 111.736 53.802 112.48 53.802ZM113.308 56.97C113.308 55.854 113.086 55.296 112.642 55.296C112.174 55.296 111.628 55.632 111.004 56.304C110.38 56.964 109.852 57.714 109.42 58.554C108.988 59.394 108.772 60.06 108.772 60.552C108.772 60.756 108.856 60.924 109.024 61.056C109.192 61.176 109.39 61.236 109.618 61.236C110.182 61.236 110.818 60.858 111.526 60.102C112.234 59.334 112.726 58.404 113.002 57.312C113.038 57.132 113.14 57.024 113.308 56.988V56.97ZM118.434 51.246C118.434 51.006 118.53 50.778 118.722 50.562C118.914 50.346 119.106 50.238 119.298 50.238C119.502 50.238 119.742 50.484 120.018 50.976C120.294 51.456 120.432 51.858 120.432 52.182C120.432 52.302 120.378 52.41 120.27 52.506C120.162 52.602 120.048 52.65 119.928 52.65C119.64 52.65 119.316 52.476 118.956 52.128C118.608 51.78 118.434 51.486 118.434 51.246ZM118.344 53.802C118.572 53.802 118.788 53.94 118.992 54.216C119.196 54.492 119.298 54.762 119.298 55.026C119.298 55.29 119.124 56.082 118.776 57.402C118.428 58.71 117.99 60.18 117.462 61.812C117.258 62.412 117 62.712 116.688 62.712C116.52 62.712 116.376 62.646 116.256 62.514C116.136 62.37 116.076 62.214 116.076 62.046C116.076 61.866 116.118 61.59 116.202 61.218C116.298 60.834 116.43 60.33 116.598 59.706C116.778 59.07 116.916 58.554 117.012 58.158C117.12 57.762 117.228 57.318 117.336 56.826C117.444 56.322 117.528 55.92 117.588 55.62C117.66 55.308 117.738 54.996 117.822 54.684C117.99 54.096 118.164 53.802 118.344 53.802ZM125.567 53.802C125.975 53.802 126.359 54.03 126.719 54.486C127.079 54.93 127.259 55.32 127.259 55.656C127.259 55.86 127.163 55.962 126.971 55.962C126.839 55.962 126.635 55.86 126.359 55.656C126.083 55.44 125.801 55.332 125.513 55.332C125.225 55.332 124.769 55.5 124.145 55.836C123.533 56.172 123.227 56.526 123.227 56.898C123.227 57.174 123.779 57.648 124.883 58.32C125.303 58.584 125.681 58.926 126.017 59.346C126.365 59.754 126.539 60.198 126.539 60.678C126.539 61.146 126.209 61.608 125.549 62.064C124.901 62.508 124.139 62.73 123.263 62.73C122.399 62.73 121.631 62.52 120.959 62.1C120.299 61.68 119.969 61.284 119.969 60.912C119.969 60.756 120.005 60.636 120.077 60.552C120.161 60.456 120.263 60.408 120.383 60.408C120.503 60.408 120.671 60.486 120.887 60.642C121.535 61.11 122.207 61.344 122.903 61.344C123.611 61.344 124.121 61.266 124.433 61.11C124.745 60.942 124.901 60.726 124.901 60.462C124.901 60.186 124.727 59.898 124.379 59.598C124.031 59.286 123.647 59.01 123.227 58.77C122.819 58.53 122.441 58.236 122.093 57.888C121.745 57.54 121.571 57.186 121.571 56.826C121.571 56.19 122.069 55.53 123.065 54.846C124.073 54.15 124.907 53.802 125.567 53.802ZM141.517 53.802C141.721 53.802 141.919 53.88 142.111 54.036C142.303 54.18 142.399 54.342 142.399 54.522C142.399 54.846 141.961 55.968 141.085 57.888C140.221 59.808 139.603 61.104 139.231 61.776C138.871 62.436 138.553 62.766 138.277 62.766C138.121 62.766 137.929 62.652 137.701 62.424C137.473 62.196 137.305 61.95 137.197 61.686C136.873 60.93 136.525 59.712 136.153 58.032C135.781 56.352 135.595 55.122 135.595 54.342C135.595 53.982 135.703 53.802 135.919 53.802C136.183 53.802 136.453 53.916 136.729 54.144C137.005 54.36 137.197 54.636 137.305 54.972C137.341 55.164 137.389 55.644 137.449 56.412C137.617 58.308 137.905 59.766 138.313 60.786C138.637 60.09 139.051 59.106 139.555 57.834C140.059 56.55 140.467 55.56 140.779 54.864C141.103 54.156 141.349 53.802 141.517 53.802ZM147.689 53.802C148.229 53.802 148.727 54.078 149.183 54.63C149.639 55.17 149.867 55.662 149.867 56.106C149.867 56.538 149.717 56.982 149.417 57.438C149.561 57.618 149.633 57.774 149.633 57.906C149.633 58.242 149.555 58.818 149.399 59.634C149.255 60.45 149.165 60.984 149.129 61.236C149.105 61.488 149.081 61.692 149.057 61.848C149.033 61.992 149.003 62.136 148.967 62.28C148.919 62.58 148.811 62.73 148.643 62.73C148.427 62.73 148.247 62.544 148.103 62.172C147.971 61.788 147.893 61.296 147.869 60.696C146.801 62.052 145.811 62.73 144.899 62.73C144.347 62.73 143.801 62.496 143.261 62.028C142.733 61.548 142.469 61.056 142.469 60.552C142.469 59.832 142.733 58.944 143.261 57.888C143.789 56.82 144.473 55.872 145.313 55.044C146.153 54.216 146.945 53.802 147.689 53.802ZM148.517 56.97C148.517 55.854 148.295 55.296 147.851 55.296C147.383 55.296 146.837 55.632 146.213 56.304C145.589 56.964 145.061 57.714 144.629 58.554C144.197 59.394 143.981 60.06 143.981 60.552C143.981 60.756 144.065 60.924 144.233 61.056C144.401 61.176 144.599 61.236 144.827 61.236C145.391 61.236 146.027 60.858 146.735 60.102C147.443 59.334 147.935 58.404 148.211 57.312C148.247 57.132 148.349 57.024 148.517 56.988V56.97ZM154.885 50.274C154.885 52.53 154.417 55.458 153.481 59.058C152.881 61.506 152.461 62.73 152.221 62.73C152.053 62.73 151.855 62.598 151.627 62.334C151.411 62.07 151.303 61.866 151.303 61.722C151.303 61.578 151.477 60.834 151.825 59.49C152.173 58.146 152.521 56.496 152.869 54.54C153.217 52.572 153.391 50.802 153.391 49.23C153.391 49.062 153.415 48.942 153.463 48.87C153.511 48.798 153.613 48.762 153.769 48.762C153.925 48.762 154.147 48.936 154.435 49.284C154.735 49.62 154.885 49.95 154.885 50.274ZM161.187 56.862C161.187 56.454 161.121 56.07 160.989 55.71C160.857 55.338 160.665 55.068 160.413 54.9C159.585 55.128 158.871 55.77 158.271 56.826C157.683 57.87 157.389 58.854 157.389 59.778C157.389 60.702 157.617 61.278 158.073 61.506C158.937 61.338 159.669 60.75 160.269 59.742C160.881 58.722 161.187 57.762 161.187 56.862ZM156.453 57.024C156.873 56.088 157.419 55.32 158.091 54.72C158.775 54.108 159.471 53.802 160.179 53.802C160.899 53.802 161.499 54.108 161.979 54.72C162.459 55.32 162.699 56.058 162.699 56.934C162.699 57.798 162.489 58.686 162.069 59.598C161.649 60.498 161.067 61.248 160.323 61.848C159.591 62.436 158.811 62.73 157.983 62.73C157.371 62.73 156.861 62.448 156.453 61.884C156.045 61.32 155.841 60.606 155.841 59.742C155.841 58.866 156.045 57.96 156.453 57.024ZM164.987 55.998L164.933 54.648C164.933 54.084 165.065 53.802 165.329 53.802C165.557 53.802 165.773 53.952 165.977 54.252C166.193 54.54 166.301 54.888 166.301 55.296C166.301 55.692 166.289 55.992 166.265 56.196C167.309 54.612 168.299 53.82 169.235 53.82C169.823 53.82 170.117 53.964 170.117 54.252C170.117 54.396 170.051 54.528 169.919 54.648C169.787 54.768 169.577 54.906 169.289 55.062C168.653 55.338 168.113 55.764 167.669 56.34C167.237 56.904 166.883 57.546 166.607 58.266C166.331 58.986 166.109 59.592 165.941 60.084C165.785 60.576 165.665 60.96 165.581 61.236C165.497 61.512 165.401 61.782 165.293 62.046C165.101 62.526 164.879 62.766 164.627 62.766C164.423 62.766 164.255 62.652 164.123 62.424C164.003 62.184 163.943 61.956 163.943 61.74C163.943 61.512 164.045 61.068 164.249 60.408C164.741 58.896 164.987 57.426 164.987 55.998ZM182.976 53.748C183.492 53.748 183.936 54.078 184.308 54.738C184.692 55.398 184.884 56.082 184.884 56.79C184.884 57.486 184.68 58.188 184.272 58.896C183.864 59.592 183.36 60.216 182.76 60.768C182.16 61.32 181.494 61.782 180.762 62.154C180.042 62.514 179.376 62.694 178.764 62.694C178.524 62.694 178.296 62.664 178.08 62.604C178.032 62.808 177.948 63.174 177.828 63.702C177.708 64.23 177.606 64.668 177.522 65.016C177.438 65.364 177.342 65.736 177.234 66.132C177.018 66.948 176.826 67.356 176.658 67.356C176.49 67.356 176.316 67.224 176.136 66.96C175.944 66.708 175.848 66.48 175.848 66.276C175.848 66.072 176.04 65.196 176.424 63.648C177.576 58.98 178.152 55.836 178.152 54.216C178.152 53.856 178.284 53.676 178.548 53.676C178.764 53.676 179.022 53.838 179.322 54.162C179.634 54.474 179.79 54.822 179.79 55.206C179.79 55.398 179.766 55.608 179.718 55.836C180.786 54.444 181.872 53.748 182.976 53.748ZM178.584 61.29C179.22 61.29 179.904 61.074 180.636 60.642C181.38 60.21 182.01 59.64 182.526 58.932C183.054 58.212 183.318 57.498 183.318 56.79C183.318 55.794 183.084 55.296 182.616 55.296C182.148 55.296 181.512 55.698 180.708 56.502C179.916 57.306 179.286 58.35 178.818 59.634L178.404 61.29H178.584ZM190.474 53.802C191.014 53.802 191.512 54.078 191.968 54.63C192.424 55.17 192.652 55.662 192.652 56.106C192.652 56.538 192.502 56.982 192.202 57.438C192.346 57.618 192.418 57.774 192.418 57.906C192.418 58.242 192.34 58.818 192.184 59.634C192.04 60.45 191.95 60.984 191.914 61.236C191.89 61.488 191.866 61.692 191.842 61.848C191.818 61.992 191.788 62.136 191.752 62.28C191.704 62.58 191.596 62.73 191.428 62.73C191.212 62.73 191.032 62.544 190.888 62.172C190.756 61.788 190.678 61.296 190.654 60.696C189.586 62.052 188.596 62.73 187.684 62.73C187.132 62.73 186.586 62.496 186.046 62.028C185.518 61.548 185.254 61.056 185.254 60.552C185.254 59.832 185.518 58.944 186.046 57.888C186.574 56.82 187.258 55.872 188.098 55.044C188.938 54.216 189.73 53.802 190.474 53.802ZM191.302 56.97C191.302 55.854 191.08 55.296 190.636 55.296C190.168 55.296 189.622 55.632 188.998 56.304C188.374 56.964 187.846 57.714 187.414 58.554C186.982 59.394 186.766 60.06 186.766 60.552C186.766 60.756 186.85 60.924 187.018 61.056C187.186 61.176 187.384 61.236 187.612 61.236C188.176 61.236 188.812 60.858 189.52 60.102C190.228 59.334 190.72 58.404 190.996 57.312C191.032 57.132 191.134 57.024 191.302 56.988V56.97ZM195.204 55.998L195.15 54.648C195.15 54.084 195.282 53.802 195.546 53.802C195.774 53.802 195.99 53.952 196.194 54.252C196.41 54.54 196.518 54.888 196.518 55.296C196.518 55.692 196.506 55.992 196.482 56.196C197.526 54.612 198.516 53.82 199.452 53.82C200.04 53.82 200.334 53.964 200.334 54.252C200.334 54.396 200.268 54.528 200.136 54.648C200.004 54.768 199.794 54.906 199.506 55.062C198.87 55.338 198.33 55.764 197.886 56.34C197.454 56.904 197.1 57.546 196.824 58.266C196.548 58.986 196.326 59.592 196.158 60.084C196.002 60.576 195.882 60.96 195.798 61.236C195.714 61.512 195.618 61.782 195.51 62.046C195.318 62.526 195.096 62.766 194.844 62.766C194.64 62.766 194.472 62.652 194.34 62.424C194.22 62.184 194.16 61.956 194.16 61.74C194.16 61.512 194.262 61.068 194.466 60.408C194.958 58.896 195.204 57.426 195.204 55.998ZM204.871 53.802C205.411 53.802 205.909 54.078 206.365 54.63C206.821 55.17 207.049 55.662 207.049 56.106C207.049 56.538 206.899 56.982 206.599 57.438C206.743 57.618 206.815 57.774 206.815 57.906C206.815 58.242 206.737 58.818 206.581 59.634C206.437 60.45 206.347 60.984 206.311 61.236C206.287 61.488 206.263 61.692 206.239 61.848C206.215 61.992 206.185 62.136 206.149 62.28C206.101 62.58 205.993 62.73 205.825 62.73C205.609 62.73 205.429 62.544 205.285 62.172C205.153 61.788 205.075 61.296 205.051 60.696C203.983 62.052 202.993 62.73 202.081 62.73C201.529 62.73 200.983 62.496 200.443 62.028C199.915 61.548 199.651 61.056 199.651 60.552C199.651 59.832 199.915 58.944 200.443 57.888C200.971 56.82 201.655 55.872 202.495 55.044C203.335 54.216 204.127 53.802 204.871 53.802ZM205.699 56.97C205.699 55.854 205.477 55.296 205.033 55.296C204.565 55.296 204.019 55.632 203.395 56.304C202.771 56.964 202.243 57.714 201.811 58.554C201.379 59.394 201.163 60.06 201.163 60.552C201.163 60.756 201.247 60.924 201.415 61.056C201.583 61.176 201.781 61.236 202.009 61.236C202.573 61.236 203.209 60.858 203.917 60.102C204.625 59.334 205.117 58.404 205.393 57.312C205.429 57.132 205.531 57.024 205.699 56.988V56.97ZM221.955 53.802C222.159 53.802 222.357 53.88 222.549 54.036C222.741 54.18 222.837 54.342 222.837 54.522C222.837 54.846 222.399 55.968 221.523 57.888C220.659 59.808 220.041 61.104 219.669 61.776C219.309 62.436 218.991 62.766 218.715 62.766C218.559 62.766 218.367 62.652 218.139 62.424C217.911 62.196 217.743 61.95 217.635 61.686C217.311 60.93 216.963 59.712 216.591 58.032C216.219 56.352 216.033 55.122 216.033 54.342C216.033 53.982 216.141 53.802 216.357 53.802C216.621 53.802 216.891 53.916 217.167 54.144C217.443 54.36 217.635 54.636 217.743 54.972C217.779 55.164 217.827 55.644 217.887 56.412C218.055 58.308 218.343 59.766 218.751 60.786C219.075 60.09 219.489 59.106 219.993 57.834C220.497 56.55 220.905 55.56 221.217 54.864C221.541 54.156 221.787 53.802 221.955 53.802ZM228.775 56.862C228.775 56.454 228.709 56.07 228.577 55.71C228.445 55.338 228.253 55.068 228.001 54.9C227.173 55.128 226.459 55.77 225.859 56.826C225.271 57.87 224.977 58.854 224.977 59.778C224.977 60.702 225.205 61.278 225.661 61.506C226.525 61.338 227.257 60.75 227.857 59.742C228.469 58.722 228.775 57.762 228.775 56.862ZM224.041 57.024C224.461 56.088 225.007 55.32 225.679 54.72C226.363 54.108 227.059 53.802 227.767 53.802C228.487 53.802 229.087 54.108 229.567 54.72C230.047 55.32 230.287 56.058 230.287 56.934C230.287 57.798 230.077 58.686 229.657 59.598C229.237 60.498 228.655 61.248 227.911 61.848C227.179 62.436 226.399 62.73 225.571 62.73C224.959 62.73 224.449 62.448 224.041 61.884C223.633 61.32 223.429 60.606 223.429 59.742C223.429 58.866 223.633 57.96 224.041 57.024ZM234.393 62.73C233.697 62.73 233.043 62.46 232.431 61.92C231.819 61.368 231.513 60.72 231.513 59.976C231.513 59.22 231.765 58.35 232.269 57.366C232.773 56.382 233.421 55.542 234.213 54.846C235.017 54.15 235.797 53.802 236.553 53.802C237.045 53.802 237.477 54.024 237.849 54.468C238.221 54.912 238.407 55.302 238.407 55.638C238.407 55.734 238.377 55.818 238.317 55.89C238.257 55.95 238.167 55.98 238.047 55.98C237.939 55.98 237.741 55.872 237.453 55.656C237.165 55.44 236.907 55.332 236.679 55.332C236.031 55.332 235.275 55.902 234.411 57.042C233.547 58.182 233.115 59.178 233.115 60.03C233.115 60.402 233.229 60.696 233.457 60.912C233.697 61.128 234.075 61.236 234.591 61.236C235.119 61.236 235.599 61.176 236.031 61.056C236.475 60.924 236.817 60.798 237.057 60.678C237.297 60.546 237.483 60.48 237.615 60.48C237.843 60.48 237.957 60.594 237.957 60.822C237.957 61.17 237.537 61.578 236.697 62.046C235.869 62.502 235.101 62.73 234.393 62.73ZM246.8 51.912C246.908 52.044 246.98 52.164 247.016 52.272C247.064 52.38 247.088 52.482 247.088 52.578C247.088 52.662 247.046 52.74 246.962 52.812C246.878 52.884 246.752 52.92 246.584 52.92C246.428 52.92 246.212 52.806 245.936 52.578C245.66 52.35 245.444 52.14 245.288 51.948C245.132 51.756 244.898 51.462 244.586 51.066C244.25 51.246 243.896 51.48 243.524 51.768C243.164 52.044 242.864 52.266 242.624 52.434C242.396 52.602 242.198 52.686 242.03 52.686C241.862 52.686 241.718 52.632 241.598 52.524C241.49 52.416 241.436 52.254 241.436 52.038C241.436 51.822 241.532 51.612 241.724 51.408C241.916 51.192 242.156 51 242.444 50.832C242.744 50.664 242.99 50.52 243.182 50.4C243.374 50.28 243.53 50.184 243.65 50.112C243.77 50.04 243.896 49.968 244.028 49.896C244.316 49.752 244.514 49.68 244.622 49.68C244.742 49.68 244.85 49.71 244.946 49.77C245.054 49.83 245.138 49.896 245.198 49.968C245.294 50.088 245.432 50.268 245.612 50.508C245.804 50.736 245.984 50.946 246.152 51.138C246.332 51.33 246.458 51.474 246.53 51.57C246.602 51.654 246.692 51.768 246.8 51.912ZM239.906 57.114C240.362 56.178 240.95 55.392 241.67 54.756C242.402 54.12 243.122 53.802 243.83 53.802C244.538 53.802 245.18 54.138 245.756 54.81C246.344 55.482 246.638 56.142 246.638 56.79C246.638 57.426 246.29 57.948 245.594 58.356C244.898 58.752 244.112 58.95 243.236 58.95C242.372 58.95 241.592 58.854 240.896 58.662C240.728 59.19 240.644 59.664 240.644 60.084C240.644 60.492 240.77 60.81 241.022 61.038C241.286 61.266 241.712 61.38 242.3 61.38C242.888 61.38 243.494 61.278 244.118 61.074C244.754 60.858 245.102 60.75 245.162 60.75C245.474 60.75 245.63 60.87 245.63 61.11C245.63 61.434 245.264 61.788 244.532 62.172C243.812 62.544 243.104 62.73 242.408 62.73C241.472 62.73 240.704 62.454 240.104 61.902C239.516 61.338 239.222 60.63 239.222 59.778C239.222 58.926 239.45 58.038 239.906 57.114ZM241.292 57.654C241.832 57.75 242.396 57.798 242.984 57.798C243.572 57.798 244.094 57.702 244.55 57.51C245.006 57.306 245.234 57.042 245.234 56.718C245.234 56.394 245.084 56.064 244.784 55.728C244.496 55.392 244.208 55.224 243.92 55.224C243.464 55.224 242.996 55.458 242.516 55.926C242.048 56.382 241.64 56.958 241.292 57.654ZM248.375 60.804C248.579 60.552 248.783 60.426 248.987 60.426C249.191 60.426 249.437 60.72 249.725 61.308C250.013 61.884 250.157 62.316 250.157 62.604C250.157 62.688 250.097 62.784 249.977 62.892C249.857 63 249.743 63.054 249.635 63.054C249.335 63.054 248.999 62.868 248.627 62.496C248.255 62.112 248.069 61.8 248.069 61.56C248.069 61.308 248.171 61.056 248.375 60.804ZM250.697 48.42C250.925 48.42 251.237 48.564 251.633 48.852C252.029 49.14 252.227 49.368 252.227 49.536C252.227 50.556 251.963 52.35 251.435 54.918C250.919 57.486 250.505 58.77 250.193 58.77C250.001 58.77 249.821 58.674 249.653 58.482C249.485 58.278 249.401 58.068 249.401 57.852C249.389 57.78 249.461 57.348 249.617 56.556C249.785 55.764 249.959 54.654 250.139 53.226C250.319 51.786 250.409 50.34 250.409 48.888C250.409 48.576 250.505 48.42 250.697 48.42Z" fill="white"/>
</svg>
