<svg width="233" height="54" viewBox="0 0 233 54" fill="none" xmlns="http://www.w3.org/2000/svg">
<path fill-rule="evenodd" clip-rule="evenodd" d="M29.675 4.54941L28.2237 4.35492L27.8684 2.61961C26.7271 2.5228 25.5762 2.52902 24.4172 2.61961L24.1107 4.37091L22.6434 4.5654L21.853 2.95974C20.7286 3.16844 19.6211 3.47128 18.5304 3.86825L18.6757 5.61956L17.32 6.19237L16.1292 4.86202C15.0482 5.37711 14.0718 5.96591 13.1601 6.6L13.7643 8.25006L12.5956 9.16035L11.1248 8.1728C10.2219 8.95076 9.42094 9.77046 8.68819 10.6177L9.69828 12.0688L8.79806 13.2331L7.10749 12.6647C6.45182 13.6461 5.88121 14.6452 5.39477 15.6611L6.73889 16.7979L6.1736 18.1664L4.40063 18.0563C4.01077 19.1415 3.72546 20.2472 3.50572 21.3671L5.10858 22.1282L4.91099 23.5962L3.17081 23.9603C3.0822 25.1166 3.0946 26.264 3.17612 27.4034L4.91631 27.7124L5.10858 29.1805L3.51105 29.9806C3.7361 31.1147 4.03381 32.2248 4.41127 33.3083L6.17271 33.1484L6.74333 34.517L5.38503 35.7141C5.92108 36.7354 6.50587 37.7247 7.14382 38.6776L8.8016 38.0871L9.69119 39.2575L8.72541 40.7478C9.47677 41.6074 10.2866 42.4182 11.1567 43.1758L12.6001 42.166L13.7688 43.0763L13.2088 44.7592C14.156 45.404 15.151 45.9724 16.1832 46.4803L17.3191 45.134L18.6801 45.7024L18.5817 47.4741C19.653 47.8569 20.7579 48.1553 21.8964 48.3675L22.6478 46.7672L24.1133 46.9599L24.4704 48.6979C25.6072 48.792 26.7528 48.792 27.9065 48.6979L28.2192 46.9599L29.6847 46.761L30.4804 48.3506C31.5853 48.1668 32.6902 47.8622 33.7951 47.4563L33.6471 45.6908L35.0081 45.1331L36.1989 46.4626C37.2126 45.9706 38.2005 45.3924 39.1627 44.7299L38.57 43.0639L39.728 42.1642L41.2095 43.1465C42.0628 42.4067 42.8726 41.5897 43.6408 40.6962L42.636 39.2451L43.5309 38.0862L45.2162 38.6545C45.8249 37.7336 46.3991 36.7372 46.9395 35.6635L45.5892 34.5214L46.1598 33.1582L47.9381 33.263C48.3005 32.2053 48.5947 31.0961 48.8215 29.9353L47.2257 29.1849L47.4224 27.7036L49.1511 27.3474C49.2388 26.2018 49.2503 25.0562 49.1511 23.9106L47.4127 23.6042L47.2257 22.1424L48.8171 21.3324C48.592 20.1877 48.2978 19.0705 47.9036 17.9941L46.1554 18.162L45.6149 16.7988L46.9112 15.6132C46.4079 14.5732 45.8284 13.575 45.1728 12.6212L43.5327 13.234L42.6289 12.0484L43.6116 10.5671C42.8336 9.67722 42.0211 8.86373 41.1758 8.12751L39.7316 9.14437L38.5531 8.24562L39.1131 6.55648C38.1571 5.90907 37.17 5.33182 36.1467 4.83804L35.0169 6.18171L33.6418 5.61867L33.7499 3.84072C32.6822 3.4473 31.572 3.14802 30.4202 2.94198L29.675 4.54941ZM26.1946 7.36375C36.2503 7.36375 44.4055 15.5945 44.4055 25.6743C44.4055 35.7541 36.2503 43.9564 26.1946 43.9564C16.138 43.9564 7.92619 35.7541 7.92619 25.6743C7.92619 15.5945 16.138 7.36375 26.1946 7.36375ZM20.166 40.0035V40.9938V41.5559V42.2726L20.1385 42.2637L19.3375 41.9476L18.556 41.5932L17.7949 41.2025L17.056 40.7771L16.34 40.317L15.6472 39.8241L14.98 39.2993L14.3385 38.7433L13.7245 38.1581L13.1388 37.5444L12.5832 36.9032L12.0587 36.2354L11.5652 35.5427L11.1053 34.826L10.6791 34.0862L10.2884 33.3251L9.93397 32.5436L9.61677 31.7426L9.33855 30.922L9.1002 30.0845L8.90261 29.2311L8.74667 28.3625L8.63414 27.4798L8.56591 26.5837L8.54288 25.6761L8.56591 24.7684L8.63414 23.8724L8.74667 22.9896L8.90261 22.1202L9.1002 21.2658L9.33855 20.4275L9.61677 19.6069L9.93397 18.805L10.2884 18.0217L10.6791 17.2588L11.1053 16.5181L11.5661 15.7997L12.0587 15.1061L12.5832 14.4374L13.1397 13.7944L13.7253 13.1789L14.3394 12.5919L14.9809 12.0351L15.6489 11.5084L16.3418 11.0147L17.0578 10.5538L17.7967 10.1266L18.5578 9.73494L19.3393 9.37971L20.1403 9.06177L20.959 8.78291L21.7954 8.54402L22.6478 8.34598L23.5152 8.18967L24.396 8.07689L25.29 8.0085L26.1955 7.98541L27.101 8.0085L27.9942 8.07689L28.8749 8.18967L29.7406 8.34598L30.5912 8.54402L31.4258 8.78291L32.2428 9.06177L33.0411 9.37971L33.8199 9.73494L34.5784 10.1266L35.3147 10.5538L36.0288 11.0147L36.719 11.5084L37.3836 12.0342L38.0224 12.591L38.6338 13.1772L39.2168 13.7926L39.7697 14.4356L40.2924 15.1043L40.7833 15.7988L41.2414 16.5164L41.6649 17.257L42.0539 18.0199L42.4065 18.8032L42.722 19.606L42.9984 20.4266L43.2359 21.2649L43.4326 22.1193L43.5876 22.9887L43.6993 23.8724L43.7675 24.7684L43.7905 25.677L43.7675 26.5855L43.6993 27.4815L43.5876 28.3643L43.4326 29.2328L43.2359 30.0863L42.9984 30.9238L42.722 31.7435L42.4074 32.5454L42.0548 33.3269L41.6658 34.088L41.2423 34.8278L40.7842 35.5445L40.2933 36.2372L39.7706 36.905L39.2177 37.5462L38.6347 38.1599L38.0233 38.7451L37.3845 39.3011L36.7199 39.8259L36.0297 40.3188L35.3155 40.7788L34.5792 41.2042L33.8208 41.595L33.042 41.9493L32.3367 42.2282V41.5577V40.9955V39.9902L35.4892 38.5497C35.6416 38.429 35.6903 38.2389 35.5902 37.9485L35.4892 37.6004V35.1954C35.4972 34.9015 35.359 34.7523 35.0754 34.7496H33.8332C33.3317 34.7496 33.2183 34.453 33.5949 33.985C34.216 32.4601 33.7969 30.8927 32.3376 29.2826C32.0452 29.1574 31.8334 28.9131 31.7962 28.406C31.7377 27.7835 31.5162 27.3137 31.1591 26.9718C31.1503 26.4727 31.0351 25.8066 30.6904 25.7409L30.7232 25.55L30.5921 25.3057C30.6443 25.0375 30.6275 24.796 30.5398 24.5811C31.0147 24.296 31.4418 23.9336 31.829 23.5074C31.7891 23.7622 31.8042 24.0002 31.8556 24.2249C31.9158 24.5597 32.0443 24.8484 32.1391 25.161C32.4262 25.6254 32.3872 26.2835 32.2312 27.0117C32.1781 27.6814 32.2977 28.2444 32.6264 28.6778C33.1536 29.3057 33.8545 29.6875 34.5252 29.5002C34.247 28.6671 34.4153 27.573 34.6209 26.6601L34.7219 26.01L34.6865 24.0917C34.7122 23.7765 34.7697 23.4585 34.9416 23.1326L35.2287 22.2498C37.9914 11.4827 26.2549 6.94014 20.9262 12.5102C21.8796 12.7278 22.7187 13.0049 23.2459 13.734C23.5471 14.1496 23.3673 14.4098 22.9739 14.2846C22.8826 14.2553 22.4059 14.1345 21.9248 14.0652C21.7192 14.02 21.4756 13.964 21.2727 13.9649L21.1849 13.9693L21.1034 13.9782L21.0281 13.9915L20.9599 14.0111L20.8987 14.0368L20.8465 14.0706L20.8048 14.1141L20.7774 14.1665L20.7667 14.2269L20.7729 14.2926L20.7951 14.3628L20.8305 14.4338C20.858 14.4977 20.8828 14.5626 20.9067 14.6283C20.9236 14.6762 20.9395 14.7251 20.9555 14.7739C20.9696 14.8228 20.9829 14.8707 20.9953 14.9196C21.0068 14.9675 21.0175 15.0164 21.0272 15.0643C21.0361 15.1123 21.0441 15.1603 21.0511 15.2091C21.0573 15.2571 21.0627 15.305 21.0671 15.353C21.0706 15.4009 21.0733 15.4489 21.0742 15.4959C21.0742 15.5439 21.0742 15.591 21.0724 15.6389C21.0697 15.6869 21.0662 15.734 21.0618 15.781C21.0547 15.8396 21.0467 15.8974 21.0361 15.956L20.7924 16.194C20.7694 16.2215 20.7481 16.2499 20.7277 16.2784C20.7082 16.3077 20.6887 16.337 20.671 16.3672C20.6542 16.3982 20.6374 16.4293 20.6223 16.4622C20.6081 16.495 20.5948 16.5288 20.5824 16.5634L20.5612 16.6345L20.5452 16.7091L20.5337 16.7872L20.5275 16.868L20.5257 16.9524L20.5293 17.0403L20.539 17.1318L20.5541 17.2277L20.5753 17.3272L20.6037 17.4338C20.6285 17.4897 20.6524 17.5456 20.6666 17.606C20.671 17.6309 20.6746 17.6549 20.6746 17.6806C20.6746 17.7082 20.6719 17.7339 20.6675 17.7606C20.6586 17.8041 20.6453 17.8449 20.6294 17.8867L20.5736 17.9604L20.5204 18.0403L20.4752 18.1202L20.4371 18.1993L20.4052 18.2783L20.3795 18.3574L20.36 18.4355L20.3459 18.5128L20.3361 18.59L20.3308 18.6664L20.3299 18.7428L20.3326 18.8183L20.3379 18.8929L20.3459 18.9675L20.3671 19.1149C20.3875 19.2348 20.4105 19.3556 20.4309 19.4763L20.4513 19.6184L20.4584 19.6886L20.4628 19.7588L20.4646 19.8289L20.4628 19.8991L20.4575 19.9683L20.4486 20.0385L20.4345 20.1078L20.4158 20.177L20.3919 20.2454C20.345 20.3369 20.2971 20.4275 20.2475 20.5181C20.189 20.622 20.1279 20.725 20.0659 20.8262C19.995 20.9399 19.9214 21.0527 19.847 21.1646C19.699 21.384 19.5466 21.6006 19.3969 21.8182C19.3889 21.8378 19.381 21.8573 19.3739 21.8768C19.3659 21.9017 19.3606 21.9257 19.3561 21.9514C19.3526 21.9763 19.3508 22.0003 19.3499 22.0252C19.3499 22.0491 19.3517 22.0722 19.3544 22.0962C19.3579 22.1193 19.3623 22.1415 19.3694 22.1646C19.3765 22.1859 19.3845 22.2072 19.3934 22.2276C19.4031 22.2481 19.4137 22.2658 19.4261 22.2845C19.4385 22.3022 19.4518 22.3182 19.4669 22.3342C19.4811 22.3475 19.4953 22.3608 19.5103 22.3733C19.6255 22.4736 19.7442 22.5704 19.8452 22.6859C19.8727 22.7179 19.8975 22.7507 19.9206 22.7862L19.9321 22.8076L19.9409 22.8315L19.948 22.8573L19.9533 22.8857L19.9595 22.9488V23.0189C19.9551 23.1255 19.9436 23.2321 19.9392 23.3395V23.423L19.9409 23.4638L19.9454 23.5047L19.9516 23.5456L19.9604 23.5855L19.9719 23.6246L19.987 23.6628L20.0047 23.7001L20.0269 23.7356L20.0526 23.7685L20.0836 23.7995L20.1181 23.828L20.1571 23.8537L20.174 23.8626C20.1465 23.8848 20.1226 23.9079 20.0978 23.9328L20.0623 23.9745L20.0331 24.018L20.01 24.0633L19.9941 24.1104L19.9843 24.1583L19.9817 24.2072L19.9852 24.2578L19.995 24.3084L20.0109 24.3599C20.0216 24.3866 20.0331 24.4123 20.0455 24.439C20.0605 24.4665 20.0756 24.4931 20.0924 24.5198C20.1075 24.5429 20.1243 24.566 20.1385 24.5891L20.1527 24.6228L20.1624 24.6645L20.1678 24.7143C20.1686 24.7427 20.1686 24.7711 20.1678 24.7995C20.166 24.8315 20.1624 24.8626 20.1589 24.8937C20.1492 24.9603 20.1359 25.026 20.1208 25.0917L20.104 25.1565C20.0774 25.2542 20.0473 25.351 20.0118 25.4461C20.003 25.4736 19.9959 25.5011 19.9888 25.5295C19.9835 25.5571 19.979 25.5837 19.9755 25.6112C19.9728 25.6379 19.9719 25.6645 19.9711 25.6921C19.9719 25.7187 19.9737 25.7444 19.9764 25.7711C19.9808 25.7968 19.9852 25.8217 19.9923 25.8475L20.0171 25.9221C20.0278 25.946 20.0393 25.97 20.0517 25.9931C20.0659 26.0162 20.08 26.0384 20.096 26.0606C20.1128 26.0828 20.1305 26.1032 20.15 26.1245C20.1704 26.145 20.1908 26.1645 20.2129 26.1841L20.2608 26.2222L20.3609 26.2826L20.4637 26.3377L20.57 26.3883L20.6808 26.4354L20.7951 26.478L20.9138 26.5162C20.9749 26.534 21.037 26.5508 21.099 26.5668C21.1637 26.5819 21.2283 26.5952 21.293 26.6086C21.3604 26.621 21.4286 26.6325 21.4959 26.6423C21.5668 26.6521 21.6368 26.661 21.7077 26.6681C21.7812 26.6752 21.8548 26.6814 21.9283 26.6867C22.0471 26.6938 22.2225 26.6991 22.3421 26.7018C22.3882 26.8004 22.4316 26.8972 22.4715 26.9949C22.5583 27.2187 22.6354 27.4593 22.7018 27.7151C22.7054 27.7284 22.708 27.7417 22.7116 27.7551C22.7993 28.0961 22.8693 28.4638 22.9242 28.8563C22.965 29.1467 22.8915 29.2995 22.7054 29.3137C21.5385 29.7115 20.5275 30.1867 19.7832 30.795C18.5853 31.7461 18.2397 32.8403 19.2658 34.1653C19.4811 34.5267 19.3632 34.7221 18.9131 34.7141L17.4334 34.6901C17.0923 34.6901 16.9302 34.8526 16.947 35.1777L17.0081 36.8473C16.9984 37.2052 16.9629 37.54 16.8557 37.8162C16.7051 38.1563 16.706 38.4307 16.9284 38.6084C16.9293 38.6084 20.166 40.0035 20.166 40.0035ZM29.0122 23.0003C29.0982 23.4585 29.1629 23.931 29.2036 24.4168L28.6915 24.6086C28.5976 24.0837 28.4806 23.574 28.3415 23.0829C28.4106 23.0971 28.4815 23.1042 28.555 23.1042C28.7181 23.1042 28.8731 23.0669 29.0122 23.0003ZM28.555 21.6797C28.75 21.6797 28.9095 21.8395 28.9095 22.0349C28.9095 22.2303 28.75 22.3902 28.555 22.3902C28.3601 22.3902 28.2006 22.2303 28.2006 22.0349C28.2006 21.8387 28.3601 21.6797 28.555 21.6797ZM28.555 21.2809C28.9688 21.2809 29.3064 21.6193 29.3064 22.034C29.3064 22.4488 28.9688 22.7871 28.555 22.7871C28.1413 22.7871 27.8037 22.4488 27.8037 22.034C27.8037 21.6193 28.1413 21.2809 28.555 21.2809ZM30.297 26.1734C30.499 25.5402 30.3998 25.2187 30.118 25.1041C29.7999 24.939 29.3941 25.4114 29.7166 25.6796C29.7849 25.5233 29.792 25.5189 29.9435 25.4567C30.1818 25.5491 30.1614 25.9309 30.1366 26.1388C28.3645 26.2462 27.9446 23.1868 27.9933 23.0411C27.179 24.5251 28.3521 26.7906 29.4969 27.0624C29.6582 25.8688 30.8499 26.2684 30.6151 26.8768C30.5167 27.3057 30.0587 27.1734 30.025 26.8617C29.916 26.9123 29.9036 26.9602 29.9009 27.105C30.8003 28.4771 31.3416 26.2666 30.297 26.1734ZM27.7301 26.0952C27.5015 25.1485 27.2588 24.32 26.6217 23.994C26.8379 21.899 24.7566 23.5225 26.2159 24.2862C26.1946 24.542 26.1353 24.9008 26.2079 25.2471C26.4365 26.3439 26.1149 26.8315 26.0511 27.0979C25.904 27.7151 25.9784 28.2506 26.1521 28.7488C26.2637 28.5543 26.3931 28.4948 26.5384 28.5712C26.5154 28.6902 26.588 29.1343 26.5836 29.1334C26.5216 29.8323 26.8902 30.8785 27.669 31.2177C27.7425 31.2452 27.7771 31.3198 27.7204 31.4246C27.537 31.6777 27.3545 31.9051 27.171 32.0445C26.8902 32.3225 26.744 32.6236 26.7333 32.9495C26.9194 32.9113 27.1108 32.7497 27.3066 32.4637C27.7797 32.3891 28.1235 31.9317 27.9481 31.4149C27.7115 31.0614 27.5006 30.6955 27.3412 30.3039C27.2783 30.0632 27.3314 29.9327 27.5007 29.9105C27.7532 30.5632 28.1377 31.1884 28.6552 31.7888C28.4319 32.2301 28.1351 32.5863 27.7789 32.8704C27.1888 33.2905 26.9309 33.7683 26.7936 34.2665L26.3559 34.4335C26.5154 34.7514 27.0195 34.7674 27.8692 34.4823C27.856 34.1546 28.0154 33.8402 28.3468 33.5383C28.6268 33.4202 28.8164 33.0854 28.9644 32.6537L29.0238 32.6928L28.7952 33.2825C28.5497 33.525 28.3832 33.7674 28.2972 34.0099C27.7611 34.8731 29.5031 34.763 29.8504 34.2949C29.2719 33.8305 29.0379 33.1884 29.2231 32.7212C29.4322 32.3669 29.4818 32.0525 29.372 31.7772C29.0619 31.2754 28.7509 30.8278 28.4399 30.4362C28.7296 30.6715 29.2072 30.8829 29.2568 31.3492C29.3498 31.5872 29.5049 31.7772 29.7503 31.8962C29.2054 32.3269 29.5749 33.9139 30.2509 34.0356C30.3191 33.8864 30.2536 33.7212 30.0542 33.5401C30.2057 33.469 30.3581 33.501 30.5105 33.6351C30.3838 34.9006 32.3597 35.4983 31.6881 33.5782C32.0204 33.7345 32.1409 33.5472 31.9096 33.3429L31.1875 32.8349C30.8481 32.6564 30.8623 32.2266 31.1689 31.5907L31.2451 31.5783C31.3062 32.3207 31.5401 32.771 31.9477 32.9308C31.8405 32.445 32.2968 32.3456 32.3783 32.8163L32.3092 33.826C32.2578 34.6582 32.8435 34.6937 32.8098 33.826L32.7531 33.1147C32.9472 32.8349 33.1022 32.6538 33.1713 32.6893L33.0127 33.2798C32.7265 34.0729 33.3955 34.0454 33.4814 32.8607C33.5169 31.9824 33.3104 31.2683 32.9055 30.6893C32.878 30.8572 32.9055 31.0552 33.0508 31.3181C33.2458 31.9548 32.6264 32.0729 32.5378 31.4069L32.5635 30.9442C32.4474 30.7017 32.3951 30.4531 32.4368 30.1946C32.2383 29.9584 32.1488 29.7009 32.1072 29.4327C32.1267 29.2373 31.9574 29.0215 31.6464 28.8572C31.3789 28.2195 31.0466 28.0215 30.6691 28.1245C30.5141 28.1476 30.4928 28.2169 30.6053 28.3341C31.2716 28.7044 31.7793 29.2719 32.0053 30.1938L32.0815 30.422C31.9193 30.5108 31.9193 30.6644 31.9929 30.8474C31.9061 30.9024 31.8104 30.9238 31.7085 30.9309C31.6145 30.8048 31.5844 30.6671 31.6464 30.5135C31.7235 29.9584 31.4586 29.6884 31.0643 29.4353L31.0191 29.5366C31.0767 29.6325 31.0829 29.6973 31.036 29.7328C31.1272 29.827 31.207 29.9344 31.2601 30.073C31.3089 30.1449 31.2956 30.192 31.2548 30.2275C31.3222 30.2888 31.4214 30.5854 31.5259 30.9318C31.5259 30.9318 31.5251 30.9318 31.5242 30.9318C31.6411 31.0126 31.7483 31.1458 31.8343 31.3367C31.8742 31.5703 32.0434 31.7284 32.272 31.8527C32.443 31.9903 32.536 32.1911 32.5502 32.4548C31.9929 32.4442 31.5472 31.7586 31.1574 30.9948C31.0431 30.7959 30.8747 30.636 30.5876 30.5632C30.2181 30.2586 30.5043 29.7213 30.9358 30.2097C31.1255 29.6076 30.5965 29.1263 29.5749 28.7293C29.6068 28.8581 29.7158 28.9744 29.9364 29.0721L29.9107 29.1671C29.3605 29.0366 28.8997 28.8243 28.6011 28.4726C27.7842 27.0055 29.7007 27.8297 30.1721 28.7346C30.3209 28.0046 29.5961 27.3235 28.7695 27.1379L27.8896 26.3732L27.8418 26.8652L27.6176 26.8812C27.8932 27.2879 28.0394 27.6938 27.9534 28.0996C27.9047 28.2622 27.8471 28.2746 27.7824 28.1378L27.5671 27.8332L27.5928 28.2204C27.2809 28.1902 27.1905 27.7933 27.2871 27.2906C26.9735 26.7578 27.0053 26.2489 27.3837 25.764L27.7301 26.0952ZM26.9354 29.2657C27.4245 29.335 27.8427 29.6245 28.1918 30.136C28.1005 30.0295 28.0092 29.9282 27.918 29.8305C27.7567 29.7275 27.5166 29.6813 27.2109 29.6831C27.2118 29.6831 26.9354 29.2657 26.9354 29.2657ZM21.8743 12.2207C27.7372 7.78293 37.3278 13.0111 34.7006 22.1486C34.4986 22.7818 34.0866 23.1601 34.2062 24.0749C34.5527 25.4167 33.182 27.3927 33.998 29.1653C32.8851 28.9371 32.3925 27.7915 32.6672 26.7968C32.8408 26.018 32.7735 25.4567 32.5298 24.9567C32.3225 24.1983 31.9114 23.7427 32.3863 23.0003C32.6238 22.9283 32.9534 22.8218 33.1811 22.9461C33.182 22.9461 33.182 22.947 33.1828 22.947L33.3007 23.0118L33.3716 22.8813L33.2528 22.8164C33.2519 22.8164 33.252 22.8164 33.2511 22.8155C33.0234 22.6903 32.9392 22.3555 32.8718 22.1166C32.8754 22.1086 32.8798 22.1006 32.8834 22.0926C33.1093 21.9905 33.4238 21.8404 33.6657 21.9346C33.6666 21.9346 33.6675 21.9346 33.6675 21.9355L33.7933 21.9843L33.8465 21.8458L33.7207 21.7969C33.7198 21.7969 33.7198 21.7969 33.7189 21.796C33.477 21.7019 33.3503 21.3831 33.2528 21.1548C33.2555 21.1459 33.2582 21.1371 33.2608 21.1282C33.4717 20.9976 33.7632 20.8094 34.0148 20.8715C34.0157 20.8715 34.0157 20.8715 34.0166 20.8724L34.1477 20.9044L34.1832 20.7605L34.052 20.7285C34.0512 20.7285 34.0512 20.7285 34.0503 20.7285C33.7969 20.6664 33.6294 20.3618 33.5027 20.1477C33.5036 20.1406 33.5054 20.1335 33.5063 20.1264C33.6959 19.9666 33.959 19.7357 34.2177 19.7605C34.2186 19.7605 34.2186 19.7605 34.2195 19.7605L34.3542 19.7739L34.3684 19.6264L34.2337 19.6131C34.2328 19.6131 34.2328 19.6131 34.2319 19.6131C33.9714 19.5882 33.7623 19.3103 33.6055 19.1167C33.6055 19.1096 33.6055 19.1016 33.6055 19.0945C33.7694 18.9071 33.9945 18.638 34.255 18.6238C34.2558 18.6238 34.2558 18.6238 34.2567 18.6238L34.3914 18.6158L34.3825 18.4675L34.2479 18.4755C34.247 18.4755 34.247 18.4755 34.2461 18.4755C33.9865 18.4906 33.7375 18.2499 33.5541 18.0829C33.5532 18.0732 33.5514 18.0634 33.5497 18.0536C33.6835 17.844 33.8651 17.5456 34.1203 17.4924C34.1212 17.4924 34.1212 17.4924 34.122 17.4924L34.2541 17.4648L34.2231 17.3201L34.091 17.3476C34.0902 17.3476 34.0901 17.3476 34.0893 17.3476C33.8332 17.4018 33.5497 17.1984 33.3423 17.0608C33.3414 17.0572 33.3397 17.0536 33.3388 17.0501C33.4389 16.8219 33.5718 16.4959 33.8172 16.4027C33.8181 16.4027 33.819 16.4027 33.819 16.4018L33.9448 16.3538L33.8917 16.2153L33.7659 16.2633C33.765 16.2633 33.765 16.2633 33.7641 16.2641C33.5178 16.3583 33.2032 16.1993 32.9773 16.0945C32.9764 16.0927 32.9764 16.091 32.9755 16.0901C33.0384 15.8485 33.1173 15.5031 33.3459 15.3716C33.3468 15.3716 33.3468 15.3707 33.3476 15.3707L33.4646 15.3032L33.3902 15.1745L33.2732 15.242C33.2723 15.242 33.2723 15.2428 33.2714 15.2428C33.0437 15.3743 32.7097 15.2686 32.4705 15.202C32.4696 15.2011 32.4696 15.2002 32.4687 15.1993C32.4935 14.9516 32.5201 14.5972 32.7256 14.432C32.7256 14.432 32.7265 14.4311 32.7274 14.4311L32.832 14.3468L32.7389 14.2313L32.6335 14.3157C32.6326 14.3157 32.6326 14.3166 32.6317 14.3166C32.4262 14.4826 32.0771 14.4276 31.8307 14.3983C31.8166 14.1496 31.7864 13.797 31.9636 13.6017C31.9636 13.6017 31.9645 13.6008 31.9654 13.5999L32.0558 13.4995L31.9459 13.4001L31.8556 13.5004C31.8556 13.5004 31.8547 13.5013 31.8547 13.5022C31.6783 13.6967 31.3301 13.6994 31.082 13.7091C31.0794 13.7065 31.0767 13.7047 31.0732 13.702C31.0218 13.4587 30.9412 13.1141 31.0856 12.8956C31.0856 12.8956 31.0865 12.8947 31.0865 12.8939L31.1609 12.7811L31.0377 12.6994L30.9633 12.8122C30.9633 12.8122 30.9633 12.813 30.9624 12.8139C30.8171 13.0333 30.4707 13.0875 30.227 13.1345C30.2226 13.1328 30.219 13.1301 30.2155 13.1274C30.1278 12.8939 29.9958 12.5662 30.1065 12.3281C30.1065 12.3273 30.1065 12.3273 30.1074 12.3264L30.1641 12.2038L30.0294 12.1408L29.9727 12.2633C29.9727 12.2642 29.9727 12.2642 29.9718 12.2651C29.8611 12.504 29.5288 12.6097 29.294 12.6932C29.2913 12.6923 29.2887 12.6905 29.286 12.6896C29.1664 12.4711 28.9865 12.1647 29.0627 11.9125C29.0627 11.9116 29.0627 11.9107 29.0636 11.9107L29.1017 11.7811L28.96 11.7385L28.921 11.8681C28.921 11.869 28.921 11.869 28.9201 11.8699C28.8448 12.1221 28.5293 12.2758 28.3096 12.3921C28.307 12.3912 28.3034 12.3912 28.3008 12.3903C28.1519 12.1914 27.9313 11.9125 27.9711 11.6514C27.9711 11.6505 27.9711 11.6505 27.9711 11.6497L27.9915 11.5156L27.8453 11.4933L27.8249 11.6266C27.8249 11.6274 27.8249 11.6283 27.8249 11.6283C27.7851 11.8903 27.4909 12.0866 27.2889 12.2331C27.288 12.2331 27.2871 12.2331 27.2862 12.2331C27.1117 12.0546 26.8556 11.8077 26.86 11.5431C26.86 11.5422 26.86 11.5413 26.86 11.5404L26.8627 11.4054L26.7147 11.4028L26.7121 11.5378C26.7121 11.5386 26.7121 11.5386 26.7121 11.5395C26.7076 11.8033 26.4436 12.036 26.2637 12.2083C26.0697 12.0528 25.787 11.8397 25.7596 11.5777C25.7596 11.5768 25.7596 11.5759 25.7596 11.5759L25.7454 11.4418L25.5983 11.4569L25.6125 11.5919C25.6125 11.5928 25.6125 11.5937 25.6125 11.5937C25.64 11.8566 25.406 12.1194 25.2483 12.3122C25.2457 12.3122 25.243 12.3131 25.2412 12.3131C25.0304 12.1807 24.7238 12.0004 24.6662 11.7429C24.6662 11.742 24.6662 11.742 24.6662 11.7411L24.637 11.6088L24.4925 11.6408L24.5218 11.7731C24.5218 11.774 24.5218 11.774 24.5218 11.7749C24.5785 12.0315 24.3782 12.3193 24.2427 12.528C24.0194 12.4178 23.6986 12.2695 23.6154 12.0191C23.6154 12.0182 23.6154 12.0182 23.6145 12.0173L23.5719 11.8894L23.4311 11.9365L23.4736 12.0644C23.4736 12.0653 23.4745 12.0662 23.4745 12.0662C23.556 12.3148 23.3876 12.6194 23.2742 12.8406L23.2432 12.7962C23.0642 12.5431 22.4794 12.361 21.8743 12.2207ZM23.4576 13.1745C23.7013 13.6434 23.8502 14.1336 23.7872 14.2953L24.5005 14.0919L25.1961 13.9587L25.8712 13.8921L26.5242 13.8894L27.1533 13.9471L27.7567 14.0608L28.3318 14.2278L28.8776 14.4436L29.3924 14.7047L29.8752 15.0075L30.3245 15.3476L30.7382 15.7215L31.1157 16.1247L31.4551 16.5537L31.7563 17.0057L32.0168 17.4764L32.2365 17.9622L32.4129 18.4595L32.5458 18.9648L32.6326 19.4755L32.6725 19.987L32.6636 20.4959L32.6043 20.9985L32.4926 21.4905L32.4811 21.5243C35.4529 16.5732 29.8947 10.7323 23.4576 13.1745ZM28.9192 20.9994C29.3277 21.1584 29.6192 21.5571 29.6192 22.0216C29.6192 22.2791 29.5297 22.5163 29.3799 22.7045L29.3835 22.7214L29.4818 23.2623L29.5607 23.8155L29.6077 24.2693C35.39 21.7916 31.2105 12.2385 23.8395 14.6745L24.1009 14.8112L24.4429 15.0119L24.7796 15.2331L25.111 15.4737L25.4371 15.734L25.756 16.0128L26.0679 16.3094L26.3709 16.6247L26.6651 16.9577L26.9504 17.3076L27.226 17.6744L27.49 18.0581L27.7434 18.4577L27.9844 18.8733L28.2121 19.3041L28.4266 19.7499L28.6259 20.2108L28.8102 20.6859C28.8111 20.6859 28.9192 20.9994 28.9192 20.9994ZM21.2665 14.4054C24.0256 14.4453 27.2774 17.3991 28.4788 20.9568C28.1696 21.003 27.9313 21.1282 27.7647 21.3307C27.1267 19.9444 26.3364 18.7126 25.3866 17.7242L25.3236 17.9213C25.383 18.1016 25.5726 18.3236 25.8437 18.5723C26.0183 18.7215 26.1618 18.9284 26.3054 19.1664C26.1388 19.1531 26.0094 19.1309 25.9182 19.0989L25.9359 19.3067C25.7383 19.1717 25.5638 19.019 25.4229 18.8405C25.422 19.0421 25.5328 19.2366 25.7649 19.4142C26.044 19.614 26.3222 19.7863 26.6013 19.9479C26.697 20.0261 26.7688 20.1158 26.8157 20.2188C26.4959 20.3049 26.5313 20.487 26.876 20.7365C26.9017 20.7552 26.9354 20.7667 26.9655 20.7863C26.8095 20.8404 26.7236 21.217 26.8211 21.4177C26.9141 21.5855 27.0116 21.7516 27.07 21.9568L27.1932 21.6442L27.4466 21.5731L27.5281 21.7569C27.3633 22.0678 27.5308 22.6193 27.6982 22.7489C27.3917 23.24 27.3482 23.7773 27.3288 24.1867C26.9788 23.8448 26.7794 23.0065 26.8973 22.5092C26.8973 22.4017 26.8326 22.3866 26.7006 22.463C26.5349 22.4568 26.4595 22.3298 26.4463 22.1202C26.4108 21.9923 26.2141 22.0926 26.2673 22.2152C26.2859 22.2498 26.3089 22.2836 26.3337 22.3156C26.4108 22.4008 26.479 22.4887 26.5145 22.5882L26.5136 22.7854L26.3258 22.7862C26.2132 22.6202 26.0777 22.4079 26.0342 22.4008C26.0094 22.3688 25.9846 22.3315 25.9483 22.304C25.8375 22.2179 25.7374 22.137 25.663 22.0571C25.5912 21.9799 25.4796 21.9115 25.406 21.8422L25.3733 21.7747C25.4317 21.4852 25.29 21.2676 25.0782 21.0971C25.041 21.0793 25.0109 21.058 24.9869 21.0323L24.9187 20.9648C25.08 20.7863 25.3157 20.7428 25.5106 20.9088C25.6612 21.0509 25.7782 21.2943 25.8251 21.5909C26.0529 21.3102 25.9696 21.0367 25.6949 20.7996C25.4486 20.7801 25.2412 20.7445 25.1128 20.6753C24.9639 20.5589 25.0667 20.304 25.3006 20.3982C25.6143 20.5447 25.4929 20.1282 25.1925 20.1255C25.0977 20.1229 24.9843 20.1406 24.8523 20.1779C24.6228 20.1921 24.4225 20.1637 24.3118 20.0056C24.4899 19.8769 24.5253 19.7508 24.3517 19.6273C23.9458 19.3369 24.1461 18.9879 24.5289 19.0341L24.8346 19.2152C24.9967 19.3103 25.0888 19.162 24.9285 19.0216C24.8115 18.9266 24.6591 18.8423 24.4987 18.7605L24.3109 18.4986C24.1452 18.6593 23.9742 18.7375 23.7961 18.7153C23.4709 18.6566 23.533 18.352 23.9015 18.3742C24.0318 18.3636 24.0026 18.225 23.8874 18.2535C23.6951 18.297 23.6278 18.3813 23.5161 18.4C23.3238 18.432 23.1732 18.3654 23.0873 18.2046C23.0252 18.0483 22.996 17.8929 22.9995 17.7366L23.2574 17.5954C23.0899 17.4755 22.8117 17.4639 22.4458 17.4879L22.1295 17.4844C22.2455 17.2162 22.4467 17.035 22.7621 17.0332C22.4422 16.9027 22.1578 16.9062 21.9274 17.1087C21.604 17.0465 21.3533 17.1451 21.1734 17.4044L21.029 17.4027C20.7676 16.6576 21.006 16.2792 21.62 16.178C21.5181 16.4897 21.5916 16.63 21.9221 16.5199L22.3802 16.4187C22.4475 16.4373 22.5158 16.4933 22.5849 16.5856C22.6735 16.6576 22.8055 16.7046 22.9818 16.7251L23.6924 16.8112L23.8422 17.0359L23.9751 17.1238L24.1611 17.1123C24.1762 17.4355 24.3809 17.5892 24.7158 17.6371C24.6095 18.0252 24.7769 18.2277 25.1136 18.305L25.0109 17.9124L25.0312 17.3867C23.9042 16.3405 22.6664 15.8281 21.4383 15.7446C21.4419 15.2375 21.3887 14.7864 21.2665 14.4054ZM26.1282 23.0527C26.1184 23.0518 26.1087 23.0518 26.0989 23.0518C26.0865 23.0571 26.0759 23.0615 26.0626 23.0651L26.0121 23.0704C25.9864 23.0145 25.9616 22.9585 25.9359 22.9026H25.92L25.8889 22.8511C25.8668 22.8191 25.8429 22.7898 25.8225 22.756L25.7994 22.7232H25.7835L25.7436 22.6672L25.6621 22.59C25.6284 22.566 25.5965 22.5385 25.5629 22.5136C25.5301 22.4941 25.5 22.4701 25.4672 22.4505C25.4131 22.4203 25.3617 22.3884 25.3148 22.3484C25.2147 22.264 25.1119 22.1823 25.0144 22.0944L24.932 22.0118C24.9045 21.9799 24.878 21.9479 24.8505 21.9159L24.8328 21.9035L24.8009 21.8715C24.7885 21.8546 24.7761 21.8378 24.7646 21.82C24.7397 21.7783 24.7158 21.7365 24.6928 21.693C24.6724 21.6522 24.6529 21.6095 24.6343 21.5669L24.5989 21.4559L24.5643 21.2507C24.5422 21.1237 24.5324 20.995 24.512 20.868C24.5103 20.8538 24.5076 20.8404 24.5058 20.8262C24.473 20.7561 24.4403 20.685 24.4075 20.614C24.3889 20.5856 24.3694 20.558 24.3472 20.5314L24.2887 20.4515L24.2825 20.4399H24.2657L24.1798 20.3298L24.0247 20.146L23.9999 20.1122L23.9715 20.0438C23.9317 19.9408 23.8998 19.836 23.8705 19.7295C23.8404 19.6096 23.8147 19.4888 23.7855 19.3689C23.7766 19.3449 23.7713 19.3192 23.766 19.2934L23.7102 19.1922C23.6836 19.1478 23.6526 19.106 23.6251 19.0625C23.5879 19.0163 23.548 18.9701 23.5108 18.9231L23.5011 18.9089L23.4816 18.8858L23.4231 18.836C23.3814 18.8085 23.338 18.781 23.2946 18.7552C23.1901 18.6957 23.0855 18.638 22.9756 18.5883C22.9437 18.5723 22.9127 18.5536 22.8817 18.5359C22.7984 18.487 22.7151 18.4382 22.6345 18.384C22.6123 18.3671 22.5893 18.3511 22.568 18.3325L22.5556 18.3209L22.5432 18.3041C22.5042 18.2748 22.4662 18.2455 22.4298 18.2135C22.4006 18.1922 22.3731 18.17 22.343 18.1513L22.3129 18.1353L22.2978 18.1051L22.2757 18.0794L22.2455 18.0536L22.2083 18.0261L22.1676 17.9986C22.1259 17.9764 22.0843 17.9542 22.0417 17.9337C21.9895 17.9098 21.9345 17.8885 21.8814 17.8671C21.8477 17.8547 21.8131 17.8423 21.7786 17.8316C21.7502 17.8236 21.7219 17.8156 21.6926 17.8076C21.6439 17.7996 21.5943 17.7934 21.5438 17.789L21.4091 17.7845L21.3285 17.789L21.2496 17.7979L21.1814 17.8156L21.1167 17.8387L21.0582 17.8662L20.9989 17.9027L20.9448 17.9435L20.8943 17.9941L20.8429 18.0501C20.811 18.0963 20.7774 18.1407 20.7481 18.1886C20.7242 18.2304 20.7012 18.2721 20.6799 18.3147L20.6524 18.3609L20.5824 18.5758C20.5798 18.6362 20.5753 18.6975 20.5762 18.7579C20.5771 18.7845 20.578 18.8103 20.578 18.836L20.6117 19.1042C20.6347 19.2543 20.6639 19.4026 20.6861 19.5518C20.6985 19.6424 20.7144 19.733 20.7171 19.8236C20.718 19.8556 20.7198 19.8875 20.7206 19.9195L20.7091 19.9177C20.6932 20.2135 20.5709 20.4897 20.4398 20.7507L19.6707 21.9159C19.6158 22.0021 19.5945 22.0358 19.6512 22.1388C19.7203 22.2489 19.8878 22.3466 19.9764 22.4417C20.0136 22.4816 20.0481 22.5234 20.0818 22.5669L20.1013 22.5944C20.119 22.6228 20.135 22.6512 20.15 22.6806C20.2094 22.812 20.2271 23.0038 20.2316 23.1424C20.1784 23.4967 19.9808 23.7303 21.1592 23.8093C21.2877 23.8288 21.2594 24.0713 21.1539 24.0713C20.9111 24.0624 20.5434 24.0082 20.337 24.0935L20.3175 24.1024L20.2998 24.113L20.2838 24.1255L20.2705 24.1397L20.259 24.1557L20.2502 24.1716L20.244 24.1885L20.2404 24.2054L20.2395 24.2223L20.2404 24.24L20.244 24.2578L20.251 24.2747C20.2652 24.2986 20.2803 24.3208 20.2945 24.3431C20.3361 24.4079 20.3848 24.494 20.4158 24.5642C20.4265 24.6281 20.4353 24.6903 20.4415 24.7489C20.4407 24.7915 20.438 24.8342 20.4327 24.8768L20.4212 24.9825C20.4132 25.034 20.4026 25.0846 20.3919 25.1343C20.3662 25.2382 20.3343 25.3413 20.3069 25.4443L20.2883 25.5215C20.2812 25.558 20.2759 25.5926 20.2732 25.629V25.6947L20.2767 25.7258L20.2838 25.756L20.2927 25.7862L20.3051 25.8155L20.321 25.8448L20.3405 25.8741L20.3645 25.9034L20.3937 25.9336L20.4274 25.9638L20.4672 25.994L20.5124 26.0251L20.5638 26.0562L20.6196 26.0864C20.6976 26.1183 20.7765 26.1468 20.8562 26.1716C20.9377 26.1965 21.0192 26.2187 21.1025 26.2373C22.0931 26.4975 23.0766 26.3821 24.0238 25.9913C24.155 25.9354 24.2834 25.8732 24.411 25.8093L24.6343 25.6707C24.6511 25.6672 24.668 25.6627 24.6839 25.6592L24.6857 25.6432C24.7008 25.629 24.714 25.6157 24.7291 25.6032C24.7548 25.5837 24.7805 25.5651 24.8062 25.5464C24.8381 25.5224 24.8709 25.4993 24.9019 25.4745C24.9099 25.4683 24.917 25.4611 24.9232 25.4532L24.9329 25.4336L24.9754 25.4034C25.0481 25.3439 25.1057 25.2693 25.1615 25.1947C25.1872 25.1592 25.2102 25.1228 25.2315 25.0846C25.2705 25.0242 25.3086 24.9638 25.3449 24.9025L25.3715 24.8573L25.4291 24.8404L25.4663 24.8351C25.4902 24.8333 25.5141 24.8333 25.5389 24.8333L25.5691 24.8368L25.5779 24.7516C25.5806 24.6983 25.5797 24.6459 25.577 24.5926C25.5717 24.5171 25.562 24.4434 25.5522 24.3688C25.5522 24.2409 25.5487 24.1122 25.5558 23.9843C25.5576 23.9576 25.5576 23.931 25.5593 23.9043C25.5629 23.8635 25.5655 23.8217 25.5735 23.7809C25.5788 23.756 25.585 23.7312 25.5886 23.7054C25.5983 23.6734 25.6072 23.6415 25.6196 23.6095C25.6293 23.5873 25.6391 23.5651 25.6488 23.542L25.6869 23.4816L25.7268 23.4248C25.7551 23.3999 25.7826 23.3733 25.8118 23.3493L25.8296 23.3377L25.9784 23.2543L25.927 23.4088V23.4097L26.1282 23.0527ZM21.573 20.8955C21.558 20.8973 21.542 20.8991 21.5261 20.8999C21.5216 20.9044 21.5216 20.9088 21.5216 20.9142C21.1876 20.7055 21.3037 20.5385 21.262 20.2081C21.2346 20.1202 21.1646 20.0598 21.1229 20.0039C21.0352 19.7721 21.0441 19.6602 21.1273 19.4426C21.1273 19.2383 20.7658 19.3129 20.8261 19.1042C21.1043 18.8254 21.7015 18.9044 22.0621 19.0021C22.1498 19.0492 22.2384 19.0954 22.3262 19.1371C22.6177 19.3742 22.8268 19.5918 22.9703 19.9772C22.9659 20.0145 22.9659 20.0145 22.9561 20.0332C22.9375 20.0332 22.9242 20.0332 22.9101 20.0332C22.6779 19.9266 22.4883 19.7357 22.2987 19.6193C22.1091 19.5545 22.0958 19.5803 22.1241 19.7703C22.2358 20.0261 22.7027 20.1877 22.7027 20.5216C22.6841 20.5261 22.5964 20.5616 22.5778 20.5714C22.1782 20.5394 21.9363 20.8458 21.573 20.8955ZM20.469 22.3946C20.2936 22.3076 20.1748 22.2267 20.1616 22.1184C20.2404 21.8724 21.0228 22.4834 20.469 22.3946ZM22.7745 30.1076C22.7745 30.0526 22.8472 30.0437 22.8888 30.0526C22.8985 30.0721 22.9632 30.3811 23.0775 30.3261C23.634 29.2817 22.8755 27.7862 22.6097 26.6832C23.7598 26.565 24.6618 26.1441 25.5248 25.3208C25.6541 25.4159 25.6887 25.51 25.694 25.7036C25.6098 26.2213 25.4503 26.7187 25.4503 27.2755C25.5 28.152 26.5366 29.3669 26.4197 29.9584L26.4188 29.9611C26.4188 29.9611 26.4188 29.962 26.4188 29.9629C25.2209 33.9033 18.098 33.4095 22.7745 30.1076ZM22.4865 29.9602C19.8975 30.4335 17.3014 33.2088 21.1247 34.477C23.1333 34.9761 25.0047 34.7097 26.705 33.8802C26.7954 33.5711 26.9221 33.2674 27.1205 33.0116C27.0878 33.0294 27.0532 33.0454 27.0186 33.0596L26.5863 33.2248C26.6066 33.0623 26.6244 32.898 26.6474 32.7355C26.6527 32.6973 26.6589 32.6591 26.6669 32.6209C26.7023 32.4477 26.7706 32.2852 26.8343 32.1218L26.8707 32.1156L26.9504 31.9966L26.9726 31.9344C27.0886 31.8358 27.2056 31.7364 27.3102 31.6245L27.3509 31.5712L27.3695 31.5143L27.4165 31.477L27.2517 31.3838L27.1657 31.3136L26.9478 30.9913C25.9811 32.6422 24.2161 33.4219 22.4883 33.4166C19.6671 33.3571 20.0074 31.0659 22.4865 29.9602ZM19.077 37.6732C18.595 37.651 18.1086 37.651 17.6372 37.6457C17.6071 36.8322 17.6275 36.0453 17.6319 35.2541C18.9415 35.2541 20.2466 35.2594 21.5562 35.2647C21.5863 35.2594 21.6111 35.2541 21.6413 35.2487C22.6646 35.2709 23.7341 35.2878 24.7778 35.2878C25.1588 35.2327 25.5558 35.2487 25.9572 35.31C26.3692 35.3047 26.7847 35.2994 27.1967 35.2994C27.4174 35.3216 27.6637 35.2496 27.9091 35.2887C28.6064 35.278 28.8377 35.2665 29.3994 35.2665C29.4597 35.2718 29.5199 35.2834 29.5953 35.2665C30.4335 35.2718 31.3018 35.3056 32.1595 35.239C32.2197 35.2718 32.6964 35.2336 32.777 35.2283C34.0361 35.2283 34.0361 35.2283 34.7892 35.2452C34.7892 36.0258 34.7839 36.8118 34.7839 37.5977C32.7974 37.6368 30.8047 37.6315 28.843 37.5871C27.2074 37.6368 25.5762 37.6537 23.9662 37.6315C23.8856 37.6261 23.8059 37.6208 23.7252 37.6208C21.0946 37.6617 21.0946 37.6617 19.077 37.6732ZM17.8171 38.2469H34.6324L32.116 39.2753H20.3246L17.8171 38.2469ZM31.7173 41.5559V41.5026V39.8908H20.7889C20.7889 40.6954 20.7889 41.4982 20.7889 42.3028C21.1185 42.4342 21.4747 42.5879 21.814 42.682C21.814 42.2122 21.814 41.7415 21.814 41.2708C21.814 40.984 22.0293 40.7486 22.2934 40.7486C22.5565 40.7486 22.7727 40.984 22.7727 41.2708C22.7727 41.8277 22.7727 42.3845 22.7727 42.9413C23.074 43.0017 23.3743 43.0674 23.6756 43.1074C23.6756 42.5293 23.6756 41.9502 23.6756 41.3721C23.6756 41.0293 23.9334 40.7478 24.248 40.7478C24.5625 40.7478 24.8204 41.0284 24.8204 41.3721C24.8204 41.9937 24.8204 42.6154 24.8204 43.2379C25.0693 43.2557 25.3192 43.269 25.5682 43.277C25.5682 42.642 25.5682 42.0071 25.5682 41.3721C25.5682 41.0293 25.8686 40.7478 26.2363 40.7478C26.604 40.7478 26.9043 41.0284 26.9043 41.3721C26.9043 42.0026 26.9043 42.6323 26.9043 43.2628C27.1595 43.253 27.4156 43.2326 27.6717 43.2122C27.6717 42.5985 27.6717 41.9849 27.6717 41.3721C27.6717 41.0293 27.9286 40.7478 28.244 40.7478C28.5586 40.7478 28.8164 41.0284 28.8164 41.3721C28.8164 41.936 28.8164 42.4999 28.8164 43.0639C29.1106 43.0168 29.4056 42.9582 29.6998 42.8934C29.6998 42.3525 29.6998 41.8117 29.6998 41.27C29.6998 40.9831 29.9151 40.7478 30.1792 40.7478C30.4423 40.7478 30.6585 40.9831 30.6585 41.27C30.6585 41.7264 30.6585 42.1829 30.6585 42.6394C31.012 42.5266 31.3656 42.3978 31.7191 42.2628V41.5559H31.7173ZM20.4743 47.4155C20.8279 47.5087 21.1841 47.5931 21.5429 47.6686L22.2819 46.0967L24.6299 46.4066L24.9807 48.1162C25.7817 48.1633 26.5827 48.1624 27.3837 48.1162L27.6912 46.4093L30.0383 46.0905L30.8242 47.6606C31.6101 47.5052 32.381 47.2912 33.1394 47.0336L32.9932 45.2912L35.1764 44.3969L36.3442 45.7006C37.0584 45.3338 37.7486 44.9271 38.4202 44.4866L37.8381 42.8507L39.6988 41.4049L41.1546 42.3694C41.7518 41.8268 42.3188 41.254 42.8575 40.6518L41.8705 39.2256L43.3103 37.3597L44.9575 37.9157C45.3899 37.2363 45.7895 36.5338 46.1643 35.8198L44.8432 34.7017L45.7584 32.5152L47.4995 32.6182C47.7432 31.8527 47.9487 31.0756 48.118 30.2897L46.5532 29.5534L46.8669 27.1867L48.5654 26.8377C48.6106 26.0384 48.6168 25.2374 48.569 24.4381L46.8563 24.137L46.5568 21.7907L48.1153 20.9976C47.9443 20.2072 47.737 19.4266 47.48 18.6593L45.7505 18.8254L44.8813 16.6336L46.1483 15.4746C45.7788 14.7526 45.373 14.0537 44.9291 13.3743L43.3165 13.9764L41.8678 12.0768L42.8292 10.6257C42.2878 10.0307 41.7225 9.45786 41.1271 8.91879L39.713 9.91433L37.8239 8.47386L38.3742 6.81492C37.7043 6.37976 37.0141 5.97568 36.3026 5.61245L35.1959 6.92859L32.995 6.02808L33.1013 4.27322C32.3384 4.01479 31.5614 3.80698 30.7728 3.64446L30.0392 5.22258L27.7035 4.90909L27.3545 3.20308C26.549 3.15601 25.7427 3.1569 24.9382 3.20396L24.637 4.92419L22.2819 5.23679L21.5048 3.65867C20.718 3.82474 19.9436 4.0361 19.1816 4.29365L19.3242 6.01476L17.1508 6.93392L15.9777 5.624C15.2617 5.98811 14.5706 6.39574 13.9017 6.84067L14.4944 8.46143L12.6178 9.92321L11.1709 8.95165C10.5728 9.49161 10.0066 10.0635 9.46702 10.6621L10.4585 12.0875L9.0116 13.9596L7.35647 13.4027C6.9232 14.0821 6.52005 14.7802 6.15677 15.4995L7.47697 16.6158L6.57055 18.8103L4.82593 18.7019C4.57607 19.4612 4.37139 20.2339 4.20393 21.0154L5.77665 21.7623L5.46034 24.1122L3.75293 24.4692C3.7104 25.2729 3.7166 26.0757 3.75824 26.8785L5.46565 27.1814L5.77399 29.5357L4.20925 30.3199C4.38114 31.1067 4.59024 31.8811 4.83745 32.6466L6.56435 32.4895L7.48051 34.6866L6.15677 35.8526C6.5422 36.5613 6.95332 37.254 7.38926 37.9307L9.01514 37.3517L10.4408 39.2274L9.49537 40.6865C10.0359 41.2806 10.6029 41.849 11.1975 42.3872L12.6151 41.3952L14.4882 42.8543L13.9398 44.5035C14.614 44.9404 15.3087 45.3392 16.022 45.7068L17.1357 44.3871L19.3172 45.2983L19.2206 47.0398C19.637 47.1802 20.0543 47.3036 20.4743 47.4155Z" fill="white"/>
<path fill-rule="evenodd" clip-rule="evenodd" d="M138.065 32.7605L148.749 2.72192H160.747L171.228 32.7605H159.642L158.678 28.9853H150.551L149.628 32.7605H138.065ZM152.355 21.8424H156.834L155.918 18.4384C155.465 16.7155 155.156 15.3851 154.996 14.4535C154.829 13.529 154.731 12.6534 154.689 11.8337H154.507C154.465 12.6534 154.36 13.529 154.2 14.4535C154.032 15.3851 153.725 16.7155 153.277 18.4384L152.355 21.8424Z" fill="#FEFEFE"/>
<path fill-rule="evenodd" clip-rule="evenodd" d="M85.2998 32.7605V2.72192H98.8563C102.783 2.72192 105.788 3.59047 107.863 5.32756C109.938 7.06466 110.973 9.57172 110.973 12.8354C110.973 14.9713 110.448 16.7297 109.407 18.1089C108.359 19.4952 106.955 20.3016 105.179 20.5325L113.18 32.7614H101.105L95.8641 22.8513V32.7614H85.2998V32.7605ZM95.865 10.4545V16.3238H97.5422C98.5692 16.3238 99.3524 16.0716 99.9036 15.5743C100.456 15.077 100.735 14.3629 100.735 13.4313C100.735 12.4722 100.456 11.7369 99.9036 11.2253C99.3516 10.7147 98.5692 10.4554 97.5422 10.4554C97.5422 10.4545 95.865 10.4545 95.865 10.4545Z" fill="#FEFEFE"/>
<path fill-rule="evenodd" clip-rule="evenodd" d="M232.492 14.6446C231.508 13.6996 230.509 12.9927 229.483 12.5309C228.463 12.062 227.381 11.8311 226.25 11.8311C224.49 11.8311 223.073 12.3773 222.005 13.4616C220.936 14.546 220.399 15.9953 220.399 17.8008C220.399 19.5637 220.909 20.9713 221.936 22.021C222.955 23.0778 224.331 23.6027 226.048 23.6027C227.081 23.6027 228.135 23.3789 229.204 22.9375C230.279 22.4899 231.446 21.7901 232.716 20.8168L232.367 32.1123C231.195 32.5883 230.022 32.9524 228.849 33.1896C227.675 33.4276 226.502 33.5466 225.329 33.5466C223.87 33.5466 222.466 33.3858 221.119 33.0572C219.765 32.7286 218.549 32.2597 217.454 31.6576C214.807 30.1319 212.811 28.1932 211.456 25.8558C210.095 23.5183 209.418 20.8381 209.418 17.8008C209.418 15.5611 209.801 13.483 210.577 11.5647C211.345 9.65442 212.469 7.96795 213.936 6.50527C215.422 5.02839 217.147 3.90851 219.102 3.15275C221.064 2.38989 223.18 2.01245 225.456 2.01245C226.671 2.01245 227.864 2.13856 229.044 2.39077C230.225 2.64299 231.376 3.02043 232.494 3.53108C232.492 3.53108 232.492 14.6446 232.492 14.6446Z" fill="#FEFEFE"/>
<path fill-rule="evenodd" clip-rule="evenodd" d="M184.245 30.1877L187.681 21.7829C189.224 22.861 190.592 23.6514 191.801 24.1487C193.008 24.646 194.14 24.8974 195.186 24.8974C195.927 24.8974 196.506 24.757 196.925 24.4773C197.35 24.1967 197.56 23.8192 197.56 23.3361C197.56 22.5031 196.506 21.8663 194.39 21.4329C193.706 21.2784 193.175 21.1665 192.791 21.083C190.557 20.5369 188.847 19.5644 187.659 18.1719C186.472 16.7794 185.879 15.0432 185.879 12.9651C185.879 9.73864 187.031 7.11435 189.336 5.09218C191.64 3.07001 194.663 2.05493 198.398 2.05493C200.123 2.05493 201.813 2.27873 203.474 2.73432C205.136 3.18191 206.819 3.86751 208.509 4.78491L205.234 12.6374C204.2 11.8745 203.16 11.2866 202.112 10.8807C201.072 10.482 200.059 10.2786 199.075 10.2786C198.328 10.2786 197.749 10.4047 197.337 10.6569C196.925 10.9091 196.723 11.2653 196.723 11.7137C196.723 12.5601 198.216 13.3087 201.205 13.9455C201.68 14.0574 202.05 14.1418 202.308 14.1977C204.367 14.6595 205.988 15.6115 207.175 17.0458C208.362 18.481 208.955 20.2163 208.955 22.2526C208.955 25.5696 207.761 28.2854 205.367 30.3919C202.972 32.4985 199.858 33.5482 196.024 33.5482C194.063 33.5482 192.101 33.2685 190.138 32.709C188.17 32.1468 186.207 31.3067 184.245 30.1877Z" fill="#FEFEFE"/>
<path fill-rule="evenodd" clip-rule="evenodd" d="M181.126 14.865H172.192V20.5727H181.126V14.865Z" fill="#FEFEFE"/>
<path fill-rule="evenodd" clip-rule="evenodd" d="M81.0743 14.642C80.089 13.6962 79.0896 12.9893 78.0627 12.5275C77.0428 12.0577 75.9592 11.8268 74.8277 11.8268C73.0671 11.8268 71.6486 12.373 70.5791 13.4591C69.5097 14.5444 68.9719 15.9946 68.9719 17.801C68.9719 19.5656 69.4813 20.9732 70.5091 22.0238C71.529 23.0815 72.9059 23.6064 74.6248 23.6064C75.6588 23.6064 76.7141 23.3826 77.7827 22.9412C78.8592 22.4927 80.0261 21.7929 81.2976 20.8187L80.9485 32.1231C79.7745 32.5991 78.6005 32.9632 77.4265 33.2012C76.2525 33.4392 75.0785 33.5582 73.9045 33.5582C72.4443 33.5582 71.0399 33.3975 69.6913 33.068C68.3357 32.7385 67.12 32.2696 66.0231 31.6666C63.3747 30.14 61.3758 28.2004 60.0202 25.8603C58.6574 23.5211 57.9796 20.8391 57.9796 17.7992C57.9796 15.5577 58.3642 13.4778 59.1394 11.5586C59.9085 9.64656 61.0329 7.95832 62.5011 6.49475C63.9896 5.01698 65.7157 3.89621 67.672 3.14045C69.6355 2.3767 71.7531 1.99927 74.0312 1.99927C75.2468 1.99927 76.4421 2.12537 77.6232 2.37759C78.8043 2.62981 79.957 3.00813 81.0752 3.51878L81.0743 14.642Z" fill="#FEFEFE"/>
<path fill-rule="evenodd" clip-rule="evenodd" d="M115.312 32.7605V2.72192H135.352V10.8674H125.877V13.7599H134.472V21.457H125.877V24.6159H135.597V32.7605H115.312Z" fill="#FEFEFE"/>
<path fill-rule="evenodd" clip-rule="evenodd" d="M85.8908 43.111C85.5381 43.111 85.2121 43.0586 84.9126 42.9538C84.614 42.8499 84.357 42.6936 84.1426 42.4876C83.9282 42.2806 83.7616 42.0222 83.6429 41.714C83.525 41.4041 83.4666 41.0471 83.4666 40.6421C83.4666 40.2656 83.5233 39.9228 83.6349 39.6155C83.7483 39.3082 83.9122 39.0445 84.1267 38.8251C84.334 38.6146 84.5892 38.4512 84.8948 38.3358C85.1996 38.2203 85.5328 38.1635 85.8952 38.1635C86.0954 38.1635 86.2753 38.1741 86.4366 38.1963C86.5969 38.2194 86.7458 38.2487 86.8823 38.2843C87.024 38.3242 87.1534 38.3704 87.2686 38.421C87.3855 38.4699 87.4865 38.5169 87.5733 38.5596V39.715H87.4334C87.3749 39.6635 87.2996 39.6031 87.2092 39.5329C87.1188 39.4619 87.016 39.3935 86.9009 39.3242C86.7848 39.2567 86.6572 39.1981 86.5207 39.1519C86.3843 39.1048 86.2399 39.0818 86.0839 39.0818C85.912 39.0818 85.7481 39.1075 85.5922 39.1626C85.4362 39.2176 85.2936 39.3082 85.1607 39.4334C85.0357 39.5542 84.9338 39.7167 84.8567 39.9157C84.7779 40.1164 84.7398 40.3588 84.7398 40.6448C84.7398 40.9441 84.7814 41.1927 84.8647 41.3934C84.9498 41.5933 85.0552 41.7513 85.1828 41.8659C85.3122 41.984 85.4575 42.0666 85.6161 42.1172C85.7765 42.1679 85.9333 42.1927 86.0892 42.1927C86.2381 42.1927 86.3852 42.1705 86.5314 42.1261C86.6776 42.0817 86.8114 42.0204 86.9345 41.9432C87.0391 41.881 87.1356 41.8144 87.2251 41.7442C87.3146 41.6741 87.3873 41.6128 87.4449 41.5613H87.5725V42.6998C87.4537 42.7531 87.3394 42.8037 87.2313 42.8508C87.1224 42.8979 87.0089 42.9378 86.8893 42.9716C86.7343 43.016 86.589 43.0506 86.4525 43.0746C86.3169 43.0986 86.1291 43.111 85.8908 43.111ZM92.0727 41.2229C92.0727 41.8135 91.9017 42.2798 91.557 42.6199C91.2141 42.96 90.7312 43.1305 90.1101 43.1305C89.4881 43.1305 89.0052 42.96 88.6623 42.6199C88.3194 42.2798 88.1466 41.8144 88.1466 41.2229C88.1466 40.6288 88.3194 40.1617 88.665 39.8215C89.0105 39.4832 89.4916 39.3127 90.1092 39.3127C90.7348 39.3127 91.2185 39.4841 91.5588 39.8242C91.9026 40.1679 92.0727 40.6324 92.0727 41.2229ZM90.6586 42.0968C90.7339 42.0053 90.7888 41.8943 90.826 41.7656C90.8632 41.6368 90.8827 41.4574 90.8827 41.23C90.8827 41.0196 90.8632 40.8419 90.8251 40.699C90.787 40.556 90.7339 40.4423 90.6656 40.3562C90.5983 40.2691 90.5159 40.2079 90.4202 40.1714C90.3245 40.1341 90.2209 40.1173 90.111 40.1173C90.0002 40.1173 89.9019 40.1315 89.8159 40.1617C89.7282 40.191 89.6467 40.2514 89.5687 40.3411C89.4978 40.4237 89.442 40.5382 89.4013 40.683C89.3596 40.8286 89.3392 41.0107 89.3392 41.23C89.3392 41.4263 89.357 41.5968 89.3933 41.7407C89.4305 41.8837 89.4828 41.9991 89.5528 42.087C89.6201 42.1714 89.7025 42.2309 89.7964 42.27C89.8912 42.3091 89.9993 42.3277 90.1198 42.3277C90.2244 42.3277 90.3236 42.31 90.4184 42.2753C90.5124 42.2398 90.5939 42.1794 90.6586 42.0968ZM96.4967 43.0178H95.3413V41.2363C95.3413 41.0906 95.3333 40.9467 95.3191 40.8029C95.3041 40.659 95.2784 40.5524 95.2421 40.4849C95.1995 40.405 95.1375 40.3482 95.056 40.3118C94.9745 40.2753 94.8602 40.2576 94.7131 40.2576C94.6085 40.2576 94.5031 40.2745 94.3959 40.3091C94.2878 40.3428 94.1717 40.3979 94.0459 40.4716V43.0178H92.8967V39.4254H94.0459V39.8215C94.2497 39.6626 94.4455 39.5391 94.6342 39.4539C94.823 39.3686 95.0321 39.326 95.2615 39.326C95.6479 39.326 95.9509 39.4397 96.1688 39.6652C96.3877 39.8908 96.4967 40.2283 96.4967 40.6785V43.0178ZM100.666 41.8792C100.666 42.2504 100.501 42.5497 100.168 42.7771C99.8371 43.0044 99.3834 43.1181 98.8057 43.1181C98.4867 43.1181 98.1979 43.0879 97.9392 43.0284C97.6787 42.968 97.4705 42.9023 97.3127 42.8295V41.8828H97.4182C97.4758 41.9227 97.5422 41.968 97.6175 42.016C97.6929 42.0631 97.8001 42.1155 97.9392 42.1714C98.0579 42.2203 98.1926 42.262 98.3441 42.2966C98.4947 42.333 98.6569 42.3508 98.8287 42.3508C99.0538 42.3508 99.2204 42.3259 99.3303 42.2753C99.4384 42.2256 99.4924 42.151 99.4924 42.0524C99.4924 41.9654 99.4614 41.9014 99.3967 41.8624C99.3338 41.8233 99.2115 41.7851 99.0325 41.7487C98.9475 41.7291 98.8323 41.7087 98.687 41.6865C98.5408 41.6634 98.4079 41.6359 98.2892 41.6048C97.964 41.5196 97.7221 41.3863 97.5653 41.2061C97.4075 41.0258 97.3287 40.802 97.3287 40.5338C97.3287 40.1874 97.4926 39.9006 97.8196 39.6715C98.1447 39.4423 98.5913 39.3278 99.1584 39.3278C99.4259 39.3278 99.6829 39.3553 99.9283 39.4095C100.175 39.4636 100.366 39.5214 100.504 39.5844V40.4929H100.405C100.235 40.3748 100.041 40.2798 99.8238 40.2061C99.6049 40.1333 99.3843 40.096 99.161 40.096C98.9758 40.096 98.8199 40.1226 98.6923 40.1732C98.5656 40.2238 98.5027 40.2967 98.5027 40.3908C98.5027 40.4761 98.531 40.54 98.5886 40.5862C98.6462 40.6306 98.7809 40.6759 98.9936 40.7203C99.1114 40.7434 99.2363 40.7665 99.3719 40.7895C99.5066 40.8117 99.643 40.8402 99.7795 40.8739C100.082 40.953 100.304 41.0773 100.449 41.246C100.594 41.4139 100.666 41.6261 100.666 41.8792ZM104.959 41.4352H102.33C102.346 41.7167 102.454 41.9325 102.651 42.0817C102.847 42.23 103.137 42.3055 103.52 42.3055C103.763 42.3055 103.998 42.262 104.226 42.1741C104.453 42.0862 104.633 41.9929 104.766 41.8926H104.894V42.8162C104.633 42.921 104.39 42.9964 104.16 43.0435C103.931 43.0906 103.676 43.1146 103.397 43.1146C102.679 43.1146 102.127 42.952 101.744 42.6288C101.362 42.3046 101.17 41.8428 101.17 41.2434C101.17 40.6501 101.35 40.1803 101.713 39.8331C102.075 39.4867 102.573 39.3135 103.205 39.3135C103.788 39.3135 104.226 39.4619 104.52 39.7567C104.814 40.0524 104.96 40.4778 104.96 41.032L104.959 41.4352ZM103.816 40.7602C103.811 40.5187 103.751 40.3375 103.637 40.2167C103.525 40.0942 103.35 40.0347 103.111 40.0347C102.889 40.0347 102.708 40.0915 102.565 40.207C102.423 40.3215 102.343 40.5063 102.326 40.7602H103.816ZM106.919 43.0178H105.77V38.04H106.919V43.0178ZM111.604 43.0178H110.448V41.2363C110.448 41.0906 110.44 40.9467 110.426 40.8029C110.411 40.659 110.385 40.5524 110.349 40.4849C110.307 40.405 110.245 40.3482 110.163 40.3118C110.082 40.2753 109.967 40.2576 109.82 40.2576C109.716 40.2576 109.61 40.2745 109.503 40.3091C109.395 40.3428 109.279 40.3979 109.153 40.4716V43.0178H108.004V38.04H109.153V39.8215C109.357 39.6626 109.553 39.5391 109.741 39.4539C109.93 39.3686 110.139 39.326 110.369 39.326C110.755 39.326 111.058 39.4397 111.276 39.6652C111.495 39.8908 111.604 40.2283 111.604 40.6785V43.0178ZM116.324 41.2229C116.324 41.8135 116.153 42.2798 115.808 42.6199C115.465 42.96 114.982 43.1305 114.361 43.1305C113.739 43.1305 113.256 42.96 112.913 42.6199C112.57 42.2798 112.398 41.8144 112.398 41.2229C112.398 40.6288 112.571 40.1617 112.916 39.8215C113.261 39.4832 113.743 39.3127 114.36 39.3127C114.986 39.3127 115.47 39.4841 115.81 39.8242C116.154 40.1679 116.324 40.6324 116.324 41.2229ZM114.91 42.0968C114.985 42.0053 115.041 41.8943 115.077 41.7656C115.114 41.6368 115.134 41.4574 115.134 41.23C115.134 41.0196 115.114 40.8419 115.076 40.699C115.038 40.556 114.985 40.4423 114.916 40.3562C114.848 40.2691 114.766 40.2079 114.67 40.1714C114.575 40.1341 114.471 40.1173 114.361 40.1173C114.25 40.1173 114.152 40.1315 114.066 40.1617C113.978 40.191 113.898 40.2514 113.819 40.3411C113.748 40.4237 113.692 40.5382 113.651 40.683C113.61 40.8286 113.589 41.0107 113.589 41.23C113.589 41.4263 113.607 41.5968 113.643 41.7407C113.68 41.8837 113.732 41.9991 113.803 42.087C113.87 42.1714 113.953 42.2309 114.047 42.27C114.141 42.3091 114.249 42.3277 114.37 42.3277C114.475 42.3277 114.574 42.31 114.669 42.2753C114.763 42.2398 114.844 42.1794 114.91 42.0968ZM122.11 39.7141C122.11 39.5942 122.085 39.4912 122.037 39.4059C121.988 39.3207 121.903 39.2541 121.783 39.2052C121.701 39.1715 121.604 39.151 121.494 39.143C121.382 39.135 121.255 39.1306 121.107 39.1306H120.664V40.4139H121.04C121.236 40.4139 121.401 40.4041 121.533 40.3855C121.665 40.3659 121.775 40.3224 121.864 40.2549C121.949 40.1883 122.012 40.1146 122.052 40.0356C122.09 39.9556 122.11 39.8482 122.11 39.7141ZM124.022 43.0178H122.525L121.229 41.2709H120.664V43.0178H119.445V38.255H121.5C121.781 38.255 122.023 38.27 122.225 38.3029C122.428 38.3349 122.617 38.4033 122.794 38.5098C122.973 38.6173 123.113 38.7549 123.22 38.9237C123.325 39.0942 123.377 39.3064 123.377 39.5622C123.377 39.9139 123.296 40.2007 123.134 40.4228C122.97 40.6448 122.738 40.8286 122.436 40.976L124.022 43.0178ZM128.022 41.4352H125.392C125.409 41.7167 125.516 41.9325 125.714 42.0817C125.91 42.23 126.199 42.3055 126.583 42.3055C126.826 42.3055 127.061 42.262 127.288 42.1741C127.516 42.0862 127.696 41.9929 127.829 41.8926H127.957V42.8162C127.696 42.921 127.452 42.9964 127.222 43.0435C126.993 43.0906 126.738 43.1146 126.459 43.1146C125.741 43.1146 125.189 42.952 124.806 42.6288C124.424 42.3046 124.232 41.8428 124.232 41.2434C124.232 40.6501 124.412 40.1803 124.775 39.8331C125.138 39.4867 125.635 39.3135 126.268 39.3135C126.85 39.3135 127.288 39.4619 127.583 39.7567C127.877 40.0524 128.023 40.4778 128.023 41.032V41.4352H128.022ZM126.88 40.7602C126.875 40.5187 126.814 40.3375 126.702 40.2167C126.589 40.0942 126.414 40.0347 126.176 40.0347C125.954 40.0347 125.772 40.0915 125.63 40.207C125.487 40.3215 125.407 40.5063 125.39 40.7602H126.88ZM132.318 42.6057C132.318 42.9432 132.27 43.2256 132.173 43.4565C132.078 43.6865 131.944 43.8668 131.771 43.9973C131.599 44.1305 131.391 44.2256 131.148 44.2842C130.904 44.3419 130.629 44.3712 130.322 44.3712C130.074 44.3712 129.829 44.357 129.587 44.3268C129.345 44.2975 129.136 44.2611 128.96 44.2184V43.3188H129.1C129.241 43.3748 129.412 43.4263 129.614 43.4716C129.815 43.5177 129.996 43.5399 130.157 43.5399C130.369 43.5399 130.542 43.5195 130.675 43.4804C130.808 43.4405 130.91 43.3854 130.98 43.3135C131.045 43.2451 131.093 43.1572 131.123 43.0506C131.152 42.9449 131.168 42.8162 131.168 42.667V42.5995C131.029 42.7131 130.875 42.8028 130.708 42.8677C130.539 42.9343 130.352 42.9671 130.146 42.9671C129.644 42.9671 129.257 42.8153 128.985 42.5133C128.713 42.2105 128.577 41.7496 128.577 41.1315C128.577 40.8357 128.618 40.58 128.701 40.3642C128.784 40.1492 128.901 39.961 129.052 39.802C129.193 39.6528 129.365 39.5365 129.57 39.453C129.776 39.3695 129.986 39.3287 130.201 39.3287C130.395 39.3287 130.57 39.3517 130.729 39.3979C130.887 39.4432 131.031 39.5072 131.161 39.588L131.203 39.429H132.317L132.318 42.6057ZM131.169 41.8863V40.2585C131.103 40.2301 131.022 40.2087 130.927 40.1928C130.831 40.1768 130.745 40.1688 130.669 40.1688C130.366 40.1688 130.14 40.2549 129.989 40.429C129.838 40.6039 129.762 40.8464 129.762 41.1572C129.762 41.5018 129.827 41.7434 129.955 41.8801C130.084 42.0169 130.274 42.0853 130.529 42.0853C130.643 42.0853 130.756 42.0666 130.866 42.0302C130.977 41.9938 131.078 41.9458 131.169 41.8863ZM134.552 43.0178H133.403V39.4254H134.552V43.0178ZM134.583 38.9139H133.371V38.04H134.583V38.9139ZM139.301 41.2229C139.301 41.8135 139.13 42.2798 138.785 42.6199C138.442 42.96 137.959 43.1305 137.338 43.1305C136.716 43.1305 136.233 42.96 135.89 42.6199C135.547 42.2798 135.374 41.8144 135.374 41.2229C135.374 40.6288 135.547 40.1617 135.893 39.8215C136.238 39.4832 136.719 39.3127 137.337 39.3127C137.963 39.3127 138.446 39.4841 138.787 39.8242C139.13 40.1679 139.301 40.6324 139.301 41.2229ZM137.886 42.0968C137.962 42.0053 138.017 41.8943 138.054 41.7656C138.091 41.6368 138.111 41.4574 138.111 41.23C138.111 41.0196 138.091 40.8419 138.053 40.699C138.015 40.556 137.962 40.4423 137.893 40.3562C137.826 40.2691 137.744 40.2079 137.648 40.1714C137.552 40.1341 137.449 40.1173 137.339 40.1173C137.228 40.1173 137.13 40.1315 137.044 40.1617C136.957 40.191 136.875 40.2514 136.797 40.3411C136.726 40.4237 136.67 40.5382 136.629 40.683C136.587 40.8286 136.567 41.0107 136.567 41.23C136.567 41.4263 136.585 41.5968 136.621 41.7407C136.658 41.8837 136.711 41.9991 136.781 42.087C136.848 42.1714 136.93 42.2309 137.024 42.27C137.119 42.3091 137.227 42.3277 137.348 42.3277C137.452 42.3277 137.551 42.31 137.646 42.2753C137.74 42.2398 137.821 42.1794 137.886 42.0968ZM143.724 43.0178H142.568V41.2363C142.568 41.0906 142.56 40.9467 142.546 40.8029C142.531 40.659 142.506 40.5524 142.469 40.4849C142.426 40.405 142.364 40.3482 142.283 40.3118C142.201 40.2753 142.087 40.2576 141.94 40.2576C141.835 40.2576 141.73 40.2745 141.623 40.3091C141.515 40.3428 141.399 40.3979 141.273 40.4716V43.0178H140.124V39.4254H141.273V39.8215C141.477 39.6626 141.672 39.5391 141.861 39.4539C142.05 39.3686 142.258 39.326 142.489 39.326C142.875 39.326 143.178 39.4397 143.396 39.6652C143.615 39.8908 143.724 40.2283 143.724 40.6785V43.0178ZM146.95 42.0817V41.3331C146.795 41.3464 146.626 41.3633 146.446 41.3855C146.265 41.4085 146.127 41.4343 146.034 41.4645C145.919 41.5009 145.831 41.5542 145.771 41.6226C145.71 41.6927 145.68 41.7833 145.68 41.897C145.68 41.9716 145.686 42.032 145.7 42.079C145.713 42.1261 145.744 42.1705 145.795 42.2131C145.844 42.2558 145.902 42.2869 145.971 42.3073C146.038 42.3277 146.145 42.3375 146.29 42.3375C146.404 42.3375 146.521 42.3135 146.64 42.2673C146.757 42.2203 146.86 42.1581 146.95 42.0817ZM146.95 42.6368C146.889 42.6838 146.812 42.7407 146.72 42.8073C146.629 42.873 146.543 42.9254 146.462 42.9636C146.348 43.0151 146.231 43.0533 146.111 43.0773C145.988 43.1021 145.856 43.1146 145.712 43.1146C145.371 43.1146 145.085 43.0089 144.856 42.7975C144.626 42.5861 144.511 42.3162 144.511 41.9885C144.511 41.7256 144.57 41.5116 144.687 41.3455C144.805 41.1785 144.97 41.0471 145.185 40.9512C145.397 40.8562 145.662 40.7869 145.977 40.7469C146.291 40.707 146.618 40.6759 146.956 40.6572V40.6377C146.956 40.4396 146.875 40.302 146.713 40.2274C146.552 40.1519 146.314 40.1137 145.998 40.1137C145.809 40.1137 145.607 40.1475 145.393 40.2141C145.178 40.2816 145.023 40.3331 144.93 40.3695H144.824V39.5027C144.946 39.4707 145.143 39.4326 145.417 39.389C145.69 39.3455 145.964 39.3233 146.238 39.3233C146.892 39.3233 147.364 39.4237 147.653 39.6262C147.944 39.8278 148.089 40.1439 148.089 40.5746V43.0186H146.95V42.6368ZM150.295 43.0178H149.145V38.04H150.295V43.0178ZM157.098 43.0178H155.95V42.643C155.752 42.8055 155.567 42.9245 155.395 43.0009C155.223 43.079 155.023 43.1163 154.797 43.1163C154.361 43.1163 154.012 42.9485 153.75 42.611C153.489 42.2735 153.358 41.8197 153.358 41.2487C153.358 40.9441 153.402 40.6732 153.491 40.437C153.579 40.2007 153.7 39.9992 153.854 39.8313C153.998 39.6723 154.174 39.5471 154.38 39.4592C154.587 39.3713 154.793 39.326 155 39.326C155.215 39.326 155.39 39.3491 155.528 39.3953C155.665 39.4405 155.807 39.4992 155.951 39.5702V38.0409H157.099C157.098 38.0409 157.098 43.0178 157.098 43.0178ZM155.95 42.0266V40.2647C155.869 40.2301 155.784 40.2061 155.694 40.191C155.605 40.1759 155.523 40.1688 155.449 40.1688C155.146 40.1688 154.92 40.2629 154.769 40.4512C154.618 40.6403 154.542 40.9023 154.542 41.2363C154.542 41.5879 154.602 41.8428 154.725 42.0027C154.845 42.1608 155.041 42.2407 155.309 42.2407C155.412 42.2407 155.523 42.2211 155.64 42.1821C155.758 42.1421 155.861 42.0906 155.95 42.0266ZM161.713 41.4352H159.083C159.1 41.7167 159.207 41.9325 159.405 42.0817C159.601 42.23 159.89 42.3055 160.274 42.3055C160.517 42.3055 160.752 42.262 160.979 42.1741C161.207 42.0862 161.387 41.9929 161.52 41.8926H161.647V42.8162C161.387 42.921 161.143 42.9964 160.913 43.0435C160.683 43.0906 160.429 43.1146 160.15 43.1146C159.431 43.1146 158.879 42.952 158.497 42.6288C158.115 42.3046 157.922 41.8428 157.922 41.2434C157.922 40.6501 158.103 40.1803 158.466 39.8331C158.829 39.4867 159.326 39.3135 159.959 39.3135C160.541 39.3135 160.979 39.4619 161.273 39.7567C161.568 40.0524 161.714 40.4778 161.714 41.032V41.4352H161.713ZM160.57 40.7602C160.565 40.5187 160.504 40.3375 160.391 40.2167C160.278 40.0942 160.103 40.0347 159.865 40.0347C159.643 40.0347 159.462 40.0915 159.319 40.207C159.176 40.3215 159.096 40.5063 159.079 40.7602H160.57ZM168.259 43.0178H164.822V38.255H168.259V39.175H166.041V39.9974H168.099V40.9183H166.041V42.0959H168.259V43.0178ZM172.823 43.0178H171.668V41.2363C171.668 41.0906 171.66 40.9467 171.646 40.8029C171.63 40.659 171.605 40.5524 171.568 40.4849C171.526 40.405 171.464 40.3482 171.382 40.3118C171.301 40.2753 171.187 40.2576 171.039 40.2576C170.935 40.2576 170.829 40.2745 170.722 40.3091C170.614 40.3428 170.498 40.3979 170.373 40.4716V43.0178H169.224V39.4254H170.373V39.8215C170.577 39.6626 170.773 39.5391 170.961 39.4539C171.15 39.3686 171.358 39.326 171.589 39.326C171.975 39.326 172.278 39.4397 172.496 39.6652C172.715 39.8908 172.824 40.2283 172.824 40.6785L172.823 43.0178ZM177.363 42.6057C177.363 42.9432 177.315 43.2256 177.22 43.4565C177.125 43.6865 176.99 43.8668 176.817 43.9973C176.645 44.1305 176.437 44.2256 176.194 44.2842C175.951 44.3419 175.675 44.3712 175.369 44.3712C175.121 44.3712 174.875 44.357 174.633 44.3268C174.391 44.2975 174.182 44.2611 174.006 44.2184V43.3188H174.146C174.287 43.3748 174.458 43.4263 174.66 43.4716C174.861 43.5177 175.042 43.5399 175.202 43.5399C175.415 43.5399 175.588 43.5195 175.72 43.4804C175.853 43.4405 175.955 43.3854 176.025 43.3135C176.091 43.2451 176.139 43.1572 176.169 43.0506C176.198 42.9449 176.213 42.8162 176.213 42.667V42.5995C176.075 42.7131 175.921 42.8028 175.753 42.8677C175.585 42.9343 175.398 42.9671 175.191 42.9671C174.689 42.9671 174.303 42.8153 174.031 42.5133C173.759 42.2105 173.622 41.7496 173.622 41.1315C173.622 40.8357 173.664 40.58 173.746 40.3642C173.83 40.1492 173.947 39.961 174.097 39.802C174.238 39.6528 174.411 39.5365 174.616 39.453C174.822 39.3695 175.032 39.3287 175.246 39.3287C175.44 39.3287 175.616 39.3517 175.774 39.3979C175.932 39.4432 176.077 39.5072 176.207 39.588L176.248 39.429H177.362L177.363 42.6057ZM176.215 41.8863V40.2585C176.148 40.2301 176.068 40.2087 175.972 40.1928C175.876 40.1768 175.79 40.1688 175.714 40.1688C175.411 40.1688 175.185 40.2549 175.035 40.429C174.883 40.6039 174.808 40.8464 174.808 41.1572C174.808 41.5018 174.872 41.7434 175.001 41.8801C175.129 42.0169 175.32 42.0853 175.574 42.0853C175.689 42.0853 175.802 42.0666 175.912 42.0302C176.023 41.9938 176.124 41.9458 176.215 41.8863ZM181.978 41.4352H179.348C179.366 41.7167 179.472 41.9325 179.67 42.0817C179.866 42.23 180.155 42.3055 180.539 42.3055C180.782 42.3055 181.015 42.262 181.243 42.1741C181.471 42.0862 181.651 41.9929 181.784 41.8926H181.911V42.8162C181.651 42.921 181.407 42.9964 181.178 43.0435C180.948 43.0906 180.694 43.1146 180.415 43.1146C179.696 43.1146 179.145 42.952 178.761 42.6288C178.379 42.3046 178.187 41.8428 178.187 41.2434C178.187 40.6501 178.368 40.1803 178.73 39.8331C179.094 39.4867 179.591 39.3135 180.222 39.3135C180.805 39.3135 181.243 39.4619 181.537 39.7567C181.831 40.0524 181.978 40.4778 181.978 41.032V41.4352ZM180.835 40.7602C180.829 40.5187 180.769 40.3375 180.656 40.2167C180.543 40.0942 180.369 40.0347 180.129 40.0347C179.908 40.0347 179.726 40.0915 179.584 40.207C179.441 40.3215 179.361 40.5063 179.344 40.7602H180.835ZM186.388 43.0178H185.233V41.2363C185.233 41.0906 185.225 40.9467 185.211 40.8029C185.196 40.659 185.17 40.5524 185.134 40.4849C185.091 40.405 185.029 40.3482 184.948 40.3118C184.866 40.2753 184.752 40.2576 184.605 40.2576C184.5 40.2576 184.395 40.2745 184.288 40.3091C184.179 40.3428 184.063 40.3979 183.938 40.4716V43.0178H182.788V39.4254H183.938V39.8215C184.141 39.6626 184.337 39.5391 184.526 39.4539C184.715 39.3686 184.924 39.326 185.153 39.326C185.54 39.326 185.843 39.4397 186.061 39.6652C186.279 39.8908 186.388 40.2283 186.388 40.6785V43.0178ZM191.044 43.0178H189.888V41.2363C189.888 41.0906 189.88 40.9467 189.866 40.8029C189.851 40.659 189.826 40.5524 189.789 40.4849C189.746 40.405 189.684 40.3482 189.603 40.3118C189.521 40.2753 189.407 40.2576 189.26 40.2576C189.155 40.2576 189.05 40.2745 188.943 40.3091C188.835 40.3428 188.719 40.3979 188.593 40.4716V43.0178H187.444V38.04H188.593V39.8215C188.797 39.6626 188.992 39.5391 189.181 39.4539C189.37 39.3686 189.579 39.326 189.809 39.326C190.195 39.326 190.498 39.4397 190.716 39.6652C190.935 39.8908 191.044 40.2283 191.044 40.6785V43.0178ZM194.27 42.0817V41.3331C194.115 41.3464 193.946 41.3633 193.766 41.3855C193.585 41.4085 193.447 41.4343 193.354 41.4645C193.239 41.5009 193.151 41.5542 193.091 41.6226C193.03 41.6927 193 41.7833 193 41.897C193 41.9716 193.006 42.032 193.02 42.079C193.033 42.1261 193.064 42.1705 193.115 42.2131C193.164 42.2558 193.222 42.2869 193.291 42.3073C193.358 42.3277 193.465 42.3375 193.61 42.3375C193.724 42.3375 193.841 42.3135 193.96 42.2673C194.077 42.2203 194.18 42.1581 194.27 42.0817ZM194.27 42.6368C194.209 42.6838 194.132 42.7407 194.04 42.8073C193.949 42.873 193.863 42.9254 193.782 42.9636C193.669 43.0151 193.552 43.0533 193.432 43.0773C193.309 43.1021 193.176 43.1146 193.033 43.1146C192.692 43.1146 192.406 43.0089 192.177 42.7975C191.947 42.5861 191.832 42.3162 191.832 41.9885C191.832 41.7256 191.891 41.5116 192.008 41.3455C192.126 41.1785 192.29 41.0471 192.506 40.9512C192.718 40.8562 192.982 40.7869 193.298 40.7469C193.612 40.707 193.939 40.6759 194.277 40.6572V40.6377C194.277 40.4396 194.196 40.302 194.034 40.2274C193.873 40.1519 193.634 40.1137 193.319 40.1137C193.129 40.1137 192.928 40.1475 192.714 40.2141C192.499 40.2816 192.344 40.3331 192.251 40.3695H192.146V39.5027C192.267 39.4707 192.465 39.4326 192.739 39.389C193.011 39.3455 193.285 39.3233 193.56 39.3233C194.214 39.3233 194.685 39.4237 194.975 39.6262C195.266 39.8278 195.411 40.1439 195.411 40.5746V43.0186H194.272L194.27 42.6368ZM199.063 40.5231H198.96C198.912 40.5054 198.833 40.4929 198.724 40.4849C198.616 40.4761 198.525 40.4716 198.453 40.4716C198.289 40.4716 198.144 40.4823 198.019 40.5036C197.894 40.5258 197.758 40.5613 197.614 40.6128V43.0178H196.464V39.4254H197.614V39.953C197.866 39.7354 198.086 39.5915 198.274 39.5196C198.462 39.4485 198.633 39.413 198.791 39.413C198.832 39.413 198.877 39.4139 198.929 39.4166C198.98 39.4183 199.024 39.4219 199.062 39.4263C199.063 39.4263 199.063 40.5231 199.063 40.5231ZM200.863 43.0178H199.714V39.4254H200.863V43.0178ZM200.895 38.9139H199.682V38.04H200.895V38.9139ZM204.118 42.0817V41.3331C203.964 41.3464 203.795 41.3633 203.614 41.3855C203.433 41.4085 203.296 41.4343 203.202 41.4645C203.088 41.5009 202.999 41.5542 202.94 41.6226C202.879 41.6927 202.848 41.7833 202.848 41.897C202.848 41.9716 202.855 42.032 202.868 42.079C202.881 42.1261 202.912 42.1705 202.964 42.2131C203.012 42.2558 203.07 42.2869 203.139 42.3073C203.206 42.3277 203.314 42.3375 203.458 42.3375C203.572 42.3375 203.689 42.3135 203.808 42.2673C203.925 42.2203 204.029 42.1581 204.118 42.0817ZM204.118 42.6368C204.057 42.6838 203.98 42.7407 203.889 42.8073C203.797 42.873 203.711 42.9254 203.631 42.9636C203.517 43.0151 203.4 43.0533 203.28 43.0773C203.158 43.1021 203.025 43.1146 202.881 43.1146C202.54 43.1146 202.255 43.0089 202.025 42.7975C201.795 42.5861 201.681 42.3162 201.681 41.9885C201.681 41.7256 201.739 41.5116 201.856 41.3455C201.974 41.1785 202.14 41.0471 202.354 40.9512C202.567 40.8562 202.831 40.7869 203.146 40.7469C203.461 40.707 203.788 40.6759 204.125 40.6572V40.6377C204.125 40.4396 204.045 40.302 203.882 40.2274C203.721 40.1519 203.483 40.1137 203.167 40.1137C202.978 40.1137 202.777 40.1475 202.562 40.2141C202.347 40.2816 202.193 40.3331 202.099 40.3695H201.993V39.5027C202.115 39.4707 202.312 39.4326 202.586 39.389C202.858 39.3455 203.133 39.3233 203.407 39.3233C204.06 39.3233 204.533 39.4237 204.822 39.6262C205.113 39.8278 205.258 40.1439 205.258 40.5746V43.0186H204.119L204.118 42.6368Z" fill="#FEFEFE"/>
<path fill-rule="evenodd" clip-rule="evenodd" d="M91.8785 49.2733H89.2487C89.2656 49.5548 89.3728 49.7698 89.5704 49.9198C89.7662 50.0682 90.0559 50.1436 90.4396 50.1436C90.6823 50.1436 90.9171 50.1001 91.1449 50.0122C91.3726 49.9234 91.5524 49.831 91.6854 49.7307H91.8129V50.6543C91.5524 50.7591 91.3088 50.8346 91.0784 50.8816C90.8489 50.9287 90.5946 50.9527 90.3155 50.9527C89.597 50.9527 89.0449 50.7902 88.6622 50.4669C88.2803 50.1428 88.088 49.681 88.088 49.0815C88.088 48.4883 88.2688 48.0193 88.6312 47.6712C88.9944 47.3249 89.4915 47.1517 90.1241 47.1517C90.7063 47.1517 91.1449 47.3 91.439 47.5948C91.7332 47.8906 91.8794 48.3151 91.8794 48.8701V49.2733H91.8785ZM90.7364 48.5984C90.7311 48.3568 90.6708 48.1757 90.5574 48.0549C90.4449 47.9323 90.2694 47.8719 90.0311 47.8719C89.8096 47.8719 89.628 47.9288 89.4853 48.0442C89.3427 48.1588 89.2629 48.3435 89.2452 48.5975H90.7364V48.5984ZM99.3788 50.8568H98.1118L97.7831 49.8941H96.0216L95.6929 50.8568H94.4578L96.2139 46.094H97.6245L99.3788 50.8568ZM97.4863 49.0202L96.9015 47.3124L96.3176 49.0202H97.4863ZM103.482 50.4438C103.482 50.7813 103.434 51.0637 103.339 51.2946C103.244 51.5255 103.109 51.7049 102.936 51.8354C102.764 51.9687 102.556 52.0637 102.313 52.1223C102.07 52.18 101.794 52.2093 101.488 52.2093C101.24 52.2093 100.994 52.1951 100.752 52.1649C100.51 52.1356 100.301 52.0992 100.125 52.0566V51.157H100.266C100.407 51.2129 100.578 51.2644 100.78 51.3097C100.982 51.355 101.162 51.3781 101.322 51.3781C101.535 51.3781 101.707 51.3577 101.84 51.3186C101.973 51.2786 102.074 51.2236 102.145 51.1516C102.211 51.0832 102.258 50.9953 102.289 50.8888C102.319 50.7831 102.334 50.6543 102.334 50.5051V50.4376C102.196 50.5513 102.041 50.641 101.874 50.7058C101.706 50.7724 101.519 50.8053 101.312 50.8053C100.81 50.8053 100.424 50.6534 100.151 50.3515C99.8795 50.0486 99.743 49.5877 99.743 48.9696C99.743 48.6739 99.7847 48.4181 99.8671 48.2023C99.9495 47.9874 100.067 47.7991 100.218 47.6401C100.358 47.4909 100.532 47.3746 100.736 47.2911C100.943 47.2076 101.153 47.1668 101.367 47.1668C101.561 47.1668 101.737 47.1899 101.895 47.2352C102.053 47.2814 102.198 47.3444 102.328 47.4252L102.369 47.2654H103.482V50.4438ZM102.335 49.7245V48.0966C102.268 48.0682 102.188 48.0469 102.092 48.0309C101.996 48.0149 101.909 48.0069 101.834 48.0069C101.531 48.0069 101.305 48.0931 101.154 48.2671C101.003 48.4421 100.928 48.6845 100.928 48.9954C100.928 49.3399 100.992 49.5815 101.121 49.7183C101.249 49.855 101.44 49.9234 101.694 49.9234C101.808 49.9234 101.922 49.9048 102.032 49.8692C102.142 49.8328 102.243 49.7849 102.335 49.7245ZM107.165 48.3622H107.063C107.014 48.3444 106.935 48.332 106.826 48.324C106.718 48.3151 106.628 48.3106 106.555 48.3106C106.391 48.3106 106.247 48.3213 106.121 48.3426C105.996 48.3648 105.86 48.4003 105.716 48.4518V50.8568H104.567V47.2645H105.716V47.792C105.968 47.5744 106.189 47.4306 106.376 47.3586C106.564 47.2876 106.736 47.252 106.893 47.252C106.934 47.252 106.979 47.2529 107.031 47.2556C107.082 47.2574 107.126 47.2609 107.165 47.2654C107.165 47.2645 107.165 48.3622 107.165 48.3622ZM111.48 49.062C111.48 49.6525 111.309 50.1188 110.964 50.4589C110.621 50.7991 110.138 50.9696 109.517 50.9696C108.895 50.9696 108.412 50.7991 108.069 50.4589C107.726 50.1188 107.553 49.6534 107.553 49.062C107.553 48.4678 107.727 48.0007 108.072 47.6615C108.417 47.3231 108.899 47.1526 109.516 47.1526C110.142 47.1526 110.625 47.324 110.966 47.6641C111.309 48.006 111.48 48.4714 111.48 49.062ZM110.065 49.9349C110.141 49.8435 110.197 49.7334 110.233 49.6046C110.27 49.4758 110.29 49.2964 110.29 49.0682C110.29 48.8577 110.27 48.6801 110.232 48.5371C110.194 48.3941 110.141 48.2804 110.072 48.1943C110.004 48.1073 109.922 48.046 109.826 48.0096C109.73 47.9723 109.627 47.9554 109.517 47.9554C109.405 47.9554 109.308 47.9696 109.222 47.9998C109.135 48.0291 109.054 48.0895 108.975 48.1792C108.904 48.2627 108.848 48.3772 108.807 48.5211C108.766 48.6659 108.745 48.8479 108.745 49.0682C108.745 49.2644 108.763 49.435 108.798 49.5788C108.836 49.7218 108.888 49.8373 108.959 49.9252C109.026 50.0095 109.108 50.069 109.202 50.1081C109.297 50.1472 109.405 50.1659 109.526 50.1659C109.63 50.1659 109.73 50.1481 109.824 50.1135C109.919 50.0779 110 50.0184 110.065 49.9349ZM115.903 50.8568H114.747V49.0753C114.747 48.9305 114.739 48.7858 114.725 48.6419C114.71 48.498 114.684 48.3923 114.648 48.324C114.605 48.244 114.543 48.1872 114.462 48.1508C114.38 48.1144 114.266 48.0966 114.119 48.0966C114.015 48.0966 113.909 48.1135 113.802 48.1481C113.694 48.1819 113.578 48.236 113.452 48.3106V50.8568H112.303V47.2645H113.452V47.6606C113.656 47.5016 113.851 47.3781 114.04 47.2929C114.229 47.2076 114.438 47.1659 114.668 47.1659C115.054 47.1659 115.357 47.2796 115.575 47.5051C115.794 47.7307 115.903 48.0682 115.903 48.5185V50.8568ZM120.622 49.062C120.622 49.6525 120.451 50.1188 120.106 50.4589C119.763 50.7991 119.28 50.9696 118.659 50.9696C118.037 50.9696 117.554 50.7991 117.211 50.4589C116.868 50.1188 116.696 49.6534 116.696 49.062C116.696 48.4678 116.868 48.0007 117.214 47.6615C117.56 47.3231 118.041 47.1526 118.658 47.1526C119.284 47.1526 119.768 47.324 120.108 47.6641C120.452 48.006 120.622 48.4714 120.622 49.062ZM119.208 49.9349C119.283 49.8435 119.338 49.7334 119.375 49.6046C119.412 49.4758 119.432 49.2964 119.432 49.0682C119.432 48.8577 119.412 48.6801 119.374 48.5371C119.336 48.3941 119.283 48.2804 119.215 48.1943C119.147 48.1073 119.065 48.046 118.969 48.0096C118.874 47.9723 118.77 47.9554 118.66 47.9554C118.548 47.9554 118.451 47.9696 118.365 47.9998C118.277 48.0291 118.197 48.0895 118.118 48.1792C118.047 48.2627 117.991 48.3772 117.95 48.5211C117.909 48.6659 117.888 48.8479 117.888 49.0682C117.888 49.2644 117.906 49.435 117.941 49.5788C117.979 49.7218 118.031 49.8373 118.101 49.9252C118.168 50.0095 118.251 50.069 118.345 50.1081C118.44 50.1472 118.548 50.1659 118.669 50.1659C118.773 50.1659 118.873 50.1481 118.967 50.1135C119.061 50.0779 119.142 50.0184 119.208 49.9349ZM124.949 48.3106V50.8568H123.793V49.062C123.793 48.887 123.788 48.7387 123.78 48.6161C123.772 48.4927 123.748 48.3932 123.71 48.3169C123.671 48.2405 123.614 48.1836 123.535 48.149C123.458 48.1144 123.349 48.0966 123.208 48.0966C123.096 48.0966 122.986 48.1197 122.879 48.1659C122.774 48.2121 122.677 48.26 122.593 48.3106V50.8568H121.444V47.2645H122.593V47.6606C122.79 47.5051 122.979 47.3835 123.16 47.2956C123.341 47.2085 123.541 47.165 123.76 47.165C123.997 47.165 124.205 47.2174 124.386 47.3231C124.566 47.4288 124.708 47.5842 124.811 47.7884C125.041 47.5948 125.264 47.4421 125.481 47.3311C125.698 47.221 125.911 47.165 126.119 47.165C126.507 47.165 126.801 47.2814 127.001 47.5131C127.202 47.7458 127.303 48.0806 127.303 48.5176V50.8559H126.147V49.0611C126.147 48.8843 126.144 48.736 126.136 48.6135C126.128 48.4927 126.106 48.3932 126.068 48.3169C126.032 48.2405 125.974 48.1836 125.896 48.149C125.817 48.1144 125.707 48.0966 125.564 48.0966C125.468 48.0966 125.374 48.1135 125.283 48.1455C125.193 48.1783 125.081 48.2343 124.949 48.3106ZM129.511 50.8568H128.361V47.2645H129.511V50.8568ZM129.542 46.7521H128.329V45.8782H129.542V46.7521ZM132.765 49.9198V49.1712C132.611 49.1845 132.442 49.2023 132.261 49.2236C132.08 49.2467 131.943 49.2724 131.849 49.3026C131.734 49.339 131.646 49.3923 131.586 49.4607C131.525 49.53 131.495 49.6206 131.495 49.7342C131.495 49.8088 131.501 49.8701 131.515 49.9163C131.528 49.9634 131.56 50.0078 131.61 50.0504C131.659 50.093 131.717 50.1241 131.786 50.1445C131.853 50.165 131.96 50.1747 132.105 50.1747C132.219 50.1747 132.336 50.1508 132.455 50.1046C132.573 50.0584 132.676 49.9962 132.765 49.9198ZM132.765 50.4758C132.704 50.5229 132.627 50.5797 132.535 50.6463C132.444 50.712 132.358 50.7644 132.278 50.8026C132.164 50.8541 132.047 50.8923 131.927 50.9163C131.804 50.9412 131.672 50.9536 131.528 50.9536C131.187 50.9536 130.902 50.8479 130.672 50.6374C130.442 50.4252 130.327 50.1561 130.327 49.8284C130.327 49.5655 130.387 49.3515 130.503 49.1854C130.621 49.0184 130.786 48.8879 131.001 48.7911C131.213 48.6961 131.478 48.6268 131.793 48.5868C132.107 48.546 132.434 48.5158 132.772 48.4971V48.4776C132.772 48.2796 132.691 48.1428 132.529 48.0673C132.368 47.9918 132.13 47.9536 131.814 47.9536C131.625 47.9536 131.423 47.9874 131.209 48.054C130.993 48.1215 130.84 48.173 130.746 48.2094H130.64V47.3426C130.762 47.3107 130.959 47.2725 131.233 47.229C131.505 47.1854 131.78 47.1632 132.054 47.1632C132.707 47.1632 133.18 47.2636 133.469 47.4661C133.76 47.6677 133.905 47.9838 133.905 48.4145V50.8577H132.766C132.765 50.8568 132.765 50.4758 132.765 50.4758ZM140.681 50.8568H139.533V50.482C139.334 50.6445 139.149 50.7635 138.977 50.8399C138.805 50.9181 138.606 50.9554 138.38 50.9554C137.944 50.9554 137.595 50.7875 137.333 50.45C137.072 50.1126 136.941 49.6588 136.941 49.0877C136.941 48.7831 136.984 48.5122 137.073 48.276C137.161 48.0398 137.282 47.8382 137.436 47.6703C137.581 47.5114 137.756 47.3861 137.962 47.2982C138.169 47.2103 138.375 47.165 138.583 47.165C138.797 47.165 138.973 47.1881 139.11 47.2334C139.247 47.2796 139.389 47.3373 139.533 47.4083V45.8791H140.682V50.8568H140.681ZM139.533 49.8657V48.1037C139.451 48.0691 139.366 48.0451 139.276 48.03C139.187 48.0149 139.105 48.0078 139.031 48.0078C138.728 48.0078 138.502 48.1019 138.351 48.2902C138.2 48.4794 138.125 48.7414 138.125 49.0753C138.125 49.427 138.185 49.6827 138.307 49.8417C138.428 49.9998 138.623 50.0797 138.891 50.0797C138.995 50.0797 139.105 50.0602 139.222 50.0211C139.339 49.9811 139.443 49.9287 139.533 49.8657ZM145.294 49.2733H142.665C142.682 49.5548 142.789 49.7698 142.986 49.9198C143.182 50.0682 143.472 50.1436 143.856 50.1436C144.098 50.1436 144.333 50.1001 144.561 50.0122C144.789 49.9234 144.968 49.831 145.101 49.7307H145.229V50.6543C144.968 50.7591 144.725 50.8346 144.495 50.8816C144.265 50.9287 144.011 50.9527 143.732 50.9527C143.014 50.9527 142.462 50.7902 142.079 50.4669C141.697 50.1428 141.505 49.681 141.505 49.0815C141.505 48.4883 141.686 48.0193 142.048 47.6712C142.41 47.3249 142.908 47.1517 143.54 47.1517C144.123 47.1517 144.561 47.3 144.855 47.5948C145.149 47.8906 145.295 48.3151 145.295 48.8701V49.2733H145.294ZM144.152 48.5984C144.147 48.3568 144.087 48.1757 143.973 48.0549C143.861 47.9323 143.686 47.8719 143.447 47.8719C143.226 47.8719 143.044 47.9288 142.901 48.0442C142.759 48.1588 142.679 48.3435 142.661 48.5975H144.152V48.5984ZM152.207 49.3595C152.207 49.8293 152.009 50.2103 151.611 50.5024C151.214 50.7964 150.676 50.942 149.996 50.942C149.602 50.942 149.259 50.9074 148.966 50.8381C148.673 50.768 148.4 50.6809 148.144 50.5735V49.4314H148.278C148.531 49.6348 148.815 49.7893 149.128 49.8985C149.442 50.0078 149.744 50.0611 150.034 50.0611C150.107 50.0611 150.206 50.0557 150.327 50.0424C150.449 50.0291 150.547 50.0087 150.624 49.9776C150.718 49.9394 150.794 49.8914 150.855 49.8337C150.916 49.7769 150.947 49.6916 150.947 49.5779C150.947 49.4731 150.901 49.3834 150.814 49.3071C150.726 49.2316 150.596 49.1739 150.426 49.133C150.247 49.0904 150.058 49.0504 149.859 49.0131C149.66 48.9758 149.474 48.9279 149.299 48.871C148.9 48.7405 148.612 48.5637 148.435 48.3417C148.26 48.1188 148.172 47.8417 148.172 47.5114C148.172 47.0682 148.371 46.7068 148.767 46.4261C149.164 46.1455 149.674 46.0061 150.297 46.0061C150.61 46.0061 150.919 46.0354 151.224 46.0966C151.529 46.1579 151.794 46.2343 152.017 46.3258V47.4226H151.887C151.695 47.2698 151.46 47.141 151.183 47.0371C150.905 46.9341 150.622 46.8817 150.333 46.8817C150.23 46.8817 150.129 46.8897 150.028 46.9021C149.928 46.9163 149.829 46.9421 149.735 46.9812C149.653 47.0132 149.582 47.062 149.522 47.1259C149.462 47.1917 149.432 47.2654 149.432 47.3488C149.432 47.475 149.48 47.5718 149.576 47.6384C149.672 47.7059 149.852 47.7671 150.118 47.8231C150.293 47.8595 150.46 47.8941 150.62 47.9279C150.782 47.9625 150.954 48.0096 151.139 48.0691C151.502 48.189 151.771 48.3515 151.945 48.5566C152.121 48.7636 152.207 49.0309 152.207 49.3595ZM155.153 49.9198V49.1712C154.998 49.1845 154.829 49.2023 154.648 49.2236C154.468 49.2467 154.33 49.2724 154.236 49.3026C154.122 49.339 154.034 49.3923 153.974 49.4607C153.913 49.53 153.883 49.6206 153.883 49.7342C153.883 49.8088 153.889 49.8701 153.902 49.9163C153.916 49.9634 153.947 50.0078 153.998 50.0504C154.047 50.093 154.104 50.1241 154.174 50.1445C154.241 50.165 154.348 50.1747 154.492 50.1747C154.607 50.1747 154.724 50.1508 154.842 50.1046C154.96 50.0584 155.064 49.9962 155.153 49.9198ZM155.153 50.4758C155.091 50.5229 155.014 50.5797 154.923 50.6463C154.832 50.712 154.746 50.7644 154.665 50.8026C154.552 50.8541 154.435 50.8923 154.314 50.9163C154.192 50.9412 154.059 50.9536 153.916 50.9536C153.575 50.9536 153.289 50.8479 153.06 50.6374C152.829 50.4252 152.715 50.1561 152.715 49.8284C152.715 49.5655 152.774 49.3515 152.891 49.1854C153.008 49.0184 153.174 48.8879 153.388 48.7911C153.601 48.6961 153.865 48.6268 154.181 48.5868C154.495 48.546 154.822 48.5158 155.16 48.4971V48.4776C155.16 48.2796 155.079 48.1428 154.917 48.0673C154.756 47.9918 154.517 47.9536 154.202 47.9536C154.012 47.9536 153.811 47.9874 153.597 48.054C153.381 48.1215 153.227 48.173 153.133 48.2094H153.028V47.3426C153.149 47.3107 153.347 47.2725 153.621 47.229C153.893 47.1854 154.167 47.1632 154.442 47.1632C155.095 47.1632 155.567 47.2636 155.857 47.4661C156.148 47.6677 156.293 47.9838 156.293 48.4145V50.8577H155.153L155.153 50.4758ZM160.949 50.8568H159.794V49.0753C159.794 48.9305 159.786 48.7858 159.772 48.6419C159.756 48.498 159.731 48.3923 159.694 48.324C159.652 48.244 159.59 48.1872 159.508 48.1508C159.427 48.1144 159.313 48.0966 159.165 48.0966C159.061 48.0966 158.955 48.1135 158.848 48.1481C158.74 48.1819 158.624 48.236 158.498 48.3106V50.8568H157.349V47.2645H158.498V47.6606C158.702 47.5016 158.898 47.3781 159.087 47.2929C159.275 47.2076 159.484 47.1659 159.714 47.1659C160.1 47.1659 160.403 47.2796 160.621 47.5051C160.84 47.7307 160.949 48.0682 160.949 48.5185V50.8568ZM164.297 50.8248C164.173 50.8568 164.042 50.8816 163.904 50.9003C163.766 50.9181 163.597 50.9269 163.396 50.9269C162.95 50.9269 162.617 50.8364 162.4 50.6552C162.182 50.474 162.073 50.1641 162.073 49.7245V48.0451H161.599V47.2645H162.073V46.2379H163.221V47.2645H164.297V48.0451H163.221V49.3186C163.221 49.4438 163.222 49.5548 163.224 49.6481C163.226 49.7422 163.243 49.8257 163.275 49.9003C163.304 49.9749 163.357 50.0344 163.433 50.0788C163.508 50.1223 163.619 50.1445 163.762 50.1445C163.823 50.1445 163.9 50.1312 163.998 50.1064C164.095 50.0797 164.163 50.0575 164.201 50.0353H164.297C164.297 50.0344 164.297 50.8248 164.297 50.8248ZM167.152 49.9198V49.1712C166.997 49.1845 166.829 49.2023 166.648 49.2236C166.467 49.2467 166.33 49.2724 166.236 49.3026C166.122 49.339 166.033 49.3923 165.974 49.4607C165.913 49.53 165.883 49.6206 165.883 49.7342C165.883 49.8088 165.889 49.8701 165.902 49.9163C165.915 49.9634 165.946 50.0078 165.998 50.0504C166.046 50.093 166.104 50.1241 166.173 50.1445C166.241 50.165 166.348 50.1747 166.492 50.1747C166.606 50.1747 166.723 50.1508 166.842 50.1046C166.959 50.0584 167.063 49.9962 167.152 49.9198ZM167.152 50.4758C167.091 50.5229 167.014 50.5797 166.923 50.6463C166.832 50.712 166.746 50.7644 166.665 50.8026C166.552 50.8541 166.435 50.8923 166.314 50.9163C166.192 50.9412 166.06 50.9536 165.915 50.9536C165.574 50.9536 165.289 50.8479 165.059 50.6374C164.829 50.4252 164.715 50.1561 164.715 49.8284C164.715 49.5655 164.773 49.3515 164.89 49.1854C165.008 49.0184 165.174 48.8879 165.388 48.7911C165.601 48.6961 165.866 48.6268 166.18 48.5868C166.495 48.546 166.822 48.5158 167.159 48.4971V48.4776C167.159 48.2796 167.079 48.1428 166.917 48.0673C166.755 47.9918 166.517 47.9536 166.202 47.9536C166.013 47.9536 165.812 47.9874 165.597 48.054C165.382 48.1215 165.228 48.173 165.134 48.2094H165.028V47.3426C165.15 47.3107 165.347 47.2725 165.621 47.229C165.893 47.1854 166.168 47.1632 166.443 47.1632C167.096 47.1632 167.568 47.2636 167.858 47.4661C168.148 47.6677 168.293 47.9838 168.293 48.4145V50.8577H167.154L167.152 50.4758ZM173.794 50.9491C173.441 50.9491 173.115 50.8967 172.816 50.7919C172.517 50.688 172.26 50.5317 172.046 50.3257C171.831 50.1188 171.665 49.8603 171.546 49.5522C171.428 49.2422 171.37 48.8852 171.37 48.4803C171.37 48.1037 171.427 47.7609 171.538 47.4536C171.652 47.1464 171.815 46.8826 172.029 46.6632C172.236 46.4528 172.492 46.2885 172.797 46.1739C173.102 46.0585 173.435 46.0016 173.797 46.0016C173.997 46.0016 174.177 46.0123 174.338 46.0345C174.498 46.0576 174.647 46.0869 174.784 46.1224C174.926 46.1624 175.055 46.2085 175.17 46.2592C175.287 46.308 175.388 46.3551 175.475 46.3977V47.5531H175.334C175.276 47.5016 175.2 47.4403 175.11 47.3702C175.019 47.2991 174.917 47.2307 174.801 47.1615C174.685 47.094 174.558 47.0362 174.421 46.9892C174.285 46.9421 174.14 46.919 173.985 46.919C173.813 46.919 173.649 46.9448 173.493 46.9998C173.337 47.054 173.194 47.1446 173.061 47.2707C172.935 47.3915 172.834 47.554 172.757 47.7538C172.679 47.9545 172.641 48.197 172.641 48.4829C172.641 48.7822 172.683 49.0309 172.766 49.2316C172.851 49.4314 172.957 49.5895 173.084 49.704C173.214 49.8222 173.359 49.9048 173.518 49.9554C173.678 50.006 173.835 50.0309 173.991 50.0309C174.14 50.0309 174.287 50.0087 174.433 49.9643C174.579 49.9198 174.713 49.8586 174.836 49.7822C174.941 49.72 175.037 49.6534 175.127 49.5833C175.216 49.5131 175.289 49.4518 175.346 49.4003H175.474V50.5388C175.355 50.5921 175.241 50.6427 175.133 50.6898C175.024 50.7369 174.91 50.7769 174.791 50.8106C174.637 50.855 174.49 50.8896 174.354 50.9136C174.219 50.9376 174.032 50.9491 173.794 50.9491ZM178.482 49.9198V49.1712C178.328 49.1845 178.159 49.2023 177.978 49.2236C177.797 49.2467 177.66 49.2724 177.566 49.3026C177.452 49.339 177.363 49.3923 177.304 49.4607C177.243 49.53 177.212 49.6206 177.212 49.7342C177.212 49.8088 177.219 49.8701 177.232 49.9163C177.245 49.9634 177.277 50.0078 177.328 50.0504C177.376 50.093 177.434 50.1241 177.503 50.1445C177.57 50.165 177.678 50.1747 177.822 50.1747C177.936 50.1747 178.053 50.1508 178.172 50.1046C178.289 50.0584 178.393 49.9962 178.482 49.9198ZM178.482 50.4758C178.421 50.5229 178.344 50.5797 178.253 50.6463C178.161 50.712 178.075 50.7644 177.995 50.8026C177.881 50.8541 177.764 50.8923 177.644 50.9163C177.522 50.9412 177.389 50.9536 177.245 50.9536C176.904 50.9536 176.619 50.8479 176.389 50.6374C176.159 50.4252 176.045 50.1561 176.045 49.8284C176.045 49.5655 176.104 49.3515 176.22 49.1854C176.338 49.0184 176.504 48.8879 176.718 48.7911C176.931 48.6961 177.195 48.6268 177.51 48.5868C177.825 48.546 178.152 48.5158 178.489 48.4971V48.4776C178.489 48.2796 178.409 48.1428 178.246 48.0673C178.085 47.9918 177.847 47.9536 177.531 47.9536C177.342 47.9536 177.141 47.9874 176.926 48.054C176.71 48.1215 176.557 48.173 176.463 48.2094H176.357V47.3426C176.479 47.3107 176.676 47.2725 176.95 47.229C177.222 47.1854 177.497 47.1632 177.771 47.1632C178.424 47.1632 178.897 47.2636 179.187 47.4661C179.477 47.6677 179.622 47.9838 179.622 48.4145V50.8577H178.483L178.482 50.4758ZM182.97 50.8248C182.846 50.8568 182.716 50.8816 182.577 50.9003C182.439 50.9181 182.27 50.9269 182.07 50.9269C181.623 50.9269 181.291 50.8364 181.073 50.6552C180.855 50.474 180.746 50.1641 180.746 49.7245V48.0451H180.274V47.2645H180.746V46.2379H181.894V47.2645H182.97V48.0451H181.894V49.3186C181.894 49.4438 181.895 49.5548 181.898 49.6481C181.9 49.7422 181.917 49.8257 181.949 49.9003C181.978 49.9749 182.032 50.0344 182.107 50.0788C182.182 50.1223 182.293 50.1445 182.437 50.1445C182.497 50.1445 182.575 50.1312 182.672 50.1064C182.769 50.0797 182.837 50.0575 182.875 50.0353H182.971L182.97 50.8248ZM185.826 49.9198V49.1712C185.671 49.1845 185.502 49.2023 185.321 49.2236C185.141 49.2467 185.003 49.2724 184.909 49.3026C184.795 49.339 184.707 49.3923 184.647 49.4607C184.586 49.53 184.556 49.6206 184.556 49.7342C184.556 49.8088 184.562 49.8701 184.575 49.9163C184.589 49.9634 184.62 50.0078 184.671 50.0504C184.72 50.093 184.777 50.1241 184.847 50.1445C184.914 50.165 185.021 50.1747 185.166 50.1747C185.28 50.1747 185.397 50.1508 185.515 50.1046C185.632 50.0584 185.736 49.9962 185.826 49.9198ZM185.826 50.4758C185.764 50.5229 185.687 50.5797 185.595 50.6463C185.504 50.712 185.418 50.7644 185.337 50.8026C185.224 50.8541 185.108 50.8923 184.987 50.9163C184.864 50.9412 184.732 50.9536 184.588 50.9536C184.247 50.9536 183.961 50.8479 183.732 50.6374C183.502 50.4252 183.387 50.1561 183.387 49.8284C183.387 49.5655 183.446 49.3515 183.563 49.1854C183.68 49.0184 183.846 48.8879 184.061 48.7911C184.273 48.6961 184.538 48.6268 184.853 48.5868C185.167 48.546 185.494 48.5158 185.832 48.4971V48.4776C185.832 48.2796 185.751 48.1428 185.589 48.0673C185.428 47.9918 185.189 47.9536 184.874 47.9536C184.684 47.9536 184.483 47.9874 184.269 48.054C184.054 48.1215 183.899 48.173 183.805 48.2094H183.7V47.3426C183.82 47.3107 184.019 47.2725 184.293 47.229C184.565 47.1854 184.839 47.1632 185.114 47.1632C185.768 47.1632 186.239 47.2636 186.529 47.4661C186.82 47.6677 186.965 47.9838 186.965 48.4145V50.8577H185.826V50.4758ZM190.619 48.3613H190.516C190.468 48.3435 190.389 48.3311 190.28 48.3231C190.172 48.3142 190.081 48.3098 190.009 48.3098C189.846 48.3098 189.7 48.3204 189.575 48.3417C189.45 48.3639 189.315 48.3994 189.17 48.451V50.8559H188.021V47.2645H189.17V47.792C189.423 47.5744 189.643 47.4306 189.831 47.3586C190.018 47.2876 190.19 47.252 190.348 47.252C190.388 47.252 190.434 47.2529 190.485 47.2556C190.537 47.2574 190.581 47.2609 190.619 47.2654C190.619 47.2645 190.619 48.3613 190.619 48.3613ZM192.419 50.8568H191.269V47.2645H192.419V50.8568ZM192.451 46.7521H191.238V45.8782H192.451V46.7521ZM197.104 50.8568H195.949V49.0753C195.949 48.9305 195.941 48.7858 195.926 48.6419C195.911 48.498 195.887 48.3923 195.849 48.324C195.807 48.244 195.745 48.1872 195.663 48.1508C195.582 48.1144 195.468 48.0966 195.32 48.0966C195.216 48.0966 195.11 48.1135 195.003 48.1481C194.895 48.1819 194.779 48.236 194.654 48.3106V50.8568H193.505V47.2645H194.654V47.6606C194.858 47.5016 195.054 47.3781 195.242 47.2929C195.431 47.2076 195.64 47.1659 195.87 47.1659C196.256 47.1659 196.559 47.2796 196.777 47.5051C196.996 47.7307 197.105 48.0682 197.105 48.5185L197.104 50.8568Z" fill="#FEFEFE"/>
<path fill-rule="evenodd" clip-rule="evenodd" d="M200.329 49.9199V49.1713C200.174 49.1846 200.006 49.2024 199.825 49.2237C199.644 49.2468 199.507 49.2725 199.413 49.3027C199.299 49.3391 199.21 49.3924 199.151 49.4608C199.09 49.5301 199.06 49.6207 199.06 49.7343C199.06 49.8089 199.066 49.8702 199.079 49.9164C199.092 49.9635 199.123 50.0079 199.175 50.0505C199.224 50.0931 199.281 50.1242 199.35 50.1446C199.418 50.1651 199.525 50.1748 199.669 50.1748C199.784 50.1748 199.901 50.1508 200.019 50.1047C200.137 50.0585 200.24 49.9963 200.329 49.9199ZM200.329 50.4759C200.268 50.523 200.191 50.5798 200.1 50.6464C200.009 50.7121 199.923 50.7645 199.842 50.8027C199.729 50.8542 199.612 50.8924 199.491 50.9164C199.369 50.9412 199.236 50.9537 199.092 50.9537C198.751 50.9537 198.466 50.848 198.237 50.6375C198.006 50.4253 197.892 50.1562 197.892 49.8285C197.892 49.5656 197.95 49.3516 198.067 49.1855C198.185 49.0185 198.35 48.888 198.565 48.7912C198.778 48.6962 199.043 48.6269 199.357 48.5869C199.672 48.5461 199.999 48.5159 200.336 48.4972V48.4777C200.336 48.2797 200.256 48.1429 200.094 48.0674C199.932 47.9919 199.694 47.9537 199.379 47.9537C199.189 47.9537 198.988 47.9875 198.773 48.0541C198.558 48.1216 198.404 48.1731 198.311 48.2095H198.206V47.3427C198.327 47.3108 198.524 47.2726 198.798 47.229C199.07 47.1855 199.345 47.1633 199.62 47.1633C200.274 47.1633 200.745 47.2637 201.035 47.4662C201.325 47.6678 201.471 47.9839 201.471 48.4146V50.8578H200.331L200.329 50.4759Z" fill="#FEFEFE"/>
<path fill-rule="evenodd" clip-rule="evenodd" d="M0.31604 0H52.0157V48.041C52.0157 49.7701 50.6025 51.1865 48.8774 51.1865H28.991C27.685 51.1865 26.7866 52.1306 26.2222 54C25.6861 52.3943 24.894 51.1794 23.3026 51.1865H3.45618C1.73017 51.1865 0.316927 49.7709 0.316927 48.041C0.316041 48.041 0.31604 0 0.31604 0ZM51.3397 0.671392V48.0045C51.3397 49.3899 50.2073 50.5249 48.8242 50.5249H28.9574C27.6593 50.5258 26.4711 51.5071 26.2275 52.5391C25.9085 51.5036 24.661 50.5427 23.448 50.5249H3.50491C2.12268 50.5249 0.990317 49.3908 0.990317 48.0045V0.671392H51.3397Z" fill="#FEFEFE"/>
</svg>
