<svg width="272" height="78" viewBox="0 0 272 78" fill="none" xmlns="http://www.w3.org/2000/svg">
<path d="M24.08 48.1198L24.29 53.8198C21.99 54.4098 19.61 54.7098 17.17 54.7098C13.28 54.7098 10.42 53.8598 8.59 52.1498C6.76 50.4398 5.85 47.6498 5.85 43.7798V22.7598H0V16.9898H5.84V7.5098L12.86 6.0498V16.9798H23.3V22.7498H12.86V42.7998C12.86 45.1298 13.42 46.6798 14.53 47.4698C15.65 48.2498 17.34 48.6498 19.62 48.6498C21.12 48.6498 22.6 48.4698 24.08 48.1198Z" fill="white"/>
<path d="M62.5414 53.5998H55.5214C55.0414 52.4398 54.7814 50.9998 54.7414 49.2898C53.2714 50.9098 51.4214 52.2098 49.1814 53.2098C46.9514 54.2098 44.6314 54.7098 42.2314 54.7098C40.5214 54.7098 38.9714 54.5298 37.5614 54.1598C36.1614 53.7898 34.8914 53.2098 33.7714 52.4098C32.6414 51.6098 31.7614 50.5198 31.1314 49.1198C30.5014 47.7198 30.1914 46.0798 30.1914 44.1998C30.1914 39.7598 32.2414 36.4398 36.3514 34.2498C40.4614 32.0498 46.5814 30.8498 54.7314 30.6298V29.1698C54.7314 26.8898 54.0514 25.1198 52.7014 23.8598C51.3514 22.5998 49.3914 21.9598 46.8214 21.9398C44.4414 21.9198 42.3914 22.3698 40.6414 23.2898C38.8914 24.2098 37.3114 25.4998 35.8914 27.1398L32.0414 22.9698C33.3514 21.0698 35.3614 19.3998 38.0914 17.9698C40.8214 16.5398 43.8414 15.8198 47.1414 15.8198C48.7314 15.8198 50.2114 15.9598 51.5714 16.2298C52.9314 16.4998 54.2514 16.9698 55.5214 17.6398C56.7914 18.3098 57.8714 19.1498 58.7614 20.1698C59.6514 21.1898 60.3614 22.5098 60.9014 24.1198C61.4414 25.7298 61.7014 27.5598 61.7014 29.5998V48.4398C61.7214 50.3598 61.9914 52.0798 62.5414 53.5998ZM44.0914 49.0098C46.2714 49.0098 48.3014 48.4898 50.1614 47.4398C52.0214 46.3998 53.5514 44.9698 54.7414 43.1698V35.5098C49.5214 35.5798 45.4014 36.2898 42.4014 37.6498C39.4014 38.9998 37.8914 41.0498 37.8914 43.7798C37.8914 45.4398 38.4214 46.7298 39.4714 47.6398C40.5214 48.5498 42.0714 49.0098 44.0914 49.0098Z" fill="white"/>
<path d="M94.3391 16.92C98.4491 16.92 101.539 18.01 103.619 20.2C105.699 22.39 106.739 25.6 106.739 29.85V54.7H99.7191V32.09C99.7191 28.93 99.0691 26.62 97.7591 25.16C96.4491 23.7 94.4391 22.97 91.7091 22.97C89.4991 22.97 87.4691 23.63 85.6191 24.95C83.7691 26.27 82.2691 27.99 81.1291 30.13V54.7H74.0391V0H81.1291V22.97C82.6691 21.02 84.5791 19.53 86.8591 18.48C89.1391 17.44 91.6391 16.92 94.3391 16.92Z" fill="white"/>
<path d="M131.065 44.8335L141.195 16H149L134.606 54H127.243L113 16H120.88L131.065 44.8335Z" fill="white"/>
<path d="M185.064 53.2497H178.178C177.71 52.1105 177.456 50.6966 177.405 49.0182C175.961 50.605 174.14 51.8867 171.953 52.8632C169.766 53.8397 167.487 54.3279 165.138 54.3279C163.459 54.3279 161.934 54.1448 160.56 53.7888C159.187 53.4226 157.946 52.853 156.837 52.0799C155.729 51.2967 154.864 50.2185 154.254 48.8453C153.633 47.4721 153.328 45.8649 153.328 44.0238C153.328 39.6703 155.342 36.4153 159.37 34.2588C163.398 32.1024 169.41 30.9225 177.405 30.7089V29.2746C177.405 27.0368 176.744 25.3076 175.411 24.0666C174.079 22.8358 172.156 22.2052 169.644 22.1747C167.314 22.1543 165.29 22.5917 163.581 23.5072C161.872 24.4125 160.316 25.6738 158.912 27.2809L155.139 23.1918C156.42 21.3304 158.404 19.6927 161.079 18.2788C163.754 16.8649 166.714 16.1631 169.959 16.1631C171.515 16.1631 172.97 16.2953 174.313 16.57C175.655 16.8344 176.947 17.3023 178.188 17.9533C179.429 18.6043 180.497 19.4283 181.372 20.4353C182.247 21.4423 182.949 22.7341 183.467 24.3108C183.996 25.8976 184.251 27.6878 184.251 29.6917V48.1739C184.261 50.0659 184.525 51.7544 185.064 53.2497ZM166.958 48.7436C169.105 48.7436 171.088 48.235 172.919 47.2076C174.75 46.1803 176.245 44.7867 177.415 43.0168V35.4998C172.288 35.571 168.25 36.2729 165.311 37.5952C162.361 38.9277 160.886 40.9316 160.886 43.6068C160.886 45.2343 161.405 46.5058 162.442 47.4009C163.469 48.296 164.975 48.7436 166.958 48.7436Z" fill="white"/>
<path d="M251.871 54.1849C248.474 54.1849 245.361 53.3915 242.554 51.8047C239.746 50.2179 237.519 47.9699 235.861 45.0404C234.203 42.1211 233.379 38.8153 233.379 35.133C233.379 32.3358 233.867 29.7419 234.833 27.3617C235.8 24.9713 237.112 22.9573 238.78 21.2993C240.448 19.6413 242.412 18.3495 244.69 17.4238C246.958 16.488 249.379 16.0303 251.943 16.0303C255.34 16.0303 258.453 16.8237 261.26 18.4105C264.067 19.9973 266.305 22.2555 267.973 25.1951C269.642 28.1348 270.476 31.4508 270.476 35.1534C270.476 38.8356 269.642 42.1415 267.973 45.0608C266.305 47.9801 264.067 50.2383 261.25 51.8251C258.422 53.3915 255.299 54.1849 251.871 54.1849ZM251.871 47.858C255.157 47.858 257.832 46.7086 259.907 44.4199C261.982 42.1211 263.02 39.0289 263.02 35.1432C263.02 31.2067 261.982 28.0839 259.907 25.7749C257.832 23.4659 255.157 22.3165 251.871 22.3165C248.637 22.3165 245.982 23.4659 243.917 25.7749C241.852 28.0839 240.825 31.2067 240.825 35.1432C240.825 39.039 241.852 42.1313 243.917 44.4199C245.992 46.7086 248.637 47.858 251.871 47.858Z" fill="white"/>
<path d="M196.475 60.7053L189.711 76.37H231.517L220.705 51.3269C223.156 49.7808 225.15 47.6854 226.655 45.0305C228.323 42.1112 229.157 38.8053 229.157 35.1231C229.157 31.4205 228.323 28.0943 226.655 25.1649C224.987 22.2252 222.749 19.967 219.942 18.3802C217.134 16.7934 214.032 16 210.624 16C208.061 16 205.64 16.4679 203.372 17.3935C201.103 18.3294 199.13 19.6212 197.462 21.269C195.794 22.927 194.482 24.9411 193.515 27.3315C192.549 29.7218 192.061 32.3157 192.061 35.1028C192.061 38.785 192.885 42.0908 194.543 45.0102C196.201 47.9295 198.428 50.1876 201.236 51.7744C201.307 51.8151 201.368 51.8457 201.439 51.8762L204.084 45.7425C203.555 45.3458 203.056 44.8881 202.599 44.3693C200.534 42.0705 199.506 38.9782 199.506 35.0926C199.506 31.1561 200.534 28.0333 202.599 25.7243C204.664 23.4153 207.308 22.2659 210.553 22.2659C213.839 22.2659 216.514 23.4153 218.589 25.7243C220.664 28.0333 221.701 31.1561 221.701 35.0926C221.701 38.9884 220.664 42.0807 218.589 44.3693C218.385 44.5931 218.162 44.8067 217.948 45.0102C216.321 46.4546 214.276 47.4209 212.008 47.7159L221.529 69.7685H199.679L203.616 60.6545H196.475V60.7053Z" fill="#C7EF59"/>
</svg>
