<svg width="154" height="117" viewBox="0 0 154 117" fill="none" xmlns="http://www.w3.org/2000/svg">
<path d="M8.77441 116.641L8.592 116.304C11.0376 114.983 14.0814 113.34 15.6712 110.642C17.2383 107.983 17.2735 104.372 15.7629 101.218C14.4774 98.5341 12.116 96.1295 8.934 94.2641C8.30636 93.8962 7.64751 93.5475 7.01032 93.2102C5.47018 92.3951 3.87759 91.5522 2.56441 90.3563C0.755762 88.7092 -0.612707 85.9452 0.407261 83.4831C0.742705 82.6973 1.29207 82.0211 1.99297 81.5314C2.69387 81.0417 3.51824 80.758 4.37246 80.7126L4.39408 81.0951C3.61152 81.1365 2.85626 81.3962 2.21401 81.8447C1.57176 82.2931 1.06824 82.9123 0.760592 83.6321C-0.187226 85.92 1.11317 88.5163 2.82285 90.0733C4.10012 91.2365 5.67089 92.0678 7.18992 92.8718C7.83071 93.211 8.49336 93.5617 9.12821 93.9338C12.3764 95.838 14.7903 98.2996 16.1089 101.053C17.6738 104.32 17.6327 108.069 16.0017 110.836C14.3577 113.626 11.2619 115.298 8.77441 116.641Z" fill="#FAFAFA"/>
<path d="M6.80509 82.7316C8.65848 82.7316 10.161 82.0028 10.161 81.1038C10.161 80.2048 8.65848 79.4761 6.80509 79.4761C4.95169 79.4761 3.44922 80.2048 3.44922 81.1038C3.44922 82.0028 4.95169 82.7316 6.80509 82.7316Z" fill="#FAFAFA"/>
<path d="M9.49259 93.4552C11.346 93.4552 12.8485 92.7265 12.8485 91.8275C12.8485 90.9285 11.346 90.1997 9.49259 90.1997C7.63919 90.1997 6.13672 90.9285 6.13672 91.8275C6.13672 92.7265 7.63919 93.4552 9.49259 93.4552Z" fill="#FAFAFA"/>
<path d="M3.35587 95.1784C5.20926 95.1784 6.71173 94.4496 6.71173 93.5506C6.71173 92.6516 5.20926 91.9229 3.35587 91.9229C1.50247 91.9229 0 92.6516 0 93.5506C0 94.4496 1.50247 95.1784 3.35587 95.1784Z" fill="#FAFAFA"/>
<path d="M12.9379 104.179C14.7913 104.179 16.2938 103.45 16.2938 102.551C16.2938 101.652 14.7913 100.924 12.9379 100.924C11.0845 100.924 9.58203 101.652 9.58203 102.551C9.58203 103.45 11.0845 104.179 12.9379 104.179Z" fill="#FAFAFA"/>
<path d="M19.6527 104.179C21.5061 104.179 23.0086 103.45 23.0086 102.551C23.0086 101.652 21.5061 100.924 19.6527 100.924C17.7993 100.924 16.2969 101.652 16.2969 102.551C16.2969 103.45 17.7993 104.179 19.6527 104.179Z" fill="#FAFAFA"/>
<path d="M42.2773 76.8968H50.1979C50.7384 73.7764 50.7384 70.5865 50.1979 67.4661H42.2773C43.1697 70.5465 43.1697 73.8164 42.2773 76.8968Z" fill="#8AD70E"/>
<path d="M17.8324 114.336H20.0074L21.0422 105.958L17.832 105.959L17.8324 114.336Z" fill="#F9D5B9"/>
<path d="M17.2773 113.627L21.5607 113.627C22.2846 113.627 22.979 113.914 23.4909 114.425C24.0028 114.937 24.2904 115.63 24.2905 116.353V116.441L17.2775 116.442L17.2773 113.627Z" fill="#333333"/>
<path d="M43.9697 114.265L46.0816 113.746L45.082 105.364L41.9648 106.13L43.9697 114.265Z" fill="#F9D5B9"/>
<path d="M43.2617 113.709L47.4209 112.687C48.1239 112.514 48.8669 112.627 49.4863 113.001C50.1057 113.376 50.5509 113.98 50.7239 114.682L50.7451 114.768L43.9353 116.442L43.2617 113.709Z" fill="#333333"/>
<path d="M16.5 112.339L16.9518 110.03C16.9518 110.03 17.7835 101.117 23.7522 92.2212L25.695 82.5578C25.695 82.5578 25.118 75.2433 30.6869 71.2839L32.4038 70.1028L38.4232 70.4473L39.8135 78.0482L42.6147 96.0329C42.6147 96.0329 43.3376 96.1005 43.6087 98.1803C44.1597 99.0536 44.4856 100.05 44.5575 101.079C44.5575 101.079 45.9911 105.029 46.3751 107.937L46.3299 110.782L43.3028 112.392L36.9935 94.5737L32.4808 84.612C32.4808 84.612 30.3088 91.6307 26.982 97.6434C26.982 97.6434 22.4254 107.492 21.5151 109.493L20.5211 112.768L16.5 112.339Z" fill="#333333"/>
<path d="M36.6267 54.8078C39.0029 54.8078 40.9292 52.8841 40.9292 50.5112C40.9292 48.1382 39.0029 46.2146 36.6267 46.2146C34.2505 46.2146 32.3242 48.1382 32.3242 50.5112C32.3242 52.8841 34.2505 54.8078 36.6267 54.8078Z" fill="#F9D5B9"/>
<path d="M36.6267 54.8078C39.0029 54.8078 40.9292 52.8841 40.9292 50.5112C40.9292 48.1382 39.0029 46.2146 36.6267 46.2146C34.2505 46.2146 32.3242 48.1382 32.3242 50.5112C32.3242 52.8841 34.2505 54.8078 36.6267 54.8078Z" fill="#F9D5B9"/>
<path d="M30.6953 71.3295L32.1156 67.7866C31.1121 64.5407 31.1736 61.0595 32.2912 57.8509L32.5629 57.6275C34.9302 55.6806 37.008 56.035 38.9361 58.4166C39.2466 58.8037 39.6098 59.1456 40.015 59.4324C40.8654 60.0282 42.2145 63.2652 40.4332 65.1627L39.0081 73.4641C39.1582 78.0475 35.8277 76.3216 30.6953 71.3295Z" fill="#661BC8"/>
<path d="M43.3158 76.2231C43.287 75.995 43.2085 75.7759 43.0857 75.5813C42.9629 75.3868 42.7989 75.2214 42.6052 75.097C42.4116 74.9726 42.1929 74.8921 41.9647 74.8612C41.7365 74.8303 41.5043 74.8497 41.2845 74.9181L38.9786 72.1577L36.957 73.1479L40.2682 77.0004C40.4077 77.3617 40.6751 77.6592 41.0197 77.8367C41.3643 78.0142 41.7621 78.0594 42.1377 77.9636C42.5134 77.8677 42.8408 77.6377 43.0579 77.3169C43.275 76.9961 43.3668 76.607 43.3158 76.2231Z" fill="#F9D5B9"/>
<path d="M38.4181 76.1873L32.6445 67.5454L34.314 61.2793C34.5893 60.7138 35.0781 60.2806 35.673 60.0749C36.268 59.8692 36.9204 59.9078 37.4868 60.1822C38.0533 60.4567 38.4875 60.9445 38.6939 61.5385C38.9003 62.1325 38.8622 62.784 38.5878 63.3499L36.5888 67.4732L41.2776 74.1883L38.4181 76.1873Z" fill="#823CDE"/>
<path d="M28.9598 49.5703C31.2394 49.5703 33.0875 47.7248 33.0875 45.4482C33.0875 43.1717 31.2394 41.3262 28.9598 41.3262C26.6801 41.3262 24.832 43.1717 24.832 45.4482C24.832 47.7248 26.6801 49.5703 28.9598 49.5703Z" fill="#333333"/>
<path d="M25.4001 48.8612C25.9344 49.2468 26.5533 49.499 27.2052 49.5968C27.8571 49.6945 28.523 49.635 29.1471 49.423C29.7712 49.2111 30.3354 48.853 30.7925 48.3787C31.2496 47.9044 31.5863 47.3277 31.7744 46.6968C31.7032 47.2622 31.5154 47.8067 31.2229 48.2959C30.9303 48.7852 30.5394 49.2085 30.0747 49.5393C29.61 49.87 29.0817 50.101 28.5232 50.2176C27.9646 50.3341 27.3879 50.3338 26.8295 50.2166C26.2711 50.0993 25.7431 49.8677 25.2788 49.5364C24.8145 49.2051 24.4241 48.7813 24.1321 48.2917C23.8401 47.8021 23.653 47.2574 23.5824 46.6919C23.5119 46.1264 23.5595 45.5525 23.7223 45.0063C23.6299 45.7401 23.7369 46.4852 24.0321 47.1635C24.3273 47.8417 24.7998 48.4281 25.4001 48.8612Z" fill="#333333"/>
<path d="M41.6798 48.866C40.9592 47.5777 40.6835 47.0395 39.7544 46.2561C38.9328 45.5633 37.9221 45.3598 37.107 46.0163C36.1427 45.6002 35.0697 45.5059 34.0474 45.7473C33.0251 45.9887 32.1081 46.553 31.4325 47.3563C30.7569 48.1596 30.3589 49.1591 30.2974 50.2063C30.236 51.2536 30.5145 52.2927 31.0915 53.1693C31.6685 54.0459 32.5133 54.7132 33.5003 55.0722C34.4874 55.4311 35.564 55.4626 36.5704 55.1618C37.5768 54.861 38.4592 54.2441 39.0865 53.4026C39.7138 52.5612 40.0525 51.5401 40.0525 50.4911C40.0517 50.3069 40.0406 50.1229 40.0192 49.9399C40.7278 49.8405 40.9713 48.9654 41.6798 48.866Z" fill="#333333"/>
<path d="M62.3946 116.748H3.90661C3.85575 116.748 3.80697 116.728 3.77101 116.692C3.73505 116.656 3.71484 116.608 3.71484 116.557C3.71484 116.506 3.73505 116.457 3.77101 116.421C3.80697 116.385 3.85575 116.365 3.90661 116.365H62.3946C62.4454 116.365 62.4942 116.385 62.5302 116.421C62.5661 116.457 62.5863 116.506 62.5863 116.557C62.5863 116.608 62.5661 116.656 62.5302 116.692C62.4942 116.728 62.4454 116.748 62.3946 116.748Z" fill="#B3B3B3"/>
<path d="M140.622 16.1546H140.443V11.265C140.443 10.8934 140.37 10.5254 140.228 10.182C140.085 9.83869 139.877 9.52672 139.613 9.26393C139.35 9.00115 139.038 8.79269 138.694 8.65048C138.35 8.50826 137.982 8.43506 137.61 8.43506H127.236C126.864 8.43506 126.496 8.50825 126.152 8.65047C125.808 8.79269 125.496 9.00114 125.232 9.26392C124.969 9.52671 124.76 9.83868 124.618 10.182C124.476 10.5254 124.402 10.8934 124.402 11.265V38.0896C124.402 38.8401 124.701 39.5599 125.232 40.0907C125.764 40.6214 126.485 40.9195 127.236 40.9195H137.61C138.361 40.9195 139.082 40.6214 139.613 40.0907C140.145 39.5599 140.443 38.8401 140.443 38.0896V19.6351H140.622V16.1546Z" fill="#D9D9D9"/>
<path d="M137.614 9.1709H136.26C136.322 9.32336 136.346 9.48877 136.329 9.65256C136.312 9.81636 136.255 9.9735 136.163 10.1102C136.071 10.2468 135.947 10.3588 135.802 10.4362C135.656 10.5136 135.494 10.5542 135.329 10.5542H129.386C129.221 10.5542 129.059 10.5137 128.913 10.4362C128.768 10.3588 128.644 10.2468 128.552 10.1102C128.46 9.9735 128.403 9.81636 128.386 9.65256C128.369 9.48877 128.393 9.32336 128.455 9.1709H127.191C126.629 9.1709 126.091 9.39356 125.694 9.78989C125.297 10.1862 125.074 10.7238 125.074 11.2843V38.0695C125.074 38.63 125.297 39.1675 125.694 39.5639C126.091 39.9602 126.629 40.1829 127.19 40.1829H137.614C137.892 40.1829 138.167 40.1282 138.424 40.022C138.681 39.9158 138.914 39.7601 139.11 39.5639C139.307 39.3676 139.463 39.1346 139.569 38.8782C139.675 38.6218 139.73 38.347 139.73 38.0695V11.2843C139.73 11.0068 139.675 10.7319 139.569 10.4755C139.463 10.2191 139.307 9.98614 139.11 9.7899C138.914 9.59365 138.681 9.43798 138.424 9.33177C138.167 9.22557 137.892 9.1709 137.614 9.1709Z" fill="white"/>
<path d="M137.931 18.9915H131.469V19.5028H137.931V18.9915Z" fill="#D9D9D9"/>
<path d="M137.931 20.6106H131.469V21.1219H137.931V20.6106Z" fill="#D9D9D9"/>
<path d="M137.931 22.23H131.469V22.7413H137.931V22.23Z" fill="#D9D9D9"/>
<path d="M130.224 19.3076H127.102V22.4254H130.224V19.3076Z" fill="#D9D9D9"/>
<path d="M129.234 30.3627C129.984 30.3627 130.592 29.7552 130.592 29.0059C130.592 28.2566 129.984 27.6492 129.234 27.6492C128.483 27.6492 127.875 28.2566 127.875 29.0059C127.875 29.7552 128.483 30.3627 129.234 30.3627Z" fill="#823CDE"/>
<path d="M132.856 30.1138C133.469 30.1138 133.966 29.6174 133.966 29.0051C133.966 28.3928 133.469 27.8965 132.856 27.8965C132.243 27.8965 131.746 28.3928 131.746 29.0051C131.746 29.6174 132.243 30.1138 132.856 30.1138Z" fill="#823CDE"/>
<path d="M136.48 29.6803C136.853 29.6803 137.156 29.3783 137.156 29.0058C137.156 28.6333 136.853 28.3313 136.48 28.3313C136.107 28.3313 135.805 28.6333 135.805 29.0058C135.805 29.3783 136.107 29.6803 136.48 29.6803Z" fill="#823CDE"/>
<path d="M93.2898 39.4501H69.4765C68.9121 39.4494 68.371 39.2253 67.9719 38.8267C67.5728 38.4281 67.3483 37.8878 67.3477 37.3241V2.8369C67.3483 2.27326 67.5728 1.73288 67.9719 1.33432C68.371 0.935762 68.9121 0.711574 69.4765 0.710938H93.2898C93.8542 0.711574 94.3954 0.935762 94.7945 1.33432C95.1936 1.73288 95.4181 2.27326 95.4187 2.8369V37.3241C95.4181 37.8878 95.1936 38.4281 94.7945 38.8267C94.3954 39.2253 93.8542 39.4494 93.2898 39.4501Z" fill="#D9D9D9"/>
<path d="M93.3229 38.0939H69.4258C69.2518 38.0938 69.085 38.0246 68.962 37.9018C68.8389 37.7789 68.7697 37.6123 68.7695 37.4386V2.72298C68.7697 2.54923 68.8389 2.38266 68.962 2.2598C69.085 2.13694 69.2518 2.06783 69.4258 2.06763H93.3229C93.4969 2.06783 93.6637 2.13694 93.7867 2.2598C93.9098 2.38266 93.979 2.54923 93.9792 2.72298V37.4386C93.979 37.6123 93.9098 37.7789 93.7867 37.9018C93.6637 38.0246 93.4969 38.0938 93.3229 38.0939Z" fill="white"/>
<path d="M81.2824 1.5426C81.3823 1.5426 81.4633 1.46175 81.4633 1.362C81.4633 1.26226 81.3823 1.1814 81.2824 1.1814C81.1825 1.1814 81.1016 1.26226 81.1016 1.362C81.1016 1.46175 81.1825 1.5426 81.2824 1.5426Z" fill="white"/>
<path d="M91.2757 12.7144H77.9844V13.477H91.2757V12.7144Z" fill="#D9D9D9"/>
<path d="M91.2757 15.1289H77.9844V15.8915H91.2757V15.1289Z" fill="#D9D9D9"/>
<path d="M91.2757 17.5444H77.9844V18.3071H91.2757V17.5444Z" fill="#D9D9D9"/>
<path d="M76.1252 13.1851H71.4688V17.8351H76.1252V13.1851Z" fill="#D9D9D9"/>
<path d="M76.9088 27.4467C77.9306 27.4467 78.759 26.6195 78.759 25.5991C78.759 24.5787 77.9306 23.7515 76.9088 23.7515C75.8869 23.7515 75.0586 24.5787 75.0586 25.5991C75.0586 26.6195 75.8869 27.4467 76.9088 27.4467Z" fill="#823CDE"/>
<path d="M81.84 27.1094C82.675 27.1094 83.3518 26.4335 83.3518 25.5996C83.3518 24.7658 82.675 24.0898 81.84 24.0898C81.005 24.0898 80.3281 24.7658 80.3281 25.5996C80.3281 26.4335 81.005 27.1094 81.84 27.1094Z" fill="#823CDE"/>
<path d="M86.7675 26.5177C87.2755 26.5177 87.6873 26.1065 87.6873 25.5992C87.6873 25.0919 87.2755 24.6807 86.7675 24.6807C86.2595 24.6807 85.8477 25.0919 85.8477 25.5992C85.8477 26.1065 86.2595 26.5177 86.7675 26.5177Z" fill="#823CDE"/>
<path d="M138.557 42.6401H68.2971C68.0432 42.6401 67.7917 42.6901 67.5571 42.7871C67.3225 42.8842 67.1093 43.0264 66.9297 43.2058C66.7501 43.3851 66.6077 43.598 66.5105 43.8323C66.4133 44.0666 66.3633 44.3177 66.3633 44.5713V83.6652C66.3633 84.1774 66.567 84.6686 66.9297 85.0308C67.2924 85.393 67.7843 85.5964 68.2971 85.5964H138.557C139.07 85.5964 139.562 85.393 139.925 85.0308C140.287 84.6686 140.491 84.1774 140.491 83.6652V44.5713C140.491 44.0591 140.287 43.5679 139.925 43.2058C139.562 42.8436 139.07 42.6401 138.557 42.6401Z" fill="#333333"/>
<path d="M137.899 46.0535H68.957V84.8907H137.899V46.0535Z" fill="white"/>
<path d="M103.363 44.9945C103.754 44.9945 104.07 44.6784 104.07 44.2884C104.07 43.8984 103.754 43.5823 103.363 43.5823C102.973 43.5823 102.656 43.8984 102.656 44.2884C102.656 44.6784 102.973 44.9945 103.363 44.9945Z" fill="white"/>
<path d="M142.436 84.1844H135.707V83.7002C135.707 83.6876 135.705 83.6752 135.7 83.6635C135.695 83.6519 135.688 83.6413 135.679 83.6324C135.67 83.6235 135.66 83.6164 135.648 83.6116C135.636 83.6067 135.624 83.6043 135.611 83.6043H133.304C133.292 83.6043 133.279 83.6067 133.267 83.6116C133.256 83.6164 133.245 83.6235 133.236 83.6324C133.227 83.6413 133.22 83.6519 133.215 83.6635C133.211 83.6752 133.208 83.6876 133.208 83.7002V84.1844H131.766V83.7002C131.766 83.6876 131.764 83.6752 131.759 83.6635C131.754 83.6519 131.747 83.6413 131.738 83.6324C131.729 83.6235 131.719 83.6164 131.707 83.6116C131.695 83.6067 131.683 83.6043 131.67 83.6043H129.363C129.351 83.6043 129.338 83.6067 129.327 83.6116C129.315 83.6164 129.304 83.6235 129.295 83.6324C129.286 83.6413 129.279 83.6519 129.275 83.6635C129.27 83.6752 129.267 83.6876 129.267 83.7002V84.1844H127.825V83.7002C127.825 83.6876 127.823 83.6752 127.818 83.6635C127.813 83.6519 127.806 83.6413 127.797 83.6324C127.788 83.6235 127.778 83.6164 127.766 83.6116C127.754 83.6067 127.742 83.6043 127.729 83.6043H125.423C125.41 83.6043 125.397 83.6067 125.386 83.6116C125.374 83.6164 125.363 83.6235 125.355 83.6324C125.346 83.6413 125.339 83.6519 125.334 83.6635C125.329 83.6752 125.326 83.6876 125.326 83.7002V84.1844H123.885V83.7002C123.885 83.6876 123.882 83.6752 123.877 83.6635C123.872 83.6519 123.865 83.6413 123.856 83.6324C123.848 83.6235 123.837 83.6164 123.825 83.6116C123.814 83.6067 123.801 83.6043 123.788 83.6043H121.482C121.469 83.6043 121.457 83.6067 121.445 83.6116C121.433 83.6164 121.423 83.6235 121.414 83.6324C121.405 83.6413 121.398 83.6519 121.393 83.6635C121.388 83.6752 121.386 83.6876 121.386 83.7002V84.1843H119.944V83.7002C119.944 83.6876 119.941 83.6752 119.936 83.6635C119.932 83.6519 119.925 83.6413 119.916 83.6324C119.907 83.6234 119.896 83.6164 119.884 83.6116C119.873 83.6067 119.86 83.6042 119.848 83.6042H117.541C117.528 83.6042 117.516 83.6067 117.504 83.6116C117.492 83.6164 117.482 83.6234 117.473 83.6324C117.464 83.6413 117.457 83.6519 117.452 83.6635C117.447 83.6752 117.445 83.6876 117.445 83.7002V84.1843H116.003V83.7002C116.003 83.6876 116 83.6752 115.996 83.6635C115.991 83.6519 115.984 83.6413 115.975 83.6324C115.966 83.6234 115.955 83.6164 115.944 83.6116C115.932 83.6067 115.919 83.6042 115.907 83.6042H113.6C113.587 83.6042 113.575 83.6067 113.563 83.6116C113.551 83.6164 113.541 83.6234 113.532 83.6324C113.523 83.6413 113.516 83.6519 113.511 83.6635C113.506 83.6752 113.504 83.6876 113.504 83.7002V84.1843H112.062V83.7002C112.062 83.6876 112.059 83.6752 112.055 83.6635C112.05 83.6519 112.043 83.6413 112.034 83.6324C112.025 83.6234 112.014 83.6164 112.003 83.6116C111.991 83.6067 111.978 83.6042 111.966 83.6042H93.8955C93.8829 83.6042 93.8704 83.6067 93.8587 83.6116C93.8471 83.6164 93.8365 83.6234 93.8275 83.6324C93.8186 83.6413 93.8115 83.6519 93.8067 83.6635C93.8019 83.6752 93.7994 83.6876 93.7994 83.7002V84.1843H92.3576V83.7002C92.3576 83.6876 92.3551 83.6752 92.3503 83.6635C92.3454 83.6519 92.3384 83.6413 92.3294 83.6324C92.3205 83.6234 92.3099 83.6164 92.2983 83.6116C92.2866 83.6067 92.2741 83.6042 92.2615 83.6042H89.9546C89.942 83.6042 89.9295 83.6067 89.9178 83.6116C89.9062 83.6164 89.8956 83.6234 89.8867 83.6324C89.8777 83.6413 89.8707 83.6519 89.8658 83.6635C89.861 83.6752 89.8585 83.6876 89.8585 83.7002V84.1843H88.4167V83.7002C88.4167 83.6876 88.4142 83.6752 88.4094 83.6635C88.4046 83.6519 88.3975 83.6413 88.3886 83.6324C88.3796 83.6235 88.3691 83.6164 88.3574 83.6116C88.3457 83.6067 88.3332 83.6042 88.3206 83.6042H86.0137C86.0011 83.6042 85.9886 83.6067 85.977 83.6116C85.9653 83.6164 85.9547 83.6234 85.9458 83.6324C85.9368 83.6413 85.9298 83.6519 85.9249 83.6635C85.9201 83.6752 85.9176 83.6876 85.9176 83.7002V84.1843H84.4758V83.7002C84.4758 83.6876 84.4734 83.6752 84.4685 83.6635C84.4637 83.6519 84.4566 83.6413 84.4477 83.6324C84.4388 83.6234 84.4282 83.6164 84.4165 83.6116C84.4048 83.6067 84.3923 83.6042 84.3797 83.6042H82.0729C82.0602 83.6042 82.0477 83.6067 82.0361 83.6116C82.0244 83.6164 82.0138 83.6234 82.0049 83.6324C81.996 83.6413 81.9889 83.6519 81.9841 83.6635C81.9792 83.6752 81.9767 83.6876 81.9767 83.7002V84.1843H80.535V83.7002C80.535 83.6876 80.5325 83.6752 80.5276 83.6635C80.5228 83.6519 80.5157 83.6413 80.5068 83.6324C80.4979 83.6234 80.4873 83.6164 80.4756 83.6116C80.464 83.6067 80.4515 83.6042 80.4388 83.6042H78.132C78.1194 83.6042 78.1069 83.6067 78.0952 83.6116C78.0835 83.6164 78.0729 83.6234 78.064 83.6324C78.0551 83.6413 78.048 83.6519 78.0432 83.6635C78.0384 83.6752 78.0359 83.6876 78.0359 83.7002V84.1843H76.5941V83.7002C76.5941 83.6876 76.5916 83.6752 76.5868 83.6635C76.5819 83.6519 76.5749 83.6413 76.5659 83.6324C76.557 83.6234 76.5464 83.6164 76.5347 83.6116C76.5231 83.6067 76.5106 83.6042 76.498 83.6042H74.1911C74.1656 83.6042 74.1412 83.6144 74.1231 83.6324C74.1051 83.6504 74.095 83.6748 74.095 83.7002V84.1843H72.6532V83.7002C72.6532 83.6876 72.6507 83.6751 72.6459 83.6635C72.6411 83.6519 72.634 83.6413 72.625 83.6324C72.6161 83.6234 72.6055 83.6164 72.5939 83.6116C72.5822 83.6067 72.5697 83.6042 72.5571 83.6042H70.2502C70.2247 83.6042 70.2003 83.6144 70.1823 83.6324C70.1642 83.6504 70.1541 83.6748 70.1541 83.7002V84.1843H65.7326C65.4297 84.1843 65.1297 84.2439 64.8498 84.3597C64.57 84.4755 64.3156 84.6452 64.1014 84.8591C63.8872 85.073 63.7173 85.327 63.6014 85.6065C63.4855 85.886 63.4258 86.1855 63.4258 86.488V87.5297C63.4258 88.1407 63.6688 88.7267 64.1014 89.1587C64.5341 89.5907 65.1208 89.8334 65.7326 89.8334H142.436C143.047 89.8334 143.634 89.5907 144.067 89.1587C144.499 88.7267 144.742 88.1407 144.742 87.5297V86.488C144.742 86.1855 144.683 85.886 144.567 85.6065C144.451 85.327 144.281 85.073 144.067 84.8591C143.853 84.6452 143.598 84.4755 143.318 84.3597C143.038 84.2439 142.739 84.1844 142.436 84.1844Z" fill="#333333"/>
<path d="M118.794 49.7512H96.5V50.5785H118.794V49.7512Z" fill="#B3B3B3"/>
<path d="M118.794 52.3711H96.5V53.1984H118.794V52.3711Z" fill="#B3B3B3"/>
<path d="M118.794 54.9905H96.5V55.8178H118.794V54.9905Z" fill="#B3B3B3"/>
<path d="M94.4847 50.2625H89.4336V55.3066H94.4847V50.2625Z" fill="#B3B3B3"/>
<path d="M103.371 77.6555C108.253 77.6555 112.21 73.7034 112.21 68.8283C112.21 63.9531 108.253 60.001 103.371 60.001C98.4888 60.001 94.5312 63.9531 94.5312 68.8283C94.5312 73.7034 98.4888 77.6555 103.371 77.6555Z" fill="#823CDE"/>
<path d="M101.932 70.1449H100.078L103.358 63.4885L106.655 70.1388H104.8V72.9061H101.932V70.1449Z" fill="white"/>
<path d="M56.7145 36.9081C57.972 35.4373 59.6999 34.4459 61.6055 34.1016L60.7589 33.3913L61.6644 33.313L62.8231 34.2857L61.8491 35.4429L60.9436 35.5212L61.5963 34.7463C59.6752 35.1273 57.9684 36.2168 56.8155 37.798C55.6627 39.3791 55.1484 41.3359 55.3752 43.2786C55.602 45.2213 56.5532 47.0075 58.0393 48.2814C59.5255 49.5554 61.4375 50.2236 63.3948 50.1531L63.4175 50.7832C61.7825 50.8419 60.1657 50.4239 58.7647 49.5801C57.3637 48.7364 56.239 47.5034 55.5281 46.0319C54.8172 44.5603 54.5509 42.9139 54.7615 41.2936C54.9722 39.6734 55.6509 38.1495 56.7145 36.9081Z" fill="#D9D9D9"/>
<path d="M152.049 42.6792C151.969 44.9087 151.005 47.015 149.369 48.5348C147.734 50.0546 145.561 50.8634 143.328 50.7832L143.351 50.1531C145.308 50.2236 147.22 49.5554 148.706 48.2814C150.192 47.0075 151.144 45.2213 151.37 43.2786C151.597 41.3359 151.083 39.3791 149.93 37.798C148.777 36.2168 147.07 35.1273 145.149 34.7463L145.802 35.5212L144.897 35.4429L143.923 34.2857L145.081 33.313L145.987 33.3913L145.14 34.1016C147.132 34.4636 148.926 35.5298 150.195 37.105C151.463 38.6802 152.122 40.659 152.049 42.6792Z" fill="#D9D9D9"/>
<path d="M153.81 89.9499H52.9418C52.8909 89.9499 52.8421 89.9297 52.8062 89.8938C52.7702 89.8579 52.75 89.8092 52.75 89.7584C52.75 89.7076 52.7702 89.6589 52.8062 89.623C52.8421 89.5871 52.8909 89.5669 52.9418 89.5669H153.81C153.86 89.5669 153.909 89.5871 153.945 89.623C153.981 89.6589 154.001 89.7076 154.001 89.7584C154.001 89.8092 153.981 89.8579 153.945 89.8938C153.909 89.9297 153.86 89.9499 153.81 89.9499Z" fill="#B3B3B3"/>
</svg>
