<svg width="141" height="70" viewBox="0 0 141 70" fill="none" xmlns="http://www.w3.org/2000/svg">
<g clip-path="url(#clip0_1155_14060)">
<path d="M33.1689 60.9119C32.807 63.747 31.5443 66.361 30.1365 68.8758C30.0669 69.0013 29.9971 69.125 29.9255 69.2505H11.6867C11.3626 69.1362 11.044 69.0107 10.7275 68.8758C9.56049 68.388 8.45231 67.7714 7.42381 67.0375C1.49121 62.7876 -0.792801 54.7562 0.239934 47.5606C0.878734 43.0877 2.85375 38.5229 6.69639 36.115C8.78295 34.8526 11.2716 34.419 13.6655 34.9008C13.7277 34.912 13.7899 34.9251 13.8521 34.9401C15.861 35.3898 17.6513 36.5067 18.6709 38.3074C20.5027 41.5436 19.4116 45.5518 18.5107 49.1534C17.6118 52.7568 17.1256 57.0667 19.7319 59.7238C19.3496 58.613 19.2717 57.4209 19.5063 56.2702C19.7409 55.1195 20.2795 54.0517 21.0667 53.1765C21.8539 52.3014 22.8614 51.6506 23.9854 51.2909C25.1095 50.9313 26.3096 50.8759 27.4624 51.1303C27.6508 51.1696 27.8374 51.2146 28.0221 51.2708C28.4648 51.3997 28.8915 51.5776 29.2942 51.8011C32.3679 53.5082 33.6117 57.4396 33.1689 60.9119Z" fill="#D9D9D9"/>
<path d="M21.2778 68.8758C21.6849 69.0125 22.0957 69.1362 22.5084 69.2505H20.7238C20.392 69.1343 20.0628 69.0094 19.7362 68.8758C19.6646 68.8476 19.5911 68.8177 19.5195 68.7877C16.8265 67.6652 14.3464 65.9788 12.4713 63.7339C11.5524 62.6477 10.8028 61.4305 10.2475 60.1229C9.64363 58.646 9.26016 57.0892 9.10925 55.502C8.76998 52.2452 9.11486 48.8985 9.76314 45.6998C10.4319 42.3843 11.5118 39.1641 12.9782 36.1131C13.1554 35.7477 13.3375 35.3842 13.5247 35.0226C13.5379 34.9932 13.5574 34.9671 13.5818 34.9461C13.6062 34.9251 13.635 34.9096 13.6661 34.9008C13.6982 34.8947 13.7313 34.8951 13.7633 34.9018C13.7954 34.9086 13.8257 34.9216 13.8527 34.9401C13.9175 34.977 13.9655 35.0373 13.9869 35.1084C14.0083 35.1796 14.0014 35.2562 13.9676 35.3224C12.4562 38.2527 11.3107 41.3557 10.5565 44.5624C9.8178 47.6917 9.39755 50.9654 9.54266 54.1809C9.6783 57.1866 10.468 60.1417 12.2602 62.6002C13.9293 64.8341 16.1252 66.6256 18.6545 67.817C19.5046 68.2269 20.3809 68.5806 21.2778 68.8758Z" fill="white"/>
<path d="M28.4711 69.2504H27.7795C27.6815 69.1267 27.5873 69.0012 27.4949 68.8756C26.1344 67.0371 25.2069 64.918 24.7812 62.675C24.2011 59.5336 24.6531 56.29 26.0703 53.4237C26.466 52.6201 26.932 51.8527 27.4629 51.1301C27.6513 51.1695 27.838 51.2145 28.0226 51.2707C26.6245 53.1119 25.6842 55.2559 25.2787 57.5275C24.941 59.5147 25.0233 61.55 25.5204 63.5039C26.0175 65.4577 26.9184 67.2871 28.1658 68.8756C28.2658 69.003 28.3675 69.1286 28.4711 69.2504Z" fill="white"/>
<path d="M63.8296 34.9022C63.9032 34.6172 63.913 34.3195 63.8584 34.0303C63.8038 33.7411 63.6861 33.4673 63.5136 33.2281C63.341 32.989 63.1178 32.7905 62.8597 32.6464C62.6017 32.5023 62.3149 32.4163 62.0198 32.3943L50.5022 18.0762L47.6523 20.7173L59.8194 34.3945C59.8152 34.8899 59.9938 35.3697 60.3216 35.7429C60.6493 36.1162 61.1034 36.3569 61.5977 36.4195C62.092 36.482 62.5922 36.3622 63.0036 36.0825C63.415 35.8029 63.7089 35.3829 63.8296 34.9022Z" fill="#B45309"/>
<path d="M52.7098 20.3506L49.0699 23.1224C48.9663 23.2012 48.8469 23.257 48.7197 23.2858C48.5925 23.3146 48.4606 23.3158 48.3329 23.2894C48.2052 23.2629 48.0847 23.2094 47.9797 23.1325C47.8746 23.0556 47.7875 22.9571 47.7242 22.8436L45.5069 18.8693C45.1041 18.3402 44.9288 17.6738 45.0194 17.0163C45.11 16.3588 45.4591 15.7639 45.9902 15.362C46.5213 14.96 47.1909 14.7839 47.8524 14.8721C48.5139 14.9604 49.1132 15.3058 49.5189 15.8328L52.79 18.9862C52.8836 19.0765 52.9566 19.1858 53.0039 19.3067C53.0512 19.4276 53.0717 19.5571 53.0641 19.6866C53.0565 19.8161 53.0209 19.9425 52.9598 20.057C52.8987 20.1716 52.8134 20.2718 52.7098 20.3506Z" fill="#8AD70E"/>
<path d="M46.5974 11.707C49.1538 11.707 51.2261 9.64643 51.2261 7.1046C51.2261 4.56276 49.1538 2.5022 46.5974 2.5022C44.0411 2.5022 41.9688 4.56276 41.9688 7.1046C41.9688 9.64643 44.0411 11.707 46.5974 11.707Z" fill="#B45309"/>
<path d="M56.4797 66.8044H58.7902L58.5701 62.5046L55.1602 62.5048L56.4797 66.8044Z" fill="#B45309"/>
<path d="M55.8906 66.0544L60.4407 66.0542H60.4409C60.8217 66.0542 61.1987 66.1288 61.5505 66.2736C61.9023 66.4185 62.222 66.6309 62.4912 66.8986C62.7605 67.1664 62.9741 67.4842 63.1198 67.834C63.2655 68.1838 63.3405 68.5587 63.3405 68.9374V69.0311L55.8908 69.0313L55.8906 66.0544Z" fill="#333333"/>
<path d="M31.8438 63.5516L33.8093 64.759L35.895 60.9859L33.5163 59.5063L31.8438 63.5516Z" fill="#B45309"/>
<path d="M31.7414 62.6057L35.6124 64.9833C35.9364 65.1823 36.2179 65.4429 36.4406 65.75C36.6634 66.0571 36.8231 66.4048 36.9106 66.7733C36.9982 67.1418 37.0119 67.5238 36.951 67.8976C36.89 68.2713 36.7557 68.6295 36.5555 68.9516L36.506 69.0313L30.168 65.1384L31.7414 62.6057Z" fill="#333333"/>
<path d="M56.3098 65.5438C56.138 65.5437 55.9703 65.4916 55.829 65.3945C55.6877 65.2974 55.5795 65.1598 55.5187 65.0001L47.1614 45.1322C47.1434 45.0837 47.1123 45.041 47.0715 45.0089C47.0307 44.9768 46.9818 44.9565 46.9302 44.9503C46.8785 44.9441 46.8262 44.9521 46.7788 44.9735C46.7315 44.995 46.691 45.029 46.6619 45.0718L35.1806 63.0556C35.0682 63.223 34.8992 63.3448 34.7042 63.3988C34.5092 63.4528 34.3011 63.4354 34.118 63.3497L32.547 62.6206C32.3457 62.5263 32.1896 62.3574 32.1121 62.1501C32.0345 61.9428 32.0416 61.7135 32.1318 61.5113L41.5381 40.6629C41.3328 40.1661 39.3294 35.0646 42.4074 32.5442L42.429 32.5308L50.7756 28.8289L50.986 35.1952L59.3053 63.8963C59.3366 64.0043 59.3459 64.1174 59.3326 64.229C59.3193 64.3407 59.2837 64.4485 59.2279 64.5463C59.1721 64.644 59.0972 64.7297 59.0076 64.7982C58.918 64.8667 58.8155 64.9168 58.7062 64.9454L56.5271 65.5156C56.4562 65.5343 56.3831 65.5437 56.3098 65.5438Z" fill="#333333"/>
<path d="M50.902 19.5162C50.5842 18.2479 50.1337 16.9695 49.5299 16.3793C49.3079 16.1641 49.0993 15.9356 48.9053 15.6952C48.4992 15.1866 47.9883 14.7703 47.4069 14.4744C47.6196 14.3567 47.7443 14.2163 47.7443 14.0652C47.7443 13.6513 46.8162 13.3157 45.6713 13.3157C44.5264 13.3157 43.5983 13.6513 43.5983 14.0652C43.6011 14.1133 43.6134 14.1604 43.6345 14.2037C43.6557 14.247 43.6852 14.2858 43.7215 14.3177C42.9739 14.6207 42.3242 15.122 41.8433 15.7668C41.3624 16.4116 41.0687 17.1752 40.9942 17.9746C40.7264 20.8258 40.6483 24.4704 41.5866 26.7758C42.3736 28.6821 42.4362 30.8081 41.7627 32.7569C41.717 32.8926 41.7114 33.0385 41.7466 33.1773C41.7817 33.3161 41.8562 33.4419 41.9611 33.5399C42.066 33.6379 42.1969 33.7039 42.3384 33.7302C42.4799 33.7565 42.6259 33.7418 42.7593 33.6881L51.0414 30.3696C51.1808 30.3137 51.3002 30.2177 51.3844 30.0938C51.4685 29.9699 51.5134 29.8238 51.5134 29.6744V24.6342C51.5201 22.9098 51.3147 21.1911 50.902 19.5162Z" fill="#8AD70E"/>
<path d="M35.0557 40.2749C35.344 40.2083 35.6141 40.0797 35.847 39.8981C36.0799 39.7165 36.2699 39.4863 36.4037 39.2238C36.5374 38.9613 36.6117 38.6728 36.6212 38.3786C36.6307 38.0845 36.5752 37.7919 36.4586 37.5214L42.9386 20.5299L39.6525 19.6863L33.6588 36.5028C33.2148 36.7276 32.8691 37.1065 32.6872 37.5678C32.5054 38.0292 32.5001 38.5408 32.6722 39.0057C32.8444 39.4707 33.1821 39.8567 33.6214 40.0906C34.0607 40.3245 34.571 40.3901 35.0557 40.2749Z" fill="#B45309"/>
<path d="M42.9135 23.7542L38.7612 21.8216C38.643 21.7666 38.5382 21.6869 38.4538 21.588C38.3694 21.4891 38.3075 21.3733 38.2722 21.2484C38.2369 21.1235 38.229 20.9926 38.2492 20.8644C38.2694 20.7363 38.3171 20.614 38.3891 20.5058L40.9127 16.7164C41.1993 16.1174 41.713 15.6557 42.3413 15.4326C42.9696 15.2095 43.6612 15.2432 44.2646 15.5262C44.868 15.8091 45.334 16.3184 45.5605 16.9424C45.787 17.5664 45.7555 18.2542 45.4729 18.8551L44.168 23.1955C44.1306 23.3198 44.0667 23.4345 43.9807 23.532C43.8946 23.6295 43.7885 23.7074 43.6694 23.7605C43.5504 23.8135 43.4212 23.8404 43.2908 23.8393C43.1603 23.8382 43.0317 23.8092 42.9135 23.7542Z" fill="#8AD70E"/>
<path d="M50.8473 5.97181C51.0561 5.99639 51.2675 5.95839 51.4545 5.86268C51.7959 5.6405 51.7623 5.13549 51.6468 4.74635C51.3588 3.81355 50.8393 2.96788 50.136 2.28739C49.4327 1.6069 48.5684 1.11351 47.6228 0.852752C46.9638 0.678616 46.13 0.685346 45.753 1.25028C44.8057 0.622789 43.6636 0.35363 42.5338 0.491612C41.404 0.629595 40.3613 1.16558 39.5949 2.00238C38.8218 2.8464 38.3787 3.94664 38.1491 5.06517C37.7536 6.99192 36.0598 10.9664 36.9981 12.6975C37.6224 13.8494 40.4959 12.9519 41.7113 13.4536C42.9268 13.9554 44.4041 13.8991 45.4838 13.1508C46.5634 12.4026 47.1305 10.9251 46.6677 9.70008C46.4887 9.22635 46.1783 8.81494 45.9335 8.37128C45.6887 7.92762 45.5055 7.41475 45.6148 6.92049C45.7849 6.15081 49.4383 5.94296 50.8473 5.97181Z" fill="#333333"/>
<path d="M89.8935 69.0631C89.8936 69.0878 89.8888 69.1122 89.8794 69.1349C89.8699 69.1577 89.856 69.1784 89.8385 69.1958C89.821 69.2132 89.8002 69.227 89.7773 69.2364C89.7544 69.2458 89.7299 69.2506 89.7051 69.2505H0.188456C0.138474 69.2505 0.0905397 69.2308 0.0551974 69.1956C0.019855 69.1605 0 69.1128 0 69.0631C0 69.0134 0.019855 68.9658 0.0551974 68.9306C0.0905397 68.8955 0.138474 68.8757 0.188456 68.8757H89.7051C89.7299 68.8756 89.7544 68.8804 89.7773 68.8898C89.8002 68.8992 89.821 68.913 89.8385 68.9304C89.856 68.9478 89.8699 68.9685 89.8794 68.9913C89.8888 69.0141 89.8936 69.0385 89.8935 69.0631Z" fill="#333333"/>
<path d="M103.436 70.0001C107.079 70.0001 110.032 69.4967 110.032 68.8758C110.032 68.2548 107.079 67.7515 103.436 67.7515C99.793 67.7515 96.8398 68.2548 96.8398 68.8758C96.8398 69.4967 99.793 70.0001 103.436 70.0001Z" fill="#823CDE"/>
<path d="M140.813 69.333H115.56C115.51 69.333 115.462 69.3133 115.426 69.2781C115.391 69.243 115.371 69.1953 115.371 69.1456C115.371 69.0959 115.391 69.0483 115.426 69.0131C115.462 68.978 115.51 68.9583 115.56 68.9583H140.813C140.863 68.9583 140.911 68.978 140.946 69.0131C140.981 69.0483 141.001 69.0959 141.001 69.1456C141.001 69.1953 140.981 69.243 140.946 69.2781C140.911 69.3133 140.863 69.333 140.813 69.333Z" fill="#333333"/>
<path d="M98.5296 20.1C98.53 18.0586 99.234 16.0789 100.524 14.491C101.815 12.9031 103.614 11.803 105.621 11.374C104.312 11.0947 102.957 11.11 101.655 11.4188C100.353 11.7276 99.1368 12.3221 98.0957 13.1587C97.0546 13.9953 96.2149 15.0528 95.638 16.2539C95.0611 17.4549 94.7617 18.7691 94.7617 20.1001C94.7617 21.431 95.0611 22.7452 95.638 23.9462C96.2149 25.1473 97.0546 26.2048 98.0957 27.0414C99.1368 27.878 100.353 28.4725 101.655 28.7813C102.957 29.0901 104.312 29.1054 105.621 28.8261C103.614 28.3971 101.815 27.297 100.524 25.7091C99.234 24.1212 98.53 22.1415 98.5296 20.1Z" fill="#823CDE"/>
<path d="M88.7631 20.1001C88.7635 15.231 90.5545 10.5302 93.7987 6.88298C97.0429 3.2358 101.516 0.894075 106.377 0.298932C103.556 -0.0448352 100.695 0.210683 97.9815 1.04859C95.2681 1.88649 92.7645 3.28768 90.6363 5.15948C88.5081 7.03128 86.8039 9.33103 85.6363 11.9066C84.4687 14.4822 83.8644 17.2749 83.8633 20.1001C83.8633 29.0488 97.0987 54.284 102.07 63.4463C102.25 63.7797 102.518 64.0583 102.845 64.2524C103.172 64.4466 103.546 64.5491 103.927 64.5491C104.307 64.5491 104.681 64.4466 105.008 64.2524C105.335 64.0583 105.603 63.7797 105.783 63.4463C105.97 63.1034 106.168 62.7353 106.377 62.3491C101.025 52.4153 88.7631 28.7139 88.7631 20.1001Z" fill="#823CDE"/>
<path d="M103.943 64.7733C103.528 64.7766 103.119 64.6663 102.762 64.4544C102.406 64.2426 102.114 63.9373 101.92 63.5719C96.4394 53.4697 83.6914 29.0144 83.6914 20.1369C83.6914 14.7963 85.8251 9.67436 89.623 5.89796C93.421 2.12156 98.5721 0 103.943 0C109.314 0 114.466 2.12156 118.263 5.89796C122.061 9.67436 124.195 14.7963 124.195 20.1369C124.195 29.0152 111.447 53.4699 105.966 63.5719C105.772 63.9373 105.481 64.2426 105.124 64.4545C104.767 64.6664 104.359 64.7766 103.943 64.7733ZM103.943 0.374773C98.6739 0.380682 93.6221 2.46466 89.8961 6.16949C86.1701 9.87433 84.0743 14.8975 84.0683 20.1369C84.0683 28.929 96.7849 53.3167 102.252 63.394C102.417 63.6977 102.661 63.9514 102.958 64.1283C103.256 64.3051 103.596 64.3985 103.943 64.3985C104.29 64.3985 104.63 64.3051 104.928 64.1283C105.226 63.9514 105.47 63.6977 105.634 63.394C111.102 53.3171 123.818 28.9299 123.818 20.1369C123.812 14.8975 121.716 9.87433 117.99 6.16949C114.264 2.46466 109.213 0.380684 103.943 0.374773Z" fill="#333333"/>
<path d="M103.946 29.249C102.133 29.249 100.361 28.7146 98.8542 27.7134C97.3471 26.7121 96.1725 25.289 95.4789 23.624C94.7852 21.959 94.6037 20.1268 94.9573 18.3592C95.3109 16.5916 96.1837 14.968 97.4654 13.6936C98.747 12.4192 100.38 11.5514 102.158 11.1998C103.935 10.8482 105.778 11.0286 107.452 11.7183C109.127 12.408 110.558 13.5759 111.565 15.0744C112.572 16.5729 113.11 18.3346 113.11 20.1369C113.107 22.5527 112.14 24.8688 110.422 26.5771C108.704 28.2853 106.375 29.2462 103.946 29.249ZM103.946 11.3994C102.208 11.3994 100.509 11.9118 99.0636 12.8719C97.6185 13.8319 96.4922 15.1965 95.8271 16.7931C95.162 18.3896 94.988 20.1464 95.327 21.8413C95.666 23.5362 96.5029 25.0931 97.7318 26.315C98.9607 27.537 100.526 28.3692 102.231 28.7063C103.936 29.0435 105.702 28.8704 107.308 28.2091C108.914 27.5478 110.286 26.428 111.252 24.9911C112.217 23.5543 112.733 21.865 112.733 20.1369C112.73 17.8204 111.803 15.5995 110.156 13.9615C108.509 12.3235 106.275 11.4021 103.946 11.3994Z" fill="#333333"/>
</g>
<defs>
<clipPath id="clip0_1155_14060">
<rect width="141" height="70" fill="white"/>
</clipPath>
</defs>
</svg>
