<svg width="124" height="109" viewBox="0 0 124 109" fill="none" xmlns="http://www.w3.org/2000/svg">
<g clip-path="url(#clip0_1154_13865)">
<path d="M48.1161 10.8215L48.6037 10.0712C48.4591 9.67354 48.2921 9.28429 48.1035 8.90532L47.7882 9.15887L48.0378 8.77473C47.7999 8.30844 47.6127 8.01465 47.6127 8.01465C47.6127 8.01465 46.6348 9.54892 46.3081 11.1734L46.9338 12.1361L46.2411 11.5791C46.2165 11.7683 46.2038 11.9589 46.2031 12.1497C46.2031 14.0736 46.8342 15.6332 47.6127 15.6332C48.3912 15.6332 49.0222 14.0736 49.0222 12.1497C49.0076 11.5376 48.8989 10.9314 48.6998 10.3521L48.1161 10.8215Z" fill="#D9D9D9"/>
<path d="M51.5648 12.4893L52.4425 12.3021C52.6227 11.9191 52.781 11.5262 52.9168 11.1255L52.5137 11.0828L52.9631 10.9869C53.126 10.4897 53.2023 10.1501 53.2023 10.1501C53.2023 10.1501 51.4212 10.5466 50.0365 11.4652L49.7952 12.5865L49.701 11.705C49.5492 11.8214 49.4048 11.9473 49.2689 12.0817C47.9025 13.4421 47.2411 14.9892 47.7916 15.5373C48.3421 16.0854 49.8959 15.4269 51.2623 14.0665C51.6866 13.6234 52.0403 13.1181 52.3109 12.5683L51.5648 12.4893Z" fill="#D9D9D9"/>
<path d="M51.885 19.9339C49.8499 20.0635 47.6324 19.9264 45.2734 19.9339V14.5564C47.3521 14.8786 49.5688 14.8455 51.885 14.5564V19.9339Z" fill="#D9D9D9"/>
<path d="M68.0846 32.4479C66.9127 32.5226 65.6357 32.4436 64.2773 32.4479V29.3513C65.5403 29.5274 66.8217 29.5274 68.0846 29.3513V32.4479Z" fill="#D9D9D9"/>
<path d="M74.7705 19.5559H23.5391V20.9807H74.7705V19.5559Z" fill="#D9D9D9"/>
<path d="M74.7705 31.7734H23.5391V33.1983H74.7705V31.7734Z" fill="#D9D9D9"/>
<path d="M66.1863 30.4913C67.767 30.4913 69.0484 29.2155 69.0484 27.6416C69.0484 26.0678 67.767 24.792 66.1863 24.792C64.6056 24.792 63.3242 26.0678 63.3242 27.6416C63.3242 29.2155 64.6056 30.4913 66.1863 30.4913Z" fill="#D9D9D9"/>
<path d="M66.1842 29.9212C67.4488 29.9212 68.4739 28.9006 68.4739 27.6415C68.4739 26.3825 67.4488 25.3618 66.1842 25.3618C64.9197 25.3618 63.8945 26.3825 63.8945 27.6415C63.8945 28.9006 64.9197 29.9212 66.1842 29.9212Z" fill="white"/>
<path d="M66.1857 28.2114C66.5018 28.2114 66.7581 27.9562 66.7581 27.6415C66.7581 27.3267 66.5018 27.0715 66.1857 27.0715C65.8696 27.0715 65.6133 27.3267 65.6133 27.6415C65.6133 27.9562 65.8696 28.2114 66.1857 28.2114Z" fill="#D9D9D9"/>
<path d="M68.1875 27.784V27.499H65.8978V27.784H68.1875Z" fill="#D9D9D9"/>
<path d="M66.0419 27.9265H66.3281V25.6468H66.0419V27.9265Z" fill="#D9D9D9"/>
<path d="M32.7492 24.8228H30.8555V32.2861H32.7492V24.8228Z" fill="#D9D9D9"/>
<path d="M32.7492 26.0012H30.8555V26.8654H32.7492V26.0012Z" fill="#FAFAFA"/>
<path d="M32.7492 29.7722H30.8555V30.6364H32.7492V29.7722Z" fill="#FAFAFA"/>
<path d="M29.8312 24.8228H27.9375V32.2861H29.8312V24.8228Z" fill="#D9D9D9"/>
<path d="M29.8312 26.0012H27.9375V26.8654H29.8312V26.0012Z" fill="#FAFAFA"/>
<path d="M29.8312 29.7722H27.9375V30.6364H29.8312V29.7722Z" fill="#FAFAFA"/>
<path d="M34.3807 24.7919L32.6836 25.6284L36.0095 32.3169L37.7066 31.4803L34.3807 24.7919Z" fill="#D9D9D9"/>
<path d="M34.908 25.848L33.2109 26.6846L33.596 27.459L35.2931 26.6225L34.908 25.848Z" fill="#FAFAFA"/>
<path d="M36.5877 29.2274L34.8906 30.064L35.2757 30.8384L36.9728 30.0019L36.5877 29.2274Z" fill="#FAFAFA"/>
<path d="M50.4953 24.8228H48.6016V32.2861H50.4953V24.8228Z" fill="#D9D9D9"/>
<path d="M50.4953 26.0012H48.6016V26.8654H50.4953V26.0012Z" fill="#FAFAFA"/>
<path d="M50.4953 29.7722H48.6016V30.6364H50.4953V29.7722Z" fill="#FAFAFA"/>
<path d="M47.5773 24.8228H45.6836V32.2861H47.5773V24.8228Z" fill="#D9D9D9"/>
<path d="M47.5773 26.0012H45.6836V26.8654H47.5773V26.0012Z" fill="#FAFAFA"/>
<path d="M47.5773 29.7722H45.6836V30.6364H47.5773V29.7722Z" fill="#FAFAFA"/>
<path d="M52.1268 24.7919L50.4297 25.6284L53.7556 32.3169L55.4527 31.4803L52.1268 24.7919Z" fill="#D9D9D9"/>
<path d="M52.6541 25.848L50.957 26.6846L51.3421 27.459L53.0392 26.6225L52.6541 25.848Z" fill="#FAFAFA"/>
<path d="M54.3338 29.2274L52.6367 30.064L53.0218 30.8384L54.7189 30.0019L54.3338 29.2274Z" fill="#FAFAFA"/>
<path d="M70.7647 12.5828H63.2383V20.0765H70.7647V12.5828Z" fill="#D9D9D9"/>
<path d="M69.2581 14.0813H64.7422V18.5775H69.2581V14.0813Z" fill="#FAFAFA"/>
<path d="M66.0518 15.5906L67.0094 17.2418L67.9668 18.893H66.0518H64.1367L65.0943 17.2418L66.0518 15.5906Z" fill="#D9D9D9"/>
<path d="M67.7158 15.9062L68.6734 17.5575L69.6309 19.2087H67.7158H65.8008L66.7584 17.5575L67.7158 15.9062Z" fill="#D9D9D9"/>
<path d="M68.3905 15.4225C68.6968 15.4225 68.9451 15.1752 68.9451 14.8703C68.9451 14.5653 68.6968 14.3181 68.3905 14.3181C68.0842 14.3181 67.8359 14.5653 67.8359 14.8703C67.8359 15.1752 68.0842 15.4225 68.3905 15.4225Z" fill="#D9D9D9"/>
<path d="M32.6983 12.5828H25.1719V20.0765H32.6983V12.5828Z" fill="#D9D9D9"/>
<path d="M31.1956 14.0813H26.6797V18.5775H31.1956V14.0813Z" fill="#FAFAFA"/>
<path d="M27.9854 15.5906L28.9428 17.2418L29.9004 18.893H27.9854H26.0703L27.0278 17.2418L27.9854 15.5906Z" fill="#D9D9D9"/>
<path d="M29.6494 15.9062L30.6069 17.5575L31.5644 19.2087H29.6494H27.7344L28.6918 17.5575L29.6494 15.9062Z" fill="#D9D9D9"/>
<path d="M30.3202 15.4225C30.6265 15.4225 30.8748 15.1752 30.8748 14.8703C30.8748 14.5653 30.6265 14.3181 30.3202 14.3181C30.0139 14.3181 29.7656 14.5653 29.7656 14.8703C29.7656 15.1752 30.0139 15.4225 30.3202 15.4225Z" fill="#D9D9D9"/>
<path d="M10.0497 55.6677L10.5373 54.9174C10.3927 54.5197 10.2257 54.1305 10.037 53.7515L9.72175 54.0051L9.9714 53.6209C9.73349 53.1546 9.54628 52.8608 9.54628 52.8608C9.54628 52.8608 8.5684 54.3951 8.2417 56.0196L8.86739 56.9823L8.17472 56.4253C8.15005 56.6145 8.13736 56.8051 8.13672 56.9959C8.13672 58.9198 8.7678 60.4794 9.54628 60.4794C10.3248 60.4794 10.9558 58.9198 10.9558 56.9959C10.9412 56.3838 10.8325 55.7776 10.6334 55.1983L10.0497 55.6677Z" fill="#823CDE"/>
<path d="M13.4984 57.3355L14.3761 57.1483C14.5562 56.7652 14.7146 56.3724 14.8504 55.9717L14.4473 55.929L14.8967 55.8331C15.0596 55.3359 15.1359 54.9963 15.1359 54.9963C15.1359 54.9963 13.3548 55.3928 11.9701 56.3114L11.7288 57.4327L11.6346 56.5512C11.4827 56.6676 11.3384 56.7934 11.2024 56.9279C9.83611 58.2883 9.17472 59.8354 9.72519 60.3835C10.2757 60.9316 11.8295 60.2731 13.1959 58.9127C13.6202 58.4696 13.9739 57.9643 14.2445 57.4145L13.4984 57.3355Z" fill="#823CDE"/>
<path d="M13.8186 64.7801C11.7835 64.9097 9.56603 64.7726 7.20703 64.7801V59.4026C9.28571 59.7248 11.5024 59.6917 13.8186 59.4026V64.7801Z" fill="#333333"/>
<path d="M97.8823 66.468H70.4062V101.946H97.8823V66.468Z" fill="#D9D9D9"/>
<path d="M14.4545 68.3203H13.0234V101.946H14.4545V68.3203Z" fill="#D9D9D9"/>
<path d="M97.8834 64.0457H0V66.8953H97.8834V64.0457Z" fill="#D9D9D9"/>
<path d="M15.1707 66.8953H12.3086V69.7449H15.1707V66.8953Z" fill="#D9D9D9"/>
<path d="M86.3099 68.5339L86.1489 69.1752H82.1419L81.9005 68.5339H71.6953V75.0882H96.5955V68.5339H86.3099Z" fill="#333333"/>
<path d="M86.3099 76.7979L86.1489 77.439H82.1419L81.9005 76.7979H71.6953V83.352H96.5955V76.7979H86.3099Z" fill="#333333"/>
<path d="M86.3099 85.0618L86.1489 85.7029H82.1419L81.9005 85.0618H71.6953V91.6159H96.5955V85.0618H86.3099Z" fill="#333333"/>
<path d="M86.3099 93.3259L86.1489 93.9671H82.1419L81.9005 93.3259H71.6953V99.8801H96.5955V93.3259H86.3099Z" fill="#333333"/>
<path d="M53.0916 63.6183H44.6484L44.9346 59.9138H52.8053L53.0916 63.6183Z" fill="#D9D9D9"/>
<path d="M53.6636 63.1909H44.2188V64.0458H53.6636V63.1909Z" fill="#D9D9D9"/>
<path d="M65.0427 36.0479H32.7727C32.545 36.0479 32.3266 36.1379 32.1655 36.2982C32.0045 36.4586 31.9141 36.676 31.9141 36.9027V56.494H65.9014V36.9027C65.9014 36.676 65.8109 36.4586 65.6499 36.2982C65.4889 36.1379 65.2705 36.0479 65.0427 36.0479Z" fill="#333333"/>
<path d="M31.9141 56.4941V59.7C31.9141 59.9267 32.0045 60.1442 32.1655 60.3045C32.3266 60.4648 32.545 60.5549 32.7727 60.5549H65.0427C65.2705 60.5549 65.4889 60.4648 65.6499 60.3045C65.8109 60.1442 65.9014 59.9267 65.9014 59.7V56.4941H31.9141Z" fill="#D9D9D9"/>
<path d="M64.2533 37.8291H33.6289V54.927H64.2533V37.8291Z" fill="white"/>
<path d="M48.9407 59.3438C49.4149 59.3438 49.7993 58.9611 49.7993 58.4889C49.7993 58.0168 49.4149 57.634 48.9407 57.634C48.4665 57.634 48.082 58.0168 48.082 58.4889C48.082 58.9611 48.4665 59.3438 48.9407 59.3438Z" fill="#333333"/>
<path d="M121.567 101.732C118.439 101.931 115.031 101.721 111.406 101.732V93.4683C114.601 93.9634 118.007 93.9125 121.567 93.4683V101.732Z" fill="#333333"/>
<path d="M116.843 94.2102H115.984L116.271 77.5103H116.557L116.843 94.2102Z" fill="#333333"/>
<path d="M120.71 94.3232H119.852L120.138 77.623H120.424L120.71 94.3232Z" fill="#333333"/>
<path d="M113.409 94.3232H112.551L112.837 77.623H113.123L113.409 94.3232Z" fill="#333333"/>
<path d="M117.559 66.8242L118.945 64.6914C118.534 63.5609 118.059 62.4544 117.523 61.3771L116.627 62.0979L117.337 61.0059C116.66 59.6804 116.128 58.8452 116.128 58.8452C116.128 58.8452 113.348 63.2067 112.42 67.8245L114.198 70.5613L112.229 68.9779C112.159 69.5158 112.123 70.0576 112.121 70.6C112.121 76.069 113.915 80.5025 116.128 80.5025C118.341 80.5025 120.135 76.069 120.135 70.6C120.135 68.9045 119.75 67.1307 119.218 65.4899L117.559 66.8242Z" fill="#D9D9D9"/>
<path d="M121.422 67.1091L122.808 64.9763C122.397 63.8458 121.923 62.7393 121.386 61.662L120.49 62.3828L121.2 61.2908C120.523 59.9653 119.991 59.1301 119.991 59.1301C119.991 59.1301 117.211 63.4916 116.283 68.1094L118.061 70.8462L116.092 69.2628C116.022 69.8007 115.986 70.3425 115.984 70.8849C115.984 76.3539 117.778 80.7874 119.991 80.7874C122.204 80.7874 123.998 76.3539 123.998 70.8849C123.998 69.1895 123.613 67.4156 123.082 65.7748L121.422 67.1091Z" fill="#823CDE"/>
<path d="M114.125 67.1091L115.512 64.9763C115.1 63.8458 114.626 62.7393 114.09 61.662L113.193 62.3828L113.903 61.2908C113.227 59.9653 112.694 59.1301 112.694 59.1301C112.694 59.1301 109.915 63.4916 108.986 68.1094L110.765 70.8462L108.796 69.2628C108.725 69.8007 108.689 70.3425 108.688 70.8849C108.688 76.3539 110.481 80.7874 112.694 80.7874C114.907 80.7874 116.701 76.3539 116.701 70.8849C116.701 69.1895 116.316 67.4156 115.785 65.7748L114.125 67.1091Z" fill="#823CDE"/>
<path d="M51.8198 42.6553H43.5625V43.1272H51.8198V42.6553Z" fill="#333333"/>
<path d="M56.3135 44.3767H43.5625V44.8486H56.3135V44.3767Z" fill="#823CDE"/>
<path d="M53.9543 45.9988H43.5625V46.4707H53.9543V45.9988Z" fill="#823CDE"/>
<path d="M49.6291 47.6145H43.5625V48.0864H49.6291V47.6145Z" fill="#333333"/>
<path d="M52.7185 49.2302H43.5625V49.7022H52.7185V49.2302Z" fill="#333333"/>
<path d="M40.808 42.4875H39.7969V43.4942H40.808V42.4875Z" fill="#333333"/>
<path d="M40.808 44.1094H39.7969V45.1161H40.808V44.1094Z" fill="#823CDE"/>
<path d="M40.808 45.7312H39.7969V46.7379H40.808V45.7312Z" fill="#823CDE"/>
<path d="M40.808 47.3533H39.7969V48.36H40.808V47.3533Z" fill="#333333"/>
<path d="M40.808 48.9751H39.7969V49.9818H40.808V48.9751Z" fill="#333333"/>
<path d="M62.8361 41.7619H58.503C58.2073 40.0599 58.2073 38.3199 58.503 36.6179H62.8361C62.348 38.2981 62.348 40.0817 62.8361 41.7619Z" fill="#823CDE"/>
<path d="M31.3075 52.0717L29.5248 51.639C28.8446 51.6399 28.1726 51.4901 27.5576 51.2007C26.9426 50.9112 26.3999 50.4892 25.9689 49.9653C25.5378 49.4414 25.2291 48.8286 25.0651 48.1712C24.9011 47.5139 24.8859 46.8285 25.0206 46.1646C25.0186 44.5806 25.6487 43.0607 26.7722 41.9392C27.8958 40.8177 29.4208 40.1866 31.0117 40.1846C32.6027 40.1826 34.1292 40.8099 35.2556 41.9286C36.382 43.0473 37.0159 44.5656 37.0179 46.1496C38.0287 49.6517 34.863 52.9346 31.3075 52.0717Z" fill="#0F2757"/>
<path d="M33.2514 52.696C35.6857 52.696 37.6591 50.7312 37.6591 48.3075C37.6591 45.8838 35.6857 43.9189 33.2514 43.9189C30.8171 43.9189 28.8438 45.8838 28.8438 48.3075C28.8438 50.7312 30.8171 52.696 33.2514 52.696Z" fill="#F9D5B9"/>
<path d="M30.3784 50.5972C30.3784 50.5972 29.0369 55.1765 28.2704 55.5581C27.5038 55.9397 34.4028 56.5121 34.4028 56.5121C34.4028 56.5121 34.2112 52.1236 34.5944 51.742C34.9777 51.3604 30.3784 50.5972 30.3784 50.5972Z" fill="#F9D5B9"/>
<path d="M37.2765 78.8362C37.2765 78.8362 45.9002 78.073 47.0501 80.9351C48.1999 83.7971 46.2835 100.779 46.2835 100.779H42.6424V86.85C42.6424 86.85 27.1172 82.4562 27.1172 80.9298C27.1172 79.4033 37.2765 78.8362 37.2765 78.8362Z" fill="#0F2757"/>
<path d="M45.7091 100.016L47.6255 100.779C47.6255 100.779 49.9251 100.588 48.9669 102.305C48.6927 102.804 48.309 103.234 47.8445 103.565C47.3799 103.895 46.8465 104.117 46.284 104.213C46.284 104.213 42.6429 105.549 42.4512 104.213C42.2596 102.878 43.4094 100.206 43.4094 100.206L45.7091 100.016Z" fill="#0F2757"/>
<path d="M32.4879 78.8364C32.4879 78.8364 41.1116 78.0732 42.2614 80.9352C43.4113 83.7973 41.4949 100.779 41.4949 100.779H37.8537V86.8502C37.8537 86.8502 26.8333 84.3086 26.8333 82.7822C26.8333 82.0651 26.0824 78.4206 27.4057 77.6528C28.8993 76.7862 32.4879 78.8364 32.4879 78.8364Z" fill="#0F2757"/>
<path d="M40.92 100.016L42.8364 100.779C42.8364 100.779 45.1361 100.588 44.1779 102.305C43.9036 102.804 43.5199 103.234 43.0554 103.565C42.5909 103.895 42.0575 104.117 41.4949 104.213C41.4949 104.213 37.8538 105.549 37.6622 104.213C37.4705 102.878 38.6204 100.206 38.6204 100.206L40.92 100.016Z" fill="#0F2757"/>
<path d="M28.4623 54.9858L34.2214 55.6091C35.1103 55.7053 35.9459 56.0787 36.6088 56.6759C37.2718 57.2731 37.7283 58.0637 37.9131 58.9346L40.1522 69.487C40.1522 69.487 40.9188 79.9813 39.3857 80.5537C37.8526 81.1261 35.7446 78.264 32.87 78.6456C29.9954 79.0272 26.2585 79.8859 26.2585 79.8859C26.2585 79.8859 25.665 61.1015 25.5877 59.5652C25.4332 56.4937 28.4623 54.9858 28.4623 54.9858Z" fill="#8AD70E"/>
<path d="M42.1031 79.3816L44.4674 80.7679C44.4674 80.7679 48.7091 80.162 48.5767 81.6464C48.4443 83.1308 43.8142 82.8439 43.8142 82.8439L40.9648 81.0959L42.1031 79.3816Z" fill="#F9D5B9"/>
<path d="M24.6987 44.7384C26.2712 44.7384 27.5459 43.4693 27.5459 41.9036C27.5459 40.338 26.2712 39.0688 24.6987 39.0688C23.1263 39.0688 21.8516 40.338 21.8516 41.9036C21.8516 43.4693 23.1263 44.7384 24.6987 44.7384Z" fill="#0F2757"/>
<path d="M27.3254 40.3797C27.3251 39.9603 27.2313 39.5463 27.0508 39.1674C26.8703 38.7886 26.6076 38.4543 26.2816 38.1888C25.9556 37.9233 25.5745 37.7331 25.1658 37.632C24.757 37.5309 24.3308 37.5214 23.918 37.6042C24.2823 37.4328 24.679 37.3403 25.0818 37.333C25.4847 37.3257 25.8845 37.4036 26.2548 37.5616C26.6252 37.7196 26.9576 37.9541 27.2301 38.2497C27.5026 38.5452 27.709 38.8949 27.8356 39.2758C27.9622 39.6566 28.0061 40.0599 27.9645 40.4589C27.9228 40.8579 27.7965 41.2436 27.594 41.5904C27.3914 41.9372 27.1172 42.2372 26.7895 42.4706C26.4618 42.704 26.088 42.8654 25.693 42.9443C26.1815 42.7151 26.5944 42.3523 26.8835 41.8982C27.1726 41.444 27.3259 40.9173 27.3254 40.3797Z" fill="#0F2757"/>
<path d="M29.7692 41.9874L33.6076 41.2837L36.5595 43.1258C37.2853 43.5786 37.8654 44.2292 38.231 45.0004C38.5966 45.7716 38.7324 46.631 38.6222 47.4767L35.6658 46.7306L35.0038 45.0778L34.2153 46.3645L30.0929 51.6467L27.7783 50.1792L25.7148 46.9596L29.7692 41.9874Z" fill="#0F2757"/>
<path d="M32.9297 56.6088L34.8461 55.6548C34.8461 55.6548 38.8705 56.2272 39.637 58.8985C40.4036 61.5697 43.8531 80.0778 43.8531 80.0778L40.5952 81.6042L35.9959 70.3468L32.9297 56.6088Z" fill="#8AD70E"/>
<path opacity="0.2" d="M34.5586 64.1169L36.4766 71.5294L39.8778 79.8542L39.7599 80.1425L35.7034 71.6685L34.5586 64.1169Z" fill="#180B28"/>
<path d="M20.2506 104.995L19.5742 104.763L26.1266 85.3855L27.0738 85.7104L20.2506 104.995Z" fill="#333333"/>
<path d="M45.2918 104.995L45.9684 104.763L39.4158 85.3855L38.4688 85.7104L45.2918 104.995Z" fill="#333333"/>
<path d="M31.4468 108.998L32.1622 109L32.3845 86.3477L31.3828 86.3442L31.4468 108.998Z" fill="#333333"/>
<path d="M18.5937 73.9994L20.5564 81.8974C20.8312 83.0034 21.4035 84.014 22.2117 84.8207C23.0199 85.6273 24.0335 86.1995 25.1437 86.4759C30.6174 87.8383 36.3481 87.8016 41.8037 86.369L44.734 85.5995C46.4366 85.1524 47.717 83.6964 47.8382 81.9473C47.8873 81.329 47.7748 80.7085 47.5117 80.1463C47.5003 80.1221 47.4888 80.098 47.4772 80.0743C47.0951 79.2927 46.5055 78.63 45.7723 78.158C45.0392 77.686 44.1903 77.4226 43.3176 77.3963L40.2134 77.2966L28.9082 72.3098C28.9082 72.3098 25.02 70.3434 21.8236 70.1233C19.7126 69.9779 18.0855 71.9543 18.5937 73.9994Z" fill="#823CDE"/>
<path d="M87.5098 49.1562H76.3477V64.2594H87.5098V49.1562Z" fill="#D9D9D9"/>
<path d="M86.2191 50.8989H77.6328V62.5167H86.2191V50.8989Z" fill="white"/>
<path d="M85.1718 53.9392H81.0117V54.4111H85.1718V53.9392Z" fill="#333333"/>
<path d="M79.6908 53.678H78.6797V54.6847H79.6908V53.678Z" fill="#333333"/>
<path d="M85.1718 55.9341H81.0117V56.406H85.1718V55.9341Z" fill="#333333"/>
<path d="M79.6908 55.6729H78.6797V56.6795H79.6908V55.6729Z" fill="#333333"/>
<path d="M85.1718 57.9287H81.0117V58.4006H85.1718V57.9287Z" fill="#333333"/>
<path d="M79.6908 57.6675H78.6797V58.6742H79.6908V57.6675Z" fill="#333333"/>
<path d="M82.3547 50.0112C82.3547 49.7751 82.1625 49.5837 81.9254 49.5837C81.6883 49.5837 81.4961 49.7751 81.4961 50.0112C81.4961 50.2473 81.6883 50.4386 81.9254 50.4386C82.1625 50.4386 82.3547 50.2473 82.3547 50.0112Z" fill="#333333"/>
</g>
<defs>
<clipPath id="clip0_1154_13865">
<rect width="124" height="109" fill="white"/>
</clipPath>
</defs>
</svg>
