<svg width="142" height="103" viewBox="0 0 142 103" fill="none" xmlns="http://www.w3.org/2000/svg">
<g clip-path="url(#clip0_1155_13980)">
<path d="M3.76172 102.773C3.76172 102.899 3.86186 103 3.98655 103H141.777C141.902 103 142.002 102.899 142.002 102.773C142.002 102.647 141.902 102.546 141.777 102.546H3.98655C3.86186 102.546 3.76172 102.647 3.76172 102.773Z" fill="#333333"/>
<path d="M47.8824 18.1685H3.68983C2.0045 18.1685 0.632812 16.7822 0.632812 15.079C0.632812 13.3758 2.0045 11.9895 3.68983 11.9895H47.8824C49.5677 11.9895 50.9394 13.3758 50.9394 15.079C50.9394 16.7822 49.5677 18.1685 47.8824 18.1685ZM3.68983 12.3714C2.21233 12.3714 1.01069 13.5858 1.01069 15.079C1.01069 16.5722 2.21233 17.7866 3.68983 17.7866H47.8824C49.3599 17.7866 50.5615 16.5722 50.5615 15.079C50.5615 13.5858 49.3599 12.3714 47.8824 12.3714H3.68983Z" fill="#D9D9D9"/>
<path d="M47.8817 54.324H3.68911C2.0548 54.324 0.726562 52.9817 0.726562 51.33C0.726562 49.6783 2.0548 48.3359 3.68911 48.3359H47.8817C49.516 48.3359 50.8442 49.6783 50.8442 51.33C50.8442 52.9817 49.516 54.324 47.8817 54.324Z" fill="#823CDE"/>
<path d="M33.4004 5.98806H2.96254C1.32823 5.98806 0 4.64571 0 2.99403C0 1.34235 1.32823 0 2.96254 0H33.4004C35.0347 0 36.363 1.34235 36.363 2.99403C36.363 4.64571 35.0347 5.98806 33.4004 5.98806Z" fill="#D9D9D9"/>
<path d="M47.8824 30.2515H3.68983C2.0045 30.2515 0.632812 28.8653 0.632812 27.162C0.632812 25.4588 2.0045 24.0725 3.68983 24.0725H47.8824C49.5677 24.0725 50.9394 25.4588 50.9394 27.162C50.9394 28.8653 49.5677 30.2515 47.8824 30.2515ZM3.68983 24.4544C2.21233 24.4544 1.01069 25.6688 1.01069 27.162C1.01069 28.6552 2.21233 29.8696 3.68983 29.8696H47.8824C49.3599 29.8696 50.5615 28.6552 50.5615 27.162C50.5615 25.6688 49.3599 24.4544 47.8824 24.4544H3.68983Z" fill="#D9D9D9"/>
<path d="M47.8824 42.3365H3.68983C2.0045 42.3365 0.632812 40.9502 0.632812 39.247C0.632812 37.5437 2.0045 36.1575 3.68983 36.1575H47.8824C49.5677 36.1575 50.9394 37.5437 50.9394 39.247C50.9394 40.9502 49.5677 42.3365 47.8824 42.3365ZM3.68983 36.5394C2.21233 36.5394 1.01069 37.7538 1.01069 39.247C1.01069 40.7402 2.21233 41.9546 3.68983 41.9546H47.8824C49.3599 41.9546 50.5615 40.7402 50.5615 39.247C50.5615 37.7538 49.3599 36.5394 47.8824 36.5394H3.68983Z" fill="#D9D9D9"/>
<path d="M2.17256 9.77075H13.7544C14.0303 9.77075 14.2551 9.99607 14.2551 10.2768C14.2551 10.5555 14.0303 10.7828 13.7544 10.7828H2.17256C1.89671 10.7828 1.67188 10.5574 1.67188 10.2768C1.67188 9.99798 1.89671 9.77075 2.17256 9.77075Z" fill="#D9D9D9"/>
<path d="M2.17256 22.1401H13.7544C14.0303 22.1401 14.2551 22.3655 14.2551 22.6442C14.2551 22.923 14.0303 23.1502 13.7544 23.1502H2.17256C1.89671 23.1502 1.67188 22.9249 1.67188 22.6461C1.67188 22.3674 1.89671 22.1401 2.17256 22.1401Z" fill="#D9D9D9"/>
<path d="M2.17256 34.5115H13.7544C14.0303 34.5115 14.2551 34.7368 14.2551 35.0175C14.2551 35.2963 14.0303 35.5216 13.7544 35.5216H2.17256C1.89671 35.5216 1.67188 35.2963 1.67188 35.0156C1.67188 34.7368 1.89671 34.5115 2.17256 34.5115Z" fill="#D9D9D9"/>
<path d="M84.4707 25.2544L80.2461 26.6597V20.5132H84.0796L84.4707 25.2544Z" fill="#9F616A"/>
<path d="M80.7681 22.2146C83.093 22.2146 84.9777 20.3099 84.9777 17.9603C84.9777 15.6108 83.093 13.7061 80.7681 13.7061C78.4433 13.7061 76.5586 15.6108 76.5586 17.9603C76.5586 20.3099 78.4433 22.2146 80.7681 22.2146Z" fill="#9F616A"/>
<path d="M81.9251 17.5383C81.2203 17.5173 80.7574 16.7975 80.4835 16.1406C80.2095 15.4838 79.928 14.7295 79.2743 14.4584C78.7396 14.2369 77.7968 15.7358 77.3754 15.3367C76.9352 14.9205 77.3641 12.7838 77.8308 12.4C78.2975 12.0162 78.9361 11.9417 79.5369 11.9131C81.0031 11.8443 82.4787 11.9646 83.9165 12.2682C84.8064 12.4554 85.7208 12.738 86.3632 13.3872C87.1756 14.2121 87.3835 15.4551 87.442 16.618C87.5025 17.8076 87.4345 19.0525 86.862 20.0932C86.2895 21.1338 85.0917 21.9014 83.9429 21.636C83.8277 21.0059 83.9448 20.3586 83.9902 19.717C84.0336 19.0774 83.9883 18.3861 83.6009 17.8763C83.2155 17.3665 82.388 17.1641 81.9383 17.6166" fill="#333333"/>
<path d="M87.1024 19.0125C87.5237 18.7013 88.0282 18.4397 88.5459 18.5046C89.1051 18.5733 89.5794 19.0392 89.723 19.5911C89.8666 20.1429 89.706 20.7501 89.3583 21.2008C89.0126 21.6514 88.4968 21.9493 87.9526 22.0982C87.6371 22.1841 87.2913 22.2204 86.9909 22.0906C86.5488 21.8977 86.3089 21.3268 86.4827 20.8723" fill="#333333"/>
<path d="M70.9949 59.0404C70.7134 60.4381 71.2292 61.7155 72.1436 61.8931C73.0581 62.0707 74.0273 61.0797 74.307 59.6819C74.426 59.1244 74.4071 58.5477 74.2522 57.9978L77.7343 36.0868L73.3793 35.2581L71.6977 57.5032C71.3406 57.9539 71.1007 58.4809 70.9949 59.0423V59.0404Z" fill="#9F616A"/>
<path d="M80.1992 23.8396H77.2272C75.1262 24.1623 74.5556 25.2946 74.0776 27.3874C73.3483 30.58 72.4168 34.8304 72.602 34.8935C72.8986 34.9927 77.9584 37.3987 80.5374 36.8487L80.1992 23.8396Z" fill="#D9D9D9"/>
<path d="M83.0735 93.6321H79.1172V99.3051H83.0735V93.6321Z" fill="#9F616A"/>
<path d="M75.2631 102.738C74.8474 102.738 74.4771 102.729 74.1975 102.702C73.147 102.605 72.1437 101.82 71.6393 101.362C71.4125 101.155 71.3407 100.827 71.4579 100.544C71.5429 100.342 71.7111 100.189 71.9208 100.13L74.6982 99.3281L79.1949 96.2615L79.2459 96.3531C79.2648 96.3875 79.7069 97.1914 79.8543 97.7337C79.911 97.9399 79.8958 98.1117 79.8108 98.2454C79.7522 98.3371 79.6691 98.3905 79.603 98.4211C79.6842 98.507 79.9393 98.6827 80.7253 98.8087C81.8721 98.992 82.114 97.791 82.1234 97.7413L82.131 97.7012L82.165 97.6783C82.711 97.3231 83.0473 97.1608 83.1626 97.1952C83.2344 97.2162 83.3553 97.2544 83.6822 100.525C83.7143 100.628 83.9429 101.381 83.788 102.101C83.6198 102.883 80.234 102.614 79.5557 102.553C79.5369 102.555 77.0013 102.738 75.265 102.738H75.2631Z" fill="#8AD70E"/>
<path d="M94.3375 89.1751L90.9805 91.291L93.9509 96.1046L97.3079 93.9887L94.3375 89.1751Z" fill="#9F616A"/>
<path d="M89.8807 101.961C89.4159 101.961 88.9889 101.904 88.6847 101.85C88.3862 101.797 88.1519 101.556 88.1028 101.255C88.0688 101.037 88.1312 100.817 88.2785 100.655L90.2151 98.4898L92.4257 93.4832L92.5164 93.5328C92.5504 93.5519 93.3458 93.9968 93.7558 94.3787C93.9127 94.5239 93.9901 94.6785 93.9863 94.837C93.9845 94.9478 93.9429 95.0356 93.9013 95.0986C94.0147 95.1292 94.3226 95.1406 95.0557 94.8275C96.1251 94.3711 95.7019 93.2216 95.683 93.1739L95.6679 93.1357L95.6849 93.0994C95.9626 92.5056 96.161 92.1886 96.2782 92.1561C96.3518 92.1351 96.4728 92.1027 98.4623 94.7053C98.5435 94.774 99.1311 95.2915 99.3767 95.9846C99.6431 96.7388 96.6296 98.3218 96.0231 98.6311C96.0042 98.6464 92.8508 100.963 91.5547 101.621C91.0408 101.883 90.4324 101.963 89.8788 101.963L89.8807 101.961Z" fill="#8AD70E"/>
<path d="M85.9888 46.1917H74.9114L73.9062 56.6058L78.3047 95.0852H83.9596L81.698 72.8611L90.871 92.9256L95.8967 89.3702L88.7341 70.6384C88.7341 70.6384 91.2923 54.3202 89.282 50.255C87.2717 46.1917 85.9888 46.1917 85.9888 46.1917Z" fill="#333333"/>
<path d="M91.5001 46.8257H73.9062L79.1852 23.8396H86.8504L91.5001 46.8257Z" fill="#D9D9D9"/>
<path d="M93.0832 59.0404C93.3647 60.4381 92.8489 61.7155 91.9344 61.8931C91.02 62.0707 90.0507 61.0797 89.7711 59.6819C89.6521 59.1244 89.6709 58.5477 89.8259 57.9978L86.3438 36.0868L90.6988 35.2581L92.3803 57.5032C92.7374 57.9539 92.9774 58.4809 93.0832 59.0423V59.0404Z" fill="#9F616A"/>
<path d="M83.8773 23.8396H86.8493C88.9502 24.1623 89.5208 25.2946 89.9988 27.3874C90.7281 30.58 91.6596 34.8304 91.4745 34.8935C91.1778 34.9927 86.1181 37.3987 83.5391 36.8487L83.8773 23.8396Z" fill="#D9D9D9"/>
</g>
<defs>
<clipPath id="clip0_1155_13980">
<rect width="142" height="103" fill="white"/>
</clipPath>
</defs>
</svg>
