<svg width="26" height="26" viewBox="0 0 26 26" fill="none" xmlns="http://www.w3.org/2000/svg">
<path d="M13 2.4375C10.9109 2.4375 8.86879 3.05698 7.13179 4.2176C5.3948 5.37822 4.04098 7.02786 3.24153 8.95791C2.44208 10.8879 2.2329 13.0117 2.64046 15.0606C3.04802 17.1096 4.054 18.9916 5.53119 20.4688C7.00838 21.946 8.89044 22.952 10.9394 23.3595C12.9883 23.7671 15.1121 23.5579 17.0421 22.7585C18.9721 21.959 20.6218 20.6052 21.7824 18.8682C22.943 17.1312 23.5625 15.0891 23.5625 13C23.5595 10.1996 22.4458 7.51466 20.4656 5.53445C18.4853 3.55424 15.8004 2.44046 13 2.4375ZM13 21.9375C11.2323 21.9375 9.50436 21.4133 8.0346 20.4313C6.56483 19.4492 5.41929 18.0533 4.74283 16.4202C4.06637 14.7871 3.88938 12.9901 4.23424 11.2564C4.57909 9.52268 5.43031 7.93016 6.68024 6.68023C7.93017 5.4303 9.52268 4.57909 11.2564 4.23423C12.9901 3.88938 14.7871 4.06637 16.4202 4.74283C18.0534 5.41928 19.4492 6.56483 20.4313 8.03459C21.4133 9.50435 21.9375 11.2323 21.9375 13C21.9348 15.3695 20.9923 17.6413 19.3168 19.3168C17.6413 20.9923 15.3696 21.9348 13 21.9375ZM14.625 17.875C14.625 18.0905 14.5394 18.2972 14.387 18.4495C14.2347 18.6019 14.028 18.6875 13.8125 18.6875C13.3815 18.6875 12.9682 18.5163 12.6635 18.2115C12.3587 17.9068 12.1875 17.4935 12.1875 17.0625V13C11.972 13 11.7654 12.9144 11.613 12.762C11.4606 12.6096 11.375 12.403 11.375 12.1875C11.375 11.972 11.4606 11.7653 11.613 11.613C11.7654 11.4606 11.972 11.375 12.1875 11.375C12.6185 11.375 13.0318 11.5462 13.3366 11.851C13.6413 12.1557 13.8125 12.569 13.8125 13V17.0625C14.028 17.0625 14.2347 17.1481 14.387 17.3005C14.5394 17.4528 14.625 17.6595 14.625 17.875ZM11.375 8.53125C11.375 8.2902 11.4465 8.05457 11.5804 7.85415C11.7143 7.65373 11.9047 7.49752 12.1274 7.40527C12.3501 7.31303 12.5951 7.28889 12.8315 7.33592C13.0679 7.38294 13.2851 7.49902 13.4555 7.66946C13.626 7.83991 13.7421 8.05707 13.7891 8.29348C13.8361 8.5299 13.812 8.77495 13.7197 8.99764C13.6275 9.22034 13.4713 9.41069 13.2709 9.5446C13.0704 9.67852 12.8348 9.75 12.5938 9.75C12.2705 9.75 11.9605 9.6216 11.732 9.39304C11.5034 9.16448 11.375 8.85448 11.375 8.53125Z" fill="#000333"/>
</svg>
