<svg width="29" height="22" viewBox="0 0 29 22" fill="none" xmlns="http://www.w3.org/2000/svg">
<path d="M6.912 21.12C5.376 21.12 4.07467 20.7573 3.008 20.032C1.984 19.3067 1.216 18.3467 0.704 17.152C0.234667 15.9573 0 14.6773 0 13.312C0 11.3493 0.405333 9.49333 1.216 7.744C2.06933 5.99467 3.15733 4.45867 4.48 3.136C5.84533 1.77067 7.31733 0.725334 8.896 0L13.312 3.264C12.16 3.776 11.072 4.39467 10.048 5.12C9.024 5.80267 8.128 6.57067 7.36 7.424C6.63467 8.27733 6.08 9.152 5.696 10.048L6.016 10.24C6.272 10.0693 6.54933 9.94133 6.848 9.856C7.18933 9.77067 7.63733 9.728 8.192 9.728C8.96 9.728 9.728 9.92 10.496 10.304C11.3067 10.688 11.968 11.264 12.48 12.032C13.0347 12.8 13.312 13.7813 13.312 14.976C13.312 16.2987 13.0133 17.4293 12.416 18.368C11.8187 19.264 11.0293 19.9467 10.048 20.416C9.06667 20.8853 8.02133 21.12 6.912 21.12ZM22.592 21.12C21.056 21.12 19.7547 20.7573 18.688 20.032C17.664 19.3067 16.896 18.3467 16.384 17.152C15.9147 15.9573 15.68 14.6773 15.68 13.312C15.68 11.3493 16.0853 9.49333 16.896 7.744C17.7493 5.99467 18.8373 4.45867 20.16 3.136C21.5253 1.77067 22.9973 0.725334 24.576 0L28.992 3.264C27.84 3.776 26.752 4.39467 25.728 5.12C24.704 5.80267 23.808 6.57067 23.04 7.424C22.3147 8.27733 21.76 9.152 21.376 10.048L21.696 10.24C21.952 10.0693 22.2293 9.94133 22.528 9.856C22.8693 9.77067 23.3173 9.728 23.872 9.728C24.64 9.728 25.408 9.92 26.176 10.304C26.9867 10.688 27.648 11.264 28.16 12.032C28.7147 12.8 28.992 13.7813 28.992 14.976C28.992 16.2987 28.6933 17.4293 28.096 18.368C27.4987 19.264 26.7093 19.9467 25.728 20.416C24.7467 20.8853 23.7013 21.12 22.592 21.12Z" fill="#8AD70E"/>
</svg>
