<svg width="26" height="26" viewBox="0 0 26 26" fill="none" xmlns="http://www.w3.org/2000/svg">
<path d="M25.5694 9.03296L13.3819 2.53296C13.2643 2.47036 13.1332 2.43762 13 2.43762C12.8668 2.43762 12.7357 2.47036 12.6181 2.53296L0.430615 9.03296C0.30062 9.10223 0.191903 9.20555 0.116096 9.33185C0.0402896 9.45815 0.000244141 9.60268 0.000244141 9.74999C0.000244141 9.89729 0.0402896 10.0418 0.116096 10.1681C0.191903 10.2944 0.30062 10.3977 0.430615 10.467L3.24999 11.9712V16.8888C3.24915 17.2879 3.39603 17.6732 3.66233 17.9705C4.9928 19.4523 7.97366 21.9375 13 21.9375C14.6666 21.9513 16.3207 21.6494 17.875 21.0478V24.375C17.875 24.5905 17.9606 24.7971 18.113 24.9495C18.2653 25.1019 18.472 25.1875 18.6875 25.1875C18.903 25.1875 19.1096 25.1019 19.262 24.9495C19.4144 24.7971 19.5 24.5905 19.5 24.375V20.2627C20.5595 19.6511 21.5169 18.8777 22.3376 17.9705C22.604 17.6732 22.7508 17.2879 22.75 16.8888V11.9712L25.5694 10.467C25.6994 10.3977 25.8081 10.2944 25.8839 10.1681C25.9597 10.0418 25.9997 9.89729 25.9997 9.74999C25.9997 9.60268 25.9597 9.45815 25.8839 9.33185C25.8081 9.20555 25.6994 9.10223 25.5694 9.03296ZM13 20.3125C8.60538 20.3125 6.02062 18.1655 4.87499 16.8888V12.8375L12.6181 16.967C12.7357 17.0296 12.8668 17.0624 13 17.0624C13.1332 17.0624 13.2643 17.0296 13.3819 16.967L17.875 14.5712V19.2776C16.5953 19.8748 14.9825 20.3125 13 20.3125ZM21.125 16.8848C20.6379 17.4252 20.093 17.9105 19.5 18.332V13.7038L21.125 12.8375V16.8848ZM19.0937 12.0798L19.0714 12.0666L13.3839 9.03296C13.1941 8.93603 12.9739 8.91753 12.7706 8.98143C12.5674 9.04534 12.3973 9.18653 12.2972 9.3746C12.197 9.56267 12.1747 9.78256 12.2352 9.98689C12.2956 10.1912 12.4338 10.3636 12.6201 10.467L17.3672 13L13 15.3288L2.53905 9.74999L13 4.17116L23.4609 9.74999L19.0937 12.0798Z" fill="#000333"/>
</svg>
