<svg width="26" height="26" viewBox="0 0 26 26" fill="none" xmlns="http://www.w3.org/2000/svg">
<path d="M21.9375 5.6875H17.875V4.875C17.875 4.22853 17.6182 3.60855 17.1611 3.15143C16.704 2.69431 16.084 2.4375 15.4375 2.4375H10.5625C9.91603 2.4375 9.29605 2.69431 8.83893 3.15143C8.38181 3.60855 8.125 4.22853 8.125 4.875V5.6875H4.0625C3.63152 5.6875 3.2182 5.8587 2.91345 6.16345C2.6087 6.4682 2.4375 6.88152 2.4375 7.3125V20.3125C2.4375 20.7435 2.6087 21.1568 2.91345 21.4615C3.2182 21.7663 3.63152 21.9375 4.0625 21.9375H21.9375C22.3685 21.9375 22.7818 21.7663 23.0865 21.4615C23.3913 21.1568 23.5625 20.7435 23.5625 20.3125V7.3125C23.5625 6.88152 23.3913 6.4682 23.0865 6.16345C22.7818 5.8587 22.3685 5.6875 21.9375 5.6875ZM9.75 4.875C9.75 4.65951 9.8356 4.45285 9.98798 4.30048C10.1403 4.1481 10.347 4.0625 10.5625 4.0625H15.4375C15.653 4.0625 15.8597 4.1481 16.012 4.30048C16.1644 4.45285 16.25 4.65951 16.25 4.875V5.6875H9.75V4.875ZM21.9375 7.3125V14.625H4.0625V7.3125H21.9375ZM21.9375 20.3125H4.0625V16.25H21.9375V20.3125Z" fill="#000333"/>
</svg>
