<svg width="26" height="26" viewBox="0 0 26 26" fill="none" xmlns="http://www.w3.org/2000/svg">
<path d="M24.8624 15.275C24.7771 15.339 24.6799 15.3856 24.5766 15.4121C24.4732 15.4385 24.3657 15.4444 24.26 15.4293C24.1544 15.4142 24.0528 15.3785 23.961 15.3241C23.8692 15.2697 23.789 15.1978 23.7249 15.1125C23.2352 14.4542 22.5978 13.9201 21.864 13.5532C21.1301 13.1863 20.3204 12.9968 19.4999 13C19.3402 13 19.1839 12.9528 19.0508 12.8645C18.9177 12.7762 18.8135 12.6505 18.7514 12.5033C18.7092 12.4034 18.6875 12.296 18.6875 12.1875C18.6875 12.079 18.7092 11.9716 18.7514 11.8716C18.8135 11.7244 18.9177 11.5988 19.0508 11.5104C19.1839 11.4221 19.3402 11.375 19.4999 11.375C19.9558 11.3749 20.4026 11.247 20.7894 11.0058C21.1763 10.7646 21.4877 10.4198 21.6884 10.0104C21.8891 9.60108 21.9709 9.14367 21.9246 8.69013C21.8784 8.2366 21.7059 7.80513 21.4267 7.44474C21.1475 7.08434 20.7728 6.80946 20.3452 6.65132C19.9177 6.49319 19.4543 6.45813 19.0078 6.55013C18.5613 6.64214 18.1495 6.85752 17.8193 7.1718C17.4891 7.48609 17.2536 7.88669 17.1396 8.3281C17.113 8.43147 17.0662 8.52857 17.002 8.61385C16.9378 8.69914 16.8574 8.77095 16.7655 8.82518C16.6735 8.87941 16.5718 8.91499 16.4661 8.9299C16.3604 8.94482 16.2528 8.93876 16.1494 8.91209C16.046 8.88541 15.9489 8.83864 15.8636 8.77444C15.7784 8.71024 15.7065 8.62987 15.6523 8.53792C15.5981 8.44597 15.5625 8.34423 15.5476 8.23853C15.5327 8.13282 15.5387 8.02522 15.5654 7.92185C15.7236 7.30975 16.0225 6.74301 16.4382 6.26674C16.854 5.79047 17.3752 5.4178 17.9603 5.1784C18.5454 4.93899 19.1784 4.83945 19.8087 4.8877C20.4391 4.93595 21.0495 5.13066 21.5914 5.45633C22.1333 5.782 22.5917 6.22965 22.9301 6.76365C23.2685 7.29765 23.4777 7.90327 23.5408 8.53232C23.604 9.16137 23.5195 9.79648 23.2941 10.3871C23.0686 10.9778 22.7084 11.5076 22.2421 11.9346C23.3469 12.4129 24.3074 13.172 25.028 14.1365C25.092 14.222 25.1385 14.3194 25.1648 14.423C25.1912 14.5266 25.1968 14.6343 25.1814 14.7401C25.166 14.8458 25.13 14.9475 25.0752 15.0393C25.0205 15.1311 24.9482 15.2112 24.8624 15.275ZM19.3903 21.5312C19.449 21.6237 19.4885 21.7271 19.5063 21.8352C19.5241 21.9434 19.5198 22.054 19.4937 22.1604C19.4677 22.2668 19.4203 22.3669 19.3546 22.4546C19.2889 22.5422 19.2061 22.6157 19.1112 22.6705C19.0163 22.7254 18.9113 22.7605 18.8025 22.7737C18.6938 22.7869 18.5834 22.778 18.4782 22.7474C18.373 22.7169 18.275 22.6654 18.1902 22.596C18.1053 22.5266 18.0354 22.4408 17.9846 22.3437C17.4728 21.4771 16.7439 20.7588 15.8697 20.2599C14.9956 19.7609 14.0065 19.4985 12.9999 19.4985C11.9934 19.4985 11.0043 19.7609 10.1302 20.2599C9.25603 20.7588 8.52708 21.4771 8.01525 22.3437C7.96446 22.4408 7.89455 22.5266 7.80973 22.596C7.72491 22.6654 7.62693 22.7169 7.52169 22.7474C7.41645 22.778 7.30612 22.7869 7.19734 22.7737C7.08856 22.7605 6.98357 22.7254 6.8887 22.6705C6.79383 22.6157 6.71103 22.5422 6.64529 22.4546C6.57954 22.3669 6.53221 22.2668 6.50614 22.1604C6.48007 22.054 6.4758 21.9434 6.49358 21.8352C6.51137 21.7271 6.55084 21.6237 6.60963 21.5312C7.39735 20.1778 8.59842 19.1127 10.0363 18.4925C9.22723 17.873 8.63258 17.0155 8.33599 16.0406C8.0394 15.0657 8.05578 14.0223 8.38282 13.0572C8.70987 12.092 9.33114 11.2536 10.1593 10.6599C10.9875 10.0661 11.9809 9.74672 12.9999 9.74672C14.019 9.74672 15.0124 10.0661 15.8406 10.6599C16.6687 11.2536 17.29 12.092 17.6171 13.0572C17.9441 14.0223 17.9605 15.0657 17.6639 16.0406C17.3673 17.0155 16.7727 17.873 15.9635 18.4925C17.4015 19.1127 18.6025 20.1778 19.3903 21.5312ZM12.9999 17.875C13.6427 17.875 14.2711 17.6844 14.8055 17.3273C15.34 16.9701 15.7566 16.4626 16.0026 15.8687C16.2485 15.2748 16.3129 14.6214 16.1875 13.9909C16.0621 13.3605 15.7526 12.7814 15.298 12.3269C14.8435 11.8724 14.2644 11.5628 13.634 11.4374C13.0035 11.312 12.3501 11.3764 11.7562 11.6224C11.1624 11.8684 10.6548 12.2849 10.2977 12.8194C9.94055 13.3538 9.74994 13.9822 9.74994 14.625C9.74994 15.4869 10.0924 16.3136 10.7018 16.9231C11.3113 17.5326 12.138 17.875 12.9999 17.875ZM7.31244 12.1875C7.31244 11.972 7.22684 11.7653 7.07447 11.613C6.92209 11.4606 6.71543 11.375 6.49994 11.375C6.04406 11.3749 5.59732 11.247 5.21047 11.0058C4.82363 10.7646 4.51218 10.4198 4.31151 10.0104C4.11083 9.60108 4.02898 9.14367 4.07524 8.69013C4.1215 8.2366 4.29402 7.80513 4.57321 7.44474C4.85239 7.08434 5.22706 6.80946 5.65464 6.65132C6.08222 6.49319 6.54557 6.45813 6.99208 6.55013C7.43858 6.64214 7.85034 6.85752 8.18057 7.1718C8.51081 7.48609 8.74628 7.88669 8.86025 8.3281C8.91413 8.53686 9.04872 8.71566 9.23442 8.82518C9.42013 8.9347 9.64173 8.96596 9.85049 8.91209C10.0592 8.85821 10.238 8.72362 10.3476 8.53792C10.4571 8.35221 10.4883 8.13061 10.4345 7.92185C10.2763 7.30975 9.97742 6.74301 9.56166 6.26674C9.1459 5.79047 8.62471 5.4178 8.03958 5.1784C7.45445 4.93899 6.82152 4.83945 6.19115 4.8877C5.56078 4.93595 4.95037 5.13066 4.40849 5.45633C3.86661 5.782 3.40822 6.22965 3.06979 6.76365C2.73136 7.29765 2.52223 7.90327 2.45904 8.53232C2.39586 9.16137 2.48035 9.79648 2.70581 10.3871C2.93128 10.9778 3.29148 11.5076 3.75775 11.9346C2.65406 12.4134 1.69473 13.1725 0.974942 14.1365C0.845514 14.3089 0.789869 14.5256 0.820249 14.739C0.850628 14.9524 0.964543 15.145 1.13693 15.2745C1.30932 15.4039 1.52607 15.4595 1.73949 15.4292C1.95291 15.3988 2.14551 15.2849 2.27494 15.1125C2.76466 14.4542 3.4021 13.9201 4.13593 13.5532C4.86976 13.1863 5.6795 12.9968 6.49994 13C6.71543 13 6.92209 12.9144 7.07447 12.762C7.22684 12.6096 7.31244 12.403 7.31244 12.1875Z" fill="#000333"/>
</svg>
