<svg width="26" height="26" viewBox="0 0 26 26" fill="none" xmlns="http://www.w3.org/2000/svg">
<path d="M24.375 21.125H22.75V9.74996C22.75 9.31898 22.5788 8.90566 22.274 8.60091C21.9693 8.29616 21.556 8.12496 21.125 8.12496H14.625V3.24996C14.6252 2.95569 14.5455 2.6669 14.3944 2.4144C14.2432 2.16191 14.0264 1.95518 13.767 1.81629C13.5076 1.6774 13.2153 1.61157 12.9214 1.62581C12.6274 1.64005 12.3429 1.73383 12.0981 1.89715L3.97312 7.31246C3.75024 7.46117 3.56758 7.66268 3.44141 7.89906C3.31525 8.13545 3.24949 8.39936 3.25 8.6673V21.125H1.625C1.40951 21.125 1.20285 21.2106 1.05048 21.3629C0.898102 21.5153 0.8125 21.722 0.8125 21.9375C0.8125 22.1529 0.898102 22.3596 1.05048 22.512C1.20285 22.6644 1.40951 22.75 1.625 22.75H24.375C24.5905 22.75 24.7972 22.6644 24.9495 22.512C25.1019 22.3596 25.1875 22.1529 25.1875 21.9375C25.1875 21.722 25.1019 21.5153 24.9495 21.3629C24.7972 21.2106 24.5905 21.125 24.375 21.125ZM21.125 9.74996V21.125H14.625V9.74996H21.125ZM4.875 8.6673L13 3.24996V21.125H4.875V8.6673ZM11.375 11.375V13C11.375 13.2154 11.2894 13.4221 11.137 13.5745C10.9847 13.7269 10.778 13.8125 10.5625 13.8125C10.347 13.8125 10.1403 13.7269 9.98798 13.5745C9.8356 13.4221 9.75 13.2154 9.75 13V11.375C9.75 11.1595 9.8356 10.9528 9.98798 10.8004C10.1403 10.6481 10.347 10.5625 10.5625 10.5625C10.778 10.5625 10.9847 10.6481 11.137 10.8004C11.2894 10.9528 11.375 11.1595 11.375 11.375ZM8.125 11.375V13C8.125 13.2154 8.0394 13.4221 7.88702 13.5745C7.73465 13.7269 7.52799 13.8125 7.3125 13.8125C7.09701 13.8125 6.89035 13.7269 6.73798 13.5745C6.5856 13.4221 6.5 13.2154 6.5 13V11.375C6.5 11.1595 6.5856 10.9528 6.73798 10.8004C6.89035 10.6481 7.09701 10.5625 7.3125 10.5625C7.52799 10.5625 7.73465 10.6481 7.88702 10.8004C8.0394 10.9528 8.125 11.1595 8.125 11.375ZM8.125 17.0625V18.6875C8.125 18.9029 8.0394 19.1096 7.88702 19.262C7.73465 19.4144 7.52799 19.5 7.3125 19.5C7.09701 19.5 6.89035 19.4144 6.73798 19.262C6.5856 19.1096 6.5 18.9029 6.5 18.6875V17.0625C6.5 16.847 6.5856 16.6403 6.73798 16.4879C6.89035 16.3356 7.09701 16.25 7.3125 16.25C7.52799 16.25 7.73465 16.3356 7.88702 16.4879C8.0394 16.6403 8.125 16.847 8.125 17.0625ZM11.375 17.0625V18.6875C11.375 18.9029 11.2894 19.1096 11.137 19.262C10.9847 19.4144 10.778 19.5 10.5625 19.5C10.347 19.5 10.1403 19.4144 9.98798 19.262C9.8356 19.1096 9.75 18.9029 9.75 18.6875V17.0625C9.75 16.847 9.8356 16.6403 9.98798 16.4879C10.1403 16.3356 10.347 16.25 10.5625 16.25C10.778 16.25 10.9847 16.3356 11.137 16.4879C11.2894 16.6403 11.375 16.847 11.375 17.0625Z" fill="#000333"/>
</svg>
