<svg width="26" height="26" viewBox="0 0 26 26" fill="none" xmlns="http://www.w3.org/2000/svg">
<path d="M21.6998 8.36266L16.0123 2.67516C15.9368 2.59973 15.8472 2.53992 15.7486 2.49914C15.6499 2.45836 15.5442 2.43742 15.4375 2.4375H5.6875C5.25652 2.4375 4.8432 2.60871 4.53845 2.91345C4.2337 3.2182 4.0625 3.63152 4.0625 4.0625V21.9375C4.0625 22.3685 4.2337 22.7818 4.53845 23.0865C4.8432 23.3913 5.25652 23.5625 5.6875 23.5625H20.3125C20.7435 23.5625 21.1568 23.3913 21.4615 23.0865C21.7663 22.7818 21.9375 22.3685 21.9375 21.9375V8.9375C21.9376 8.83077 21.9166 8.72507 21.8759 8.62643C21.8351 8.5278 21.7753 8.43817 21.6998 8.36266ZM16.25 5.21117L19.1638 8.125H16.25V5.21117ZM20.3125 21.9375H5.6875V4.0625H14.625V8.9375C14.625 9.15299 14.7106 9.35965 14.863 9.51202C15.0153 9.6644 15.222 9.75 15.4375 9.75H20.3125V21.9375ZM17.0625 13.8125C17.0625 14.028 16.9769 14.2347 16.8245 14.387C16.6722 14.5394 16.4655 14.625 16.25 14.625H9.75C9.53451 14.625 9.32785 14.5394 9.17548 14.387C9.0231 14.2347 8.9375 14.028 8.9375 13.8125C8.9375 13.597 9.0231 13.3903 9.17548 13.238C9.32785 13.0856 9.53451 13 9.75 13H16.25C16.4655 13 16.6722 13.0856 16.8245 13.238C16.9769 13.3903 17.0625 13.597 17.0625 13.8125ZM17.0625 17.0625C17.0625 17.278 16.9769 17.4847 16.8245 17.637C16.6722 17.7894 16.4655 17.875 16.25 17.875H9.75C9.53451 17.875 9.32785 17.7894 9.17548 17.637C9.0231 17.4847 8.9375 17.278 8.9375 17.0625C8.9375 16.847 9.0231 16.6403 9.17548 16.488C9.32785 16.3356 9.53451 16.25 9.75 16.25H16.25C16.4655 16.25 16.6722 16.3356 16.8245 16.488C16.9769 16.6403 17.0625 16.847 17.0625 17.0625Z" fill="#000333"/>
</svg>
