<svg width="120" height="35" viewBox="0 0 120 35" fill="none" xmlns="http://www.w3.org/2000/svg">
<path d="M10.6235 21.2292L10.7162 23.7439C9.70147 24.0042 8.65147 24.1366 7.575 24.1366C5.85882 24.1366 4.59706 23.7616 3.78971 23.0072C2.98235 22.2528 2.58088 21.0219 2.58088 19.3145V10.041H0V7.49542H2.57647V3.31306L5.67353 2.66895V7.491H10.2794V10.0366H5.67353V18.8822C5.67353 19.9101 5.92059 20.5939 6.41029 20.9425C6.90441 21.2866 7.65 21.4631 8.65588 21.4631C9.31765 21.4631 9.97059 21.3836 10.6235 21.2292Z" fill="#823CDE"/>
<path d="M27.5924 23.6471H24.4953C24.2835 23.1354 24.1688 22.5001 24.1512 21.7457C23.5027 22.4604 22.6865 23.0339 21.6983 23.4751C20.7144 23.9163 19.6909 24.1368 18.6321 24.1368C17.8777 24.1368 17.1938 24.0574 16.5718 23.8942C15.9541 23.731 15.3938 23.4751 14.8997 23.1221C14.4012 22.7692 14.013 22.2883 13.735 21.6707C13.4571 21.053 13.3203 20.3295 13.3203 19.5001C13.3203 17.5413 14.2247 16.0766 16.038 15.1104C17.8512 14.1398 20.5512 13.6104 24.1468 13.5133V12.8692C24.1468 11.8633 23.8468 11.0824 23.2512 10.5266C22.6556 9.97067 21.7909 9.68832 20.6571 9.67949C19.6071 9.67067 18.7027 9.8692 17.9306 10.2751C17.1585 10.681 16.4615 11.2501 15.835 11.9736L14.1365 10.1339C14.7144 9.29567 15.6012 8.5589 16.8056 7.92802C18.01 7.29714 19.3424 6.97949 20.7983 6.97949C21.4997 6.97949 22.1527 7.04126 22.7527 7.16037C23.3527 7.27949 23.935 7.48684 24.4953 7.78243C25.0556 8.07802 25.5321 8.44861 25.9247 8.89861C26.3174 9.34861 26.6306 9.93096 26.8688 10.6413C27.1071 11.3516 27.2218 12.1589 27.2218 13.0589V21.3707C27.2306 22.2177 27.3497 22.9766 27.5924 23.6471ZM19.4527 21.6221C20.4144 21.6221 21.31 21.3927 22.1306 20.9295C22.9512 20.4707 23.6262 19.8398 24.1512 19.0457V15.6663C21.8483 15.6971 20.0306 16.0104 18.7071 16.6104C17.3835 17.206 16.7174 18.1104 16.7174 19.3148C16.7174 20.0471 16.9512 20.6163 17.4144 21.0177C17.8777 21.4192 18.5615 21.6221 19.4527 21.6221Z" fill="#823CDE"/>
<path d="M41.6199 7.46471C43.4332 7.46471 44.7964 7.94559 45.7141 8.91177C46.6317 9.87794 47.0905 11.2941 47.0905 13.1691V24.1324H43.9935V14.1574C43.9935 12.7632 43.7067 11.7441 43.1288 11.1C42.5508 10.4559 41.6641 10.1338 40.4596 10.1338C39.4846 10.1338 38.5891 10.425 37.7729 11.0074C36.9567 11.5897 36.2949 12.3485 35.792 13.2926V24.1324H32.6641V0H35.792V10.1338C36.4714 9.27353 37.3141 8.61618 38.3199 8.15294C39.3258 7.69412 40.4288 7.46471 41.6199 7.46471Z" fill="#823CDE"/>
<path d="M57.8212 19.7793L62.2905 7.05859H65.7339L59.3838 23.8233H56.1352L49.8516 7.05859H53.3282L57.8212 19.7793Z" fill="#823CDE"/>
<path d="M81.6458 23.4926H78.6077C78.4013 22.99 78.2891 22.3662 78.2667 21.6258C77.6294 22.3258 76.8261 22.8913 75.8613 23.3221C74.8965 23.7529 73.8913 23.9683 72.8546 23.9683C72.1142 23.9683 71.441 23.8875 70.8352 23.7304C70.2294 23.5689 69.6819 23.3176 69.1927 22.9765C68.7036 22.631 68.3222 22.1553 68.0529 21.5495C67.7792 20.9437 67.6445 20.2346 67.6445 19.4224C67.6445 17.5017 68.5331 16.0656 70.3102 15.1143C72.0872 14.1629 74.7394 13.6423 78.2667 13.5481V12.9154C78.2667 11.9281 77.975 11.1652 77.3871 10.6177C76.7992 10.0747 75.9511 9.79649 74.8426 9.78302C73.815 9.77405 72.9219 9.96701 72.168 10.3709C71.4141 10.7703 70.7275 11.3268 70.1082 12.0358L68.4433 10.2318C69.0088 9.41055 69.8838 8.68805 71.0641 8.06428C72.2443 7.4405 73.5502 7.13086 74.9817 7.13086C75.6683 7.13086 76.3101 7.1892 76.9024 7.31036C77.4948 7.42704 78.0647 7.63347 78.6122 7.92067C79.1597 8.20788 79.6309 8.57137 80.0168 9.01565C80.4027 9.45992 80.7124 10.0298 80.9413 10.7254C81.1746 11.4255 81.2868 12.2153 81.2868 13.0994V21.2533C81.2913 22.088 81.408 22.8329 81.6458 23.4926ZM73.6579 21.5046C74.6048 21.5046 75.4799 21.2802 76.2876 20.827C77.0954 20.3737 77.7551 19.7589 78.2711 18.9781V15.6618C76.0094 15.6932 74.2278 16.0028 72.9309 16.5862C71.6295 17.1741 70.9788 18.0581 70.9788 19.2384C70.9788 19.9564 71.2077 20.5173 71.6654 20.9122C72.1187 21.3071 72.7828 21.5046 73.6579 21.5046Z" fill="#823CDE"/>
<path d="M111.119 23.9052C109.621 23.9052 108.247 23.5552 107.009 22.8551C105.77 22.155 104.787 21.1633 104.056 19.8709C103.324 18.5829 102.961 17.1245 102.961 15.5C102.961 14.2659 103.176 13.1215 103.603 12.0714C104.029 11.0169 104.608 10.1283 105.344 9.39684C106.08 8.66536 106.946 8.09544 107.951 7.68707C108.952 7.27421 110.02 7.07227 111.151 7.07227C112.65 7.07227 114.023 7.4223 115.261 8.12236C116.5 8.82242 117.487 9.81867 118.223 11.1156C118.959 12.4125 119.327 13.8754 119.327 15.5089C119.327 17.1334 118.959 18.5919 118.223 19.8798C117.487 21.1678 116.5 22.164 115.257 22.8641C114.009 23.5552 112.632 23.9052 111.119 23.9052ZM111.119 21.1139C112.569 21.1139 113.749 20.6068 114.665 19.5971C115.58 18.5829 116.038 17.2187 116.038 15.5044C116.038 13.7677 115.58 12.3901 114.665 11.3714C113.749 10.3527 112.569 9.84559 111.119 9.84559C109.692 9.84559 108.521 10.3527 107.61 11.3714C106.699 12.3901 106.246 13.7677 106.246 15.5044C106.246 17.2232 106.699 18.5874 107.61 19.5971C108.526 20.6068 109.692 21.1139 111.119 21.1139Z" fill="#823CDE"/>
<path d="M86.6796 26.7815L83.6953 33.6924H102.139L97.369 22.644C98.4505 21.9619 99.3301 21.0374 99.9942 19.8662C100.73 18.5782 101.098 17.1198 101.098 15.4953C101.098 13.8618 100.73 12.3943 99.9942 11.1019C99.2583 9.805 98.271 8.80875 97.0324 8.10869C95.7938 7.40863 94.4251 7.05859 92.9218 7.05859C91.7909 7.05859 90.7229 7.26502 89.7221 7.67339C88.7214 8.08625 87.8508 8.65617 87.1149 9.38316C86.3789 10.1146 85.8 11.0032 85.3737 12.0578C84.9473 13.1123 84.7319 14.2567 84.7319 15.4863C84.7319 17.1108 85.0954 18.5693 85.8269 19.8572C86.5584 21.1451 87.5412 22.1414 88.7797 22.8414C88.8112 22.8594 88.8381 22.8729 88.8695 22.8863L90.0363 20.1803C89.8029 20.0053 89.583 19.8033 89.3811 19.5745C88.4701 18.5603 88.0169 17.1961 88.0169 15.4818C88.0169 13.7451 88.4701 12.3674 89.3811 11.3487C90.2921 10.33 91.4588 9.82295 92.8904 9.82295C94.3399 9.82295 95.5201 10.33 96.4356 11.3487C97.351 12.3674 97.8088 13.7451 97.8088 15.4818C97.8088 17.2005 97.351 18.5648 96.4356 19.5745C96.3458 19.6732 96.2471 19.7674 96.1529 19.8572C95.4348 20.4944 94.5328 20.9208 93.5321 21.0509L97.7325 30.78H88.0931L89.8298 26.7591H86.6796V26.7815Z" fill="#C3E664"/>
</svg>
