<svg width="102" height="57" viewBox="0 0 102 57" fill="none" xmlns="http://www.w3.org/2000/svg">
<g clip-path="url(#clip0_43_1146)">
<path opacity="0.997" fill-rule="evenodd" clip-rule="evenodd" d="M39.114 0.760254C49.8444 0.760254 60.5746 0.760254 71.305 0.760254C70.9137 2.75692 70.516 4.75235 70.1118 6.74654C59.3814 6.77159 48.6512 6.77993 37.9208 6.77159C38.3153 4.76716 38.713 2.76339 39.114 0.760254Z" fill="#1D66C3"/>
<path opacity="0.997" fill-rule="evenodd" clip-rule="evenodd" d="M37.1502 10.0527C47.8806 10.0527 58.6108 10.0527 69.3413 10.0527C68.9562 12.0508 68.5585 14.0462 68.1481 16.039C57.4177 16.0641 46.6875 16.0724 35.957 16.0641C36.3515 14.0596 36.7493 12.0558 37.1502 10.0527Z" fill="#1D66C3"/>
<path opacity="0.996" fill-rule="evenodd" clip-rule="evenodd" d="M35.2361 19.6207C38.5174 19.6165 41.7986 19.6207 45.0799 19.6332C46.0382 19.7046 46.9166 20.0052 47.7148 20.5349C48.7616 21.3523 49.1802 22.4251 48.9702 23.7535C48.7328 25.2141 47.9913 26.3286 46.7454 27.0973C45.9638 27.5492 45.1351 27.883 44.2596 28.0992C45.1418 28.2392 45.9454 28.5648 46.6708 29.076C47.2343 29.5392 47.5699 30.1363 47.6775 30.8669C47.8284 32.5566 47.3231 34.0093 46.1612 35.2251C45.0053 36.3793 43.6093 37.018 41.9726 37.1412C41.4109 37.2064 40.8476 37.2479 40.2823 37.2665C37.3573 37.279 34.4325 37.2833 31.5074 37.279C32.7377 31.3901 33.9806 25.504 35.2361 19.6207ZM39.3626 22.7767C40.3735 22.7725 41.3843 22.7767 42.3952 22.7892C43.5071 22.8572 44.0085 23.4458 43.8991 24.555C43.6118 26.0428 42.7127 26.7484 41.202 26.6715C40.3154 26.6923 39.4287 26.6883 38.5422 26.659C38.8251 25.3668 39.0986 24.0727 39.3626 22.7767ZM37.8711 29.84C38.8323 29.8357 39.7933 29.84 40.7546 29.8525C42.5717 29.9727 43.1392 30.8869 42.4574 32.5952C42.0751 33.3468 41.466 33.7937 40.6303 33.9352C40.4247 33.9743 40.2177 33.9993 40.0089 34.0103C39.0063 34.0229 38.0036 34.0271 37.0011 34.0229C37.2941 32.6292 37.5842 31.2349 37.8711 29.84Z" fill="#1D65C4"/>
<path opacity="0.994" fill-rule="evenodd" clip-rule="evenodd" d="M-0.0124512 33.4968C-0.0124512 33.1629 -0.0124512 32.8288 -0.0124512 32.4949C0.0368364 32.1725 0.0865523 31.8469 0.136697 31.518C1.76904 31.518 3.40137 31.518 5.03371 31.518C4.66947 33.0767 5.27434 33.9409 6.84834 34.1104C7.59712 34.1913 8.3263 34.1079 9.03584 33.86C9.91467 33.472 10.387 32.7917 10.4527 31.8186C10.4269 31.3615 10.2115 31.0316 9.80644 30.8292C9.63825 30.7476 9.46425 30.681 9.28442 30.6289C7.78358 30.2321 6.28382 29.8314 4.78513 29.4266C2.03196 28.5494 1.15778 26.742 2.16262 24.0039C2.55565 23.0405 3.15639 22.2349 3.96482 21.5868C5.181 20.6365 6.55646 20.0479 8.09124 19.821C9.37918 19.6333 10.6718 19.5958 11.9691 19.7083C12.754 19.773 13.5163 19.9399 14.256 20.2092C16.0521 20.9432 16.8019 22.2832 16.5057 24.2293C16.4681 24.4982 16.4225 24.7654 16.3689 25.0308C14.7283 25.0308 13.0877 25.0308 11.4471 25.0308C11.4712 24.855 11.5002 24.6796 11.5341 24.5048C11.6552 23.508 11.2284 22.9194 10.2539 22.739C9.31361 22.5814 8.46013 22.7818 7.69351 23.3401C7.15641 23.7946 6.92026 24.3748 6.98506 25.0809C7.05094 25.3394 7.18766 25.5523 7.39522 25.7196C7.56239 25.8456 7.74467 25.9458 7.94209 26.0202C9.25631 26.3909 10.5738 26.7498 11.8945 27.0972C12.711 27.3129 13.4899 27.6219 14.2312 28.024C15.1567 28.6364 15.6207 29.5047 15.6232 30.6289C15.5071 33.0354 14.4133 34.822 12.342 35.989C10.7588 36.803 9.07681 37.2288 7.29579 37.2664C6.08409 37.3267 4.88263 37.2431 3.69138 37.0159C2.77999 36.8446 1.95967 36.4771 1.23045 35.9138C0.503446 35.2711 0.0891468 34.4654 -0.0124512 33.4968Z" fill="#1D65C4"/>
<path opacity="0.996" fill-rule="evenodd" clip-rule="evenodd" d="M19.8491 19.6709C24.2904 19.6709 28.7316 19.6709 33.173 19.6709C32.9448 20.7989 32.7129 21.926 32.477 23.0523C29.6598 23.0523 26.8424 23.0523 24.0253 23.0523C23.762 24.2699 23.5052 25.4888 23.2547 26.7092C25.8978 26.7092 28.5412 26.7092 31.1844 26.7092C30.9472 27.837 30.7068 28.9642 30.4635 30.0905C27.8119 30.0823 25.1603 30.0905 22.5089 30.1156C22.2453 31.3564 21.9801 32.5963 21.7135 33.8351C24.597 33.8394 27.4805 33.8519 30.364 33.8727C30.1155 34.9998 29.8669 36.1269 29.6183 37.254C25.1108 37.2874 20.6031 37.2874 16.0956 37.254C17.3531 31.3942 18.6043 25.5333 19.8491 19.6709Z" fill="#1D65C4"/>
<path opacity="0.995" fill-rule="evenodd" clip-rule="evenodd" d="M52.0153 19.6708C55.2883 19.6666 58.5611 19.6708 61.8342 19.6833C62.7191 19.658 63.5727 19.8082 64.3945 20.1341C65.4259 20.6573 65.9852 21.5048 66.0724 22.6764C66.1368 25.8256 64.6411 27.7252 61.5856 28.3747C61.3139 28.4345 61.0404 28.4846 60.7653 28.525C60.7302 28.5342 60.7054 28.555 60.6907 28.5876C61.2376 28.6131 61.776 28.6923 62.3065 28.8255C63.2446 29.0747 63.7542 29.6884 63.8352 30.6665C63.8606 30.9162 63.873 31.1667 63.8725 31.4179C63.8166 32.6372 63.7544 33.856 63.6861 35.0748C63.6625 35.7854 63.6707 36.495 63.7109 37.2038C67.2843 31.3971 70.8514 25.5861 74.4123 19.7709C76.4258 19.7459 78.4393 19.7376 80.4528 19.7459C81.5204 25.592 82.5975 31.4364 83.6843 37.279C81.8282 37.2872 79.972 37.279 78.1161 37.2539C77.9526 36.0945 77.7952 34.934 77.6438 33.7723C75.2823 33.7641 72.9208 33.7723 70.5593 33.7974C69.9098 34.9518 69.2635 36.108 68.6204 37.2664C65.1982 37.279 61.7762 37.2832 58.354 37.279C58.3491 36.8193 58.3615 36.36 58.3913 35.9014C58.5082 34.5658 58.62 33.2301 58.7269 31.8938C58.7411 31.5439 58.6625 31.2183 58.4908 30.917C58.3294 30.7208 58.1263 30.5913 57.8817 30.5287C57.6687 30.4791 57.4534 30.4456 57.2354 30.4285C56.8129 30.4243 56.3903 30.4203 55.9677 30.416C55.5354 30.4163 55.1088 30.4328 54.6875 30.4661C54.198 32.7364 53.7133 35.0074 53.2333 37.279C51.576 37.2872 49.9188 37.279 48.2617 37.2539C49.5208 31.3944 50.7719 25.5334 52.0153 19.6708ZM56.2908 22.9269C57.2441 22.9175 58.1969 22.93 59.1495 22.9645C59.507 22.9827 59.855 23.0495 60.1935 23.1648C60.7655 23.411 61.0554 23.8493 61.0636 24.4798C60.9457 26.2644 60.0011 27.1701 58.2298 27.1974C57.2852 27.21 56.3406 27.2142 55.396 27.21C55.6942 25.7823 55.9925 24.3546 56.2908 22.9269ZM76.4258 23.2024C76.4506 23.2024 76.4755 23.2024 76.5004 23.2024C76.729 25.6407 76.961 28.0786 77.1964 30.5162C75.6055 30.5205 74.0146 30.5162 72.4236 30.5037C73.7742 28.0786 75.1081 25.6449 76.4258 23.2024Z" fill="#1D65C4"/>
<path opacity="0.996" fill-rule="evenodd" clip-rule="evenodd" d="M101.806 19.6709C101.806 19.7127 101.806 19.7544 101.806 19.7961C101.567 20.877 101.335 21.9624 101.11 23.0523C98.2926 23.0523 95.4752 23.0523 92.6581 23.0523C92.4013 24.2712 92.1443 25.4902 91.8875 26.7092C94.5306 26.7092 97.174 26.7092 99.8172 26.7092C99.5897 27.8305 99.3493 28.9494 99.0963 30.0655C96.4449 30.0905 93.7933 30.0988 91.1417 30.0905C90.8785 31.3417 90.6217 32.594 90.3711 33.8476C93.2465 33.8476 96.1215 33.8476 98.9969 33.8476C98.7562 34.9895 98.5077 36.1292 98.2511 37.2666C93.7436 37.2834 89.2359 37.2834 84.7284 37.2666C85.9907 31.4043 87.2418 25.5391 88.4819 19.6709C92.9233 19.6709 97.3644 19.6709 101.806 19.6709Z" fill="#1D65C4"/>
<path opacity="0.997" fill-rule="evenodd" clip-rule="evenodd" d="M30.712 40.9109C41.4424 40.9109 52.1726 40.9109 62.903 40.9109C62.5118 42.9077 62.114 44.9029 61.7099 46.8972C50.9794 46.9222 40.2492 46.9305 29.5188 46.9222C29.9133 44.9177 30.311 42.9139 30.712 40.9109Z" fill="#1D66C3"/>
<path opacity="0.997" fill-rule="evenodd" clip-rule="evenodd" d="M59.7461 56.2147C49.0157 56.2147 38.2855 56.2147 27.5551 56.2147C27.9495 54.2102 28.3473 52.2064 28.7482 50.2034C39.4787 50.2034 50.2089 50.2034 60.9393 50.2034C60.551 52.2092 60.1533 54.2129 59.7461 56.2147Z" fill="#1D66C3"/>
</g>
<defs>
<clipPath id="clip0_43_1146">
<rect width="101.818" height="55.4545" fill="white" transform="translate(0 0.772705)"/>
</clipPath>
</defs>
</svg>
