<svg width="21" height="20" viewBox="0 0 21 20" fill="none" xmlns="http://www.w3.org/2000/svg">
<path d="M9.5641 15.7897C11.3829 14.135 12.7265 12.6342 13.5949 11.2872C14.4632 9.94017 14.8974 8.75385 14.8974 7.72821C14.8974 6.1174 14.3826 4.79846 13.353 3.77138C12.3234 2.74431 11.0604 2.23077 9.5641 2.23077C8.0678 2.23077 6.80484 2.74431 5.77522 3.77138C4.74559 4.79846 4.23077 6.1174 4.23077 7.72821C4.23077 8.75385 4.67521 9.94017 5.5641 11.2872C6.45299 12.6342 7.78632 14.135 9.5641 15.7897ZM9.55897 17C9.41197 17 9.26667 16.9761 9.12308 16.9282C8.97949 16.8803 8.85299 16.8017 8.74359 16.6923C8.16923 16.1727 7.54701 15.5744 6.87692 14.8974C6.20684 14.2205 5.58462 13.4923 5.01026 12.7128C4.4359 11.9333 3.95726 11.1197 3.57436 10.2718C3.19145 9.42393 3 8.57607 3 7.72821C3 5.67692 3.65983 4.04274 4.97949 2.82564C6.29915 1.60855 7.82735 1 9.5641 1C11.3009 1 12.8291 1.60855 14.1487 2.82564C15.4684 4.04274 16.1282 5.67692 16.1282 7.72821C16.1282 8.57607 15.9368 9.42393 15.5538 10.2718C15.1709 11.1197 14.6923 11.9333 14.1179 12.7128C13.5436 13.4923 12.9214 14.2205 12.2513 14.8974C11.5812 15.5744 10.959 16.1727 10.3846 16.6923C10.2752 16.8017 10.147 16.8803 10 16.9282C9.85299 16.9761 9.70598 17 9.55897 17ZM9.56593 9C9.96129 9 10.2991 8.85922 10.5795 8.57766C10.8598 8.29612 11 7.95765 11 7.56228C11 7.16691 10.8592 6.82906 10.5777 6.54872C10.2961 6.26838 9.95765 6.12821 9.56228 6.12821C9.16691 6.12821 8.82906 6.26898 8.54872 6.55054C8.26838 6.83209 8.12821 7.17055 8.12821 7.56593C8.12821 7.96129 8.26898 8.29915 8.55054 8.57949C8.83209 8.85983 9.17055 9 9.56593 9Z" fill="white"/>
</svg>
