<svg width="20" height="19" viewBox="0 0 20 19" fill="none" xmlns="http://www.w3.org/2000/svg">
<path d="M10.5 9.24638C9.46875 9.24638 8.625 8.90821 7.96875 8.23188C7.3125 7.55556 6.98438 6.68599 6.98438 5.62319C6.98438 4.56039 7.3125 3.69082 7.96875 3.01449C8.625 2.33816 9.46875 2 10.5 2C11.5312 2 12.375 2.33816 13.0312 3.01449C13.6875 3.69082 14.0156 4.56039 14.0156 5.62319C14.0156 6.68599 13.6875 7.55556 13.0312 8.23188C12.375 8.90821 11.5312 9.24638 10.5 9.24638ZM16.5938 17H4.40625C4.01953 17 3.68848 16.8581 3.41309 16.5743C3.1377 16.2905 3 15.9493 3 15.5507V14.7295C3 14.1176 3.14844 13.5942 3.44531 13.1594C3.74219 12.7246 4.125 12.3945 4.59375 12.1691C5.64062 11.686 6.64453 11.3237 7.60547 11.0821C8.56641 10.8406 9.53125 10.7198 10.5 10.7198C11.4688 10.7198 12.4297 10.8446 13.3828 11.0942C14.3359 11.3438 15.3353 11.7037 16.381 12.1738C16.87 12.4012 17.2621 12.7311 17.5573 13.1633C17.8524 13.5955 18 14.1176 18 14.7295V15.5507C18 15.9493 17.8623 16.2905 17.5869 16.5743C17.3115 16.8581 16.9805 17 16.5938 17ZM4.40625 15.5507H16.5938V14.7295C16.5938 14.4718 16.5195 14.2262 16.3711 13.9928C16.2227 13.7593 16.0391 13.5862 15.8203 13.4734C14.8203 12.9742 13.9062 12.632 13.0781 12.4469C12.25 12.2617 11.3906 12.1691 10.5 12.1691C9.60938 12.1691 8.74219 12.2617 7.89844 12.4469C7.05469 12.632 6.14062 12.9742 5.15625 13.4734C4.9375 13.5862 4.75781 13.7593 4.61719 13.9928C4.47656 14.2262 4.40625 14.4718 4.40625 14.7295V15.5507ZM10.5 7.7971C11.1094 7.7971 11.6133 7.59179 12.0117 7.18116C12.4102 6.77053 12.6094 6.25121 12.6094 5.62319C12.6094 4.99517 12.4102 4.47585 12.0117 4.06522C11.6133 3.65459 11.1094 3.44928 10.5 3.44928C9.89062 3.44928 9.38672 3.65459 8.98828 4.06522C8.58984 4.47585 8.39062 4.99517 8.39062 5.62319C8.39062 6.25121 8.58984 6.77053 8.98828 7.18116C9.38672 7.59179 9.89062 7.7971 10.5 7.7971Z" fill="white"/>
</svg>
