<svg width="17" height="14" viewBox="0 0 17 14" fill="none" xmlns="http://www.w3.org/2000/svg">
<path d="M11.0588 0.965719V0.962891H11.7952L12.0642 1.01663C12.2436 1.05151 12.4065 1.09723 12.5528 1.15379C12.6991 1.21036 12.8407 1.27635 12.9776 1.35177C13.1145 1.42718 13.2386 1.50402 13.35 1.58227C13.4605 1.65958 13.5596 1.74159 13.6474 1.82832C13.7342 1.91599 13.8697 1.93862 14.0538 1.8962C14.2379 1.85377 14.4361 1.79485 14.6486 1.71943C14.861 1.64402 15.071 1.55917 15.2787 1.4649C15.4864 1.37062 15.6129 1.31076 15.6582 1.28531C15.7026 1.25892 15.7262 1.24478 15.729 1.24288L15.7318 1.23864L15.746 1.23157L15.7602 1.2245L15.7743 1.21743L15.7885 1.21036L15.7913 1.20612L15.7956 1.20329L15.7998 1.20046L15.8026 1.19622L15.8168 1.19197L15.831 1.18915L15.8281 1.21036L15.8239 1.23157L15.8168 1.25278L15.8097 1.27399L15.8026 1.28813L15.7956 1.30227L15.7885 1.32349C15.7838 1.33763 15.779 1.35648 15.7743 1.38005C15.7696 1.40362 15.7248 1.49789 15.6398 1.66287C15.5548 1.82785 15.4486 1.99518 15.3212 2.16488C15.1937 2.33457 15.0795 2.46277 14.9785 2.54951C14.8766 2.63719 14.809 2.69846 14.776 2.73335C14.743 2.76916 14.7028 2.80216 14.6556 2.83233L14.5848 2.879L14.5707 2.88607L14.5565 2.89314L14.5537 2.89738L14.5494 2.90021L14.5452 2.90304L14.5423 2.90728L14.5282 2.91435L14.514 2.92142L14.5112 2.92566L14.5069 2.92849L14.5027 2.93132L14.4999 2.93556L14.497 2.9398L14.4928 2.94263L14.4885 2.94546L14.4857 2.9497H14.5565L14.953 2.86486C15.2173 2.80829 15.4699 2.73995 15.7106 2.65981L16.0929 2.53254L16.1354 2.5184L16.1567 2.51133L16.1708 2.50426L16.185 2.49719L16.1991 2.49012L16.2133 2.48305L16.2416 2.47881L16.2699 2.47598V2.50426L16.2629 2.50709L16.2558 2.51133L16.253 2.51557L16.2487 2.5184L16.2444 2.52123L16.2416 2.52547L16.2388 2.52971L16.2345 2.53254L16.2303 2.53537L16.2275 2.53961L16.2246 2.54386L16.2204 2.54668L16.2133 2.56082L16.2062 2.57497L16.202 2.57779C16.2001 2.58062 16.1401 2.66075 16.0221 2.81819C15.9041 2.97657 15.8404 3.05669 15.831 3.05859C15.8215 3.06142 15.8083 3.07556 15.7913 3.10101C15.7753 3.1274 15.6752 3.23252 15.4911 3.41636C15.307 3.60019 15.1267 3.76374 14.9502 3.90705C14.7727 4.05129 14.683 4.22852 14.6811 4.43875C14.6783 4.64804 14.6674 4.88467 14.6486 5.14863C14.6297 5.4126 14.5943 5.69777 14.5423 6.00416C14.4904 6.31055 14.4102 6.65701 14.3016 7.04352C14.1931 7.43004 14.0609 7.80714 13.9051 8.17481C13.7494 8.54247 13.5865 8.87242 13.4166 9.16468C13.2467 9.45693 13.0909 9.7044 12.9493 9.90708C12.8077 10.1098 12.6637 10.3007 12.5174 10.4798C12.3711 10.6589 12.186 10.8607 11.9623 11.085C11.7376 11.3085 11.6149 11.431 11.5941 11.4527C11.5724 11.4734 11.4799 11.5507 11.3166 11.6846C11.1542 11.8194 10.9795 11.9542 10.7926 12.089C10.6067 12.2229 10.4358 12.3346 10.28 12.4242C10.1242 12.5137 9.93639 12.616 9.71642 12.731C9.49742 12.847 9.26045 12.9545 9.00556 13.0535C8.75067 13.1524 8.48162 13.2444 8.19841 13.3292C7.9152 13.4141 7.64143 13.48 7.3771 13.5272C7.11277 13.5743 6.81304 13.6144 6.4779 13.6474L5.9752 13.6969V13.7039H5.05476V13.6969L4.9344 13.6898C4.85416 13.6851 4.78807 13.6804 4.73615 13.6757C4.68423 13.6709 4.48834 13.645 4.14848 13.5979C3.80863 13.5508 3.54194 13.5036 3.34841 13.4565C3.15489 13.4093 2.86695 13.3198 2.48462 13.1878C2.10228 13.0558 1.77517 12.9224 1.50329 12.7876C1.23235 12.6537 1.06243 12.5689 0.993506 12.5331C0.925536 12.4982 0.849068 12.4548 0.764105 12.403L0.63666 12.3252L0.633842 12.321L0.62958 12.3181L0.625331 12.3153L0.622499 12.3111L0.608339 12.304L0.594178 12.2969L0.59136 12.2927L0.587098 12.2898L0.58285 12.287L0.580018 12.2828L0.5772 12.2785L0.572937 12.2757H0.565857V12.2474L0.580018 12.2502L0.594178 12.2545L0.657901 12.2616C0.700382 12.2663 0.816032 12.2733 1.00483 12.2828C1.19365 12.2922 1.39425 12.2922 1.60666 12.2828C1.81907 12.2733 2.03621 12.2521 2.25805 12.2191C2.4799 12.1861 2.74187 12.1296 3.04396 12.0494C3.34606 11.9693 3.62361 11.8741 3.87661 11.7638C4.12867 11.6526 4.30803 11.5696 4.41472 11.5149C4.52044 11.4612 4.68187 11.3612 4.89899 11.2151L5.22469 10.9959L5.22752 10.9917L5.23177 10.9889L5.23603 10.986L5.23885 10.9818L5.24168 10.9776L5.24593 10.9747L5.25019 10.9719L5.25301 10.9677L5.26717 10.9634L5.28133 10.9606L5.28416 10.9464L5.28841 10.9323L5.29267 10.9295L5.29549 10.9252L5.18221 10.9182C5.10669 10.9135 5.03352 10.9087 4.96272 10.904C4.89191 10.8993 4.78099 10.8781 4.62994 10.8404C4.47891 10.8027 4.31606 10.7461 4.1414 10.6707C3.96676 10.5953 3.79683 10.5057 3.63162 10.402C3.46642 10.2983 3.34699 10.212 3.27336 10.1432C3.20067 10.0753 3.10626 9.9792 2.99015 9.85476C2.87498 9.72938 2.77491 9.60069 2.68994 9.46871C2.60498 9.33673 2.5238 9.18446 2.4464 9.01195L2.32885 8.75459L2.32177 8.73338L2.31469 8.71216L2.31044 8.69802L2.30761 8.68388L2.32885 8.68671L2.35009 8.69095L2.50586 8.71216C2.60971 8.72631 2.77256 8.73101 2.9944 8.72631C3.21625 8.7216 3.36965 8.71216 3.45461 8.69802C3.53958 8.68388 3.59151 8.67445 3.61038 8.66974L3.6387 8.66267L3.6741 8.6556L3.70951 8.64853L3.71234 8.64429L3.71659 8.64146L3.72085 8.63863L3.72367 8.63439L3.69534 8.62732L3.66702 8.62025L3.6387 8.61318L3.61038 8.60611L3.58206 8.59904C3.56318 8.59433 3.53015 8.5849 3.48294 8.57075C3.43574 8.55661 3.30829 8.50476 3.1006 8.4152C2.89292 8.32565 2.72771 8.23844 2.60498 8.15359C2.48195 8.0685 2.36463 7.97544 2.2538 7.87502C2.14335 7.7732 2.02205 7.64216 1.88987 7.4819C1.75771 7.32164 1.63971 7.13544 1.53586 6.92333C1.43202 6.71121 1.35413 6.50853 1.30221 6.31526C1.25049 6.12313 1.21637 5.92671 1.20026 5.72841L1.17476 5.43145L1.18892 5.43428L1.20308 5.43852L1.21724 5.44559L1.2314 5.45266L1.24556 5.45973L1.25973 5.4668L1.47921 5.56579C1.62555 5.63179 1.80727 5.68835 2.0244 5.73548C2.24153 5.78261 2.37133 5.80855 2.41381 5.81326L2.47754 5.82033H2.60498L2.60216 5.81609L2.5979 5.81326L2.59365 5.81043L2.59082 5.80619L2.588 5.80194L2.58374 5.79912L2.57949 5.79629L2.57666 5.79205L2.5625 5.78498L2.54834 5.7779L2.54552 5.77366L2.54126 5.77083L2.53701 5.76801L2.53418 5.76376L2.52002 5.75669L2.50586 5.74962L2.50304 5.74538C2.50021 5.74349 2.45961 5.71332 2.38124 5.65488C2.30383 5.59549 2.22264 5.51866 2.13768 5.42438C2.05272 5.3301 1.96775 5.23111 1.88279 5.12742C1.79767 5.02348 1.72186 4.91229 1.65622 4.7951C1.59015 4.67727 1.52028 4.52736 1.44664 4.34542C1.37396 4.16442 1.31873 3.982 1.28097 3.79816C1.24321 3.61433 1.22197 3.43286 1.21724 3.25373C1.21253 3.07461 1.21724 2.92142 1.2314 2.79415C1.24556 2.66688 1.27389 2.52311 1.31637 2.36285C1.35885 2.20259 1.42022 2.0329 1.50046 1.85377L1.62082 1.5851L1.6279 1.56388L1.63498 1.54267L1.63924 1.53984L1.64206 1.5356L1.64489 1.53136L1.64914 1.52853L1.6534 1.53136L1.65622 1.5356L1.65905 1.53984L1.6633 1.54267L1.66756 1.5455L1.67038 1.54974L1.67321 1.55398L1.67746 1.55681L1.68454 1.57095L1.69162 1.5851L1.69589 1.58792L1.6987 1.59217L1.88987 1.80428C2.01732 1.94569 2.16837 2.1036 2.34301 2.278C2.51767 2.45241 2.61443 2.54291 2.6333 2.54951C2.65219 2.55705 2.67578 2.57873 2.7041 2.61456C2.73243 2.64945 2.82683 2.73288 2.98732 2.86486C3.14781 2.99683 3.35786 3.15004 3.61746 3.32444C3.87708 3.49884 4.16501 3.67089 4.48126 3.84059C4.79752 4.01028 5.13737 4.16347 5.50082 4.30017C5.86428 4.43687 6.11917 4.52643 6.26549 4.56885C6.41183 4.61127 6.66199 4.66547 7.016 4.73147C7.37001 4.79747 7.63671 4.83989 7.81607 4.85874C7.99544 4.87759 8.11817 4.88843 8.18425 4.89126L8.28337 4.89409L8.28055 4.87288L8.27629 4.85167L8.24797 4.67491C8.22909 4.55707 8.21965 4.39209 8.21965 4.17997C8.21965 3.96786 8.23617 3.77224 8.26921 3.59312C8.30226 3.41399 8.35182 3.23252 8.4179 3.04869C8.48398 2.86486 8.54866 2.71731 8.6119 2.60608C8.6761 2.49578 8.76012 2.36992 8.86396 2.22851C8.96781 2.0871 9.10233 1.94098 9.26753 1.79014C9.43274 1.6393 9.62155 1.50496 9.83396 1.38712C10.0464 1.26928 10.2423 1.17971 10.4216 1.11844C10.601 1.05717 10.752 1.01709 10.8748 0.998243C10.9975 0.979393 11.0588 0.968547 11.0588 0.965719Z" fill="white"/>
</svg>
