<svg width="18" height="13" viewBox="0 0 18 13" fill="none" xmlns="http://www.w3.org/2000/svg">
<path d="M9.69805 12.688L6.154 12.6217C5.00651 12.5986 3.85617 12.6447 2.73118 12.4056C1.01981 12.0483 0.898575 10.2965 0.771711 8.8271C0.596905 6.76128 0.664578 4.65797 0.994459 2.60939C1.18069 1.45993 1.91357 0.774031 3.04695 0.699393C6.87295 0.428519 10.7244 0.460621 14.5419 0.586993C14.9451 0.598578 15.351 0.661896 15.7486 0.73397C17.711 1.0855 17.7588 3.07066 17.8861 4.7418C18.0129 6.43018 17.9594 8.12723 17.7169 9.80412C17.5223 11.1925 17.1501 12.3569 15.5794 12.4693C13.6114 12.6162 11.6885 12.7346 9.71493 12.6969C9.71501 12.688 9.70368 12.688 9.69805 12.688ZM7.61449 9.17288C9.09757 8.30269 10.5523 7.447 12.0269 6.58265C10.5411 5.71245 9.08909 4.85677 7.61449 3.99241V9.17288Z" fill="white"/>
</svg>
