<svg width="24" height="24" viewBox="0 0 24 24" fill="none" xmlns="http://www.w3.org/2000/svg">
<path d="M12 16.7115C12.2288 16.7115 12.4207 16.6341 12.5755 16.4793C12.7303 16.3245 12.8077 16.1327 12.8077 15.9038C12.8077 15.675 12.7303 15.4832 12.5755 15.3284C12.4207 15.1735 12.2288 15.0961 12 15.0961C11.7711 15.0961 11.5793 15.1735 11.4245 15.3284C11.2697 15.4832 11.1923 15.675 11.1923 15.9038C11.1923 16.1327 11.2697 16.3245 11.4245 16.4793C11.5793 16.6341 11.7711 16.7115 12 16.7115ZM12.0003 13.2308C12.2129 13.2308 12.391 13.1589 12.5346 13.0152C12.6782 12.8714 12.75 12.6933 12.75 12.4808V7.94228C12.75 7.72978 12.6781 7.55166 12.5343 7.40793C12.3904 7.26418 12.2122 7.1923 11.9997 7.1923C11.7871 7.1923 11.609 7.26418 11.4654 7.40793C11.3218 7.55166 11.25 7.72978 11.25 7.94228V12.4808C11.25 12.6933 11.3219 12.8714 11.4657 13.0152C11.6095 13.1589 11.7877 13.2308 12.0003 13.2308ZM9.2096 20.5C8.96573 20.5 8.73329 20.4532 8.51228 20.3596C8.29126 20.266 8.0987 20.1371 7.9346 19.973L4.02692 16.0654C3.86282 15.9013 3.73398 15.7087 3.6404 15.4877C3.5468 15.2667 3.5 15.0342 3.5 14.7904V9.2096C3.5 8.96573 3.5468 8.73329 3.6404 8.51228C3.73398 8.29126 3.86282 8.0987 4.02692 7.9346L7.9346 4.02693C8.0987 3.86283 8.29126 3.73398 8.51228 3.6404C8.73329 3.5468 8.96573 3.5 9.2096 3.5H14.7904C15.0342 3.5 15.2667 3.5468 15.4877 3.6404C15.7087 3.73398 15.9013 3.86283 16.0654 4.02693L19.973 7.9346C20.1371 8.0987 20.266 8.29126 20.3596 8.51228C20.4531 8.73329 20.5 8.96573 20.5 9.2096V14.7904C20.5 15.0342 20.4531 15.2667 20.3596 15.4877C20.266 15.7087 20.1371 15.9013 19.973 16.0654L16.0654 19.973C15.9013 20.1371 15.7087 20.266 15.4877 20.3596C15.2667 20.4532 15.0342 20.5 14.7904 20.5H9.2096ZM9.09998 19H14.9L19 14.9V9.09998L14.9 4.99998H9.09998L4.99997 9.09998V14.9L9.09998 19Z" fill="white" fill-opacity="0.8"/>
</svg>
