<svg width="30" height="31" viewBox="0 0 30 31" fill="none" xmlns="http://www.w3.org/2000/svg">
<g filter="url(#filter0_d_1555_14536)">
<path d="M15 7.5C15.2486 7.5 15.4871 7.59877 15.6629 7.77459C15.8387 7.9504 15.9375 8.18886 15.9375 8.4375V14.0625H21.5625C21.8111 14.0625 22.0496 14.1613 22.2254 14.3371C22.4012 14.5129 22.5 14.7514 22.5 15C22.5 15.2486 22.4012 15.4871 22.2254 15.6629C22.0496 15.8387 21.8111 15.9375 21.5625 15.9375H15.9375V21.5625C15.9375 21.8111 15.8387 22.0496 15.6629 22.2254C15.4871 22.4012 15.2486 22.5 15 22.5C14.7514 22.5 14.5129 22.4012 14.3371 22.2254C14.1613 22.0496 14.0625 21.8111 14.0625 21.5625V15.9375H8.4375C8.18886 15.9375 7.9504 15.8387 7.77459 15.6629C7.59877 15.4871 7.5 15.2486 7.5 15C7.5 14.7514 7.59877 14.5129 7.77459 14.3371C7.9504 14.1613 8.18886 14.0625 8.4375 14.0625H14.0625V8.4375C14.0625 8.18886 14.1613 7.9504 14.3371 7.77459C14.5129 7.59877 14.7514 7.5 15 7.5Z" fill="#808080"/>
</g>
<defs>
<filter id="filter0_d_1555_14536" x="-4" y="0" width="38" height="38" filterUnits="userSpaceOnUse" color-interpolation-filters="sRGB">
<feFlood flood-opacity="0" result="BackgroundImageFix"/>
<feColorMatrix in="SourceAlpha" type="matrix" values="0 0 0 0 0 0 0 0 0 0 0 0 0 0 0 0 0 0 127 0" result="hardAlpha"/>
<feOffset dy="4"/>
<feGaussianBlur stdDeviation="2"/>
<feComposite in2="hardAlpha" operator="out"/>
<feColorMatrix type="matrix" values="0 0 0 0 0 0 0 0 0 0 0 0 0 0 0 0 0 0 0.25 0"/>
<feBlend mode="normal" in2="BackgroundImageFix" result="effect1_dropShadow_1555_14536"/>
<feBlend mode="normal" in="SourceGraphic" in2="effect1_dropShadow_1555_14536" result="shape"/>
</filter>
</defs>
</svg>
