<svg width="311" height="55" viewBox="0 0 311 55" fill="none" xmlns="http://www.w3.org/2000/svg">
<path d="M13.0655 30.789L11.1406 44.4198C11.0874 44.7938 10.9664 45.089 10.7794 45.3017C10.5924 45.5162 10.3101 45.6225 9.93789 45.6225C9.61705 45.6225 9.37688 45.529 9.21555 45.342C9.05422 45.155 9.00105 44.8488 9.05422 44.4198L13.9474 9.94217C14.0005 9.56817 14.1197 9.27483 14.3085 9.06033C14.4956 8.84767 14.7504 8.7395 15.0694 8.7395C15.4434 8.7395 15.7111 8.8605 15.8706 9.10067C16.0301 9.34083 16.0832 9.62133 16.0301 9.94217L14.0262 24.0533H22.8464L24.9309 9.141C25.358 6.04083 24.9034 3.74183 23.5669 2.24583C22.2304 0.749834 19.825 0 16.3509 0C12.983 0 10.3907 0.735167 8.57388 2.2055C6.75522 3.67583 5.63322 5.98767 5.20605 9.141L0.155218 45.221C-0.271949 48.3762 0.182718 50.6862 1.51738 52.1565C2.85205 53.6268 5.23172 54.362 8.65272 54.362C12.18 54.362 14.8274 53.6122 16.591 52.1162C18.3547 50.6202 19.4492 48.3212 19.8782 45.221L21.882 30.789H13.0655Z" fill="white"/>
<path d="M44.014 27.6228C45.1635 26.1525 45.8712 24.4035 46.1389 22.3703L47.9832 9.3005C48.3572 6.57433 47.8219 4.477 46.379 3.00666C44.9362 1.53633 42.6372 0.801163 39.4839 0.801163H38.2006H38.0411H29.3822L22.0049 53.559H30.825L33.7529 32.615C33.8519 32.6022 33.949 32.5875 34.0462 32.5747L34.5925 53.5572H43.5722L41.3117 30.1033C42.3476 29.425 43.2495 28.6 44.014 27.6228ZM36.9796 9.5425H37.8815C38.3087 9.5425 38.6039 9.6635 38.7634 9.90366C38.9247 10.1438 38.9504 10.5582 38.844 11.1467L37.3205 22.2108C37.2674 22.7462 37.1335 23.1862 36.919 23.5345C36.7045 23.8828 36.424 24.1505 36.0775 24.3357C35.7567 24.508 35.3516 24.5978 34.8731 24.6107L36.9796 9.5425Z" fill="white"/>
<path d="M55.2599 44.8213L57.2894 30.3087H64.2212L65.4239 21.648H58.4994L60.1934 9.5425H67.9099L69.1126 0.803001H61.4144H61.3356H52.5961L45.2188 53.5608H53.9582H54.0389H61.7353L63.0186 44.8213H55.2599Z" fill="white"/>
<path d="M75.0066 0.803001L63.6216 53.5608H72.6819L74.2641 44.66H77.2854L76.3687 53.5608H85.3484L88.7969 0.803001H75.0066ZM78.1856 35.9205H75.8187L81.4416 4.3065L78.1856 35.9205Z" fill="white"/>
<path d="M279.575 25.256C279.575 25.1497 279.522 25.0433 279.416 24.9352L279.256 24.695C278.026 22.6637 277.172 20.9953 276.69 19.6845C276.209 18.3755 276.048 17.0518 276.209 15.7153L277.091 9.94217C277.144 9.56817 277.264 9.27483 277.452 9.06033C277.639 8.84767 277.894 8.7395 278.215 8.7395C278.589 8.7395 278.857 8.84767 279.016 9.06033C279.176 9.27483 279.229 9.57 279.176 9.94217L277.892 18.601H286.713L288.077 9.13917C288.557 6.09217 288.117 3.80783 286.753 2.28433C285.389 0.760833 282.971 0 279.497 0C276.129 0 273.549 0.722333 271.76 2.16517C269.969 3.608 268.834 5.93267 268.352 9.141L267.551 15.0737C267.122 17.9593 267.296 20.4728 268.071 22.6105C268.845 24.7482 270.088 27.1535 271.8 29.8265L272.04 30.3875C273.216 32.3657 274.057 34.023 274.567 35.3595C275.075 36.696 275.221 37.9793 275.009 39.2077L274.286 44.4198C274.233 44.7938 274.112 45.089 273.925 45.3017C273.736 45.5162 273.456 45.6225 273.084 45.6225C272.763 45.6225 272.523 45.529 272.361 45.342C272.202 45.155 272.147 44.8488 272.202 44.4198L273.324 36.2413H264.504L263.301 45.221C262.874 48.3762 263.341 50.6862 264.703 52.1565C266.067 53.6268 268.458 54.362 271.879 54.362C275.3 54.362 277.892 53.6268 279.656 52.1565C281.42 50.6862 282.542 48.3762 283.024 45.221L283.746 39.8493C284.173 37.07 284.014 34.6262 283.266 32.5123C282.514 30.4022 281.284 27.9822 279.575 25.256Z" fill="white"/>
<path d="M309.442 2.24583C308.106 0.749834 305.701 0 302.226 0C298.859 0 296.266 0.735167 294.449 2.2055C292.633 3.67583 291.509 5.98767 291.082 9.141L286.031 45.221C285.604 48.3762 286.058 50.6862 287.395 52.1565C288.729 53.6268 291.109 54.362 294.53 54.362C298.057 54.362 300.703 53.6122 302.468 52.1162C304.232 50.6202 305.327 48.3212 305.756 45.221L307.759 30.789H298.939L297.014 44.4198C296.961 44.7938 296.84 45.089 296.653 45.3017C296.464 45.5162 296.184 45.6225 295.812 45.6225C295.491 45.6225 295.251 45.529 295.089 45.342C294.93 45.155 294.875 44.8488 294.93 44.4198L299.821 9.94217C299.874 9.56817 299.993 9.27483 300.182 9.06033C300.369 8.84767 300.624 8.7395 300.945 8.7395C301.319 8.7395 301.587 8.8605 301.746 9.10067C301.906 9.34083 301.959 9.62133 301.906 9.94217L299.902 24.0533H308.722L310.806 9.141C311.234 6.04083 310.779 3.74183 309.442 2.24583Z" fill="white"/>
<path d="M116.466 3.87017L111.202 35.4622C110.055 42.3225 107.796 46.9627 104.296 49.6522C101.643 51.6908 98.3744 52.6002 93.6976 52.6002C91.8991 52.6002 90.1281 52.47 88.4157 52.3435C88.2819 52.3343 88.1499 52.3233 88.0179 52.3142L91.9651 40.9182C93.2337 41.2023 94.4602 41.3472 95.6171 41.3472C99.5184 41.3472 101.913 39.4002 102.54 35.7152L107.778 4.928C107.882 4.31383 108.41 3.86833 109.032 3.86833H116.466M117.366 3.10567H109.033C108.042 3.10567 107.193 3.82067 107.026 4.79967L101.788 35.5868C101.132 39.4423 98.5504 40.5827 95.6171 40.5827C94.2512 40.5827 92.8359 40.3682 91.4701 40.0125L86.9692 53.0035C89.0941 53.1465 91.3692 53.361 93.6957 53.361C101.434 53.361 109.374 51.0052 111.954 35.585L117.366 3.10567Z" fill="white"/>
<path d="M134.814 2.585C139.527 2.585 143.128 3.00117 145.26 4.9775L141.335 16.5257C141.15 17.0683 141.24 17.6697 141.573 18.1353C141.907 18.601 142.448 18.8797 143.022 18.8797H147.077C147.039 19.1308 146.998 19.3747 146.96 19.6148L144.179 36.322C142.952 43.7873 141.055 48.2222 138.024 50.7027C135.089 53.1062 131.1 53.5993 126.016 53.5993C120.144 53.5993 117.009 52.7248 115.19 50.5798C113.109 48.125 112.689 43.6718 113.872 36.5713L116.653 19.866C117.846 12.6867 119.799 8.17483 122.795 5.665C125.403 3.476 128.885 2.585 134.814 2.585ZM128.137 42.5608C130.385 42.5608 132.086 42.0255 133.338 40.9255C134.477 39.9245 135.188 38.5018 135.516 36.5695L138.297 19.8678C138.64 17.8438 138.371 16.3442 137.476 15.2845C136.532 14.1662 134.966 13.6235 132.689 13.6235C130.441 13.6235 128.74 14.1588 127.488 15.2588C126.349 16.2598 125.638 17.6825 125.31 19.6148L122.527 36.3202V36.3257V36.3312C122.213 38.3662 122.501 39.8695 123.407 40.9255C124.353 42.0255 125.9 42.5608 128.137 42.5608ZM134.814 1.82233C124.142 1.82233 118.428 4.53567 115.898 19.7395L113.116 36.4448C110.588 51.6505 115.392 54.362 126.014 54.362C136.686 54.362 142.351 52.1492 144.93 36.4448L147.711 19.7395C147.805 19.1803 147.887 18.6413 147.961 18.117H143.022C142.325 18.117 141.834 17.4313 142.057 16.7713L146.137 4.774C143.9 2.36133 140.061 1.82233 134.814 1.82233ZM128.137 41.7982C123.889 41.7982 122.776 39.7283 123.28 36.4448L126.063 19.7395C126.619 16.456 128.439 14.3862 132.689 14.3862C136.988 14.3862 138.101 16.456 137.544 19.7395L134.763 36.4448C134.207 39.7283 132.385 41.7982 128.137 41.7982Z" fill="white"/>
<path d="M184.482 19.0135L193.475 19.1748L193.108 22.2108L193.006 23.0652H193.867H204.895L202.918 32.736H191.519H190.897L190.773 33.3447L189.075 41.5837L188.886 42.5003H189.823H203.848L201.905 52.3123H177.86L184.482 19.0135ZM184.273 18.2472C184.031 18.2472 183.822 18.4177 183.775 18.656L176.927 53.0768H202.53L204.776 41.7395H189.821L191.519 33.5005H203.542L205.832 22.3025H193.867L194.335 18.4268L184.284 18.2472C184.281 18.2472 184.277 18.2472 184.273 18.2472Z" fill="white"/>
<path d="M261.249 3.839L257.113 23.6647H252.019H251.37L251.265 24.3045L249.492 35.101L249.347 35.9883H250.246H254.541L251.135 52.3142H242.161L246.495 30.833L247.582 25.443L245.067 30.3325L233.762 52.3142H225.745L222.916 30.7248L222.339 26.3175L221.413 30.6643L216.8 52.3142H207.83L217.944 3.84083H227.138L232.081 35.5685C232.158 36.0672 232.583 36.4302 233.089 36.4302C233.454 36.4302 233.793 36.2322 233.975 35.9113L252.048 3.84083H261.249M262.188 3.07633H251.898C251.714 3.07633 251.544 3.17533 251.454 3.33483L233.308 35.5355C233.258 35.6235 233.172 35.6657 233.088 35.6657C232.972 35.6657 232.857 35.5887 232.835 35.4493L227.793 3.0745H217.739C217.499 3.0745 217.29 3.24317 217.24 3.47967L206.891 53.075H217.418L222.159 30.822L225.076 53.075H234.228L245.745 30.679L241.228 53.075H251.756L255.482 35.2238H250.246L252.019 24.4273H257.733L262.188 3.07633Z" fill="white"/>
<path d="M214.941 3.87017L211.308 14.476C211.132 14.9912 210.648 15.3358 210.103 15.3358H178.942C178.425 15.3358 177.963 15.6438 177.767 16.1223L164.079 49.2158L164.077 49.2195L164.075 49.2232C163.241 51.3095 161.307 52.2408 157.805 52.2408C154.405 52.2408 152.907 51.4103 152.802 49.467L151.108 16.5422C151.073 15.8657 150.516 15.3358 149.838 15.3358H144.818L148.791 3.87017H159.732L160.046 32.1457C160.053 32.8515 160.614 33.4052 161.324 33.4052C161.872 33.4052 162.343 33.0678 162.521 32.5453L172.362 3.87017H175.596H183.978H214.941ZM216.01 3.10567H183.978H175.596H172.181C171.962 3.10567 171.77 3.24317 171.698 3.4485L161.798 32.296C161.718 32.5325 161.52 32.6407 161.322 32.6407C161.067 32.6407 160.81 32.4592 160.807 32.1365L160.491 3.608C160.488 3.32934 160.262 3.10384 159.982 3.10384H148.608C148.391 3.10384 148.197 3.24134 148.127 3.44667L143.978 15.422C143.865 15.752 144.109 16.0967 144.459 16.0967H149.836C150.107 16.0967 150.331 16.3093 150.344 16.5788L152.038 49.5037C152.19 52.2885 154.667 53.0017 157.804 53.0017C160.939 53.0017 163.67 52.2885 164.783 49.5037L178.471 16.4102C178.55 16.2195 178.735 16.0967 178.942 16.0967H210.103C210.974 16.0967 211.748 15.543 212.028 14.7198L216.01 3.10567Z" fill="white"/>
<path d="M251.777 33.5958H266.423L267.467 26.059H253.079L251.777 33.5958Z" fill="white"/>
</svg>
