<svg width="137" height="33" viewBox="0 0 137 33" fill="none" xmlns="http://www.w3.org/2000/svg">
<path fill-rule="evenodd" clip-rule="evenodd" d="M17.2955 3.27669L16.4407 3.16213L16.2314 2.14003C15.5592 2.08302 14.8813 2.08668 14.1987 2.14003L14.0181 3.17155L13.1539 3.2861L12.6883 2.34037C12.0261 2.4633 11.3737 2.64167 10.7313 2.87548L10.8169 3.907L10.0184 4.24439L9.31702 3.46081C8.68033 3.7642 8.10522 4.111 7.5682 4.48448L7.92412 5.45637L7.23577 5.99252L6.36944 5.41086C5.83765 5.86908 5.36587 6.35188 4.93428 6.8509L5.52922 7.70561L4.99899 8.39137L4.00325 8.0566C3.61706 8.6346 3.28097 9.22307 2.99446 9.82148L3.78615 10.491L3.45319 11.2971L2.40891 11.2322C2.17928 11.8714 2.01124 12.5227 1.88182 13.1823L2.8259 13.6306L2.70951 14.4952L1.68455 14.7097C1.63236 15.3907 1.63967 16.0665 1.68768 16.7377L2.71265 16.9197L2.8259 17.7843L1.88495 18.2556C2.01751 18.9236 2.19286 19.5775 2.41518 20.2156L3.45267 20.1215L3.78876 20.9275L2.98872 21.6326C3.30446 22.2342 3.6489 22.8169 4.02465 23.3782L5.00108 23.0303L5.52505 23.7197L4.9562 24.5975C5.39875 25.1038 5.87575 25.5814 6.38823 26.0276L7.23837 25.4328L7.92673 25.969L7.5969 26.9602C8.15479 27.34 8.74086 27.6748 9.34885 27.974L10.0179 27.181L10.8195 27.5157L10.7616 28.5593C11.3925 28.7847 12.0433 28.9605 12.7139 29.0855L13.1565 28.1429L14.0197 28.2564L14.23 29.2801C14.8995 29.3355 15.5743 29.3355 16.2538 29.2801L16.438 28.2564L17.3012 28.1392L17.7699 29.0756C18.4207 28.9673 19.0714 28.7879 19.7222 28.5488L19.6351 27.5089L20.4367 27.1804L21.1381 27.9635C21.7351 27.6737 22.317 27.3332 22.8838 26.943L22.5346 25.9617L23.2167 25.4318L24.0893 26.0103C24.5919 25.5746 25.0689 25.0933 25.5213 24.5671L24.9295 23.7124L25.4566 23.0298L26.4492 23.3646C26.8078 22.8221 27.1459 22.2352 27.4643 21.6028L26.6689 20.9301L27.005 20.1272L28.0524 20.1889C28.2659 19.566 28.4391 18.9126 28.5727 18.229L27.6328 17.787L27.7487 16.9145L28.7669 16.7047C28.8186 16.0299 28.8253 15.3551 28.7669 14.6804L27.743 14.4999L27.6328 13.6389L28.5701 13.1619C28.4376 12.4876 28.2643 11.8296 28.0321 11.1956L27.0024 11.2945L26.6841 10.4915L27.4476 9.79323C27.1512 9.1807 26.8098 8.59276 26.4237 8.03097L25.4577 8.3919L24.9253 7.69358L25.5041 6.82108C25.0459 6.29696 24.5673 5.81781 24.0695 5.38418L23.2188 5.98311L22.5247 5.45375L22.8545 4.45885C22.2914 4.07752 21.7101 3.73752 21.1073 3.44669L20.4419 4.23811L19.6319 3.90648L19.6956 2.85927C19.0667 2.62754 18.4128 2.45127 17.7344 2.32991L17.2955 3.27669ZM15.2456 4.93433C21.1683 4.93433 25.9717 9.78224 25.9717 15.7192C25.9717 21.6562 21.1683 26.4874 15.2456 26.4874C9.32223 26.4874 4.48547 21.6562 4.48547 15.7192C4.48547 9.78224 9.32223 4.93433 15.2456 4.93433ZM11.6947 24.1591V24.7424V25.0735V25.4956L11.6785 25.4904L11.2067 25.3042L10.7464 25.0954L10.2981 24.8653L9.8629 24.6147L9.44122 24.3438L9.03311 24.0535L8.64014 23.7443L8.2623 23.4169L7.90064 23.0722L7.55568 22.7107L7.22846 22.333L6.91951 21.9397L6.62882 21.5317L6.35796 21.1096L6.10694 20.6738L5.87679 20.2256L5.66804 19.7652L5.48121 19.2934L5.31734 18.8101L5.17695 18.3168L5.06058 17.8142L4.96872 17.3026L4.90245 16.7826L4.86226 16.2549L4.84869 15.7203L4.86226 15.1857L4.90245 14.6579L4.96872 14.1379L5.06058 13.6258L5.17695 13.1226L5.31734 12.6289L5.48121 12.1455L5.66804 11.6732L5.87679 11.2118L6.10694 10.7625L6.35796 10.3263L6.62934 9.90308L6.91951 9.49455L7.22846 9.10067L7.55619 8.72196L7.90116 8.35947L8.26282 8.01371L8.64066 7.68574L9.03416 7.37555L9.44226 7.08472L9.86394 6.81324L10.2992 6.56164L10.7475 6.33096L11.2078 6.12172L11.6796 5.93446L12.1618 5.77021L12.6544 5.62951L13.1565 5.51286L13.6674 5.4208L14.1861 5.35437L14.7127 5.31409L15.2461 5.30049L15.7794 5.31409L16.3055 5.35437L16.8242 5.4208L17.3341 5.51286L17.8351 5.62951L18.3267 5.77021L18.8079 5.93446L19.2781 6.12172L19.7368 6.33096L20.1836 6.56164L20.6172 6.81324L21.0379 7.08472L21.4444 7.37555L21.8358 7.68521L22.2121 8.01319L22.5722 8.35842L22.9156 8.72091L23.2412 9.09962L23.5492 9.4935L23.8383 9.90255L24.1081 10.3252L24.3575 10.7615L24.5866 11.2108L24.7944 11.6721L24.9801 12.145L25.143 12.6283L25.2828 13.1221L25.3987 13.6253L25.49 14.1374L25.5558 14.6579L25.596 15.1857L25.6095 15.7208L25.596 16.2559L25.5558 16.7837L25.49 17.3036L25.3987 17.8152L25.2828 18.3179L25.143 18.8111L24.9801 19.2939L24.7949 19.7663L24.5872 20.2266L24.3581 20.6749L24.1086 21.1106L23.8388 21.5327L23.5497 21.9407L23.2418 22.3341L22.9161 22.7118L22.5727 23.0732L22.2126 23.4179L21.8363 23.7454L21.4449 24.0545L21.0384 24.3448L20.6178 24.6158L20.1841 24.8663L19.7374 25.0965L19.2786 25.3052L18.8632 25.4694V25.0745V24.7434V24.1513L20.7201 23.3028C20.8098 23.2317 20.8385 23.1198 20.7795 22.9487L20.7201 22.7437V21.3272C20.7247 21.154 20.6433 21.0661 20.4763 21.0646H19.7447C19.4493 21.0646 19.3825 20.8899 19.6043 20.6142C19.9701 19.7161 19.7233 18.7928 18.8637 17.8445C18.6915 17.7707 18.5668 17.6269 18.5449 17.3282C18.5104 16.9615 18.3799 16.6848 18.1696 16.4834C18.1644 16.1895 18.0966 15.7972 17.8936 15.7584L17.9129 15.646L17.8356 15.5021C17.8664 15.3442 17.8565 15.2019 17.8048 15.0753C18.0846 14.9074 18.3361 14.694 18.5642 14.4429C18.5407 14.593 18.5496 14.7332 18.5798 14.8655C18.6153 15.0627 18.691 15.2327 18.7468 15.4169C18.9159 15.6904 18.893 16.078 18.8011 16.507C18.7698 16.9014 18.8402 17.233 19.0339 17.4883C19.3444 17.8581 19.7572 18.083 20.1522 17.9726C19.9884 17.482 20.0875 16.8376 20.2086 16.2998L20.2681 15.9169L20.2472 14.7871C20.2624 14.6014 20.2963 14.4141 20.3975 14.2222L20.5666 13.7022C22.1938 7.36038 15.281 4.68482 12.1425 7.96559C12.704 8.09374 13.1982 8.25694 13.5087 8.68639C13.6862 8.93119 13.5802 9.08446 13.3485 9.0107C13.2948 8.99344 13.014 8.9223 12.7306 8.8815C12.6095 8.85482 12.466 8.82187 12.3465 8.82239L12.2948 8.82501L12.2468 8.83024L12.2025 8.83808L12.1623 8.84959L12.1263 8.86476L12.0955 8.88464L12.071 8.91027L12.0548 8.94113L12.0485 8.9767L12.0522 9.01541L12.0652 9.05673L12.0861 9.09858C12.1023 9.13624 12.1169 9.17443 12.131 9.21313C12.1409 9.24138 12.1503 9.27015 12.1597 9.29892C12.168 9.32769 12.1759 9.35593 12.1832 9.3847C12.19 9.41295 12.1962 9.44172 12.202 9.46997C12.2072 9.49821 12.2119 9.52646 12.216 9.55523C12.2197 9.58348 12.2228 9.61172 12.2254 9.63997C12.2275 9.66821 12.2291 9.69646 12.2296 9.72418C12.2296 9.75243 12.2296 9.78015 12.2286 9.8084C12.227 9.83665 12.2249 9.86437 12.2223 9.89209C12.2181 9.92662 12.2134 9.96062 12.2072 9.99514L12.0637 10.1353C12.0501 10.1515 12.0376 10.1683 12.0256 10.185C12.0141 10.2023 12.0026 10.2195 11.9922 10.2373C11.9822 10.2556 11.9723 10.2739 11.9635 10.2933C11.9551 10.3126 11.9473 10.3325 11.94 10.3529L11.9274 10.3948L11.9181 10.4387L11.9113 10.4847L11.9076 10.5323L11.9066 10.582L11.9087 10.6338L11.9144 10.6877L11.9233 10.7442L11.9358 10.8028L11.9525 10.8655C11.9671 10.8985 11.9812 10.9315 11.9896 10.967C11.9922 10.9817 11.9942 10.9958 11.9942 11.011C11.9942 11.0272 11.9927 11.0423 11.9901 11.058C11.9849 11.0837 11.977 11.1077 11.9676 11.1323L11.9348 11.1757L11.9034 11.2228L11.8768 11.2699L11.8544 11.3164L11.8356 11.363L11.8205 11.4095L11.809 11.4556L11.8006 11.5011L11.7949 11.5466L11.7918 11.5916L11.7912 11.6366L11.7928 11.681L11.7959 11.725L11.8006 11.7689L11.8132 11.8557C11.8252 11.9264 11.8387 11.9975 11.8507 12.0686L11.8627 12.1523L11.8669 12.1936L11.8695 12.235L11.8706 12.2763L11.8695 12.3176L11.8664 12.3584L11.8612 12.3997L11.8528 12.4405L11.8419 12.4813L11.8278 12.5216C11.8001 12.5755 11.7719 12.6289 11.7427 12.6822C11.7083 12.7434 11.6722 12.8041 11.6357 12.8637C11.594 12.9307 11.5507 12.9971 11.5068 13.063C11.4197 13.1922 11.3299 13.3198 11.2417 13.448C11.237 13.4595 11.2323 13.471 11.2281 13.4825C11.2234 13.4972 11.2203 13.5113 11.2177 13.5265C11.2156 13.5411 11.2146 13.5552 11.214 13.5699C11.214 13.584 11.2151 13.5976 11.2166 13.6117C11.2187 13.6253 11.2213 13.6384 11.2255 13.652C11.2297 13.6646 11.2344 13.6771 11.2396 13.6891C11.2454 13.7012 11.2516 13.7116 11.2589 13.7226C11.2662 13.7331 11.2741 13.7425 11.2829 13.7519C11.2913 13.7598 11.2996 13.7676 11.3085 13.7749C11.3763 13.834 11.4463 13.891 11.5058 13.959C11.5219 13.9779 11.5366 13.9972 11.5501 14.0182L11.5569 14.0307L11.5621 14.0448L11.5663 14.06L11.5694 14.0767L11.5731 14.1139V14.1552C11.5705 14.218 11.5637 14.2807 11.5611 14.344V14.3932L11.5621 14.4173L11.5647 14.4413L11.5684 14.4654L11.5736 14.4889L11.5804 14.5119L11.5893 14.5344L11.5997 14.5564L11.6128 14.5773L11.6279 14.5967L11.6462 14.615L11.6665 14.6317L11.6895 14.6469L11.6994 14.6521C11.6832 14.6652 11.6691 14.6788 11.6545 14.6935L11.6336 14.718L11.6164 14.7437L11.6028 14.7703L11.5934 14.7981L11.5877 14.8263L11.5861 14.8551L11.5882 14.8849L11.594 14.9147L11.6034 14.9451C11.6096 14.9607 11.6164 14.9759 11.6237 14.9916C11.6326 15.0078 11.6415 15.0235 11.6514 15.0392C11.6602 15.0528 11.6702 15.0664 11.6785 15.08L11.6869 15.0999L11.6926 15.1245L11.6957 15.1538C11.6963 15.1705 11.6963 15.1872 11.6957 15.204C11.6947 15.2228 11.6926 15.2411 11.6905 15.2594C11.6848 15.2987 11.6769 15.3374 11.6681 15.3761L11.6582 15.4143C11.6425 15.4718 11.6248 15.5288 11.6039 15.5848C11.5987 15.601 11.5945 15.6172 11.5903 15.634C11.5872 15.6502 11.5846 15.6659 11.5825 15.6821C11.5809 15.6978 11.5804 15.7135 11.5799 15.7297C11.5804 15.7454 11.5814 15.7605 11.583 15.7762C11.5856 15.7914 11.5882 15.806 11.5924 15.8212L11.607 15.8652C11.6133 15.8793 11.6201 15.8934 11.6274 15.907C11.6357 15.9206 11.6441 15.9337 11.6535 15.9468C11.6634 15.9598 11.6738 15.9719 11.6853 15.9844C11.6973 15.9964 11.7093 16.008 11.7224 16.0195L11.7505 16.042L11.8095 16.0775L11.87 16.11L11.9327 16.1398L11.9979 16.1675L12.0652 16.1926L12.1352 16.2151C12.1712 16.2256 12.2077 16.2355 12.2442 16.2449C12.2823 16.2538 12.3204 16.2616 12.3585 16.2695C12.3982 16.2768 12.4384 16.2836 12.478 16.2894C12.5198 16.2951 12.561 16.3004 12.6028 16.3045C12.6461 16.3087 12.6894 16.3124 12.7327 16.3155C12.8026 16.3197 12.906 16.3228 12.9764 16.3244C13.0036 16.3825 13.0291 16.4395 13.0526 16.497C13.1038 16.6289 13.1492 16.7706 13.1883 16.9213C13.1904 16.9291 13.192 16.9369 13.194 16.9448C13.2457 17.1457 13.2869 17.3622 13.3193 17.5934C13.3433 17.7645 13.3 17.8544 13.1904 17.8628C12.5031 18.0971 11.9076 18.377 11.4692 18.7353C10.7637 19.2955 10.5601 19.94 11.1645 20.7204C11.2913 20.9333 11.2219 21.0484 10.9568 21.0437L10.0852 21.0295C9.8843 21.0295 9.78879 21.1253 9.79871 21.3167L9.83471 22.3001C9.82897 22.5109 9.8081 22.7081 9.74495 22.8708C9.65623 23.0711 9.65675 23.2327 9.78774 23.3374C9.78827 23.3374 11.6947 24.1591 11.6947 24.1591ZM16.9051 14.1442C16.9557 14.4141 16.9938 14.6924 17.0178 14.9785L16.7162 15.0915C16.6609 14.7824 16.592 14.4821 16.5101 14.1929C16.5508 14.2012 16.5925 14.2054 16.6358 14.2054C16.7319 14.2054 16.8232 14.1834 16.9051 14.1442ZM16.6358 13.3664C16.7506 13.3664 16.8446 13.4606 16.8446 13.5756C16.8446 13.6907 16.7506 13.7849 16.6358 13.7849C16.521 13.7849 16.4271 13.6907 16.4271 13.5756C16.4271 13.46 16.521 13.3664 16.6358 13.3664ZM16.6358 13.1315C16.8796 13.1315 17.0784 13.3308 17.0784 13.5751C17.0784 13.8194 16.8796 14.0187 16.6358 14.0187C16.3921 14.0187 16.1933 13.8194 16.1933 13.5751C16.1933 13.3308 16.3921 13.1315 16.6358 13.1315ZM17.6618 16.0132C17.7808 15.6402 17.7224 15.4509 17.5564 15.3834C17.3691 15.2861 17.1301 15.5644 17.32 15.7224C17.3602 15.6303 17.3644 15.6277 17.4536 15.5911C17.594 15.6455 17.582 15.8704 17.5674 15.9928C16.5236 16.0561 16.2763 14.2541 16.305 14.1683C15.8254 15.0423 16.5163 16.3767 17.1906 16.5368C17.2856 15.8338 17.9875 16.0692 17.8492 16.4275C17.7913 16.6801 17.5215 16.6022 17.5016 16.4186C17.4374 16.4484 17.4301 16.4766 17.4286 16.5619C17.9583 17.3701 18.2771 16.0681 17.6618 16.0132ZM16.15 15.9672C16.0153 15.4096 15.8723 14.9215 15.4971 14.7295C15.6244 13.4956 14.3985 14.4518 15.2581 14.9016C15.2456 15.0523 15.2106 15.2636 15.2534 15.4676C15.388 16.1136 15.1986 16.4008 15.161 16.5577C15.0744 16.9213 15.1182 17.2367 15.2205 17.5301C15.2863 17.4156 15.3625 17.3805 15.448 17.4255C15.4345 17.4956 15.4773 17.7571 15.4747 17.7566C15.4381 18.1683 15.6552 18.7845 16.114 18.9843C16.1573 19.0005 16.1776 19.0444 16.1442 19.1062C16.0362 19.2552 15.9287 19.3892 15.8207 19.4713C15.6552 19.635 15.5691 19.8123 15.5628 20.0043C15.6724 19.9818 15.7852 19.8866 15.9005 19.7182C16.1792 19.6742 16.3817 19.4048 16.2783 19.1004C16.139 18.8922 16.0148 18.6767 15.9209 18.446C15.8838 18.3043 15.9151 18.2274 16.0148 18.2143C16.1635 18.5988 16.39 18.967 16.6948 19.3206C16.5633 19.5806 16.3885 19.7904 16.1787 19.9577C15.8311 20.2052 15.6792 20.4866 15.5983 20.78L15.3405 20.8784C15.4345 21.0656 15.7314 21.075 16.2319 20.9071C16.2241 20.7141 16.318 20.5289 16.5132 20.3511C16.6781 20.2815 16.7898 20.0843 16.8769 19.8301L16.9119 19.8531L16.7773 20.2004C16.6327 20.3433 16.5346 20.4861 16.484 20.6289C16.1682 21.1373 17.1942 21.0724 17.3988 20.7968C17.058 20.5232 16.9203 20.145 17.0293 19.8699C17.1525 19.6612 17.1817 19.476 17.117 19.3138C16.9343 19.0183 16.7512 18.7547 16.568 18.524C16.7386 18.6626 17.0199 18.7871 17.0492 19.0617C17.104 19.2019 17.1953 19.3138 17.3398 19.3839C17.0189 19.6376 17.2365 20.5724 17.6347 20.644C17.6749 20.5561 17.6363 20.4588 17.5188 20.3521C17.6081 20.3103 17.6979 20.3291 17.7876 20.4081C17.713 21.1535 18.8768 21.5055 18.4812 20.3746C18.6769 20.4667 18.7479 20.3563 18.6117 20.236L18.1863 19.9368C17.9865 19.8317 17.9948 19.5785 18.1754 19.204L18.2203 19.1967C18.2563 19.634 18.394 19.8992 18.6341 19.9933C18.571 19.7072 18.8397 19.6486 18.8877 19.9258L18.847 20.5206C18.8168 21.0107 19.1617 21.0316 19.1419 20.5206L19.1085 20.1016C19.2228 19.9368 19.3141 19.8301 19.3548 19.851L19.2614 20.1989C19.0928 20.666 19.4869 20.6498 19.5375 19.952C19.5583 19.4347 19.4368 19.0141 19.1983 18.6731C19.1821 18.7719 19.1983 18.8886 19.2838 19.0434C19.3987 19.4184 19.0339 19.488 18.9817 19.0957L18.9968 18.8232C18.9284 18.6804 18.8976 18.5339 18.9222 18.3817C18.8053 18.2426 18.7526 18.0909 18.728 17.9329C18.7395 17.8178 18.6398 17.6907 18.4567 17.5939C18.2991 17.2184 18.1034 17.1017 17.881 17.1624C17.7897 17.176 17.7772 17.2168 17.8435 17.2858C18.2359 17.504 18.5349 17.8382 18.668 18.3812L18.7129 18.5156C18.6174 18.5679 18.6174 18.6584 18.6607 18.7662C18.6096 18.7986 18.5532 18.8111 18.4932 18.8153C18.4379 18.7411 18.4201 18.66 18.4567 18.5695C18.5021 18.2426 18.346 18.0835 18.1138 17.9345L18.0872 17.9941C18.1211 18.0506 18.1248 18.0888 18.0971 18.1097C18.1508 18.1651 18.1978 18.2284 18.2291 18.31C18.2578 18.3524 18.25 18.3801 18.226 18.4011C18.2657 18.4371 18.3241 18.6119 18.3857 18.8159C18.3857 18.8159 18.3852 18.8159 18.3846 18.8159C18.4535 18.8635 18.5167 18.9419 18.5673 19.0544C18.5908 19.1919 18.6905 19.2851 18.8251 19.3583C18.9258 19.4394 18.9806 19.5576 18.989 19.7129C18.6607 19.7067 18.3982 19.3028 18.1686 18.853C18.1013 18.7358 18.0021 18.6417 17.833 18.5988C17.6154 18.4194 17.784 18.1029 18.0381 18.3906C18.1498 18.0359 17.8382 17.7524 17.2365 17.5186C17.2553 17.5945 17.3195 17.663 17.4494 17.7205L17.4343 17.7765C17.1102 17.6996 16.8388 17.5746 16.663 17.3674C16.1818 16.5033 17.3106 16.9887 17.5883 17.5218C17.6759 17.0918 17.249 16.6906 16.7621 16.5813L16.2439 16.1309L16.2157 16.4207L16.0837 16.4301C16.246 16.6697 16.3321 16.9087 16.2815 17.1477C16.2528 17.2435 16.2188 17.2508 16.1808 17.1702L16.0539 16.9908L16.0691 17.2189C15.8854 17.2011 15.8321 16.9673 15.889 16.6712C15.7043 16.3574 15.7231 16.0576 15.9459 15.772L16.15 15.9672ZM15.6818 17.8346C15.9699 17.8754 16.2162 18.0459 16.4219 18.3472C16.3681 18.2844 16.3144 18.2248 16.2606 18.1672C16.1656 18.1066 16.0242 18.0794 15.8441 18.0804C15.8447 18.0804 15.6818 17.8346 15.6818 17.8346ZM12.7009 7.79506C16.1541 5.18122 21.8029 8.2606 20.2556 13.6426C20.1366 14.0155 19.8939 14.2384 19.9644 14.7771C20.1684 15.5675 19.3611 16.7314 19.8417 17.7754C19.1862 17.641 18.8961 16.9662 19.0579 16.3804C19.1602 15.9216 19.1205 15.5911 18.977 15.2966C18.8549 14.8499 18.6127 14.5815 18.8924 14.1442C19.0323 14.1018 19.2264 14.0391 19.3606 14.1123C19.3611 14.1123 19.3611 14.1128 19.3616 14.1128L19.431 14.151L19.4728 14.0741L19.4028 14.0359C19.4023 14.0359 19.4023 14.0359 19.4018 14.0354C19.2677 13.9617 19.2181 13.7645 19.1784 13.6238C19.1805 13.619 19.1831 13.6143 19.1852 13.6096C19.3183 13.5495 19.5035 13.4611 19.646 13.5165C19.6465 13.5165 19.6471 13.5165 19.6471 13.517L19.7212 13.5458L19.7525 13.4642L19.6784 13.4354C19.6779 13.4354 19.6779 13.4354 19.6773 13.4349C19.5349 13.3795 19.4602 13.1917 19.4028 13.0573C19.4044 13.052 19.406 13.0468 19.4075 13.0416C19.5317 12.9647 19.7034 12.8538 19.8516 12.8904C19.8522 12.8904 19.8522 12.8904 19.8527 12.8909L19.9299 12.9097L19.9508 12.825L19.8736 12.8062C19.873 12.8062 19.873 12.8062 19.8725 12.8062C19.7233 12.7696 19.6246 12.5901 19.55 12.4641C19.5505 12.4599 19.5516 12.4557 19.5521 12.4515C19.6638 12.3574 19.8188 12.2214 19.9712 12.236C19.9717 12.236 19.9717 12.236 19.9722 12.236L20.0515 12.2439L20.0599 12.157L19.9805 12.1492C19.98 12.1492 19.98 12.1492 19.9795 12.1492C19.8261 12.1345 19.7029 11.9708 19.6105 11.8568C19.6105 11.8526 19.6105 11.8479 19.6105 11.8437C19.7071 11.7333 19.8396 11.5748 19.9931 11.5665C19.9936 11.5665 19.9936 11.5665 19.9941 11.5665L20.0734 11.5618L20.0682 11.4744L19.9889 11.4791C19.9884 11.4791 19.9884 11.4791 19.9879 11.4791C19.8349 11.488 19.6883 11.3463 19.5803 11.2479C19.5797 11.2422 19.5787 11.2364 19.5777 11.2307C19.6565 11.1072 19.7634 10.9315 19.9137 10.9001C19.9143 10.9001 19.9143 10.9001 19.9148 10.9001L19.9926 10.8839L19.9743 10.7986L19.8965 10.8148C19.896 10.8148 19.896 10.8148 19.8955 10.8148C19.7447 10.8467 19.5777 10.7269 19.4555 10.6459C19.455 10.6438 19.454 10.6417 19.4535 10.6396C19.5124 10.5051 19.5907 10.3132 19.7353 10.2583C19.7358 10.2583 19.7363 10.2582 19.7363 10.2577L19.8104 10.2295L19.7791 10.1479L19.705 10.1761C19.7045 10.1761 19.7045 10.1761 19.704 10.1766C19.5589 10.2321 19.3736 10.1385 19.2405 10.0767C19.24 10.0757 19.24 10.0746 19.2395 10.0741C19.2765 9.93185 19.323 9.72837 19.4576 9.65095C19.4581 9.65095 19.4581 9.65043 19.4587 9.65043L19.5276 9.61068L19.4837 9.53483L19.4148 9.57458C19.4143 9.57458 19.4143 9.5751 19.4138 9.5751C19.2797 9.65252 19.0829 9.59027 18.942 9.55104C18.9415 9.55052 18.9415 9.55 18.941 9.54947C18.9556 9.40353 18.9712 9.19483 19.0923 9.09753C19.0923 9.09753 19.0928 9.09701 19.0934 9.09701L19.1549 9.04732L19.1001 8.97932L19.038 9.02901C19.0375 9.02901 19.0375 9.02953 19.037 9.02953C18.9159 9.12735 18.7103 9.09492 18.5652 9.07766C18.5569 8.93119 18.5391 8.72353 18.6435 8.60845C18.6435 8.60845 18.644 8.60793 18.6445 8.6074L18.6978 8.5483L18.6331 8.48971L18.5798 8.54882C18.5798 8.54882 18.5793 8.54934 18.5793 8.54987C18.4755 8.66442 18.2704 8.66599 18.1242 8.67174C18.1227 8.67018 18.1211 8.66913 18.119 8.66756C18.0887 8.52424 18.0412 8.32128 18.1263 8.1926C18.1263 8.1926 18.1268 8.19208 18.1268 8.19156L18.1707 8.12512L18.0981 8.077L18.0543 8.14343C18.0543 8.14343 18.0543 8.14396 18.0538 8.14448C17.9682 8.27368 17.7641 8.30559 17.6206 8.33331C17.618 8.33226 17.6159 8.3307 17.6138 8.32913C17.5622 8.19156 17.4844 7.99854 17.5496 7.85835C17.5496 7.85783 17.5496 7.85783 17.5502 7.85731L17.5836 7.78512L17.5042 7.74798L17.4708 7.82017C17.4708 7.82069 17.4708 7.82069 17.4703 7.82121C17.4051 7.96192 17.2094 8.02417 17.0711 8.07334C17.0695 8.07282 17.0679 8.07177 17.0664 8.07125C16.9959 7.94257 16.89 7.76211 16.9349 7.61355C16.9349 7.61303 16.9349 7.61251 16.9354 7.61251L16.9578 7.53614L16.8743 7.51103L16.8514 7.5874C16.8514 7.58792 16.8514 7.58792 16.8508 7.58844C16.8065 7.737 16.6207 7.82749 16.4913 7.89602C16.4897 7.89549 16.4876 7.89549 16.4861 7.89497C16.3984 7.7778 16.2684 7.61355 16.2919 7.45977C16.2919 7.45924 16.2919 7.45924 16.2919 7.45872L16.3039 7.37973L16.2178 7.36666L16.2058 7.44512C16.2058 7.44564 16.2058 7.44617 16.2058 7.44617C16.1823 7.60047 16.0091 7.71608 15.8901 7.80238C15.8895 7.80238 15.889 7.80238 15.8885 7.80238C15.7857 7.69724 15.6349 7.55183 15.6375 7.39595C15.6375 7.39543 15.6375 7.3949 15.6375 7.39438L15.639 7.31487L15.5519 7.3133L15.5503 7.39281C15.5503 7.39333 15.5503 7.39333 15.5503 7.39386C15.5477 7.54921 15.3922 7.68626 15.2863 7.78774C15.172 7.6962 15.0055 7.57066 14.9893 7.41635C14.9893 7.41583 14.9893 7.4153 14.9893 7.4153L14.981 7.33632L14.8943 7.34521L14.9027 7.42472C14.9027 7.42524 14.9027 7.42577 14.9027 7.42577C14.9188 7.5806 14.7811 7.73543 14.6882 7.84894C14.6866 7.84894 14.6851 7.84946 14.684 7.84946C14.5598 7.77152 14.3792 7.66534 14.3453 7.51364C14.3453 7.51312 14.3453 7.51312 14.3453 7.5126L14.3281 7.43466L14.243 7.45349L14.2602 7.53143C14.2602 7.53195 14.2602 7.53195 14.2602 7.53247C14.2936 7.68364 14.1757 7.85312 14.0959 7.97605C13.9643 7.91119 13.7754 7.82383 13.7264 7.67632C13.7264 7.6758 13.7264 7.6758 13.7258 7.67528L13.7008 7.59995L13.6178 7.62768L13.6429 7.703C13.6429 7.70352 13.6434 7.70404 13.6434 7.70404C13.6914 7.85051 13.5922 8.02992 13.5254 8.16017L13.5072 8.13402C13.4018 7.98494 13.0573 7.87771 12.7009 7.79506ZM13.6335 8.35685C13.777 8.63304 13.8647 8.92178 13.8276 9.01698L14.2477 8.89719L14.6574 8.81873L15.0551 8.7795L15.4397 8.77793L15.8102 8.81193L16.1656 8.87888L16.5043 8.97722L16.8258 9.10433L17.129 9.25812L17.4134 9.43649L17.678 9.63683L17.9217 9.85705L18.1441 10.0945L18.3439 10.3472L18.5214 10.6134L18.6748 10.8907L18.8042 11.1768L18.9081 11.4697L18.9864 11.7673L19.0375 12.0681L19.061 12.3694L19.0558 12.6691L19.0208 12.9652L18.9551 13.255L18.9483 13.2749C20.6987 10.3587 17.4249 6.91838 13.6335 8.35685ZM16.8503 12.9657C17.0909 13.0593 17.2626 13.2942 17.2626 13.5678C17.2626 13.7195 17.2099 13.8591 17.1217 13.97L17.1238 13.98L17.1817 14.2985L17.2282 14.6244L17.2558 14.8917C20.6616 13.4323 18.1999 7.80552 13.8584 9.24033L14.0124 9.32089L14.2138 9.43911L14.4121 9.56935L14.6073 9.71111L14.7993 9.86437L14.9872 10.0286L15.1709 10.2033L15.3494 10.389L15.5227 10.5852L15.6907 10.7913L15.853 11.0073L16.0085 11.2333L16.1578 11.4687L16.2997 11.7135L16.4339 11.9672L16.5602 12.2297L16.6776 12.5012L16.7861 12.7811C16.7867 12.7811 16.8503 12.9657 16.8503 12.9657ZM12.3429 9.08184C13.968 9.10538 15.8833 10.8451 16.5909 12.9406C16.4088 12.9678 16.2684 13.0416 16.1703 13.1608C15.7946 12.3443 15.3291 11.6188 14.7696 11.0366L14.7325 11.1527C14.7675 11.2589 14.8792 11.3897 15.0389 11.5361C15.1417 11.624 15.2262 11.7459 15.3108 11.8861C15.2127 11.8782 15.1365 11.8652 15.0827 11.8463L15.0932 11.9687C14.9768 11.8892 14.874 11.7992 14.791 11.6941C14.7905 11.8128 14.8557 11.9274 14.9924 12.032C15.1568 12.1497 15.3207 12.2512 15.4851 12.3464C15.5415 12.3924 15.5837 12.4452 15.6114 12.5059C15.423 12.5567 15.4439 12.6639 15.6469 12.8109C15.662 12.8219 15.6818 12.8287 15.6996 12.8402C15.6077 12.8721 15.5571 13.0939 15.6145 13.2121C15.6693 13.3109 15.7267 13.4088 15.7612 13.5296L15.8337 13.3455L15.983 13.3036L16.031 13.4119C15.9339 13.595 16.0325 13.9198 16.1312 13.9962C15.9506 14.2854 15.925 14.6019 15.9136 14.8431C15.7074 14.6417 15.59 14.1479 15.6594 13.855C15.6594 13.7917 15.6213 13.7828 15.5435 13.8278C15.4459 13.8241 15.4016 13.7493 15.3938 13.6258C15.3729 13.5505 15.257 13.6096 15.2883 13.6818C15.2993 13.7022 15.3129 13.7221 15.3275 13.7409C15.3729 13.7911 15.4131 13.8429 15.4339 13.9015L15.4334 14.0176L15.3228 14.0182C15.2565 13.9203 15.1767 13.7953 15.1511 13.7911C15.1365 13.7723 15.1219 13.7503 15.1005 13.7341C15.0352 13.6834 14.9763 13.6358 14.9324 13.5887C14.8902 13.5432 14.8244 13.5029 14.7811 13.4621L14.7618 13.4224C14.7962 13.2518 14.7127 13.1237 14.588 13.0233C14.5661 13.0128 14.5483 13.0002 14.5342 12.9851L14.494 12.9453C14.589 12.8402 14.7278 12.8145 14.8427 12.9124C14.9314 12.9961 15.0003 13.1394 15.0279 13.3141C15.162 13.1488 15.113 12.9877 14.9512 12.848C14.8061 12.8365 14.684 12.8156 14.6083 12.7748C14.5207 12.7063 14.5812 12.5561 14.719 12.6116C14.9037 12.6979 14.8322 12.4526 14.6553 12.451C14.5995 12.4494 14.5327 12.4599 14.4549 12.4819C14.3197 12.4902 14.2018 12.4735 14.1366 12.3804C14.2415 12.3045 14.2623 12.2303 14.16 12.1576C13.921 11.9865 14.039 11.7809 14.2644 11.8081L14.4445 11.9148C14.54 11.9708 14.5942 11.8835 14.4998 11.8008C14.4309 11.7448 14.3411 11.6952 14.2467 11.647L14.136 11.4927C14.0384 11.5874 13.9377 11.6334 13.8328 11.6204C13.6413 11.5858 13.6778 11.4064 13.8949 11.4195C13.9716 11.4132 13.9544 11.3316 13.8866 11.3484C13.7733 11.374 13.7337 11.4237 13.6679 11.4347C13.5547 11.4535 13.4659 11.4143 13.4153 11.3196C13.3788 11.2275 13.3616 11.136 13.3637 11.0439L13.5155 10.9607C13.4169 10.8901 13.253 10.8833 13.0375 10.8975L12.8512 10.8954C12.9195 10.7374 13.038 10.6307 13.2238 10.6296C13.0354 10.5527 12.8679 10.5548 12.7322 10.6741C12.5417 10.6375 12.394 10.6955 12.2881 10.8483L12.203 10.8472C12.049 10.4084 12.1894 10.1855 12.5511 10.1259C12.4911 10.3095 12.5344 10.3922 12.729 10.3273L12.9989 10.2677C13.0385 10.2787 13.0787 10.3116 13.1194 10.366C13.1716 10.4084 13.2494 10.4361 13.3532 10.4481L13.7718 10.4989L13.86 10.6312L13.9382 10.683L14.0478 10.6762C14.0567 10.8666 14.1773 10.9571 14.3745 10.9853C14.3119 11.2139 14.4105 11.3332 14.6089 11.3787L14.5483 11.1475L14.5603 10.8378C13.8965 10.2216 13.1674 9.91982 12.4441 9.87065C12.4462 9.57197 12.4149 9.30624 12.3429 9.08184ZM15.2064 14.1751C15.2007 14.1746 15.1949 14.1746 15.1892 14.1746C15.1819 14.1777 15.1756 14.1803 15.1678 14.1824L15.138 14.1855C15.1229 14.1526 15.1083 14.1196 15.0932 14.0867H15.0838L15.0655 14.0563C15.0525 14.0375 15.0384 14.0202 15.0264 14.0004L15.0128 13.981H15.0034L14.9799 13.9481L14.9319 13.9026C14.9121 13.8884 14.8933 13.8722 14.8735 13.8576C14.8541 13.8461 14.8364 13.8319 14.8171 13.8204C14.7852 13.8026 14.755 13.7838 14.7273 13.7603C14.6683 13.7106 14.6078 13.6625 14.5504 13.6107L14.5019 13.562C14.4857 13.5432 14.47 13.5244 14.4539 13.5055L14.4434 13.4982L14.4246 13.4794C14.4173 13.4694 14.41 13.4595 14.4032 13.449C14.3886 13.4245 14.3745 13.3999 14.361 13.3742C14.349 13.3502 14.3375 13.3251 14.3265 13.3L14.3056 13.2346L14.2853 13.1137C14.2722 13.0389 14.2665 12.9631 14.2545 12.8883C14.2535 12.8799 14.2519 12.8721 14.2508 12.8637C14.2315 12.8224 14.2122 12.7805 14.1929 12.7387C14.182 12.722 14.1705 12.7057 14.1574 12.6901L14.123 12.643L14.1193 12.6362H14.1094L14.0588 12.5713L13.9675 12.463L13.9529 12.4432L13.9362 12.4029C13.9127 12.3422 13.8939 12.2805 13.8767 12.2177C13.8589 12.1471 13.8438 12.076 13.8266 12.0053C13.8213 11.9912 13.8182 11.976 13.8151 11.9609L13.7822 11.9012C13.7665 11.8751 13.7483 11.8505 13.7321 11.8249C13.7102 11.7977 13.6867 11.7705 13.6648 11.7428L13.659 11.7344L13.6476 11.7208L13.6131 11.6915C13.5886 11.6753 13.563 11.6591 13.5374 11.6439C13.4759 11.6088 13.4143 11.5748 13.3496 11.5456C13.3308 11.5361 13.3125 11.5252 13.2942 11.5147C13.2452 11.4859 13.1961 11.4572 13.1486 11.4252C13.1356 11.4153 13.122 11.4059 13.1095 11.3949L13.1022 11.3881L13.0949 11.3782C13.0719 11.3609 13.0495 11.3436 13.0281 11.3248C13.0109 11.3123 12.9947 11.2992 12.9769 11.2882L12.9592 11.2788L12.9503 11.261L12.9373 11.2458L12.9195 11.2307L12.8976 11.2144L12.8736 11.1982C12.8491 11.1851 12.8246 11.1721 12.7995 11.16C12.7687 11.1459 12.7364 11.1334 12.705 11.1208C12.6852 11.1135 12.6649 11.1062 12.6445 11.0999C12.6278 11.0952 12.6111 11.0905 12.5939 11.0858C12.5652 11.0811 12.536 11.0774 12.5062 11.0748L12.4269 11.0722L12.3794 11.0748L12.3329 11.08L12.2928 11.0905L12.2547 11.1041L12.2202 11.1203L12.1853 11.1417L12.1534 11.1658L12.1237 11.1956L12.0934 11.2286C12.0746 11.2558 12.0548 11.2819 12.0376 11.3102C12.0235 11.3348 12.0099 11.3593 11.9974 11.3844L11.9812 11.4116L11.94 11.5382C11.9384 11.5738 11.9358 11.6099 11.9363 11.6455C11.9368 11.6612 11.9374 11.6763 11.9374 11.6915L11.9572 11.8495C11.9708 11.9379 11.988 12.0252 12.001 12.1131C12.0083 12.1664 12.0177 12.2198 12.0193 12.2732C12.0198 12.292 12.0209 12.3108 12.0214 12.3296L12.0146 12.3286C12.0052 12.5028 11.9332 12.6655 11.8559 12.8193L11.403 13.5055C11.3706 13.5563 11.3581 13.5762 11.3915 13.6368C11.4322 13.7017 11.5308 13.7592 11.583 13.8152C11.6049 13.8387 11.6253 13.8633 11.6451 13.889L11.6566 13.9052C11.667 13.9219 11.6764 13.9386 11.6853 13.9559C11.7203 14.0333 11.7307 14.1463 11.7333 14.2279C11.702 14.4366 11.5856 14.5742 12.2797 14.6207C12.3554 14.6323 12.3387 14.7751 12.2766 14.7751C12.1336 14.7698 11.917 14.7379 11.7954 14.7881L11.7839 14.7934L11.7735 14.7996L11.7641 14.807L11.7563 14.8153L11.7495 14.8247L11.7443 14.8342L11.7406 14.8441L11.7385 14.854L11.738 14.864L11.7385 14.8744L11.7406 14.8849L11.7448 14.8948C11.7531 14.909 11.762 14.922 11.7704 14.9351C11.7949 14.9733 11.8236 15.024 11.8419 15.0654C11.8481 15.103 11.8533 15.1396 11.857 15.1742C11.8565 15.1993 11.8549 15.2244 11.8518 15.2495L11.845 15.3117C11.8403 15.3421 11.834 15.3719 11.8278 15.4012C11.8126 15.4624 11.7938 15.5231 11.7777 15.5837L11.7667 15.6292C11.7625 15.6507 11.7594 15.6711 11.7578 15.6925V15.7312L11.7599 15.7496L11.7641 15.7673L11.7693 15.7851L11.7766 15.8024L11.786 15.8196L11.7975 15.8369L11.8116 15.8542L11.8288 15.872L11.8486 15.8897L11.8721 15.9075L11.8987 15.9258L11.929 15.9441L11.9619 15.9619C12.0078 15.9808 12.0543 15.9975 12.1012 16.0121C12.1492 16.0268 12.1973 16.0399 12.2463 16.0508C12.8298 16.2041 13.4091 16.1361 13.9669 15.906C14.0442 15.873 14.1199 15.8364 14.195 15.7987L14.3265 15.7171C14.3364 15.715 14.3464 15.7124 14.3557 15.7103L14.3568 15.7009C14.3657 15.6925 14.3735 15.6847 14.3824 15.6774C14.3975 15.6659 14.4126 15.6549 14.4278 15.6439C14.4466 15.6298 14.4659 15.6162 14.4841 15.6015C14.4888 15.5979 14.493 15.5937 14.4967 15.589L14.5024 15.5775L14.5274 15.5597C14.5702 15.5246 14.6042 15.4807 14.637 15.4368C14.6522 15.4158 14.6657 15.3944 14.6783 15.3719C14.7012 15.3363 14.7237 15.3007 14.7451 15.2647L14.7607 15.238L14.7946 15.228L14.8166 15.2249C14.8307 15.2239 14.8447 15.2239 14.8594 15.2239L14.8771 15.2259L14.8823 15.1757C14.8839 15.1444 14.8834 15.1135 14.8818 15.0821C14.8787 15.0376 14.8729 14.9942 14.8672 14.9503C14.8672 14.875 14.8651 14.7991 14.8693 14.7238C14.8703 14.7081 14.8703 14.6924 14.8714 14.6767C14.8734 14.6527 14.875 14.6281 14.8797 14.604C14.8828 14.5894 14.8865 14.5747 14.8886 14.5595C14.8943 14.5407 14.8995 14.5219 14.9069 14.503C14.9126 14.49 14.9183 14.4769 14.9241 14.4633L14.9465 14.4277L14.97 14.3943C14.9867 14.3796 15.0029 14.3639 15.0201 14.3498L15.0305 14.343L15.1182 14.2938L15.0879 14.3848V14.3854L15.2064 14.1751ZM12.5234 12.9045C12.5146 12.9056 12.5052 12.9066 12.4958 12.9071C12.4932 12.9097 12.4932 12.9124 12.4932 12.9155C12.2964 12.7926 12.3648 12.6942 12.3403 12.4997C12.3241 12.4479 12.2828 12.4123 12.2583 12.3793C12.2067 12.2428 12.2119 12.1769 12.2609 12.0488C12.2609 11.9284 12.048 11.9724 12.0835 11.8495C12.2474 11.6852 12.5991 11.7318 12.8115 11.7893C12.8632 11.817 12.9154 11.8442 12.967 11.8688C13.1387 12.0085 13.2619 12.1366 13.3464 12.3637C13.3438 12.3856 13.3438 12.3856 13.3381 12.3966C13.3271 12.3966 13.3193 12.3966 13.3109 12.3966C13.1742 12.3338 13.0625 12.2214 12.9508 12.1528C12.8392 12.1147 12.8313 12.1298 12.848 12.2418C12.9138 12.3924 13.1888 12.4876 13.1888 12.6843C13.1779 12.6869 13.1262 12.7078 13.1152 12.7136C12.8799 12.6948 12.7374 12.8752 12.5234 12.9045ZM11.8732 13.7875C11.7698 13.7362 11.6999 13.6886 11.6921 13.6248C11.7385 13.4799 12.1993 13.8398 11.8732 13.7875ZM13.2311 18.3304C13.2311 18.298 13.2739 18.2928 13.2984 18.298C13.3042 18.3095 13.3423 18.4915 13.4096 18.4591C13.7373 17.844 13.2906 16.9631 13.134 16.3134C13.8114 16.2439 14.3427 15.9959 14.851 15.511C14.9272 15.567 14.9476 15.6224 14.9507 15.7365C14.9011 16.0414 14.8072 16.3344 14.8072 16.6623C14.8364 17.1786 15.447 17.8942 15.3781 18.2426L15.3776 18.2441C15.3776 18.2441 15.3776 18.2446 15.3776 18.2452C14.672 20.5661 10.4766 20.2752 13.2311 18.3304ZM13.0615 18.2436C11.5366 18.5224 10.0075 20.157 12.2594 20.904C13.4425 21.198 14.5447 21.041 15.5462 20.5525C15.5994 20.3705 15.674 20.1916 15.7909 20.0409C15.7716 20.0514 15.7512 20.0608 15.7309 20.0692L15.4762 20.1664C15.4882 20.0707 15.4987 19.974 15.5122 19.8782C15.5154 19.8557 15.519 19.8332 15.5237 19.8108C15.5446 19.7088 15.5848 19.613 15.6223 19.5168L15.6437 19.5131L15.6907 19.443L15.7038 19.4064C15.7721 19.3484 15.841 19.2898 15.9026 19.2239L15.9266 19.1925L15.9376 19.159L15.9652 19.137L15.8681 19.0821L15.8175 19.0408L15.6891 18.8509C15.1198 19.8233 14.0802 20.2826 13.0625 20.2794C11.4009 20.2444 11.6013 18.8948 13.0615 18.2436ZM11.0533 22.7866C10.7694 22.7735 10.4829 22.7735 10.2052 22.7703C10.1875 22.2912 10.1995 21.8278 10.2021 21.3617C10.9735 21.3617 11.7422 21.3648 12.5135 21.368C12.5313 21.3648 12.5459 21.3617 12.5636 21.3585C13.1664 21.3716 13.7963 21.3816 14.4111 21.3816C14.6355 21.3491 14.8693 21.3585 15.1057 21.3946C15.3484 21.3915 15.5931 21.3884 15.8358 21.3884C15.9657 21.4014 16.1108 21.3591 16.2554 21.3821C16.6661 21.3758 16.8023 21.369 17.1332 21.369C17.1687 21.3721 17.2042 21.379 17.2485 21.369C17.7422 21.3721 18.2537 21.392 18.7588 21.3528C18.7943 21.3722 19.0751 21.3497 19.1226 21.3465C19.8642 21.3465 19.8642 21.3465 20.3078 21.3565C20.3078 21.8162 20.3046 22.2792 20.3046 22.7421C19.1346 22.7651 17.9609 22.762 16.8054 22.7358C15.8421 22.7651 14.8813 22.7751 13.933 22.762C13.8855 22.7588 13.8386 22.7557 13.7911 22.7557C12.2416 22.7798 12.2416 22.7798 11.0533 22.7866ZM10.3112 23.1245H20.2154L18.7333 23.7302H11.7881L10.3112 23.1245ZM18.4984 25.0735V25.0421V24.0927H12.0616C12.0616 24.5666 12.0616 25.0395 12.0616 25.5134C12.2557 25.5908 12.4655 25.6813 12.6654 25.7367C12.6654 25.46 12.6654 25.1828 12.6654 24.9056C12.6654 24.7366 12.7922 24.598 12.9477 24.598C13.1027 24.598 13.2301 24.7366 13.2301 24.9056C13.2301 25.2335 13.2301 25.5615 13.2301 25.8895C13.4075 25.925 13.5844 25.9638 13.7618 25.9873C13.7618 25.6468 13.7618 25.3057 13.7618 24.9652C13.7618 24.7633 13.9137 24.5975 14.099 24.5975C14.2842 24.5975 14.4361 24.7628 14.4361 24.9652C14.4361 25.3313 14.4361 25.6975 14.4361 26.0642C14.5828 26.0746 14.7299 26.0825 14.8766 26.0872C14.8766 25.7132 14.8766 25.3392 14.8766 24.9652C14.8766 24.7633 15.0535 24.5975 15.2701 24.5975C15.4867 24.5975 15.6636 24.7628 15.6636 24.9652C15.6636 25.3366 15.6636 25.7074 15.6636 26.0788C15.8139 26.0731 15.9647 26.061 16.1155 26.049C16.1155 25.6876 16.1155 25.3261 16.1155 24.9652C16.1155 24.7633 16.2669 24.5975 16.4527 24.5975C16.6379 24.5975 16.7898 24.7628 16.7898 24.9652C16.7898 25.2973 16.7898 25.6295 16.7898 25.9617C16.963 25.9339 17.1368 25.8994 17.3101 25.8612C17.3101 25.5427 17.3101 25.2241 17.3101 24.905C17.3101 24.7361 17.4369 24.5975 17.5924 24.5975C17.7474 24.5975 17.8748 24.7361 17.8748 24.905C17.8748 25.1739 17.8748 25.4428 17.8748 25.7116C18.083 25.6452 18.2912 25.5694 18.4995 25.4898V25.0735H18.4984ZM11.8763 28.5248C12.0845 28.5797 12.2943 28.6294 12.5057 28.6738L12.9409 27.748L14.3239 27.9305L14.5306 28.9375C15.0024 28.9652 15.4741 28.9647 15.9459 28.9375L16.127 27.9321L17.5095 27.7443L17.9724 28.6691C18.4353 28.5776 18.8893 28.4515 19.336 28.2998L19.2499 27.2735L20.5358 26.7468L21.2237 27.5147C21.6443 27.2987 22.0508 27.0591 22.4464 26.7996L22.1035 25.8361L23.1995 24.9845L24.0569 25.5526C24.4087 25.233 24.7427 24.8956 25.06 24.541L24.4786 23.7009L25.3267 22.6019L26.2968 22.9294C26.5515 22.5292 26.7869 22.1154 27.0076 21.6949L26.2295 21.0363L26.7686 19.7485L27.7941 19.8092C27.9376 19.3583 28.0587 18.9006 28.1584 18.4377L27.2367 18.004L27.4215 16.61L28.4219 16.4045C28.4485 15.9337 28.4522 15.4619 28.424 14.9911L27.4152 14.8138L27.2388 13.4318L28.1568 12.9647C28.0561 12.4991 27.934 12.0393 27.7826 11.5874L26.7639 11.6852L26.252 10.3942L26.9982 9.71163C26.7806 9.28637 26.5416 8.8747 26.2801 8.47454L25.3303 8.82919L24.4771 7.71032L25.0433 6.85561C24.7244 6.50514 24.3915 6.16776 24.0408 5.85025L23.2078 6.43662L22.0952 5.58818L22.4193 4.61107C22.0247 4.35476 21.6182 4.11676 21.1991 3.90282L20.5473 4.67802L19.251 4.14762L19.3136 3.11401C18.8643 2.96179 18.4066 2.83939 17.9421 2.74367L17.51 3.67318L16.1343 3.48854L15.9287 2.4837C15.4543 2.45597 14.9794 2.4565 14.5055 2.48422L14.3281 3.49743L12.9409 3.68155L12.4832 2.75204C12.0198 2.84985 11.5637 2.97435 11.1149 3.12604L11.1989 4.13977L9.91874 4.68116L9.22777 3.90962C8.80609 4.12408 8.39903 4.36417 8.00501 4.62624L8.35415 5.58086L7.24881 6.44185L6.39658 5.8696C6.04432 6.18763 5.71084 6.5245 5.39301 6.87705L5.977 7.7166L5.12477 8.81925L4.1499 8.49128C3.8947 8.89144 3.65725 9.30258 3.44328 9.72628L4.22088 10.3838L3.687 11.6763L2.65941 11.6125C2.51225 12.0597 2.39169 12.5148 2.29306 12.9751L3.21939 13.415L3.03308 14.7991L2.02742 15.0094C2.00237 15.4828 2.00602 15.9556 2.03055 16.4285L3.03621 16.6069L3.21782 17.9936L2.29619 18.4555C2.39743 18.9189 2.5206 19.375 2.6662 19.8259L3.68334 19.7333L4.22296 21.0274L3.44328 21.7142C3.67029 22.1317 3.91245 22.5397 4.16921 22.9383L5.12686 22.5972L5.96656 23.702L5.40971 24.5614C5.72806 24.9113 6.06206 25.2461 6.41224 25.5631L7.24725 24.9788L8.3505 25.8382L8.02745 26.8096C8.4246 27.0669 8.83375 27.3018 9.25386 27.5184L9.90987 26.7411L11.1947 27.2777L11.1378 28.3035C11.3831 28.3861 11.6289 28.4588 11.8763 28.5248Z" fill="white"/>
<path fill-rule="evenodd" clip-rule="evenodd" d="M81.1357 19.893L87.4286 2.20029H94.4953L100.669 19.893H93.8445L93.2767 17.6694H88.49L87.9468 19.893H81.1357ZM89.5526 13.4622H92.1907L91.6516 11.4573C91.3844 10.4425 91.2028 9.6589 91.1083 9.11019C91.0097 8.56566 90.9523 8.0499 90.9272 7.5671H90.8202C90.7957 8.0499 90.7336 8.56566 90.6391 9.11019C90.5405 9.6589 90.3594 10.4425 90.0959 11.4573L89.5526 13.4622Z" fill="#FEFEFE"/>
<path fill-rule="evenodd" clip-rule="evenodd" d="M50.0576 19.893V2.20029H58.0424C60.3553 2.20029 62.125 2.71186 63.3472 3.73501C64.5695 4.75815 65.179 6.23481 65.179 8.15713C65.179 9.41514 64.8701 10.4508 64.2569 11.2632C63.6395 12.0797 62.8123 12.5547 61.7665 12.6907L66.479 19.8935H59.3669L56.28 14.0564V19.8935H50.0576V19.893ZM56.2805 6.75475V10.2118H57.2684C57.8733 10.2118 58.3346 10.0632 58.6592 9.77031C58.9843 9.47739 59.1487 9.05683 59.1487 8.50812C59.1487 7.94319 58.9843 7.51008 58.6592 7.20879C58.3341 6.90802 57.8733 6.75528 57.2684 6.75528C57.2684 6.75475 56.2805 6.75475 56.2805 6.75475Z" fill="#FEFEFE"/>
<path fill-rule="evenodd" clip-rule="evenodd" d="M136.756 9.22268C136.176 8.66613 135.588 8.24975 134.983 7.97775C134.383 7.70156 133.746 7.56556 133.079 7.56556C132.043 7.56556 131.208 7.88726 130.579 8.52594C129.949 9.16462 129.633 10.0183 129.633 11.0817C129.633 12.12 129.933 12.9491 130.538 13.5674C131.138 14.1899 131.949 14.499 132.96 14.499C133.569 14.499 134.19 14.3672 134.819 14.1072C135.453 13.8436 136.139 13.4314 136.888 12.8581L136.682 19.5112C135.992 19.7915 135.301 20.006 134.61 20.1457C133.919 20.2858 133.228 20.3559 132.537 20.3559C131.677 20.3559 130.851 20.2613 130.057 20.0677C129.26 19.8742 128.544 19.598 127.898 19.2433C126.34 18.3447 125.164 17.2028 124.366 15.8261C123.564 14.4493 123.165 12.8707 123.165 11.0817C123.165 9.7625 123.391 8.53849 123.848 7.40864C124.3 6.28349 124.962 5.29016 125.826 4.42865C126.702 3.55876 127.718 2.89916 128.869 2.45402C130.025 2.00469 131.271 1.78238 132.612 1.78238C133.327 1.78238 134.03 1.85666 134.725 2.00521C135.42 2.15377 136.099 2.37608 136.757 2.67685C136.756 2.67685 136.756 9.22268 136.756 9.22268Z" fill="#FEFEFE"/>
<path fill-rule="evenodd" clip-rule="evenodd" d="M108.338 18.3775L110.361 13.427C111.27 14.0621 112.076 14.5276 112.788 14.8205C113.499 15.1134 114.166 15.2615 114.782 15.2615C115.218 15.2615 115.56 15.1788 115.806 15.0141C116.056 14.8488 116.18 14.6265 116.18 14.3419C116.18 13.8513 115.559 13.4762 114.313 13.2209C113.91 13.1299 113.597 13.064 113.371 13.0148C112.055 12.6932 111.048 12.1204 110.349 11.3002C109.649 10.48 109.3 9.45737 109.3 8.23336C109.3 6.33301 109.979 4.7873 111.336 3.59625C112.693 2.40519 114.474 1.80731 116.674 1.80731C117.69 1.80731 118.685 1.93913 119.664 2.20747C120.643 2.4711 121.634 2.87492 122.629 3.41526L120.7 8.04035C120.091 7.59102 119.478 7.24474 118.862 7.00569C118.249 6.77083 117.652 6.65104 117.073 6.65104C116.633 6.65104 116.291 6.72532 116.049 6.87388C115.806 7.02243 115.687 7.23219 115.687 7.49634C115.687 7.99484 116.567 8.43579 118.327 8.81084C118.607 8.87675 118.825 8.92644 118.977 8.9594C120.19 9.2314 121.144 9.79214 121.844 10.6369C122.542 11.4822 122.892 12.5043 122.892 13.7037C122.892 15.6575 122.189 17.257 120.778 18.4978C119.368 19.7385 117.534 20.3568 115.276 20.3568C114.12 20.3568 112.965 20.192 111.809 19.8625C110.649 19.5314 109.493 19.0366 108.338 18.3775Z" fill="#FEFEFE"/>
<path fill-rule="evenodd" clip-rule="evenodd" d="M106.5 9.35251H101.238V12.7144H106.5V9.35251Z" fill="#FEFEFE"/>
<path fill-rule="evenodd" clip-rule="evenodd" d="M47.5695 9.22102C46.9892 8.66394 46.4005 8.24757 45.7957 7.97557C45.195 7.69886 44.5567 7.56286 43.8903 7.56286C42.8533 7.56286 42.0178 7.88455 41.3879 8.52428C40.758 9.16349 40.4412 10.0177 40.4412 11.0816C40.4412 12.121 40.7413 12.9501 41.3467 13.5689C41.9474 14.1919 42.7584 14.501 43.7708 14.501C44.3798 14.501 45.0014 14.3692 45.6308 14.1092C46.2649 13.8451 46.9522 13.4329 47.7011 12.8591L47.4954 19.5174C46.804 19.7977 46.1125 20.0122 45.421 20.1524C44.7295 20.2926 44.038 20.3626 43.3465 20.3626C42.4865 20.3626 41.6593 20.268 40.865 20.0739C40.0665 19.8798 39.3505 19.6037 38.7044 19.2485C37.1445 18.3493 35.9672 17.2069 35.1687 15.8286C34.366 14.4508 33.9668 12.8711 33.9668 11.0806C33.9668 9.76032 34.1933 8.53527 34.6499 7.40489C35.1029 6.27869 35.7652 5.28432 36.6299 4.42228C37.5067 3.55187 38.5233 2.89174 39.6756 2.4466C40.8321 1.99675 42.0794 1.77444 43.4211 1.77444C44.1372 1.77444 44.8412 1.84872 45.5368 1.99728C46.2325 2.14583 46.9115 2.36866 47.5701 2.66944L47.5695 9.22102Z" fill="#FEFEFE"/>
<path fill-rule="evenodd" clip-rule="evenodd" d="M67.7344 19.893V2.20029H79.5382V6.99799H73.9572V8.70166H79.0195V13.2352H73.9572V15.0958H79.6822V19.893H67.7344Z" fill="#FEFEFE"/>
<path fill-rule="evenodd" clip-rule="evenodd" d="M50.4064 25.9893C50.1987 25.9893 50.0066 25.9584 49.8302 25.8967C49.6544 25.8355 49.503 25.7434 49.3767 25.6221C49.2504 25.5002 49.1523 25.348 49.0824 25.1665C49.013 24.9839 48.9785 24.7737 48.9785 24.5351C48.9785 24.3133 49.0119 24.1114 49.0777 23.9304C49.1445 23.7495 49.241 23.5941 49.3673 23.4649C49.4894 23.3409 49.6397 23.2447 49.8198 23.1767C49.9993 23.1087 50.1955 23.0752 50.409 23.0752C50.5269 23.0752 50.6329 23.0815 50.7279 23.0946C50.8223 23.1082 50.91 23.1254 50.9904 23.1463C51.0739 23.1699 51.15 23.1971 51.2179 23.2269C51.2868 23.2557 51.3463 23.2834 51.3974 23.3085V23.989H51.315C51.2805 23.9587 51.2362 23.9231 51.1829 23.8818C51.1297 23.84 51.0692 23.7997 51.0013 23.7589C50.9329 23.7191 50.8578 23.6846 50.7774 23.6574C50.6971 23.6297 50.612 23.6161 50.5201 23.6161C50.4189 23.6161 50.3224 23.6312 50.2305 23.6637C50.1386 23.6961 50.0546 23.7495 49.9763 23.8232C49.9028 23.8944 49.8427 23.9901 49.7973 24.1072C49.7509 24.2255 49.7284 24.3683 49.7284 24.5367C49.7284 24.713 49.753 24.8594 49.802 24.9777C49.8521 25.0953 49.9142 25.1885 49.9894 25.2559C50.0656 25.3255 50.1512 25.3741 50.2446 25.404C50.3391 25.4338 50.4314 25.4484 50.5233 25.4484C50.6109 25.4484 50.6976 25.4354 50.7837 25.4092C50.8698 25.383 50.9486 25.3469 51.0211 25.3014C51.0827 25.2648 51.1396 25.2256 51.1923 25.1843C51.245 25.1429 51.2878 25.1069 51.3217 25.0765H51.3969V25.7471C51.327 25.7785 51.2596 25.8083 51.196 25.836C51.1318 25.8638 51.065 25.8873 50.9945 25.9072C50.9032 25.9333 50.8176 25.9537 50.7372 25.9678C50.6574 25.982 50.5468 25.9893 50.4064 25.9893ZM54.0475 24.8772C54.0475 25.2251 53.9468 25.4997 53.7438 25.7C53.5418 25.9004 53.2574 26.0008 52.8916 26.0008C52.5252 26.0008 52.2408 25.9004 52.0388 25.7C51.8368 25.4997 51.7351 25.2256 51.7351 24.8772C51.7351 24.5273 51.8368 24.2521 52.0404 24.0518C52.2439 23.8525 52.5273 23.7521 52.891 23.7521C53.2595 23.7521 53.5444 23.853 53.7448 24.0534C53.9473 24.2558 54.0475 24.5294 54.0475 24.8772ZM53.2146 25.3919C53.259 25.3381 53.2913 25.2727 53.3132 25.1968C53.3352 25.121 53.3466 25.0153 53.3466 24.8814C53.3466 24.7574 53.3352 24.6528 53.3127 24.5686C53.2903 24.4844 53.259 24.4174 53.2188 24.3667C53.1791 24.3154 53.1306 24.2793 53.0742 24.2579C53.0178 24.2359 52.9568 24.226 52.8921 24.226C52.8268 24.226 52.7689 24.2344 52.7183 24.2521C52.6666 24.2694 52.6186 24.305 52.5727 24.3578C52.5309 24.4065 52.4981 24.4739 52.4741 24.5592C52.4495 24.645 52.4375 24.7522 52.4375 24.8814C52.4375 24.997 52.448 25.0974 52.4694 25.1822C52.4913 25.2664 52.5221 25.3344 52.5633 25.3862C52.603 25.4359 52.6515 25.4709 52.7068 25.4939C52.7626 25.517 52.8263 25.5279 52.8973 25.5279C52.9589 25.5279 53.0173 25.5175 53.0732 25.4971C53.1285 25.4762 53.1765 25.4406 53.2146 25.3919ZM56.6533 25.9344H55.9727V24.8851C55.9727 24.7993 55.968 24.7145 55.9597 24.6298C55.9508 24.5451 55.9357 24.4823 55.9143 24.4425C55.8892 24.3955 55.8527 24.362 55.8047 24.3405C55.7567 24.3191 55.6893 24.3086 55.6027 24.3086C55.5411 24.3086 55.479 24.3186 55.4159 24.339C55.3522 24.3589 55.2838 24.3913 55.2097 24.4347V25.9344H54.5329V23.8185H55.2097V24.0518C55.3298 23.9582 55.4451 23.8855 55.5563 23.8352C55.6674 23.785 55.7906 23.7599 55.9257 23.7599C56.1533 23.7599 56.3318 23.8269 56.4602 23.9597C56.5891 24.0926 56.6533 24.2914 56.6533 24.5566V25.9344ZM59.1092 25.2638C59.1092 25.4824 59.0116 25.6587 58.8159 25.7926C58.6207 25.9265 58.3535 25.9935 58.0133 25.9935C57.8254 25.9935 57.6553 25.9757 57.5029 25.9406C57.3494 25.9051 57.2268 25.8664 57.1339 25.8235V25.2659H57.196C57.2299 25.2894 57.2691 25.3161 57.3134 25.3443C57.3578 25.3721 57.4209 25.4029 57.5029 25.4359C57.5728 25.4646 57.6521 25.4892 57.7414 25.5096C57.8301 25.5311 57.9256 25.5415 58.0268 25.5415C58.1594 25.5415 58.2575 25.5269 58.3222 25.4971C58.3859 25.4678 58.4177 25.4238 58.4177 25.3658C58.4177 25.3145 58.3995 25.2769 58.3614 25.2538C58.3243 25.2308 58.2523 25.2083 58.1469 25.1869C58.0968 25.1754 58.0289 25.1633 57.9433 25.1503C57.8572 25.1367 57.7789 25.1205 57.709 25.1021C57.5175 25.0519 57.375 24.9735 57.2826 24.8673C57.1897 24.7611 57.1433 24.6293 57.1433 24.4713C57.1433 24.2673 57.2398 24.0984 57.4324 23.9634C57.6239 23.8284 57.887 23.761 58.221 23.761C58.3786 23.761 58.5299 23.7772 58.6745 23.8091C58.8196 23.841 58.9323 23.875 59.0137 23.9121V24.4473H58.9553C58.8551 24.3777 58.7408 24.3217 58.6129 24.2783C58.484 24.2354 58.354 24.2134 58.2225 24.2134C58.1135 24.2134 58.0216 24.2291 57.9465 24.2589C57.8718 24.2888 57.8348 24.3316 57.8348 24.3871C57.8348 24.4373 57.8515 24.475 57.8854 24.5022C57.9193 24.5283 57.9987 24.555 58.1239 24.5812C58.1933 24.5948 58.2669 24.6084 58.3467 24.622C58.4261 24.635 58.5064 24.6518 58.5868 24.6717C58.7648 24.7182 58.8958 24.7914 58.9813 24.8908C59.0664 24.9897 59.1092 25.1147 59.1092 25.2638ZM61.6377 25.0022H60.0888C60.0987 25.1681 60.1618 25.2952 60.2782 25.383C60.3936 25.4704 60.5642 25.5149 60.7902 25.5149C60.9332 25.5149 61.0715 25.4892 61.2056 25.4374C61.3397 25.3857 61.4457 25.3307 61.5239 25.2716H61.5991V25.8156C61.4457 25.8774 61.3021 25.9218 61.167 25.9495C61.0318 25.9773 60.882 25.9914 60.7176 25.9914C60.2944 25.9914 59.9698 25.8957 59.7438 25.7053C59.5189 25.5143 59.4056 25.2423 59.4056 24.8893C59.4056 24.5398 59.5121 24.2631 59.7255 24.0586C59.939 23.8546 60.2323 23.7526 60.6044 23.7526C60.9478 23.7526 61.2056 23.84 61.3789 24.0136C61.5521 24.1878 61.6382 24.4384 61.6382 24.7648L61.6377 25.0022ZM60.9645 24.6047C60.9614 24.4624 60.9259 24.3557 60.8591 24.2846C60.7928 24.2124 60.69 24.1773 60.5491 24.1773C60.4186 24.1773 60.3116 24.2108 60.2276 24.2788C60.1436 24.3463 60.0966 24.4551 60.0867 24.6047H60.9645ZM62.7921 25.9344H62.1152V23.0025H62.7921V25.9344ZM65.5513 25.9344H64.8707V24.8851C64.8707 24.7993 64.866 24.7145 64.8577 24.6298C64.8488 24.5451 64.8337 24.4823 64.8123 24.4425C64.7872 24.3955 64.7507 24.362 64.7027 24.3405C64.6547 24.3191 64.5874 24.3086 64.5007 24.3086C64.4391 24.3086 64.377 24.3186 64.3139 24.339C64.2502 24.3589 64.1819 24.3913 64.1078 24.4347V25.9344H63.4309V23.0025H64.1078V24.0518C64.2278 23.9582 64.3431 23.8855 64.4543 23.8352C64.5654 23.785 64.6886 23.7599 64.8238 23.7599C65.0513 23.7599 65.2298 23.8269 65.3582 23.9597C65.4871 24.0926 65.5513 24.2914 65.5513 24.5566V25.9344ZM68.3313 24.8772C68.3313 25.2251 68.2306 25.4997 68.0276 25.7C67.8256 25.9004 67.5412 26.0008 67.1754 26.0008C66.809 26.0008 66.5246 25.9004 66.3226 25.7C66.1206 25.4997 66.0189 25.2256 66.0189 24.8772C66.0189 24.5273 66.1212 24.2521 66.3242 24.0518C66.5277 23.8525 66.8111 23.7521 67.1748 23.7521C67.5433 23.7521 67.8282 23.853 68.0286 24.0534C68.2311 24.2558 68.3313 24.5294 68.3313 24.8772ZM67.4984 25.3919C67.5428 25.3381 67.5756 25.2727 67.597 25.1968C67.619 25.121 67.6304 25.0153 67.6304 24.8814C67.6304 24.7574 67.619 24.6528 67.5965 24.5686C67.5741 24.4844 67.5428 24.4174 67.502 24.3667C67.4624 24.3154 67.4139 24.2793 67.3575 24.2579C67.3011 24.2359 67.2401 24.226 67.1754 24.226C67.1101 24.226 67.0522 24.2344 67.0016 24.2521C66.9499 24.2694 66.9024 24.305 66.856 24.3578C66.8142 24.4065 66.7813 24.4739 66.7573 24.5592C66.7328 24.645 66.7208 24.7522 66.7208 24.8814C66.7208 24.997 66.7312 25.0974 66.7521 25.1822C66.774 25.2664 66.8048 25.3344 66.8466 25.3862C66.8862 25.4359 66.9348 25.4709 66.9901 25.4939C67.0459 25.517 67.1096 25.5279 67.1806 25.5279C67.2422 25.5279 67.3006 25.5175 67.3564 25.4971C67.4123 25.4762 67.4598 25.4406 67.4984 25.3919ZM71.7392 23.9885C71.7392 23.9179 71.7246 23.8572 71.6964 23.807C71.6677 23.7568 71.6176 23.7176 71.5471 23.6888C71.4986 23.6689 71.4412 23.6569 71.3765 23.6522C71.3107 23.6475 71.2356 23.6448 71.1489 23.6448H70.888V24.4007H71.1093C71.2246 24.4007 71.3217 24.3949 71.3994 24.384C71.4772 24.3724 71.5419 24.3468 71.5946 24.3071C71.6447 24.2678 71.6818 24.2244 71.7053 24.1779C71.7277 24.1308 71.7392 24.0675 71.7392 23.9885ZM72.8654 25.9344H71.9839L71.2204 24.9055H70.888V25.9344H70.1699V23.1291H71.3801C71.5456 23.1291 71.688 23.138 71.807 23.1573C71.9265 23.1762 72.0382 23.2164 72.1421 23.2792C72.2475 23.3425 72.3305 23.4236 72.3931 23.523C72.4552 23.6234 72.486 23.7484 72.486 23.8991C72.486 24.1062 72.438 24.2752 72.3425 24.4059C72.2459 24.5367 72.1092 24.645 71.9318 24.7318L72.8654 25.9344ZM75.2217 25.0022H73.6727C73.6826 25.1681 73.7458 25.2952 73.8622 25.383C73.9775 25.4704 74.1482 25.5149 74.3741 25.5149C74.5171 25.5149 74.6554 25.4892 74.7896 25.4374C74.9237 25.3857 75.0296 25.3307 75.1079 25.2716H75.183V25.8156C75.0296 25.8774 74.8861 25.9218 74.7504 25.9495C74.6153 25.9773 74.4655 25.9914 74.3011 25.9914C73.8778 25.9914 73.5527 25.8957 73.3273 25.7053C73.1023 25.5143 72.9891 25.2423 72.9891 24.8893C72.9891 24.5398 73.0955 24.2631 73.309 24.0586C73.523 23.8546 73.8157 23.7526 74.1884 23.7526C74.5312 23.7526 74.7896 23.84 74.9628 24.0136C75.1361 24.1878 75.2222 24.4384 75.2222 24.7648V25.0022H75.2217ZM74.549 24.6047C74.5458 24.4624 74.5103 24.3557 74.4441 24.2846C74.3778 24.2124 74.2745 24.1773 74.1341 24.1773C74.0036 24.1773 73.8966 24.2108 73.8126 24.2788C73.7286 24.3463 73.6816 24.4551 73.6712 24.6047H74.549ZM77.7517 25.6917C77.7517 25.8904 77.7236 26.0568 77.6667 26.1928C77.6108 26.3283 77.5315 26.4344 77.4297 26.5113C77.3285 26.5898 77.2058 26.6458 77.0629 26.6803C76.9193 26.7143 76.757 26.7315 76.5765 26.7315C76.4303 26.7315 76.2858 26.7232 76.1433 26.7054C76.0008 26.6881 75.8777 26.6667 75.7738 26.6416V26.1117H75.8568C75.9398 26.1446 76.0405 26.175 76.1595 26.2017C76.278 26.2289 76.3844 26.2419 76.4789 26.2419C76.6041 26.2419 76.7059 26.2299 76.7842 26.2069C76.8625 26.1834 76.9225 26.1509 76.9637 26.1086C77.0023 26.0683 77.0305 26.0165 77.0482 25.9537C77.0655 25.8915 77.0743 25.8156 77.0743 25.7278V25.688C76.9929 25.755 76.9021 25.8078 76.8035 25.846C76.7043 25.8852 76.5942 25.9046 76.4726 25.9046C76.1767 25.9046 75.9492 25.8151 75.789 25.6373C75.6287 25.4589 75.5484 25.1874 75.5484 24.8233C75.5484 24.6492 75.5729 24.4985 75.6214 24.3714C75.6705 24.2448 75.7394 24.1339 75.8281 24.0403C75.9111 23.9524 76.0128 23.8839 76.1334 23.8347C76.255 23.7856 76.3787 23.7615 76.505 23.7615C76.6193 23.7615 76.7226 23.7751 76.816 23.8023C76.9089 23.829 76.994 23.8666 77.0707 23.9142L77.0952 23.8206H77.7512L77.7517 25.6917ZM77.0754 25.268V24.3092C77.0362 24.2924 76.9887 24.2799 76.9324 24.2704C76.876 24.261 76.8254 24.2563 76.7805 24.2563C76.602 24.2563 76.469 24.3071 76.3802 24.4096C76.291 24.5126 76.2466 24.6554 76.2466 24.8385C76.2466 25.0415 76.2847 25.1837 76.3604 25.2643C76.4361 25.3449 76.5483 25.3851 76.6981 25.3851C76.7654 25.3851 76.8322 25.3742 76.8969 25.3527C76.9621 25.3313 77.0216 25.303 77.0754 25.268ZM79.0679 25.9344H78.391V23.8185H79.0679V25.9344ZM79.0862 23.5172H78.3722V23.0025H79.0862V23.5172ZM81.8647 24.8772C81.8647 25.2251 81.7639 25.4997 81.5609 25.7C81.359 25.9004 81.0745 26.0008 80.7087 26.0008C80.3423 26.0008 80.0579 25.9004 79.8559 25.7C79.654 25.4997 79.5522 25.2256 79.5522 24.8772C79.5522 24.5273 79.654 24.2521 79.8575 24.0518C80.061 23.8525 80.3444 23.7521 80.7082 23.7521C81.0766 23.7521 81.3616 23.853 81.562 24.0534C81.7644 24.2558 81.8647 24.5294 81.8647 24.8772ZM81.0317 25.3919C81.0761 25.3381 81.1085 25.2727 81.1304 25.1968C81.1523 25.121 81.1638 25.0153 81.1638 24.8814C81.1638 24.7574 81.1523 24.6528 81.1299 24.5686C81.1074 24.4844 81.0761 24.4174 81.0359 24.3667C80.9963 24.3154 80.9477 24.2793 80.8914 24.2579C80.835 24.2359 80.7739 24.226 80.7092 24.226C80.644 24.226 80.5861 24.2344 80.5354 24.2521C80.4843 24.2694 80.4357 24.305 80.3898 24.3578C80.3481 24.4065 80.3152 24.4739 80.2912 24.5592C80.2667 24.645 80.2547 24.7522 80.2547 24.8814C80.2547 24.997 80.2651 25.0974 80.2865 25.1822C80.3084 25.2664 80.3392 25.3344 80.3804 25.3862C80.4201 25.4359 80.4686 25.4709 80.5239 25.4939C80.5798 25.517 80.6435 25.5279 80.7144 25.5279C80.776 25.5279 80.8345 25.5175 80.8903 25.4971C80.9456 25.4762 80.9931 25.4406 81.0317 25.3919ZM84.4699 25.9344H83.7893V24.8851C83.7893 24.7993 83.7846 24.7145 83.7763 24.6298C83.7674 24.5451 83.7528 24.4823 83.7309 24.4425C83.7058 24.3955 83.6693 24.362 83.6213 24.3405C83.5733 24.3191 83.506 24.3086 83.4193 24.3086C83.3577 24.3086 83.2956 24.3186 83.2325 24.339C83.1688 24.3589 83.1005 24.3913 83.0264 24.4347V25.9344H82.3495V23.8185H83.0264V24.0518C83.1464 23.9582 83.2617 23.8855 83.3729 23.8352C83.484 23.785 83.6067 23.7599 83.7424 23.7599C83.9699 23.7599 84.1484 23.8269 84.2768 23.9597C84.4057 24.0926 84.4699 24.2914 84.4699 24.5566V25.9344ZM86.37 25.383V24.9421C86.2787 24.9499 86.1795 24.9599 86.0731 24.9729C85.9666 24.9865 85.8857 25.0017 85.8304 25.0195C85.7631 25.0409 85.7109 25.0723 85.6759 25.1126C85.6399 25.1539 85.6222 25.2073 85.6222 25.2742C85.6222 25.3182 85.6258 25.3537 85.6337 25.3815C85.6415 25.4092 85.6597 25.4354 85.69 25.4605C85.7187 25.4856 85.7526 25.5039 85.7934 25.5159C85.833 25.5279 85.8962 25.5337 85.9812 25.5337C86.0486 25.5337 86.1174 25.5196 86.1874 25.4924C86.2563 25.4646 86.3173 25.428 86.37 25.383ZM86.37 25.71C86.334 25.7377 86.2886 25.7712 86.2349 25.8104C86.1811 25.8491 86.1305 25.88 86.0825 25.9025C86.0157 25.9328 85.9468 25.9553 85.8758 25.9694C85.8038 25.9841 85.726 25.9914 85.641 25.9914C85.44 25.9914 85.272 25.9291 85.1368 25.8046C85.0011 25.6802 84.9338 25.5211 84.9338 25.3281C84.9338 25.1733 84.9683 25.0472 85.0371 24.9494C85.1066 24.8511 85.2042 24.7737 85.3305 24.7172C85.4557 24.6612 85.6117 24.6204 85.797 24.5969C85.9823 24.5733 86.1748 24.555 86.3737 24.544V24.5325C86.3737 24.4159 86.3262 24.3348 86.2307 24.2909C86.1357 24.2464 85.9953 24.2239 85.8095 24.2239C85.6978 24.2239 85.5794 24.2438 85.4531 24.283C85.3263 24.3228 85.2355 24.3531 85.1801 24.3745H85.118V23.864C85.1895 23.8452 85.3059 23.8227 85.4672 23.7971C85.6279 23.7714 85.7892 23.7584 85.951 23.7584C86.3361 23.7584 86.6137 23.8175 86.7844 23.9367C86.9556 24.0555 87.0412 24.2417 87.0412 24.4954V25.9349H86.37V25.71ZM88.3401 25.9344H87.6632V23.0025H88.3401V25.9344ZM92.3476 25.9344H91.6713V25.7136C91.5544 25.8094 91.4453 25.8794 91.344 25.9244C91.2428 25.9705 91.1254 25.9924 90.9923 25.9924C90.7355 25.9924 90.5299 25.8936 90.3754 25.6948C90.2215 25.496 90.1448 25.2287 90.1448 24.8924C90.1448 24.713 90.1703 24.5534 90.2225 24.4143C90.2747 24.2752 90.3457 24.1564 90.4365 24.0576C90.5216 23.9639 90.6249 23.8902 90.7465 23.8384C90.8681 23.7866 90.9897 23.7599 91.1118 23.7599C91.2381 23.7599 91.3414 23.7735 91.4223 23.8007C91.5032 23.8274 91.5867 23.8619 91.6718 23.9038V23.003H92.3481C92.3476 23.003 92.3476 25.9344 92.3476 25.9344ZM91.6713 25.3506V24.3128C91.6233 24.2924 91.5731 24.2783 91.5204 24.2694C91.4677 24.2605 91.4197 24.2563 91.3759 24.2563C91.1974 24.2563 91.0643 24.3118 90.9756 24.4227C90.8864 24.5341 90.842 24.6884 90.842 24.8851C90.842 25.0922 90.8775 25.2423 90.9495 25.3365C91.0205 25.4296 91.1358 25.4767 91.2934 25.4767C91.3545 25.4767 91.4197 25.4652 91.4886 25.4421C91.558 25.4186 91.6186 25.3883 91.6713 25.3506ZM95.0656 25.0022H93.5166C93.5265 25.1681 93.5897 25.2952 93.7061 25.383C93.8214 25.4704 93.9921 25.5149 94.218 25.5149C94.361 25.5149 94.4993 25.4892 94.6334 25.4374C94.7676 25.3857 94.8735 25.3307 94.9518 25.2716H95.0269V25.8156C94.8735 25.8774 94.73 25.9218 94.5943 25.9495C94.4591 25.9773 94.3094 25.9914 94.145 25.9914C93.7217 25.9914 93.3966 25.8957 93.1711 25.7053C92.9462 25.5143 92.833 25.2423 92.833 24.8893C92.833 24.5398 92.9394 24.2631 93.1529 24.0586C93.3668 23.8546 93.6596 23.7526 94.0322 23.7526C94.3751 23.7526 94.6334 23.84 94.8067 24.0136C94.98 24.1878 95.0661 24.4384 95.0661 24.7648V25.0022H95.0656ZM94.3923 24.6047C94.3892 24.4624 94.3537 24.3557 94.2869 24.2846C94.2206 24.2124 94.1173 24.1773 93.9769 24.1773C93.8465 24.1773 93.7395 24.2108 93.6554 24.2788C93.5714 24.3463 93.5244 24.4551 93.514 24.6047H94.3923ZM98.9212 25.9344H96.8968V23.1291H98.9212V23.671H97.6149V24.1554H98.8267V24.6978H97.6149V25.3914H98.9212V25.9344ZM101.609 25.9344H100.929V24.8851C100.929 24.7993 100.924 24.7145 100.916 24.6298C100.906 24.5451 100.892 24.4823 100.87 24.4425C100.845 24.3955 100.809 24.362 100.761 24.3405C100.713 24.3191 100.645 24.3086 100.559 24.3086C100.497 24.3086 100.435 24.3186 100.372 24.339C100.308 24.3589 100.24 24.3913 100.166 24.4347V25.9344H99.4895V23.8185H100.166V24.0518C100.286 23.9582 100.402 23.8855 100.513 23.8352C100.624 23.785 100.747 23.7599 100.882 23.7599C101.11 23.7599 101.288 23.8269 101.417 23.9597C101.546 24.0926 101.61 24.2914 101.61 24.5566L101.609 25.9344ZM104.283 25.6917C104.283 25.8904 104.255 26.0568 104.199 26.1928C104.143 26.3283 104.064 26.4344 103.962 26.5113C103.861 26.5898 103.738 26.6458 103.595 26.6803C103.452 26.7143 103.289 26.7315 103.109 26.7315C102.963 26.7315 102.818 26.7232 102.676 26.7054C102.533 26.6881 102.41 26.6667 102.306 26.6416V26.1117H102.389C102.472 26.1446 102.572 26.175 102.691 26.2017C102.81 26.2289 102.916 26.2419 103.011 26.2419C103.136 26.2419 103.238 26.2299 103.316 26.2069C103.394 26.1834 103.454 26.1509 103.495 26.1086C103.534 26.0683 103.562 26.0165 103.58 25.9537C103.597 25.8915 103.606 25.8156 103.606 25.7278V25.688C103.525 25.755 103.434 25.8078 103.335 25.846C103.236 25.8852 103.126 25.9046 103.004 25.9046C102.708 25.9046 102.481 25.8151 102.321 25.6373C102.16 25.4589 102.08 25.1874 102.08 24.8233C102.08 24.6492 102.105 24.4985 102.153 24.3714C102.202 24.2448 102.271 24.1339 102.36 24.0403C102.443 23.9524 102.545 23.8839 102.665 23.8347C102.787 23.7856 102.91 23.7615 103.037 23.7615C103.151 23.7615 103.254 23.7751 103.348 23.8023C103.441 23.829 103.526 23.8666 103.602 23.9142L103.627 23.8206H104.283L104.283 25.6917ZM103.607 25.268V24.3092C103.568 24.2924 103.521 24.2799 103.464 24.2704C103.408 24.261 103.357 24.2563 103.312 24.2563C103.134 24.2563 103.001 24.3071 102.912 24.4096C102.823 24.5126 102.778 24.6554 102.778 24.8385C102.778 25.0415 102.816 25.1837 102.892 25.2643C102.968 25.3449 103.08 25.3851 103.23 25.3851C103.297 25.3851 103.364 25.3742 103.429 25.3527C103.494 25.3313 103.553 25.303 103.607 25.268ZM107.001 25.0022H105.452C105.463 25.1681 105.526 25.2952 105.642 25.383C105.758 25.4704 105.928 25.5149 106.154 25.5149C106.297 25.5149 106.435 25.4892 106.569 25.4374C106.703 25.3857 106.809 25.3307 106.887 25.2716H106.962V25.8156C106.809 25.8774 106.665 25.9218 106.53 25.9495C106.395 25.9773 106.245 25.9914 106.081 25.9914C105.658 25.9914 105.333 25.8957 105.107 25.7053C104.882 25.5143 104.769 25.2423 104.769 24.8893C104.769 24.5398 104.875 24.2631 105.089 24.0586C105.303 23.8546 105.595 23.7526 105.968 23.7526C106.311 23.7526 106.569 23.84 106.742 24.0136C106.915 24.1878 107.001 24.4384 107.001 24.7648V25.0022ZM106.328 24.6047C106.325 24.4624 106.29 24.3557 106.223 24.2846C106.157 24.2124 106.054 24.1773 105.913 24.1773C105.782 24.1773 105.675 24.2108 105.591 24.2788C105.507 24.3463 105.46 24.4551 105.45 24.6047H106.328ZM109.599 25.9344H108.919V24.8851C108.919 24.7993 108.914 24.7145 108.906 24.6298C108.897 24.5451 108.882 24.4823 108.86 24.4425C108.835 24.3955 108.799 24.362 108.751 24.3405C108.703 24.3191 108.635 24.3086 108.549 24.3086C108.487 24.3086 108.425 24.3186 108.362 24.339C108.298 24.3589 108.23 24.3913 108.156 24.4347V25.9344H107.479V23.8185H108.156V24.0518C108.276 23.9582 108.391 23.8855 108.502 23.8352C108.614 23.785 108.737 23.7599 108.872 23.7599C109.099 23.7599 109.278 23.8269 109.406 23.9597C109.535 24.0926 109.599 24.2914 109.599 24.5566V25.9344ZM112.341 25.9344H111.661V24.8851C111.661 24.7993 111.656 24.7145 111.648 24.6298C111.639 24.5451 111.624 24.4823 111.602 24.4425C111.577 24.3955 111.541 24.362 111.493 24.3405C111.445 24.3191 111.377 24.3086 111.291 24.3086C111.229 24.3086 111.167 24.3186 111.104 24.339C111.04 24.3589 110.972 24.3913 110.898 24.4347V25.9344H110.221V23.0025H110.898V24.0518C111.018 23.9582 111.133 23.8855 111.244 23.8352C111.355 23.785 111.479 23.7599 111.614 23.7599C111.841 23.7599 112.02 23.8269 112.148 23.9597C112.277 24.0926 112.341 24.2914 112.341 24.5566V25.9344ZM114.241 25.383V24.9421C114.15 24.9499 114.051 24.9599 113.944 24.9729C113.838 24.9865 113.757 25.0017 113.702 25.0195C113.634 25.0409 113.582 25.0723 113.547 25.1126C113.511 25.1539 113.494 25.2073 113.494 25.2742C113.494 25.3182 113.497 25.3537 113.505 25.3815C113.513 25.4092 113.531 25.4354 113.561 25.4605C113.59 25.4856 113.624 25.5039 113.665 25.5159C113.704 25.5279 113.768 25.5337 113.853 25.5337C113.92 25.5337 113.989 25.5196 114.059 25.4924C114.128 25.4646 114.189 25.428 114.241 25.383ZM114.241 25.71C114.205 25.7377 114.16 25.7712 114.106 25.8104C114.053 25.8491 114.002 25.88 113.954 25.9025C113.888 25.9328 113.819 25.9553 113.748 25.9694C113.676 25.9841 113.597 25.9914 113.513 25.9914C113.312 25.9914 113.144 25.9291 113.009 25.8046C112.874 25.6802 112.806 25.5211 112.806 25.3281C112.806 25.1733 112.84 25.0472 112.909 24.9494C112.979 24.8511 113.076 24.7737 113.202 24.7172C113.328 24.6612 113.483 24.6204 113.669 24.5969C113.854 24.5733 114.047 24.555 114.246 24.544V24.5325C114.246 24.4159 114.198 24.3348 114.103 24.2909C114.008 24.2464 113.867 24.2239 113.681 24.2239C113.57 24.2239 113.451 24.2438 113.325 24.283C113.198 24.3228 113.107 24.3531 113.053 24.3745H112.991V23.864C113.062 23.8452 113.178 23.8227 113.34 23.7971C113.5 23.7714 113.662 23.7584 113.823 23.7584C114.209 23.7584 114.486 23.8175 114.657 23.9367C114.828 24.0555 114.914 24.2417 114.914 24.4954V25.9349H114.242L114.241 25.71ZM117.065 24.465H117.004C116.976 24.4546 116.929 24.4473 116.865 24.4425C116.801 24.4373 116.748 24.4347 116.705 24.4347C116.609 24.4347 116.524 24.441 116.45 24.4535C116.376 24.4666 116.296 24.4875 116.211 24.5179V25.9344H115.534V23.8185H116.211V24.1292C116.36 24.0011 116.489 23.9163 116.6 23.874C116.71 23.8321 116.812 23.8112 116.905 23.8112C116.929 23.8112 116.955 23.8117 116.985 23.8133C117.016 23.8143 117.042 23.8164 117.064 23.819C117.065 23.819 117.065 24.465 117.065 24.465ZM118.125 25.9344H117.448V23.8185H118.125V25.9344ZM118.144 23.5172H117.429V23.0025H118.144V23.5172ZM120.042 25.383V24.9421C119.951 24.9499 119.852 24.9599 119.745 24.9729C119.639 24.9865 119.558 25.0017 119.502 25.0195C119.435 25.0409 119.383 25.0723 119.348 25.1126C119.312 25.1539 119.294 25.2073 119.294 25.2742C119.294 25.3182 119.298 25.3537 119.306 25.3815C119.314 25.4092 119.332 25.4354 119.362 25.4605C119.391 25.4856 119.425 25.5039 119.465 25.5159C119.505 25.5279 119.568 25.5337 119.653 25.5337C119.721 25.5337 119.79 25.5196 119.859 25.4924C119.928 25.4646 119.989 25.428 120.042 25.383ZM120.042 25.71C120.006 25.7377 119.961 25.7712 119.907 25.8104C119.853 25.8491 119.803 25.88 119.755 25.9025C119.688 25.9328 119.619 25.9553 119.548 25.9694C119.476 25.9841 119.398 25.9914 119.314 25.9914C119.113 25.9914 118.945 25.9291 118.809 25.8046C118.674 25.6802 118.606 25.5211 118.606 25.3281C118.606 25.1733 118.641 25.0472 118.71 24.9494C118.779 24.8511 118.877 24.7737 119.003 24.7172C119.128 24.6612 119.284 24.6204 119.47 24.5969C119.655 24.5733 119.847 24.555 120.046 24.544V24.5325C120.046 24.4159 119.999 24.3348 119.903 24.2909C119.808 24.2464 119.668 24.2239 119.482 24.2239C119.37 24.2239 119.252 24.2438 119.126 24.283C118.999 24.3228 118.908 24.3531 118.853 24.3745H118.791V23.864C118.862 23.8452 118.979 23.8227 119.14 23.7971C119.3 23.7714 119.462 23.7584 119.624 23.7584C120.008 23.7584 120.286 23.8175 120.457 23.9367C120.628 24.0555 120.714 24.2417 120.714 24.4954V25.9349H120.043L120.042 25.71Z" fill="#FEFEFE"/>
<path fill-rule="evenodd" clip-rule="evenodd" d="M53.9328 29.6193H52.3839C52.3938 29.7851 52.4569 29.9117 52.5733 30.0001C52.6886 30.0874 52.8593 30.1319 53.0853 30.1319C53.2283 30.1319 53.3666 30.1063 53.5007 30.0545C53.6348 30.0022 53.7407 29.9478 53.819 29.8887H53.8942V30.4327C53.7407 30.4944 53.5972 30.5389 53.4615 30.5666C53.3264 30.5943 53.1766 30.6084 53.0122 30.6084C52.589 30.6084 52.2638 30.5127 52.0384 30.3223C51.8134 30.1314 51.7002 29.8594 51.7002 29.5063C51.7002 29.1569 51.8067 28.8807 52.0201 28.6756C52.2341 28.4716 52.5268 28.3696 52.8995 28.3696C53.2423 28.3696 53.5007 28.457 53.6739 28.6307C53.8472 28.8048 53.9333 29.0549 53.9333 29.3818V29.6193H53.9328ZM53.2601 29.2217C53.257 29.0795 53.2215 28.9727 53.1547 28.9016C53.0884 28.8294 52.9851 28.7939 52.8447 28.7939C52.7142 28.7939 52.6072 28.8273 52.5232 28.8953C52.4392 28.9628 52.3922 29.0716 52.3818 29.2212H53.2601V29.2217ZM58.3505 30.5519H57.6042L57.4106 29.9849H56.3731L56.1795 30.5519H55.452L56.4863 27.7466H57.3172L58.3505 30.5519ZM57.2358 29.4702L56.8913 28.4643L56.5474 29.4702H57.2358ZM60.7673 30.3087C60.7673 30.5075 60.7391 30.6738 60.6828 30.8098C60.6269 30.9458 60.5476 31.0515 60.4458 31.1284C60.3446 31.2068 60.2219 31.2628 60.0789 31.2973C59.9354 31.3313 59.7731 31.3486 59.5926 31.3486C59.4464 31.3486 59.3019 31.3402 59.1594 31.3224C59.0169 31.3052 58.8938 31.2837 58.7899 31.2586V30.7287H58.8729C58.9559 30.7617 59.0566 30.792 59.1756 30.8187C59.2946 30.8454 59.401 30.859 59.495 30.859C59.6202 30.859 59.722 30.8469 59.8003 30.8239C59.8785 30.8004 59.938 30.768 59.9798 30.7256C60.0184 30.6853 60.0466 30.6335 60.0643 30.5708C60.0821 30.5085 60.091 30.4327 60.091 30.3448V30.305C60.0095 30.372 59.9187 30.4248 59.8201 30.463C59.7209 30.5022 59.6108 30.5216 59.4892 30.5216C59.1933 30.5216 58.9658 30.4321 58.8056 30.2543C58.6454 30.0759 58.565 29.8044 58.565 29.4404C58.565 29.2662 58.5895 29.1156 58.638 28.9884C58.6866 28.8619 58.756 28.751 58.8447 28.6573C58.9272 28.5695 59.0294 28.5009 59.15 28.4518C59.2716 28.4026 59.3953 28.3785 59.5216 28.3785C59.6359 28.3785 59.7392 28.3921 59.8326 28.4188C59.9255 28.446 60.0111 28.4831 60.0873 28.5307L60.1118 28.4366H60.7673V30.3087ZM60.0915 29.885V28.9262C60.0523 28.9095 60.0048 28.8969 59.9485 28.8875C59.8921 28.8781 59.841 28.8734 59.7966 28.8734C59.6181 28.8734 59.485 28.9241 59.3963 29.0266C59.3071 29.1297 59.2627 29.2725 59.2627 29.4556C59.2627 29.6585 59.3008 29.8008 59.3765 29.8813C59.4522 29.9619 59.5644 30.0022 59.7142 30.0022C59.7815 30.0022 59.8483 29.9912 59.913 29.9703C59.9777 29.9488 60.0372 29.9206 60.0915 29.885ZM62.9368 29.0826H62.8762C62.8475 29.0721 62.8011 29.0648 62.7369 29.0601C62.6732 29.0549 62.62 29.0523 62.5772 29.0523C62.4806 29.0523 62.3956 29.0585 62.3215 29.0711C62.2479 29.0842 62.168 29.1051 62.083 29.1354V30.5519H61.4061V28.4361H62.083V28.7468C62.2317 28.6186 62.3616 28.5339 62.4718 28.4915C62.5824 28.4497 62.6836 28.4287 62.7765 28.4287C62.8005 28.4287 62.8272 28.4293 62.8574 28.4308C62.8877 28.4319 62.9138 28.434 62.9362 28.4366C62.9368 28.4361 62.9368 29.0826 62.9368 29.0826ZM65.4778 29.4948C65.4778 29.8426 65.377 30.1172 65.174 30.3176C64.9721 30.5179 64.6877 30.6184 64.3218 30.6184C63.9555 30.6184 63.671 30.5179 63.4691 30.3176C63.2671 30.1172 63.1653 29.8432 63.1653 29.4948C63.1653 29.1448 63.2676 28.8697 63.4706 28.6699C63.6742 28.4706 63.9575 28.3702 64.3213 28.3702C64.6897 28.3702 64.9747 28.4711 65.1751 28.6715C65.3776 28.8728 65.4778 29.1469 65.4778 29.4948ZM64.6449 30.009C64.6892 29.9551 64.7221 29.8902 64.7435 29.8144C64.7654 29.7385 64.7769 29.6329 64.7769 29.4984C64.7769 29.3745 64.7654 29.2699 64.743 29.1856C64.7205 29.1014 64.6892 29.0345 64.6485 28.9837C64.6089 28.9325 64.5603 28.8964 64.504 28.8749C64.4476 28.853 64.3865 28.843 64.3218 28.843C64.2561 28.843 64.1987 28.8514 64.148 28.8692C64.0969 28.8864 64.0489 28.922 64.0024 28.9748C63.9607 29.024 63.9278 29.0915 63.9038 29.1762C63.8793 29.2615 63.8673 29.3687 63.8673 29.4984C63.8673 29.614 63.8777 29.7145 63.8986 29.7992C63.9205 29.8834 63.9513 29.9514 63.993 30.0032C64.0327 30.0529 64.0807 30.088 64.1366 30.111C64.1924 30.134 64.2561 30.145 64.327 30.145C64.3886 30.145 64.4471 30.1345 64.5029 30.1141C64.5588 30.0932 64.6062 30.0581 64.6449 30.009ZM68.083 30.5519H67.4025V29.5026C67.4025 29.4174 67.3978 29.3321 67.3894 29.2474C67.3805 29.1626 67.3654 29.1004 67.344 29.0601C67.319 29.013 67.2824 28.9795 67.2344 28.9581C67.1864 28.9367 67.1191 28.9262 67.0325 28.9262C66.9709 28.9262 66.9088 28.9361 66.8456 28.9565C66.7819 28.9764 66.7136 29.0083 66.6395 29.0523V30.5519H65.9626V28.4361H66.6395V28.6694C66.7595 28.5757 66.8748 28.503 66.986 28.4528C67.0972 28.4026 67.2203 28.378 67.3555 28.378C67.583 28.378 67.7615 28.445 67.8899 28.5778C68.0188 28.7107 68.083 28.9095 68.083 29.1747V30.5519ZM70.8625 29.4948C70.8625 29.8426 70.7618 30.1172 70.5588 30.3176C70.3568 30.5179 70.0724 30.6184 69.7066 30.6184C69.3402 30.6184 69.0558 30.5179 68.8538 30.3176C68.6518 30.1172 68.5501 29.8432 68.5501 29.4948C68.5501 29.1448 68.6518 28.8697 68.8554 28.6699C69.0589 28.4706 69.3423 28.3702 69.706 28.3702C70.0745 28.3702 70.3594 28.4711 70.5598 28.6715C70.7623 28.8728 70.8625 29.1469 70.8625 29.4948ZM70.0296 30.009C70.074 29.9551 70.1063 29.8902 70.1282 29.8144C70.1502 29.7385 70.1616 29.6329 70.1616 29.4984C70.1616 29.3745 70.1502 29.2699 70.1277 29.1856C70.1053 29.1014 70.074 29.0345 70.0338 28.9837C69.9941 28.9325 69.9456 28.8964 69.8892 28.8749C69.8328 28.853 69.7718 28.843 69.7071 28.843C69.6413 28.843 69.5839 28.8514 69.5333 28.8692C69.4816 28.8864 69.4341 28.922 69.3877 28.9748C69.3459 29.024 69.3131 29.0915 69.2891 29.1762C69.2645 29.2615 69.2525 29.3687 69.2525 29.4984C69.2525 29.614 69.263 29.7145 69.2838 29.7992C69.3057 29.8834 69.3365 29.9514 69.3778 30.0032C69.4174 30.0529 69.466 30.088 69.5218 30.111C69.5776 30.134 69.6413 30.145 69.7123 30.145C69.7739 30.145 69.8323 30.1345 69.8882 30.1141C69.9435 30.0932 69.991 30.0581 70.0296 30.009ZM73.4114 29.0523V30.5519H72.7303V29.4948C72.7303 29.3917 72.7277 29.3044 72.723 29.2322C72.7178 29.1595 72.7037 29.1009 72.6813 29.0559C72.6588 29.0109 72.6249 28.9775 72.5784 28.9571C72.533 28.9367 72.4689 28.9262 72.3859 28.9262C72.3201 28.9262 72.2549 28.9398 72.1923 28.967C72.1302 28.9942 72.0733 29.0224 72.0237 29.0523V30.5519H71.3468V28.4361H72.0237V28.6694C72.1395 28.5778 72.2512 28.5062 72.3577 28.4544C72.4642 28.4031 72.5821 28.3775 72.711 28.3775C72.8503 28.3775 72.973 28.4083 73.0795 28.4706C73.1859 28.5328 73.2694 28.6244 73.3299 28.7447C73.4656 28.6307 73.5966 28.5407 73.7245 28.4753C73.8524 28.4104 73.9781 28.3775 74.1002 28.3775C74.3288 28.3775 74.5021 28.446 74.62 28.5825C74.7385 28.7196 74.798 28.9168 74.798 29.1741V30.5514H74.1169V29.4943C74.1169 29.3902 74.1154 29.3028 74.1107 29.2306C74.106 29.1595 74.0929 29.1009 74.0705 29.0559C74.0491 29.0109 74.0152 28.9775 73.9692 28.9571C73.9228 28.9367 73.8576 28.9262 73.7735 28.9262C73.7172 28.9262 73.6619 28.9361 73.6081 28.955C73.5549 28.9743 73.4891 29.0073 73.4114 29.0523ZM76.098 30.5519H75.4211V28.4361H76.098V30.5519ZM76.1168 28.1343H75.4023V27.6195H76.1168V28.1343ZM78.0148 30.0001V29.5591C77.924 29.567 77.8244 29.5774 77.7179 29.59C77.6114 29.6036 77.5306 29.6188 77.4752 29.6365C77.4079 29.658 77.3557 29.6894 77.3207 29.7296C77.2847 29.7704 77.267 29.8238 77.267 29.8908C77.267 29.9347 77.2707 29.9708 77.2785 29.998C77.2863 30.0257 77.3051 30.0519 77.3348 30.077C77.3635 30.1021 77.3975 30.1204 77.4382 30.1324C77.4778 30.1445 77.541 30.1502 77.6261 30.1502C77.6934 30.1502 77.7623 30.1361 77.8322 30.1089C77.9016 30.0817 77.9627 30.0451 78.0148 30.0001ZM78.0148 30.3275C77.9788 30.3553 77.9334 30.3887 77.8797 30.428C77.8259 30.4667 77.7753 30.4975 77.7278 30.52C77.661 30.5504 77.5921 30.5729 77.5212 30.587C77.4491 30.6016 77.3709 30.6089 77.2863 30.6089C77.0854 30.6089 76.9173 30.5467 76.7822 30.4227C76.6465 30.2977 76.5792 30.1392 76.5792 29.9462C76.5792 29.7914 76.6141 29.6653 76.6825 29.5675C76.7519 29.4692 76.8495 29.3923 76.9758 29.3352C77.101 29.2793 77.2566 29.2385 77.4424 29.2149C77.6276 29.1909 77.8202 29.1731 78.019 29.1621V29.1506C78.019 29.0339 77.9715 28.9534 77.876 28.9089C77.7811 28.8645 77.6407 28.842 77.4549 28.842C77.3432 28.842 77.2247 28.8619 77.0984 28.9011C76.9711 28.9408 76.8808 28.9712 76.8255 28.9926H76.7634V28.4821C76.8349 28.4633 76.9513 28.4408 77.1125 28.4151C77.2727 28.3895 77.4345 28.3764 77.5963 28.3764C77.9809 28.3764 78.2591 28.4355 78.4297 28.5548C78.6009 28.6735 78.6865 28.8598 78.6865 29.1135V30.5525H78.0154C78.0148 30.5519 78.0148 30.3275 78.0148 30.3275ZM82.6773 30.5519H82.001V30.3312C81.8841 30.4269 81.775 30.497 81.6737 30.542C81.5725 30.588 81.4551 30.61 81.322 30.61C81.0652 30.61 80.8596 30.5111 80.7057 30.3124C80.5517 30.1136 80.4745 29.8463 80.4745 29.51C80.4745 29.3305 80.5 29.171 80.5522 29.0319C80.6044 28.8927 80.6754 28.774 80.7662 28.6751C80.8513 28.5815 80.9546 28.5077 81.0762 28.4559C81.1978 28.4042 81.3194 28.3775 81.4415 28.3775C81.5678 28.3775 81.6711 28.3911 81.752 28.4178C81.8329 28.445 81.9164 28.479 82.0015 28.5208V27.6201H82.6778V30.5519H82.6773ZM82.001 29.9682V28.9304C81.9529 28.91 81.9028 28.8959 81.8501 28.887C81.7974 28.8781 81.7494 28.8739 81.7056 28.8739C81.5271 28.8739 81.394 28.9293 81.3053 29.0402C81.2161 29.1516 81.1717 29.306 81.1717 29.5026C81.1717 29.7098 81.2072 29.8604 81.2792 29.954C81.3502 30.0472 81.4655 30.0942 81.6231 30.0942C81.6842 30.0942 81.7494 30.0827 81.8183 30.0597C81.8872 30.0362 81.9482 30.0053 82.001 29.9682ZM85.3947 29.6193H83.8458C83.8557 29.7851 83.9189 29.9117 84.0352 30.0001C84.1506 30.0874 84.3212 30.1319 84.5472 30.1319C84.6902 30.1319 84.8285 30.1063 84.9626 30.0545C85.0967 30.0022 85.2027 29.9478 85.281 29.8887H85.3561V30.4327C85.2027 30.4944 85.0592 30.5389 84.924 30.5666C84.7883 30.5943 84.639 30.6084 84.4747 30.6084C84.0514 30.6084 83.7263 30.5127 83.5008 30.3223C83.2759 30.1314 83.1627 29.8594 83.1627 29.5063C83.1627 29.1569 83.2691 28.8807 83.4826 28.6756C83.696 28.4716 83.9893 28.3696 84.3614 28.3696C84.7048 28.3696 84.9626 28.457 85.1359 28.6307C85.3091 28.8048 85.3953 29.0549 85.3953 29.3818V29.6193H85.3947ZM84.722 29.2217C84.7189 29.0795 84.6834 28.9727 84.6166 28.9016C84.5503 28.8294 84.4475 28.7939 84.3066 28.7939C84.1761 28.7939 84.0692 28.8273 83.9851 28.8953C83.9011 28.9628 83.8542 29.0716 83.8437 29.2212H84.722V29.2217ZM89.4664 29.67C89.4664 29.9467 89.3495 30.1711 89.1152 30.3432C88.8814 30.5164 88.5646 30.6021 88.1638 30.6021C87.9316 30.6021 87.7296 30.5817 87.5574 30.5409C87.3847 30.4996 87.2239 30.4484 87.0731 30.3851V29.7124H87.1519C87.3012 29.8322 87.4682 29.9232 87.6529 29.9875C87.8376 30.0519 88.0156 30.0833 88.1863 30.0833C88.2296 30.0833 88.2875 30.0801 88.359 30.0723C88.431 30.0644 88.4884 30.0524 88.5338 30.0341C88.5891 30.0116 88.634 29.9833 88.67 29.9493C88.7061 29.9159 88.7238 29.8656 88.7238 29.7987C88.7238 29.737 88.6972 29.6841 88.6455 29.6392C88.5938 29.5947 88.5171 29.5607 88.4169 29.5366C88.3115 29.5115 88.2004 29.488 88.0835 29.466C87.966 29.444 87.8564 29.4158 87.7536 29.3823C87.5183 29.3054 87.3486 29.2013 87.2448 29.0706C87.1415 28.9393 87.0898 28.7761 87.0898 28.5815C87.0898 28.3205 87.2067 28.1076 87.44 27.9423C87.6738 27.777 87.9744 27.6949 88.3413 27.6949C88.5255 27.6949 88.7076 27.7121 88.8871 27.7482C89.0667 27.7843 89.2227 27.8293 89.3542 27.8832V28.5292H89.2775C89.1648 28.4392 89.0265 28.3634 88.8631 28.3022C88.6993 28.2415 88.5328 28.2106 88.3621 28.2106C88.3016 28.2106 88.2421 28.2153 88.1826 28.2227C88.1236 28.231 88.0657 28.2462 88.0104 28.2692C87.9618 28.288 87.9201 28.3168 87.8846 28.3545C87.8491 28.3932 87.8319 28.4366 87.8319 28.4858C87.8319 28.56 87.8601 28.6171 87.9164 28.6563C87.9728 28.696 88.0793 28.7321 88.2358 28.7651C88.3386 28.7865 88.4373 28.8069 88.5317 28.8268C88.6267 28.8472 88.728 28.8749 88.837 28.91C89.051 28.9806 89.2097 29.0763 89.3119 29.1972C89.4153 29.319 89.4664 29.4765 89.4664 29.67ZM91.2011 30.0001V29.5591C91.1103 29.567 91.0107 29.5774 90.9042 29.59C90.7977 29.6036 90.7168 29.6188 90.6615 29.6365C90.5942 29.658 90.542 29.6894 90.507 29.7296C90.471 29.7704 90.4533 29.8238 90.4533 29.8908C90.4533 29.9347 90.4569 29.9708 90.4648 29.998C90.4726 30.0257 90.4909 30.0519 90.5211 30.077C90.5498 30.1021 90.5838 30.1204 90.6245 30.1324C90.6641 30.1445 90.7273 30.1502 90.8123 30.1502C90.8797 30.1502 90.9486 30.1361 91.0185 30.1089C91.0879 30.0817 91.149 30.0451 91.2011 30.0001ZM91.2011 30.3275C91.1651 30.3553 91.1197 30.3887 91.066 30.428C91.0122 30.4667 90.9616 30.4975 90.9141 30.52C90.8473 30.5504 90.7784 30.5729 90.7074 30.587C90.6354 30.6016 90.5571 30.6089 90.4726 30.6089C90.2717 30.6089 90.1036 30.5467 89.9685 30.4227C89.8328 30.2977 89.7655 30.1392 89.7655 29.9462C89.7655 29.7914 89.7999 29.6653 89.8688 29.5675C89.9382 29.4692 90.0358 29.3923 90.1621 29.3352C90.2873 29.2793 90.4428 29.2385 90.6286 29.2149C90.8139 29.1909 91.0065 29.1731 91.2053 29.1621V29.1506C91.2053 29.0339 91.1578 28.9534 91.0623 28.9089C90.9673 28.8645 90.827 28.842 90.6412 28.842C90.5295 28.842 90.411 28.8619 90.2847 28.9011C90.1579 28.9408 90.0671 28.9712 90.0118 28.9926H89.9497V28.4821C90.0212 28.4633 90.1376 28.4408 90.2988 28.4151C90.459 28.3895 90.6208 28.3764 90.7826 28.3764C91.1672 28.3764 91.4454 28.4355 91.616 28.5548C91.7872 28.6735 91.8728 28.8598 91.8728 29.1135V30.5525H91.2017L91.2011 30.3275ZM94.6153 30.5519H93.9347V29.5026C93.9347 29.4174 93.93 29.3321 93.9217 29.2474C93.9128 29.1626 93.8977 29.1004 93.8763 29.0601C93.8512 29.013 93.8147 28.9795 93.7667 28.9581C93.7187 28.9367 93.6514 28.9262 93.5647 28.9262C93.5031 28.9262 93.441 28.9361 93.3779 28.9565C93.3142 28.9764 93.2459 29.0083 93.1718 29.0523V30.5519H92.4949V28.4361H93.1718V28.6694C93.2918 28.5757 93.4071 28.503 93.5183 28.4528C93.6294 28.4026 93.7526 28.378 93.8878 28.378C94.1153 28.378 94.2938 28.445 94.4222 28.5778C94.5511 28.7107 94.6153 28.9095 94.6153 29.1747V30.5519ZM96.5869 30.5331C96.5139 30.5519 96.4372 30.5666 96.3557 30.5776C96.2743 30.588 96.1746 30.5933 96.0567 30.5933C95.7937 30.5933 95.598 30.5399 95.4696 30.4332C95.3412 30.3265 95.277 30.1439 95.277 29.885V28.8959H94.9983V28.4361H95.277V27.8314H95.9534V28.4361H96.5869V28.8959H95.9534V29.646C95.9534 29.7197 95.9539 29.7851 95.9549 29.84C95.9565 29.8955 95.9664 29.9446 95.9852 29.9886C96.0024 30.0325 96.0337 30.0676 96.0781 30.0937C96.1225 30.1193 96.1877 30.1324 96.2722 30.1324C96.3077 30.1324 96.3536 30.1246 96.411 30.1099C96.4679 30.0942 96.5081 30.0812 96.5306 30.0681H96.5869C96.5869 30.0676 96.5869 30.5331 96.5869 30.5331ZM98.2689 30.0001V29.5591C98.1776 29.567 98.0785 29.5774 97.972 29.59C97.8655 29.6036 97.7846 29.6188 97.7293 29.6365C97.662 29.658 97.6098 29.6894 97.5748 29.7296C97.5388 29.7704 97.5211 29.8238 97.5211 29.8908C97.5211 29.9347 97.5247 29.9708 97.5326 29.998C97.5404 30.0257 97.5587 30.0519 97.5889 30.077C97.6176 30.1021 97.6516 30.1204 97.6923 30.1324C97.7319 30.1445 97.7951 30.1502 97.8801 30.1502C97.9475 30.1502 98.0163 30.1361 98.0863 30.1089C98.1552 30.0817 98.2162 30.0451 98.2689 30.0001ZM98.2689 30.3275C98.2329 30.3553 98.1875 30.3887 98.1338 30.428C98.08 30.4667 98.0294 30.4975 97.9819 30.52C97.9151 30.5504 97.8462 30.5729 97.7752 30.587C97.7032 30.6016 97.6255 30.6089 97.5404 30.6089C97.3395 30.6089 97.1714 30.5467 97.0363 30.4227C96.9006 30.2977 96.8333 30.1392 96.8333 29.9462C96.8333 29.7914 96.8677 29.6653 96.9366 29.5675C97.006 29.4692 97.1036 29.3923 97.2299 29.3352C97.3551 29.2793 97.5112 29.2385 97.6964 29.2149C97.8817 29.1909 98.0743 29.1731 98.2731 29.1621V29.1506C98.2731 29.0339 98.2256 28.9534 98.1301 28.9089C98.0351 28.8645 97.8948 28.842 97.7095 28.842C97.5978 28.842 97.4793 28.8619 97.353 28.9011C97.2262 28.9408 97.1354 28.9712 97.0801 28.9926H97.018V28.4821C97.0895 28.4633 97.2059 28.4408 97.3671 28.4151C97.5273 28.3895 97.6891 28.3764 97.8509 28.3764C98.2355 28.3764 98.5137 28.4355 98.6844 28.5548C98.8555 28.6735 98.9411 28.8598 98.9411 29.1135V30.5525H98.27L98.2689 30.3275ZM102.181 30.6063C101.973 30.6063 101.781 30.5755 101.605 30.5137C101.429 30.4525 101.278 30.3605 101.151 30.2391C101.025 30.1172 100.927 29.965 100.857 29.7835C100.788 29.601 100.753 29.3907 100.753 29.1522C100.753 28.9304 100.786 28.7285 100.852 28.5475C100.919 28.3665 101.015 28.2111 101.141 28.0819C101.263 27.958 101.414 27.8612 101.594 27.7937C101.773 27.7257 101.97 27.6922 102.183 27.6922C102.3 27.6922 102.406 27.6985 102.501 27.7116C102.595 27.7252 102.683 27.7425 102.764 27.7634C102.847 27.7869 102.924 27.8141 102.991 27.8439C103.06 27.8727 103.12 27.9004 103.171 27.9255V28.6061H103.088C103.054 28.5757 103.009 28.5396 102.956 28.4983C102.903 28.4565 102.842 28.4162 102.774 28.3754C102.706 28.3356 102.631 28.3016 102.55 28.2739C102.47 28.2462 102.385 28.2326 102.293 28.2326C102.192 28.2326 102.095 28.2478 102.004 28.2802C101.912 28.3121 101.828 28.3655 101.749 28.4397C101.675 28.5109 101.616 28.6066 101.57 28.7243C101.524 28.8425 101.502 28.9853 101.502 29.1537C101.502 29.33 101.526 29.4765 101.576 29.5947C101.626 29.7124 101.688 29.8055 101.763 29.873C101.839 29.9425 101.925 29.9912 102.018 30.021C102.113 30.0508 102.205 30.0655 102.297 30.0655C102.384 30.0655 102.471 30.0524 102.557 30.0262C102.643 30.0001 102.722 29.964 102.795 29.919C102.856 29.8824 102.913 29.8432 102.966 29.8018C103.019 29.7605 103.061 29.7244 103.095 29.6941H103.17V30.3647C103.1 30.3961 103.033 30.4259 102.969 30.4536C102.905 30.4813 102.839 30.5049 102.768 30.5247C102.677 30.5509 102.591 30.5713 102.511 30.5854C102.431 30.5995 102.321 30.6063 102.181 30.6063ZM104.942 30.0001V29.5591C104.851 29.567 104.752 29.5774 104.645 29.59C104.539 29.6036 104.458 29.6188 104.403 29.6365C104.335 29.658 104.283 29.6894 104.248 29.7296C104.212 29.7704 104.194 29.8238 104.194 29.8908C104.194 29.9347 104.198 29.9708 104.206 29.998C104.214 30.0257 104.232 30.0519 104.262 30.077C104.291 30.1021 104.325 30.1204 104.366 30.1324C104.405 30.1445 104.468 30.1502 104.553 30.1502C104.621 30.1502 104.69 30.1361 104.76 30.1089C104.828 30.0817 104.889 30.0451 104.942 30.0001ZM104.942 30.3275C104.906 30.3553 104.861 30.3887 104.807 30.428C104.753 30.4667 104.703 30.4975 104.655 30.52C104.588 30.5504 104.519 30.5729 104.448 30.587C104.376 30.6016 104.298 30.6089 104.214 30.6089C104.013 30.6089 103.845 30.5467 103.71 30.4227C103.574 30.2977 103.507 30.1392 103.507 29.9462C103.507 29.7914 103.541 29.6653 103.61 29.5675C103.679 29.4692 103.777 29.3923 103.903 29.3352C104.028 29.2793 104.184 29.2385 104.37 29.2149C104.555 29.1909 104.748 29.1731 104.946 29.1621V29.1506C104.946 29.0339 104.899 28.9534 104.803 28.9089C104.708 28.8645 104.568 28.842 104.382 28.842C104.271 28.842 104.152 28.8619 104.026 28.9011C103.898 28.9408 103.808 28.9712 103.753 28.9926H103.691V28.4821C103.762 28.4633 103.879 28.4408 104.04 28.4151C104.2 28.3895 104.362 28.3764 104.524 28.3764C104.908 28.3764 105.186 28.4355 105.357 28.5548C105.528 28.6735 105.614 28.8598 105.614 29.1135V30.5525H104.943L104.942 30.3275ZM107.586 30.5331C107.512 30.5519 107.436 30.5666 107.354 30.5776C107.273 30.588 107.173 30.5933 107.055 30.5933C106.792 30.5933 106.597 30.5399 106.468 30.4332C106.34 30.3265 106.276 30.1439 106.276 29.885V28.8959H105.997V28.4361H106.276V27.8314H106.952V28.4361H107.586V28.8959H106.952V29.646C106.952 29.7197 106.952 29.7851 106.954 29.84C106.955 29.8955 106.966 29.9446 106.984 29.9886C107.002 30.0325 107.033 30.0676 107.077 30.0937C107.122 30.1193 107.187 30.1324 107.271 30.1324C107.307 30.1324 107.353 30.1246 107.41 30.1099C107.467 30.0942 107.507 30.0812 107.53 30.0681H107.586L107.586 30.5331ZM109.268 30.0001V29.5591C109.176 29.567 109.077 29.5774 108.971 29.59C108.864 29.6036 108.783 29.6188 108.728 29.6365C108.661 29.658 108.608 29.6894 108.573 29.7296C108.537 29.7704 108.52 29.8238 108.52 29.8908C108.52 29.9347 108.523 29.9708 108.531 29.998C108.539 30.0257 108.557 30.0519 108.588 30.077C108.616 30.1021 108.65 30.1204 108.691 30.1324C108.731 30.1445 108.794 30.1502 108.879 30.1502C108.946 30.1502 109.015 30.1361 109.085 30.1089C109.154 30.0817 109.215 30.0451 109.268 30.0001ZM109.268 30.3275C109.232 30.3553 109.186 30.3887 109.132 30.428C109.078 30.4667 109.027 30.4975 108.98 30.52C108.913 30.5504 108.845 30.5729 108.773 30.587C108.701 30.6016 108.624 30.6089 108.538 30.6089C108.338 30.6089 108.169 30.5467 108.034 30.4227C107.899 30.2977 107.831 30.1392 107.831 29.9462C107.831 29.7914 107.866 29.6653 107.935 29.5675C108.004 29.4692 108.102 29.3923 108.228 29.3352C108.353 29.2793 108.509 29.2385 108.694 29.2149C108.88 29.1909 109.072 29.1731 109.271 29.1621V29.1506C109.271 29.0339 109.224 28.9534 109.128 28.9089C109.033 28.8645 108.893 28.842 108.707 28.842C108.595 28.842 108.477 28.8619 108.351 28.9011C108.224 28.9408 108.133 28.9712 108.078 28.9926H108.016V28.4821C108.087 28.4633 108.203 28.4408 108.365 28.4151C108.525 28.3895 108.687 28.3764 108.848 28.3764C109.234 28.3764 109.511 28.4355 109.682 28.5548C109.853 28.6735 109.939 28.8598 109.939 29.1135V30.5525H109.268V30.3275ZM112.091 29.0821H112.03C112.002 29.0716 111.955 29.0643 111.891 29.0596C111.827 29.0543 111.774 29.0517 111.731 29.0517C111.635 29.0517 111.55 29.058 111.476 29.0706C111.403 29.0836 111.323 29.1046 111.238 29.1349V30.5514H110.561V28.4361H111.238V28.7468C111.386 28.6186 111.516 28.5339 111.626 28.4915C111.737 28.4497 111.838 28.4287 111.931 28.4287C111.955 28.4287 111.982 28.4293 112.012 28.4308C112.042 28.4319 112.068 28.434 112.091 28.4366C112.091 28.4361 112.091 29.0821 112.091 29.0821ZM113.151 30.5519H112.474V28.4361H113.151V30.5519ZM113.17 28.1343H112.455V27.6195H113.17V28.1343ZM115.911 30.5519H115.23V29.5026C115.23 29.4174 115.225 29.3321 115.217 29.2474C115.208 29.1626 115.193 29.1004 115.172 29.0601C115.146 29.013 115.11 28.9795 115.062 28.9581C115.014 28.9367 114.947 28.9262 114.86 28.9262C114.798 28.9262 114.736 28.9361 114.673 28.9565C114.609 28.9764 114.541 29.0083 114.468 29.0523V30.5519H113.791V28.4361H114.468V28.6694C114.588 28.5757 114.703 28.503 114.814 28.4528C114.925 28.4026 115.048 28.378 115.184 28.378C115.411 28.378 115.59 28.445 115.718 28.5778C115.847 28.7107 115.911 28.9095 115.911 29.1747L115.911 30.5519Z" fill="#FEFEFE"/>
<path fill-rule="evenodd" clip-rule="evenodd" d="M117.811 30V29.559C117.719 29.5668 117.62 29.5773 117.514 29.5899C117.407 29.6035 117.326 29.6186 117.271 29.6364C117.204 29.6579 117.152 29.6892 117.117 29.7295C117.081 29.7703 117.063 29.8237 117.063 29.8906C117.063 29.9346 117.066 29.9707 117.074 29.9979C117.082 30.0256 117.1 30.0517 117.131 30.0768C117.159 30.102 117.193 30.1203 117.234 30.1323C117.274 30.1443 117.337 30.1501 117.422 30.1501C117.489 30.1501 117.558 30.136 117.628 30.1088C117.697 30.0816 117.758 30.0449 117.811 30ZM117.811 30.3274C117.775 30.3551 117.729 30.3886 117.676 30.4278C117.622 30.4665 117.571 30.4974 117.524 30.5199C117.457 30.5502 117.388 30.5727 117.317 30.5869C117.245 30.6015 117.167 30.6088 117.082 30.6088C116.881 30.6088 116.713 30.5466 116.578 30.4226C116.442 30.2976 116.375 30.1391 116.375 29.9461C116.375 29.7912 116.409 29.6652 116.478 29.5674C116.548 29.469 116.645 29.3921 116.772 29.3351C116.897 29.2792 117.053 29.2383 117.238 29.2148C117.423 29.1907 117.616 29.173 117.815 29.162V29.1505C117.815 29.0338 117.767 28.9533 117.672 28.9088C117.577 28.8643 117.437 28.8419 117.251 28.8419C117.139 28.8419 117.021 28.8617 116.894 28.901C116.767 28.9407 116.677 28.9711 116.622 28.9925H116.56V28.482C116.631 28.4631 116.748 28.4407 116.909 28.415C117.069 28.3894 117.231 28.3763 117.393 28.3763C117.778 28.3763 118.055 28.4354 118.226 28.5547C118.397 28.6734 118.483 28.8596 118.483 29.1133V30.5523H117.812L117.811 30.3274Z" fill="#FEFEFE"/>
<path fill-rule="evenodd" clip-rule="evenodd" d="M0.00292969 0.597046H30.454V28.8931C30.454 29.9115 29.6216 30.7459 28.6055 30.7459H16.8925C16.1232 30.7459 15.594 31.3019 15.2616 32.403C14.9459 31.4573 14.4793 30.7417 13.542 30.7459H1.85247C0.83585 30.7459 0.00345208 29.9121 0.00345208 28.8931C0.0029302 28.8931 0.00292969 0.597046 0.00292969 0.597046ZM30.0558 0.992495V28.8717C30.0558 29.6877 29.3888 30.3562 28.5742 30.3562H16.8726C16.1081 30.3567 15.4082 30.9347 15.2647 31.5425C15.0769 30.9326 14.3421 30.3666 13.6276 30.3562H1.88117C1.06704 30.3562 0.400078 29.6882 0.400078 28.8717V0.992495H30.0558Z" fill="#FEFEFE"/>
</svg>
