<svg width="355" height="62" viewBox="0 0 355 62" fill="none" xmlns="http://www.w3.org/2000/svg">
<path d="M14.9013 35.1149L12.7058 50.6609C12.6452 51.0875 12.5072 51.4241 12.2939 51.6667C12.0806 51.9113 11.7586 52.0326 11.3342 52.0326C10.9683 52.0326 10.6944 51.9259 10.5104 51.7127C10.3264 51.4994 10.2657 51.1502 10.3264 50.6609L15.907 11.3391C15.9677 10.9125 16.1036 10.578 16.3189 10.3333C16.5322 10.0908 16.8228 9.96742 17.1867 9.96742C17.6132 9.96742 17.9185 10.1054 18.1004 10.3793C18.2823 10.6532 18.3429 10.9732 18.2823 11.3391L15.9969 27.4329H26.0564L28.4337 10.4253C28.9209 6.88959 28.4024 4.26757 26.8781 2.56138C25.3538 0.855187 22.6105 0 18.6482 0C14.8072 0 11.8506 0.838459 9.77854 2.51538C7.70434 4.1923 6.4247 6.82895 5.93752 10.4253L0.177027 51.5747C-0.310158 55.1731 0.20839 57.8077 1.73058 59.4846C3.25277 61.1615 5.96679 62 9.86845 62C13.8914 62 16.9107 61.1448 18.9221 59.4386C20.9336 57.7324 22.1819 55.1104 22.6712 51.5747L24.9565 35.1149H14.9013Z" fill="white"/>
<path d="M50.2001 31.5041C51.5111 29.8271 52.3182 27.8324 52.6235 25.5136L54.727 10.6074C55.1535 7.49819 54.543 5.10618 52.8974 3.42926C51.2519 1.75234 48.6299 0.913879 45.0335 0.913879H43.5698H43.3879H33.5125L25.0986 61.0843H35.1581L38.4973 37.1976C38.6102 37.183 38.721 37.1663 38.8318 37.1516L39.4549 61.0822H49.6962L47.1181 34.3331C48.2995 33.5594 49.3282 32.6185 50.2001 31.5041ZM42.1773 10.8834H43.206C43.6932 10.8834 44.0298 11.0214 44.2117 11.2953C44.3957 11.5692 44.425 12.0418 44.3037 12.7129L42.5662 25.3317C42.5056 25.9422 42.3529 26.444 42.1083 26.8413C41.8636 27.2386 41.5437 27.5438 41.1485 27.755C40.7826 27.9516 40.3205 28.054 39.7748 28.0687L42.1773 10.8834Z" fill="white"/>
<path d="M63.0242 51.1188L65.3389 34.5671H73.2447L74.6163 24.6895H66.7189L68.6509 10.8832H77.4516L78.8232 0.915771H70.0435H69.9536H59.9861L51.5723 61.0862H61.5397H61.6317H70.4094L71.873 51.1188H63.0242Z" fill="white"/>
<path d="M85.5442 0.915771L72.5596 61.0862H82.8929L84.6974 50.9348H88.1432L87.0977 61.0862H97.3391L101.272 0.915771H85.5442ZM89.1699 40.9674H86.4705L92.8833 4.91152L89.1699 40.9674Z" fill="white"/>
<path d="M318.858 28.8045C318.858 28.6833 318.797 28.562 318.676 28.4386L318.494 28.1647C317.091 25.848 316.116 23.9452 315.567 22.4502C315.019 20.9573 314.835 19.4477 315.019 17.9234L316.024 11.3391C316.085 10.9125 316.221 10.578 316.436 10.3333C316.65 10.0908 316.94 9.96742 317.306 9.96742C317.733 9.96742 318.038 10.0908 318.22 10.3333C318.402 10.578 318.462 10.9146 318.402 11.3391L316.938 21.2145H326.998L328.553 10.4232C329.101 6.94813 328.599 4.34284 327.044 2.60529C325.488 0.867732 322.73 0 318.768 0C314.927 0 311.985 0.823823 309.944 2.46938C307.901 4.11493 306.607 6.76622 306.057 10.4253L305.143 17.1916C304.654 20.4827 304.853 23.3493 305.737 25.7873C306.619 28.2253 308.037 30.9686 309.99 34.0172L310.264 34.657C311.604 36.9131 312.564 38.8033 313.145 40.3276C313.724 41.8519 313.892 43.3155 313.649 44.7164L312.825 50.6609C312.765 51.0875 312.627 51.4241 312.413 51.6667C312.198 51.9113 311.878 52.0326 311.454 52.0326C311.088 52.0326 310.814 51.9259 310.63 51.7127C310.448 51.4994 310.385 51.1502 310.448 50.6609L311.728 41.3333H301.668L300.297 51.5747C299.809 55.1731 300.343 57.8077 301.896 59.4846C303.452 61.1615 306.178 62 310.08 62C313.982 62 316.938 61.1615 318.95 59.4846C320.961 57.8077 322.241 55.1731 322.791 51.5747L323.614 45.4483C324.102 42.2784 323.92 39.4912 323.067 37.0804C322.209 34.6737 320.806 31.9137 318.858 28.8045Z" fill="white"/>
<path d="M352.92 2.56138C351.396 0.855187 348.652 0 344.69 0C340.849 0 337.893 0.838459 335.821 2.51538C333.748 4.1923 332.467 6.82895 331.979 10.4253L326.219 51.5747C325.732 55.1731 326.25 57.8077 327.775 59.4846C329.297 61.1615 332.011 62 335.912 62C339.935 62 342.953 61.1448 344.966 59.4386C346.978 57.7324 348.226 55.1104 348.715 51.5747L351.001 35.1149H340.941L338.746 50.6609C338.685 51.0875 338.547 51.4241 338.334 51.6667C338.118 51.9113 337.799 52.0326 337.374 52.0326C337.008 52.0326 336.734 51.9259 336.55 51.7127C336.368 51.4994 336.306 51.1502 336.368 50.6609L341.947 11.3391C342.008 10.9125 342.143 10.578 342.359 10.3333C342.572 10.0908 342.863 9.96742 343.229 9.96742C343.655 9.96742 343.96 10.1054 344.142 10.3793C344.324 10.6532 344.385 10.9732 344.324 11.3391L342.039 27.4329H352.098L354.476 10.4253C354.963 6.88959 354.444 4.26757 352.92 2.56138Z" fill="white"/>
<path d="M124.353 3.54192C123.222 3.54192 122.253 4.35737 122.063 5.47393L116.089 40.5868C115.341 44.984 112.397 46.2845 109.051 46.2845C107.494 46.2845 105.879 46.0399 104.322 45.6342L99.1885 60.4505C101.612 60.6136 104.207 60.8582 106.86 60.8582C115.686 60.8582 124.742 58.1714 127.684 40.5847L133.856 3.54192H124.353Z" fill="#CFE533"/>
<path d="M163.116 20.6603C162.321 20.6603 161.761 19.8783 162.016 19.1255L166.668 5.44256C164.117 2.6909 159.741 2.07617 153.755 2.07617C141.584 2.07617 135.066 5.17073 132.181 22.5107L129.009 41.5632C126.125 58.9053 131.604 61.9978 143.718 61.9978C155.89 61.9978 162.351 59.474 165.292 41.5632L168.464 22.5107C168.571 21.873 168.665 21.2583 168.749 20.6603H163.116ZM156.868 22.5128L153.696 41.5653C153.063 45.3101 150.984 47.6708 146.14 47.6708C141.295 47.6708 140.026 45.3101 140.601 41.5653L143.775 22.5128C144.408 18.768 146.485 16.4073 151.331 16.4073C156.235 16.4053 157.504 18.768 156.868 22.5128Z" fill="#CFE533"/>
<path d="M232.137 38.2052L234.749 25.4338H221.103L221.636 21.0136L210.174 20.8087C209.894 20.8045 209.649 21.0011 209.595 21.275L201.785 60.532H230.985L233.546 47.6018H216.491L218.427 38.2052H232.137Z" fill="#CFE533"/>
<path d="M287.426 27.8615H293.943L299.024 3.50853H287.288C287.079 3.50853 286.884 3.62144 286.782 3.80335L266.086 40.5283C265.95 40.7687 265.588 40.7018 265.547 40.43L259.797 3.50644H248.33C248.056 3.50644 247.818 3.6988 247.761 3.96853L235.958 60.5321H247.964L253.371 35.1525L256.698 60.5321H267.136L280.271 34.9894L275.119 60.5321H287.127L291.376 40.1728H285.404L287.426 27.8615Z" fill="#CFE533"/>
<path d="M204.084 18.3605H239.623C240.617 18.3605 241.499 17.729 241.819 16.7902L246.356 3.54212H209.824H200.264H196.369C196.12 3.54212 195.9 3.69893 195.819 3.93312L184.528 36.8338C184.316 37.4506 183.405 37.3042 183.399 36.6519L183.039 4.11503C183.035 3.79721 182.778 3.54002 182.458 3.54002H169.486C169.239 3.54002 169.017 3.69684 168.938 3.93103L164.206 17.5889C164.076 17.9653 164.354 18.3584 164.754 18.3584H170.886C171.196 18.3584 171.451 18.6009 171.466 18.9083L173.398 56.4591C173.571 59.6353 176.396 60.4486 179.974 60.4486C183.549 60.4486 186.665 59.6353 187.934 56.4591L203.545 18.7159C203.637 18.5027 203.85 18.3605 204.084 18.3605Z" fill="#CFE533"/>
<path d="M287.153 38.3162H303.858L305.047 29.7205H288.638L287.153 38.3162Z" fill="#CFE533"/>
</svg>
