<svg width="311" height="55" viewBox="0 0 311 55" fill="none" xmlns="http://www.w3.org/2000/svg">
<path d="M13.0655 30.789L11.1406 44.4198C11.0874 44.7938 10.9664 45.089 10.7794 45.3017C10.5924 45.5162 10.3101 45.6225 9.93789 45.6225C9.61705 45.6225 9.37688 45.529 9.21555 45.342C9.05422 45.155 9.00105 44.8488 9.05422 44.4198L13.9474 9.94217C14.0005 9.56817 14.1197 9.27483 14.3085 9.06033C14.4956 8.84767 14.7504 8.7395 15.0694 8.7395C15.4434 8.7395 15.7111 8.8605 15.8706 9.10067C16.0301 9.34083 16.0832 9.62133 16.0301 9.94217L14.0262 24.0533H22.8464L24.9309 9.141C25.358 6.04083 24.9034 3.74183 23.5669 2.24583C22.2304 0.749834 19.825 0 16.3509 0C12.983 0 10.3907 0.735167 8.57388 2.2055C6.75522 3.67583 5.63322 5.98767 5.20605 9.141L0.155218 45.221C-0.271949 48.3762 0.182718 50.6862 1.51738 52.1565C2.85205 53.6268 5.23172 54.362 8.65272 54.362C12.18 54.362 14.8274 53.6122 16.591 52.1162C18.3547 50.6202 19.4492 48.3212 19.8782 45.221L21.882 30.789H13.0655Z" fill="#0A0A0A"/>
<path d="M44.014 27.6228C45.1635 26.1525 45.8712 24.4035 46.1389 22.3703L47.9832 9.3005C48.3572 6.57433 47.8219 4.477 46.379 3.00666C44.9362 1.53633 42.6372 0.801163 39.4839 0.801163H38.2006H38.0411H29.3822L22.0049 53.559H30.825L33.7529 32.615C33.8519 32.6022 33.949 32.5875 34.0462 32.5747L34.5925 53.5572H43.5722L41.3117 30.1033C42.3476 29.425 43.2495 28.6 44.014 27.6228ZM36.9796 9.5425H37.8815C38.3087 9.5425 38.6039 9.6635 38.7634 9.90366C38.9247 10.1438 38.9504 10.5582 38.844 11.1467L37.3205 22.2108C37.2674 22.7462 37.1335 23.1862 36.919 23.5345C36.7045 23.8828 36.424 24.1505 36.0775 24.3357C35.7567 24.508 35.3516 24.5978 34.8731 24.6107L36.9796 9.5425Z" fill="#0A0A0A"/>
<path d="M55.2594 44.8213L57.2889 30.3087H64.2208L65.4234 21.648H58.4989L60.1929 9.54249H67.9094L69.1121 0.802994H61.4139H61.3351H52.5956L45.2183 53.5608H53.9578H54.0384H61.7348L63.0181 44.8213H55.2594Z" fill="#0A0A0A"/>
<path d="M75.0066 0.802994L63.6216 53.5608H72.6819L74.2641 44.66H77.2854L76.3687 53.5608H85.3484L88.7969 0.802994H75.0066ZM78.1856 35.9205H75.8187L81.4416 4.30649L78.1856 35.9205Z" fill="#0A0A0A"/>
<path d="M279.575 25.256C279.575 25.1497 279.522 25.0433 279.416 24.9352L279.256 24.695C278.026 22.6637 277.172 20.9953 276.69 19.6845C276.209 18.3755 276.048 17.0518 276.209 15.7153L277.091 9.94217C277.144 9.56817 277.264 9.27483 277.452 9.06033C277.639 8.84767 277.894 8.7395 278.215 8.7395C278.589 8.7395 278.857 8.84767 279.016 9.06033C279.176 9.27483 279.229 9.57 279.176 9.94217L277.892 18.601H286.713L288.077 9.13917C288.557 6.09217 288.117 3.80783 286.753 2.28433C285.389 0.760833 282.971 0 279.497 0C276.129 0 273.549 0.722333 271.76 2.16517C269.969 3.608 268.834 5.93267 268.352 9.141L267.551 15.0737C267.122 17.9593 267.296 20.4728 268.071 22.6105C268.845 24.7482 270.088 27.1535 271.8 29.8265L272.04 30.3875C273.216 32.3657 274.057 34.023 274.567 35.3595C275.075 36.696 275.221 37.9793 275.009 39.2077L274.286 44.4198C274.233 44.7938 274.112 45.089 273.925 45.3017C273.736 45.5162 273.456 45.6225 273.084 45.6225C272.763 45.6225 272.523 45.529 272.361 45.342C272.202 45.155 272.147 44.8488 272.202 44.4198L273.324 36.2413H264.504L263.301 45.221C262.874 48.3762 263.341 50.6862 264.703 52.1565C266.067 53.6268 268.458 54.362 271.879 54.362C275.3 54.362 277.892 53.6268 279.656 52.1565C281.42 50.6862 282.542 48.3762 283.024 45.221L283.746 39.8493C284.173 37.07 284.014 34.6262 283.266 32.5123C282.514 30.4022 281.284 27.9822 279.575 25.256Z" fill="#0A0A0A"/>
<path d="M309.442 2.24583C308.105 0.749834 305.7 0 302.226 0C298.858 0 296.266 0.735167 294.449 2.2055C292.632 3.67583 291.508 5.98767 291.081 9.141L286.03 45.221C285.603 48.3762 286.058 50.6862 287.394 52.1565C288.729 53.6268 291.109 54.362 294.53 54.362C298.057 54.362 300.702 53.6122 302.468 52.1162C304.232 50.6202 305.326 48.3212 305.755 45.221L307.759 30.789H298.939L297.014 44.4198C296.961 44.7938 296.84 45.089 296.653 45.3017C296.464 45.5162 296.183 45.6225 295.811 45.6225C295.49 45.6225 295.25 45.529 295.089 45.342C294.929 45.155 294.874 44.8488 294.929 44.4198L299.821 9.94217C299.874 9.56817 299.993 9.27483 300.182 9.06033C300.369 8.84767 300.624 8.7395 300.944 8.7395C301.318 8.7395 301.586 8.8605 301.746 9.10067C301.905 9.34083 301.958 9.62133 301.905 9.94217L299.901 24.0533H308.721L310.806 9.141C311.233 6.04083 310.778 3.74183 309.442 2.24583Z" fill="#0A0A0A"/>
<path d="M109.033 3.10567C108.041 3.10567 107.192 3.82067 107.025 4.79967L101.788 35.5868C101.131 39.4423 98.5499 40.5827 95.6166 40.5827C94.2507 40.5827 92.8354 40.3682 91.4696 40.0125L86.9688 53.0035C89.0936 53.1465 91.3688 53.361 93.6953 53.361C101.434 53.361 109.374 51.0052 111.953 35.585L117.365 3.10567H109.033Z" fill="white"/>
<path d="M142.057 16.7713L146.136 4.77399C143.899 2.36133 140.062 1.82233 134.813 1.82233C124.142 1.82233 118.427 4.53566 115.897 19.7395L113.116 36.4448C110.588 51.6505 115.391 54.362 126.013 54.362C136.685 54.362 142.35 52.1492 144.93 36.4448L147.711 19.7395C147.804 19.1803 147.887 18.6413 147.96 18.117H143.021C142.323 18.1152 141.833 17.4313 142.057 16.7713ZM137.543 19.7395L134.762 36.4448C134.207 39.7283 132.384 41.7982 128.136 41.7982C123.889 41.7982 122.776 39.7283 123.28 36.4448L126.063 19.7395C126.618 16.456 128.439 14.3862 132.689 14.3862C136.988 14.3843 138.101 16.456 137.543 19.7395Z" fill="white"/>
<path d="M203.539 33.4987L205.829 22.3007H193.865L194.332 18.425L184.282 18.2453C184.036 18.2417 183.822 18.414 183.774 18.6542L176.927 53.075H202.529L204.775 41.7377H189.821L191.518 33.4987H203.539Z" fill="white"/>
<path d="M252.017 24.4292H257.731L262.186 3.07633H251.896C251.712 3.07633 251.542 3.17533 251.452 3.33483L233.306 35.5355C233.186 35.7463 232.869 35.6877 232.833 35.4493L227.791 3.07449H217.737C217.497 3.07449 217.288 3.24316 217.238 3.47966L206.889 53.075H217.416L222.157 30.822L225.074 53.075H234.226L245.743 30.679L241.226 53.075H251.754L255.48 35.2238H250.244L252.017 24.4292Z" fill="white"/>
<path d="M178.944 16.0985H210.105C210.976 16.0985 211.749 15.5448 212.03 14.7217L216.008 3.10565H183.976H175.594H172.179C171.961 3.10565 171.768 3.24315 171.697 3.44849L161.797 32.296C161.611 32.8368 160.812 32.7085 160.807 32.1365L160.491 3.60799C160.488 3.32932 160.262 3.10382 159.982 3.10382H148.608C148.391 3.10382 148.197 3.24132 148.127 3.44665L143.978 15.422C143.865 15.752 144.109 16.0967 144.459 16.0967H149.836C150.107 16.0967 150.331 16.3093 150.344 16.5788L152.038 49.5037C152.19 52.2885 154.667 53.0016 157.804 53.0016C160.939 53.0016 163.67 52.2885 164.783 49.5037L178.471 16.4102C178.551 16.2232 178.738 16.0985 178.944 16.0985Z" fill="white"/>
<path d="M251.776 33.5958H266.423L267.466 26.059H253.078L251.776 33.5958Z" fill="#CFE533"/>
</svg>
