<?xml version="1.0" encoding="utf-8"?>
<!-- Generator: Adobe Illustrator 26.0.0, SVG Export Plug-In . SVG Version: 6.00 Build 0)  -->
<svg version="1.1" id="Capa_1" xmlns="http://www.w3.org/2000/svg" xmlns:xlink="http://www.w3.org/1999/xlink" x="0px" y="0px"
	 viewBox="0 0 174 57" style="enable-background:new 0 0 174 57;" xml:space="preserve">
<style type="text/css">
	.st0{fill-rule:evenodd;clip-rule:evenodd;}
</style>
<path d="M2.9,48.3c-0.5,1.6-0.8,2.6-0.8,2.9c0,0.1,0,0.2,0.1,0.3s0.2,0.1,0.3,0.1c1.1,0,2.3-0.2,3.6-0.5c0.4-0.1,0.7-0.2,0.7-0.2
	C7,50.9,7,51,7,51.2c0,0.3-0.5,0.7-1.6,1c-1,0.4-2,0.5-3,0.5c-0.4,0-0.8-0.1-1.1-0.4c-0.3-0.3-0.5-0.6-0.5-1s0.1-1,0.4-2
	c0.3-0.9,0.6-1.9,0.8-3s0.4-1.9,0.4-2.6c0-0.1,0-0.2,0.1-0.3c0.2-0.3,1.2-0.5,3.1-0.5s2.8,0.1,2.8,0.4c0,0.2-0.2,0.3-0.6,0.4
	C7.5,43.9,7.1,44,6.5,44s-0.9,0.1-1.2,0.1c-0.2,0-0.8,0.1-1.6,0.3l0,0c0,0.6-0.2,1.6-0.5,2.9c0.1,0,0.2,0,0.6,0c0.3,0,0.8,0,1.3-0.1
	c0.5,0,0.9-0.1,1.2-0.1c0.3,0,0.4,0.1,0.4,0.2c0,0.3-0.4,0.6-1.1,0.7C4.8,48.3,3.9,48.3,2.9,48.3z M10,50.4c0.9-1.5,1.6-2.7,2.2-3.4
	c0.6-0.7,1-1.1,1.4-1.1s0.7,0.2,1,0.6c0.3,0.4,0.5,0.8,0.5,1.2c0,0.7-0.2,1.5-0.5,2.5c-0.6,1.8-1.1,2.7-1.5,2.7
	c-0.2,0-0.3-0.1-0.3-0.4c0-0.2,0.1-0.6,0.3-1.2c0.2-0.6,0.4-1.2,0.6-1.8c0.2-0.6,0.3-1,0.3-1.3s0-0.5-0.1-0.7
	c-0.1-0.1-0.2-0.2-0.3-0.2s-0.2,0-0.3,0.1s-0.2,0.1-0.3,0.3c-0.1,0.1-0.2,0.3-0.3,0.4c-0.1,0.1-0.2,0.3-0.4,0.5
	c-0.1,0.2-0.3,0.4-0.4,0.6c-0.1,0.2-0.3,0.4-0.4,0.7c-0.2,0.3-0.3,0.5-0.4,0.7c-0.1,0.2-0.2,0.4-0.4,0.6s-0.3,0.5-0.4,0.6
	c-0.1,0.1-0.2,0.3-0.3,0.5c-0.2,0.3-0.4,0.5-0.6,0.5c-0.1,0-0.3-0.1-0.5-0.3s-0.3-0.4-0.3-0.6c0,0,0-0.2,0.1-0.4
	c0.2-0.5,0.4-1.2,0.6-2c0.2-0.8,0.3-1.7,0.4-2.7c0-0.7,0.1-1,0.3-1s0.4,0.1,0.6,0.3c0.2,0.2,0.3,0.5,0.3,0.7c0,0.3-0.1,0.7-0.2,1.5
	C10.4,49,10.2,49.7,10,50.4z M17.7,51.4c0,0.2,0.1,0.3,0.3,0.3c0.4,0,0.8-0.1,1.3-0.3s0.8-0.3,0.9-0.3c0.2,0,0.3,0.1,0.3,0.3
	c0,0.3-0.3,0.6-0.8,0.9c-0.6,0.4-1.1,0.5-1.5,0.5s-0.8-0.1-1.1-0.4c-0.3-0.3-0.4-0.5-0.4-0.8s0.1-0.6,0.2-1s0.3-0.9,0.5-1.6
	c0.2-0.7,0.4-1.2,0.5-1.7c-0.4,0.1-0.7,0.2-0.9,0.2s-0.3-0.1-0.4-0.2C16.1,47.2,16,47,16,46.9c0-0.2,0.6-0.4,1.8-0.6
	c0.2-0.8,0.3-1.5,0.3-2.1c0-0.3,0.1-0.4,0.3-0.4c0.2,0,0.4,0.1,0.6,0.3s0.4,0.4,0.4,0.7s-0.1,0.7-0.2,1.3c0.5,0,1-0.1,1.3-0.1
	c0.6,0,0.8,0.1,0.8,0.4c0,0.1-0.2,0.3-0.5,0.4c-0.3,0.1-0.9,0.2-1.9,0.4c-0.2,0.7-0.4,1.6-0.7,2.5C17.8,50.6,17.7,51.2,17.7,51.4z
	 M22.3,47.6v-1c0-0.4,0.1-0.7,0.3-0.7c0.2,0,0.3,0.1,0.5,0.3s0.3,0.5,0.3,0.8s0,0.5,0,0.7c0.8-1.2,1.6-1.8,2.3-1.8
	c0.5,0,0.7,0.1,0.7,0.3c0,0.1-0.1,0.2-0.2,0.3s-0.3,0.2-0.5,0.3c-0.5,0.2-0.9,0.5-1.3,1c-0.3,0.4-0.6,0.9-0.8,1.5
	c-0.2,0.6-0.4,1-0.5,1.4s-0.2,0.7-0.3,0.9c-0.1,0.2-0.1,0.4-0.2,0.6c-0.1,0.4-0.3,0.6-0.5,0.6s-0.3-0.1-0.4-0.3s-0.1-0.4-0.1-0.5
	c0-0.2,0.1-0.5,0.2-1C22.2,49.8,22.3,48.7,22.3,47.6z M31.7,48.2c0,0.5-0.3,0.9-0.8,1.2s-1.1,0.5-1.8,0.5c-0.7,0-1.3-0.1-1.8-0.2
	c-0.1,0.4-0.2,0.8-0.2,1.1s0.1,0.6,0.3,0.7c0.2,0.2,0.5,0.3,1,0.3s0.9-0.1,1.4-0.2c0.5-0.2,0.8-0.3,0.8-0.3c0.2,0,0.4,0.1,0.4,0.3
	c0,0.3-0.3,0.5-0.9,0.8s-1.1,0.4-1.7,0.4c-0.7,0-1.3-0.2-1.8-0.6c-0.5-0.4-0.7-1-0.7-1.7s0.2-1.4,0.5-2.1c0.4-0.7,0.8-1.3,1.4-1.8
	s1.1-0.7,1.7-0.7s1,0.3,1.5,0.8S31.7,47.7,31.7,48.2z M29.6,47c-0.3,0-0.7,0.2-1.1,0.5c-0.4,0.4-0.7,0.8-1,1.3
	c0.4,0.1,0.8,0.1,1.3,0.1s0.9-0.1,1.2-0.2c0.4-0.2,0.5-0.4,0.5-0.6c0-0.3-0.1-0.5-0.4-0.8C30.1,47.1,29.8,47,29.6,47z M38,49
	c0,0.4-0.2,0.8-0.5,1.3c-0.3,0.6-0.5,1.4-0.8,2.5s-0.5,1.8-0.7,2.3c-0.4,1-1,1.4-1.8,1.4c-0.7,0-1.2-0.2-1.7-0.5
	c-0.4-0.4-0.7-0.7-0.7-1.1c0-0.1,0-0.3,0.1-0.4c0.1-0.1,0.2-0.2,0.3-0.2c0.1,0,0.2,0.1,0.3,0.2c0.1,0.1,0.2,0.3,0.3,0.4
	c0.1,0.2,0.3,0.3,0.5,0.5c0.2,0.1,0.4,0.2,0.6,0.2c0.2,0,0.4,0,0.5-0.1s0.2-0.2,0.3-0.3s0.2-0.3,0.2-0.4c0.1-0.1,0.1-0.3,0.2-0.6
	c0.1-0.2,0.1-0.5,0.2-0.6c0-0.2,0.1-0.4,0.2-0.7c0.1-0.3,0.2-0.6,0.2-0.8c-0.7,0.5-1.3,0.8-1.8,0.8s-0.9-0.2-1.2-0.5
	c-0.3-0.4-0.5-0.8-0.5-1.3s0.2-1.1,0.5-2c0.4-0.8,0.9-1.5,1.5-2.2c0.6-0.6,1.2-1,1.8-1c0.4,0,0.7,0.1,1,0.4c0.4,0.5,0.6,1.2,0.6,2
	c0,0.1,0,0.2,0,0.2C37.9,48.7,38,48.9,38,49z M33.5,51.1c0,0.2,0.1,0.3,0.2,0.4c0.1,0.1,0.2,0.1,0.4,0.1c0.5,0,1-0.3,1.7-0.8
	c0.6-0.6,1.1-1.2,1.3-1.9c0-0.1-0.1-0.3-0.1-0.6s-0.1-0.5-0.1-0.6s-0.1-0.3-0.2-0.4c-0.1-0.2-0.2-0.2-0.4-0.2
	c-0.4,0-0.8,0.3-1.2,0.8c-0.5,0.5-0.8,1.1-1.1,1.8C33.6,50.2,33.5,50.7,33.5,51.1z M42.8,45.8c0.4,0,0.8,0.2,1.2,0.6
	c0.4,0.4,0.5,0.8,0.5,1.1s-0.1,0.7-0.3,1c0.1,0.1,0.2,0.3,0.2,0.4c0,0.3-0.1,0.7-0.2,1.3c-0.1,0.6-0.2,1-0.2,1.2s0,0.4-0.1,0.5
	c0,0.1,0,0.2-0.1,0.3c0,0.2-0.1,0.4-0.3,0.4s-0.3-0.1-0.4-0.4c-0.1-0.3-0.2-0.7-0.2-1.1c-0.8,1.1-1.6,1.6-2.3,1.6
	c-0.4,0-0.9-0.2-1.3-0.5c-0.4-0.4-0.6-0.8-0.6-1.1c0-0.6,0.2-1.3,0.6-2.1c0.4-0.8,0.9-1.6,1.6-2.2S42.2,45.8,42.8,45.8z M43.5,48.3
	c0-0.9-0.2-1.3-0.5-1.3c-0.4,0-0.8,0.3-1.3,0.8s-0.9,1.1-1.2,1.8S40,50.8,40,51.2c0,0.2,0.1,0.3,0.2,0.4c0.1,0.1,0.3,0.1,0.5,0.1
	c0.4,0,0.9-0.3,1.5-0.9c0.6-0.6,0.9-1.3,1.1-2.2C43.2,48.4,43.3,48.4,43.5,48.3L43.5,48.3z M47,50.4c0.9-1.5,1.6-2.7,2.2-3.4
	c0.6-0.7,1-1.1,1.4-1.1s0.7,0.2,1,0.6c0.3,0.4,0.5,0.8,0.5,1.2c0,0.7-0.2,1.5-0.5,2.5c-0.6,1.8-1.1,2.7-1.5,2.7
	c-0.2,0-0.3-0.1-0.3-0.4c0-0.2,0.1-0.6,0.3-1.2c0.2-0.6,0.4-1.2,0.6-1.8c0.2-0.6,0.3-1,0.3-1.3s0-0.5-0.1-0.7
	c-0.1-0.1-0.2-0.2-0.3-0.2s-0.2,0-0.3,0.1s-0.2,0.1-0.3,0.3c-0.1,0.1-0.2,0.3-0.3,0.4c-0.1,0.1-0.2,0.3-0.4,0.5
	c-0.1,0.2-0.3,0.4-0.4,0.6c-0.1,0.2-0.3,0.4-0.4,0.7c-0.2,0.3-0.3,0.5-0.4,0.7c-0.1,0.2-0.2,0.4-0.4,0.6s-0.3,0.5-0.4,0.6
	c-0.1,0.1-0.2,0.3-0.3,0.5c-0.2,0.3-0.4,0.5-0.6,0.5c-0.1,0-0.3-0.1-0.5-0.3s-0.3-0.4-0.3-0.6c0,0,0-0.2,0.1-0.4
	c0.2-0.5,0.4-1.2,0.6-2c0.2-0.8,0.3-1.7,0.3-2.7c0-0.7,0.1-1,0.3-1s0.4,0.1,0.6,0.3s0.3,0.5,0.3,0.7c0,0.3-0.1,0.7-0.2,1.5
	C47.4,49,47.2,49.7,47,50.4z M59.1,41.9c0.1,0,0.3,0.1,0.5,0.4c0.2,0.3,0.3,0.5,0.3,0.8c0,0.2-0.1,0.9-0.3,2.1
	c-0.2,1.1-0.5,2.3-0.8,3.5c-0.7,2.7-1.1,4.1-1.3,4.1c-0.1,0-0.3-0.1-0.4-0.2c-0.1-0.2-0.2-0.3-0.2-0.4s0-0.4,0.1-0.7
	c-0.9,0.9-1.7,1.4-2.4,1.4c-0.4,0-0.8-0.2-1.1-0.6c-0.3-0.4-0.5-0.8-0.5-1.2c0-0.6,0.2-1.3,0.5-2.1s0.8-1.5,1.4-2.2
	c0.6-0.7,1.2-1,1.9-1s1.1,0.4,1.4,1.2c0.5-2,0.7-3.5,0.8-4.7C58.8,42.1,58.9,41.9,59.1,41.9z M57.6,48.8c0-0.5-0.1-0.9-0.3-1.3
	c-0.2-0.3-0.4-0.5-0.6-0.5c-0.4,0-0.8,0.2-1.2,0.7s-0.8,1.1-1,1.7c-0.2,0.6-0.4,1.2-0.4,1.7c0,0.2,0.1,0.3,0.2,0.4
	c0.1,0.1,0.3,0.2,0.4,0.2c0.4,0,0.9-0.3,1.5-0.8s1.1-1.1,1.4-1.8L57.6,48.8L57.6,48.8z M64.3,48.2c0-0.3-0.1-0.6-0.2-0.9
	c-0.1-0.3-0.3-0.5-0.4-0.6c-0.6,0.2-1.2,0.7-1.7,1.5s-0.7,1.6-0.7,2.3s0.2,1.2,0.5,1.3c0.7-0.1,1.2-0.6,1.7-1.4
	C64.1,49.7,64.3,48.9,64.3,48.2z M60.6,48.4c0.3-0.7,0.8-1.3,1.3-1.8s1.1-0.7,1.6-0.7c0.6,0,1,0.2,1.4,0.7c0.4,0.5,0.6,1,0.6,1.7
	s-0.2,1.4-0.5,2.1c-0.3,0.7-0.8,1.3-1.4,1.8s-1.2,0.7-1.8,0.7c-0.5,0-0.9-0.2-1.2-0.7c-0.3-0.4-0.5-1-0.5-1.7
	C60.2,49.8,60.3,49.1,60.6,48.4z M76.9,45.8c0.2,0,0.3,0.1,0.5,0.2c0.1,0.1,0.2,0.2,0.2,0.4c0,0.3-0.3,1.1-1,2.6s-1.2,2.5-1.4,3
	c-0.3,0.5-0.5,0.8-0.7,0.8c-0.1,0-0.3-0.1-0.4-0.3c-0.2-0.2-0.3-0.4-0.4-0.6c-0.3-0.6-0.5-1.5-0.8-2.8s-0.4-2.3-0.4-2.9
	c0-0.3,0.1-0.4,0.3-0.4c0.2,0,0.4,0.1,0.6,0.3s0.4,0.4,0.4,0.6c0,0.1,0.1,0.5,0.1,1.1c0.1,1.5,0.4,2.6,0.7,3.4
	c0.3-0.5,0.6-1.3,1-2.3s0.7-1.8,1-2.3C76.6,46.1,76.8,45.8,76.9,45.8z M81.7,45.8c0.4,0,0.8,0.2,1.2,0.6c0.4,0.4,0.5,0.8,0.5,1.1
	s-0.1,0.7-0.3,1c0.1,0.1,0.2,0.3,0.2,0.4c0,0.3-0.1,0.7-0.2,1.3s-0.2,1-0.2,1.2s0,0.4-0.1,0.5c0,0.1,0,0.2-0.1,0.3
	c0,0.2-0.1,0.4-0.3,0.4c-0.2,0-0.3-0.1-0.4-0.4c-0.1-0.3-0.2-0.7-0.2-1.1c-0.8,1.1-1.6,1.6-2.3,1.6c-0.4,0-0.9-0.2-1.3-0.5
	c-0.4-0.4-0.6-0.8-0.6-1.1c0-0.6,0.2-1.3,0.6-2.1s0.9-1.6,1.6-2.2S81.1,45.8,81.7,45.8z M82.3,48.3c0-0.9-0.2-1.3-0.5-1.3
	c-0.4,0-0.8,0.3-1.3,0.8s-0.9,1.1-1.2,1.8c-0.3,0.7-0.5,1.2-0.5,1.6c0,0.2,0.1,0.3,0.2,0.4c0.1,0.1,0.3,0.1,0.5,0.1
	c0.4,0,0.9-0.3,1.5-0.9c0.6-0.6,0.9-1.3,1.1-2.2C82.1,48.4,82.2,48.4,82.3,48.3L82.3,48.3z M87.3,43.1c0,1.8-0.4,4-1.1,6.8
	c-0.5,1.9-0.8,2.9-1,2.9c-0.1,0-0.3-0.1-0.5-0.3s-0.3-0.4-0.3-0.5s0.1-0.7,0.4-1.7s0.5-2.3,0.8-3.9c0.3-1.5,0.4-2.9,0.4-4.1
	c0-0.1,0-0.2,0.1-0.3c0-0.1,0.1-0.1,0.2-0.1s0.3,0.1,0.5,0.4C87.2,42.6,87.3,42.8,87.3,43.1z M92.2,48.2c0-0.3-0.1-0.6-0.2-0.9
	c-0.1-0.3-0.3-0.5-0.4-0.6c-0.6,0.2-1.2,0.7-1.7,1.5s-0.7,1.6-0.7,2.3s0.2,1.2,0.5,1.3c0.7-0.1,1.2-0.6,1.7-1.4
	C92,49.7,92.2,48.9,92.2,48.2z M88.5,48.4c0.3-0.7,0.8-1.3,1.3-1.8s1.1-0.7,1.6-0.7c0.6,0,1,0.2,1.4,0.7s0.6,1,0.6,1.7
	s-0.2,1.4-0.5,2.1c-0.3,0.7-0.8,1.3-1.4,1.8s-1.2,0.7-1.8,0.7c-0.5,0-0.9-0.2-1.2-0.7c-0.3-0.4-0.5-1-0.5-1.7S88.2,49.1,88.5,48.4z
	 M95.1,47.6v-1c0-0.4,0.1-0.7,0.3-0.7c0.2,0,0.3,0.1,0.5,0.3s0.3,0.5,0.3,0.8s0,0.5,0,0.7c0.8-1.2,1.6-1.8,2.3-1.8
	c0.5,0,0.7,0.1,0.7,0.3c0,0.1-0.1,0.2-0.2,0.3s-0.3,0.2-0.5,0.3c-0.5,0.2-0.9,0.5-1.3,1c-0.3,0.4-0.6,0.9-0.8,1.5
	c-0.2,0.6-0.4,1-0.5,1.4s-0.2,0.7-0.3,0.9c-0.1,0.2-0.1,0.4-0.2,0.6c-0.1,0.4-0.3,0.6-0.5,0.6s-0.3-0.1-0.4-0.3s-0.1-0.4-0.1-0.5
	c0-0.2,0.1-0.5,0.2-1C95,49.8,95.1,48.7,95.1,47.6z M109.1,45.8c0.4,0,0.7,0.3,1,0.8s0.4,1,0.4,1.6c0,0.5-0.2,1.1-0.5,1.6
	s-0.7,1-1.2,1.5c-0.5,0.4-1,0.8-1.6,1.1s-1.1,0.4-1.6,0.4c-0.2,0-0.4,0-0.5-0.1c0,0.2-0.1,0.4-0.2,0.9c-0.1,0.4-0.2,0.8-0.2,1
	c-0.1,0.3-0.1,0.6-0.2,0.9c-0.2,0.6-0.3,1-0.4,1s-0.3-0.1-0.4-0.3s-0.2-0.4-0.2-0.5s0.1-0.8,0.4-2c0.9-3.6,1.3-6.1,1.3-7.3
	c0-0.3,0.1-0.4,0.3-0.4c0.2,0,0.4,0.1,0.6,0.4c0.2,0.2,0.4,0.5,0.4,0.8c0,0.1,0,0.3-0.1,0.5C107.4,46.3,108.3,45.8,109.1,45.8z
	 M105.7,51.7c0.5,0,1-0.2,1.6-0.5s1.1-0.8,1.5-1.3c0.4-0.6,0.6-1.1,0.6-1.7c0-0.8-0.2-1.2-0.5-1.2c-0.4,0-0.9,0.3-1.5,0.9
	c-0.6,0.6-1.1,1.4-1.5,2.4l-0.3,1.3L105.7,51.7L105.7,51.7z M115,45.8c0.4,0,0.8,0.2,1.2,0.6c0.4,0.4,0.5,0.8,0.5,1.1
	s-0.1,0.7-0.3,1c0.1,0.1,0.2,0.3,0.2,0.4c0,0.3-0.1,0.7-0.2,1.3s-0.2,1-0.2,1.2s0,0.4-0.1,0.5c0,0.1,0,0.2-0.1,0.3
	c0,0.2-0.1,0.4-0.3,0.4c-0.2,0-0.3-0.1-0.4-0.4c-0.1-0.3-0.2-0.7-0.2-1.1c-0.8,1.1-1.6,1.6-2.3,1.6c-0.4,0-0.9-0.2-1.3-0.5
	c-0.4-0.4-0.6-0.8-0.6-1.1c0-0.6,0.2-1.3,0.6-2.1s0.9-1.6,1.6-2.2C113.8,46.2,114.4,45.8,115,45.8z M115.6,48.3
	c0-0.9-0.2-1.3-0.5-1.3c-0.4,0-0.8,0.3-1.3,0.8s-0.9,1.1-1.2,1.8c-0.3,0.7-0.5,1.2-0.5,1.6c0,0.2,0.1,0.3,0.2,0.4
	c0.1,0.1,0.3,0.1,0.5,0.1c0.4,0,0.9-0.3,1.5-0.9c0.6-0.6,0.9-1.3,1.1-2.2C115.4,48.4,115.5,48.4,115.6,48.3L115.6,48.3z M118.6,47.6
	v-1c0-0.4,0.1-0.7,0.3-0.7c0.2,0,0.3,0.1,0.5,0.3s0.3,0.5,0.3,0.8s0,0.5,0,0.7c0.8-1.2,1.6-1.8,2.3-1.8c0.5,0,0.7,0.1,0.7,0.3
	c0,0.1-0.1,0.2-0.2,0.3s-0.3,0.2-0.5,0.3c-0.5,0.2-0.9,0.5-1.3,1c-0.3,0.4-0.6,0.9-0.8,1.5c-0.2,0.6-0.4,1-0.5,1.4s-0.2,0.7-0.3,0.9
	c-0.1,0.2-0.1,0.4-0.2,0.6c-0.1,0.4-0.3,0.6-0.5,0.6s-0.3-0.1-0.4-0.3s-0.1-0.4-0.1-0.5c0-0.2,0.1-0.5,0.2-1
	C118.5,49.8,118.6,48.7,118.6,47.6z M126.2,45.8c0.4,0,0.8,0.2,1.2,0.6c0.4,0.4,0.5,0.8,0.5,1.1s-0.1,0.7-0.3,1
	c0.1,0.1,0.2,0.3,0.2,0.4c0,0.3-0.1,0.7-0.2,1.3s-0.2,1-0.2,1.2s0,0.4-0.1,0.5c0,0.1,0,0.2-0.1,0.3c0,0.2-0.1,0.4-0.3,0.4
	c-0.2,0-0.3-0.1-0.4-0.4c-0.1-0.3-0.2-0.7-0.2-1.1c-0.8,1.1-1.6,1.6-2.3,1.6c-0.4,0-0.9-0.2-1.3-0.5c-0.4-0.4-0.6-0.8-0.6-1.1
	c0-0.6,0.2-1.3,0.6-2.1s0.9-1.6,1.6-2.2C125,46.2,125.6,45.8,126.2,45.8z M126.8,48.3c0-0.9-0.2-1.3-0.5-1.3c-0.4,0-0.8,0.3-1.3,0.8
	s-0.9,1.1-1.2,1.8c-0.3,0.7-0.5,1.2-0.5,1.6c0,0.2,0.1,0.3,0.2,0.4c0.1,0.1,0.3,0.1,0.5,0.1c0.4,0,0.9-0.3,1.5-0.9
	c0.5-0.6,0.9-1.3,1.1-2.2C126.6,48.4,126.7,48.4,126.8,48.3L126.8,48.3z M139.5,45.8c0.2,0,0.3,0.1,0.5,0.2c0.2,0.1,0.2,0.2,0.2,0.4
	c0,0.3-0.3,1.1-1,2.6s-1.2,2.5-1.4,3c-0.3,0.5-0.5,0.8-0.7,0.8c-0.1,0-0.3-0.1-0.4-0.3c-0.2-0.2-0.3-0.4-0.4-0.6
	c-0.3-0.6-0.5-1.5-0.8-2.8s-0.4-2.3-0.4-2.9c0-0.3,0.1-0.4,0.3-0.4s0.4,0.1,0.6,0.3c0.2,0.2,0.4,0.4,0.4,0.6c0,0.1,0.1,0.5,0.1,1.1
	c0.1,1.5,0.4,2.6,0.7,3.4c0.3-0.5,0.6-1.3,1-2.3s0.7-1.8,1-2.3C139.1,46.1,139.3,45.8,139.5,45.8z M144.8,48.2
	c0-0.3-0.1-0.6-0.2-0.9c-0.1-0.3-0.3-0.5-0.4-0.6c-0.6,0.2-1.2,0.7-1.7,1.5s-0.7,1.6-0.7,2.3s0.2,1.2,0.5,1.3
	c0.7-0.1,1.2-0.6,1.7-1.4C144.5,49.7,144.8,48.9,144.8,48.2z M141.1,48.4c0.3-0.7,0.8-1.3,1.3-1.8s1.1-0.7,1.6-0.7
	c0.6,0,1,0.2,1.4,0.7s0.6,1,0.6,1.7s-0.2,1.4-0.5,2.1c-0.3,0.7-0.8,1.3-1.4,1.8c-0.6,0.5-1.2,0.7-1.8,0.7c-0.5,0-0.9-0.2-1.2-0.7
	c-0.3-0.4-0.5-1-0.5-1.7C140.6,49.8,140.8,49.1,141.1,48.4z M149.1,52.8c-0.5,0-1.1-0.2-1.5-0.6c-0.5-0.4-0.7-0.9-0.7-1.5
	s0.2-1.3,0.6-2c0.4-0.8,0.9-1.4,1.5-2c0.6-0.5,1.2-0.8,1.8-0.8c0.4,0,0.7,0.2,1,0.5s0.4,0.6,0.4,0.9c0,0.1,0,0.1-0.1,0.2
	c0,0-0.1,0.1-0.2,0.1c-0.1,0-0.2-0.1-0.5-0.3c-0.2-0.2-0.4-0.3-0.6-0.3c-0.5,0-1.1,0.4-1.8,1.3c-0.7,0.9-1,1.7-1,2.3
	c0,0.3,0.1,0.5,0.3,0.7s0.5,0.3,0.9,0.3s0.8,0,1.1-0.1s0.6-0.2,0.8-0.3s0.3-0.2,0.4-0.2c0.2,0,0.3,0.1,0.3,0.3c0,0.3-0.3,0.6-1,1
	C150.3,52.6,149.7,52.8,149.1,52.8z M158.8,44.4c0.1,0.1,0.1,0.2,0.2,0.3c0,0.1,0.1,0.2,0.1,0.2c0,0.1,0,0.1-0.1,0.2
	c-0.1,0.1-0.2,0.1-0.3,0.1s-0.3-0.1-0.5-0.3s-0.4-0.3-0.5-0.5c-0.1-0.1-0.3-0.4-0.5-0.7c-0.3,0.1-0.5,0.3-0.8,0.5s-0.5,0.4-0.7,0.5
	s-0.3,0.2-0.5,0.2c-0.1,0-0.2,0-0.3-0.1s-0.1-0.2-0.1-0.4s0.1-0.3,0.2-0.5c0.1-0.2,0.3-0.3,0.6-0.4c0.2-0.1,0.4-0.2,0.6-0.3
	c0.1-0.1,0.3-0.2,0.4-0.2c0.1-0.1,0.2-0.1,0.3-0.2c0.2-0.1,0.4-0.2,0.5-0.2s0.2,0,0.3,0.1c0.1,0,0.1,0.1,0.2,0.2
	c0.1,0.1,0.2,0.2,0.3,0.4s0.3,0.3,0.4,0.5c0.1,0.1,0.2,0.3,0.3,0.3C158.6,44.2,158.7,44.3,158.8,44.4z M153.4,48.4
	c0.4-0.7,0.8-1.3,1.4-1.8c0.6-0.5,1.1-0.7,1.7-0.7c0.6,0,1.1,0.3,1.5,0.8c0.5,0.5,0.7,1,0.7,1.5s-0.3,0.9-0.8,1.2s-1.2,0.5-1.8,0.5
	c-0.7,0-1.3-0.1-1.8-0.2c-0.1,0.4-0.2,0.8-0.2,1.1s0.1,0.6,0.3,0.7c0.2,0.2,0.5,0.3,1,0.3s0.9-0.1,1.4-0.2c0.5-0.2,0.8-0.3,0.8-0.3
	c0.2,0,0.4,0.1,0.4,0.3c0,0.3-0.3,0.5-0.9,0.8c-0.6,0.3-1.1,0.4-1.7,0.4c-0.7,0-1.3-0.2-1.8-0.6c-0.5-0.4-0.7-1-0.7-1.7
	S153.1,49.1,153.4,48.4z M154.5,48.8c0.4,0.1,0.9,0.1,1.3,0.1c0.5,0,0.9-0.1,1.2-0.2c0.4-0.2,0.5-0.4,0.5-0.6c0-0.3-0.1-0.5-0.3-0.8
	s-0.4-0.4-0.7-0.4c-0.4,0-0.7,0.2-1.1,0.5C155.1,47.9,154.8,48.3,154.5,48.8z M160,51.3c0.2-0.2,0.3-0.3,0.5-0.3s0.3,0.2,0.6,0.7
	c0.2,0.4,0.3,0.8,0.3,1c0,0.1,0,0.1-0.1,0.2c-0.1,0.1-0.2,0.1-0.3,0.1c-0.2,0-0.5-0.1-0.8-0.4c-0.3-0.3-0.4-0.5-0.4-0.7
	C159.8,51.7,159.8,51.5,160,51.3z M161.8,41.7c0.2,0,0.4,0.1,0.7,0.3s0.5,0.4,0.5,0.5c0,0.8-0.2,2.2-0.6,4.2c-0.4,2-0.7,3-1,3
	c-0.2,0-0.3-0.1-0.4-0.2c-0.1-0.2-0.2-0.3-0.2-0.5c0-0.1,0-0.4,0.2-1c0.1-0.6,0.3-1.5,0.4-2.6c0.1-1.1,0.2-2.2,0.2-3.4
	C161.6,41.8,161.7,41.7,161.8,41.7z"/>
<path class="st0" d="M18.9,2.9L18,2.8l-0.2-1.1c-0.7-0.1-1.5-0.1-2.2,0l-0.2,1.1l-0.9,0.1l-0.5-1c-0.7,0.1-1.4,0.3-2.1,0.6L12,3.6
	L11,4l-0.8-0.9C9.5,3.5,8.9,3.9,8.3,4.3l0.4,1.1L7.9,5.9L7,5.3c-0.6,0.5-1.1,1-1.6,1.6l0.7,0.9L5.5,8.5L4.4,8.2
	C4,8.8,3.6,9.5,3.3,10.1l0.9,0.7l-0.4,0.9l-1.1-0.1c-0.3,0.7-0.4,1.4-0.6,2.1l1,0.5l-0.1,1l-1.1,0.2c-0.1,0.7,0,1.5,0,2.2L3,17.9
	l0.1,0.9l-1,0.5c0.1,0.7,0.3,1.4,0.6,2.1l1.1-0.1l0.4,0.9L3.3,23c0.3,0.7,0.7,1.3,1.1,2l1.1-0.4l0.6,0.8l-0.6,1
	C6,27,6.5,27.5,7.1,28L8,27.3l0.8,0.6L8.4,29c0.6,0.4,1.3,0.8,1.9,1.1l0.7-0.9l0.9,0.4l-0.1,1.1c0.7,0.2,1.4,0.4,2.1,0.6l0.5-1
	l0.9,0.1l0.2,1.1c0.7,0.1,1.5,0.1,2.2,0l0.2-1.1l0.9-0.1l0.5,1c0.7-0.1,1.4-0.3,2.1-0.6l-0.1-1.1l0.9-0.4l0.8,0.9
	c0.7-0.3,1.3-0.7,1.9-1.1l-0.4-1.1l0.7-0.6l1,0.6c0.6-0.5,1.1-1,1.6-1.6l-0.6-0.9l0.6-0.7l1.1,0.4c0.4-0.6,0.8-1.2,1.1-1.9l-0.9-0.7
	l0.4-0.9l1.1,0.1c0.2-0.7,0.4-1.4,0.6-2.1l-1-0.5l0.1-1l1.1-0.2c0.1-0.7,0.1-1.5,0-2.2l-1.1-0.2l-0.1-0.9l1-0.5
	c-0.1-0.7-0.3-1.5-0.6-2.2L29.5,12l-0.3-0.9l0.8-0.8c-0.3-0.7-0.7-1.3-1.1-1.9l-1.1,0.4L27.2,8l0.6-1c-0.5-0.6-1-1.1-1.6-1.6
	l-0.9,0.7l-0.8-0.6L25,4.2c-0.6-0.4-1.3-0.8-1.9-1.1L22.4,4l-0.9-0.4l0.1-1.1c-0.7-0.3-1.4-0.4-2.1-0.6L18.9,2.9z M16.7,4.8
	c6.5,0,11.8,5.3,11.8,11.8s-5.3,11.8-11.8,11.8S4.9,23.1,4.9,16.6C4.9,10.1,10.2,4.8,16.7,4.8z M12.8,25.8v0.6v0.4v0.5l0,0l-0.5-0.2
	l-0.5-0.2l-0.5-0.3l-0.5-0.3L10.3,26l-0.4-0.3l-0.4-0.3L9.1,25l-0.4-0.4l-0.4-0.4l-0.4-0.4l-0.3-0.4L7.3,23L7,22.5L6.7,22l-0.3-0.5
	L6.2,21L6,20.5L5.8,20l-0.2-0.5l-0.1-0.6l-0.1-0.6l-0.1-0.6v-0.6v-0.6v-0.6v-0.6l0.1-0.6l0.1-0.6l0.1-0.6L5.8,13L6,12.7l0.2-0.5
	l0.2-0.5l0.3-0.5L7,10.7l0.3-0.5l0.3-0.4l0.3-0.4L8.3,9l0.4-0.4l0.4-0.4l0.4-0.4l0.4-0.3l0.4-0.3l0.5-0.3l0.5-0.3l0.5-0.3l0.5-0.2
	l0.5-0.2l0.5-0.2l0.5-0.2l0.6-0.1L15,5.3l0.6-0.1h0.6h0.6h0.6H18l0.6,0.1L19,5.4l0.5,0.1L20,5.7l0.5,0.2L21,6.1l0.5,0.2L22,6.6
	l0.5,0.3L23,7.2l0.4,0.3l0.4,0.3l0.4,0.4l0.4,0.4L25,9l0.4,0.4l0.3,0.4l0.3,0.4l0.3,0.5l0.3,0.5l0.3,0.5l0.2,0.5l0.2,0.5l0.2,0.5
	l0.2,0.5l0.1,0.6l0.1,0.6l0.1,0.6v0.6v0.6v0.6v0.6l-0.1,0.6l-0.1,0.6l-0.1,0.6L27.5,20l-0.2,0.5L27.2,21L27,21.5L26.7,22l-0.3,0.5
	L26.1,23l-0.3,0.4l-0.3,0.4l-0.4,0.4l-0.4,0.4L24.3,25l-0.4,0.4l-0.4,0.3L23.1,26l-0.5,0.3l-0.5,0.3l-0.5,0.3l-0.5,0.2l-0.5,0.2
	v-0.4v-0.4v-0.6l2-0.9c0.1-0.1,0.1-0.2,0.1-0.4l-0.1-0.2v-1.6c0-0.2-0.1-0.3-0.3-0.3h-0.8c-0.3,0-0.4-0.2-0.2-0.5c0.4-1,0.1-2-0.8-3
	c-0.2-0.1-0.3-0.2-0.3-0.6s-0.2-0.7-0.4-0.9c0-0.3-0.1-0.8-0.3-0.8v-0.1l-0.1-0.2c0-0.2,0-0.3,0-0.5c0.3-0.2,0.6-0.4,0.8-0.7
	c0,0.2,0,0.3,0,0.5s0.1,0.4,0.2,0.6c0.2,0.3,0.2,0.7,0.1,1.2c0,0.4,0,0.8,0.3,1.1c0.3,0.4,0.8,0.7,1.2,0.5c-0.2-0.5-0.1-1.2,0.1-1.8
	l0.1-0.4v-1.2c0-0.2,0.1-0.4,0.2-0.6l0.2-0.6c1.8-6.9-5.8-9.9-9.2-6.3C14,8.3,14.6,8.5,14.9,9c0.2,0.3,0.1,0.4-0.2,0.4
	c-0.1,0-0.4-0.1-0.7-0.1C13.8,9,13.7,9,13.5,9h-0.1h-0.1l0,0l0,0l0,0l0,0l0,0l0,0l0,0l0,0l0,0l0,0v0.1v0.1v0.1v0.1v0.1v0.1v0.1v0.1
	v0.1V10l-0.2,0.2c0,0,0,0,0,0.1c0,0,0,0,0,0.1c0,0,0,0,0,0.1c0,0,0,0,0,0.1l0,0l0,0v0.1v0.1v0.1V11v0.1v0.1v0.1v0.1v0.1l0,0
	c0,0,0,0,0,0.1v0.1l0,0v0.1v0.1V12v0.1v0.1v0.1l0,0l0,0l0,0l0,0l0,0l0,0l0,0v0.1c0,0.1,0,0.2,0,0.2v0.1l0,0l0,0l0,0l0,0l0,0l0,0l0,0
	l0,0l0,0c0,0.1-0.1,0.1-0.1,0.2c0,0.1-0.1,0.1-0.1,0.2c0,0.1-0.1,0.1-0.1,0.2c-0.1,0.1-0.2,0.3-0.3,0.4l0,0l0,0l0,0l0,0l0,0l0,0l0,0
	l0,0l0,0c0.1,0.1,0.2,0.1,0.2,0.2c0,0,0,0,0,0.1l0,0l0,0l0,0l0,0l0,0l0,0c0,0.1,0,0.1,0,0.2v0.1l0,0l0,0l0,0l0,0l0,0l0,0l0,0l0,0
	l0,0l0,0l0,0l0,0l0,0l0,0l0,0l0,0l0,0l0,0l0,0l0,0l0,0l0,0l0,0c0,0,0,0,0,0.1c0,0,0,0,0,0.1l0,0l0,0l0,0l0,0c0,0,0,0,0,0.1
	c0,0,0,0,0,0.1v0.1l0,0c0,0.1,0,0.1-0.1,0.2c0,0,0,0,0,0.1c0,0,0,0,0,0.1c0,0,0,0,0,0.1c0,0,0,0,0,0.1l0,0l0,0l0,0l0,0l0,0l0,0l0,0
	h0.1h0.1h0.1H13h0.1h0.1h0.1h0.1h0.1h0.1h0.1c0.1,0,0.2,0,0.3,0c0,0.1,0.1,0.1,0.1,0.2c0.1,0.1,0.1,0.3,0.1,0.5l0,0
	c0.1,0.2,0.1,0.5,0.1,0.7s0,0.3-0.1,0.3c-0.8,0.3-1.4,0.6-1.9,1c-0.8,0.6-1,1.3-0.3,2.2c0.1,0.2,0.1,0.4-0.2,0.4h-1
	c-0.2,0-0.3,0.1-0.3,0.3v1.1c0,0.2,0,0.4-0.1,0.6s-0.1,0.4,0,0.5C10.7,24.9,12.8,25.8,12.8,25.8z M18.5,14.8
	c0.1,0.3,0.1,0.6,0.1,0.9l-0.3,0.1c-0.1-0.3-0.1-0.7-0.2-1h0.1C18.3,14.9,18.4,14.9,18.5,14.8z M18.2,14c0.1,0,0.2,0.1,0.2,0.2
	c0,0.1-0.1,0.2-0.2,0.2S18,14.3,18,14.2S18.1,14,18.2,14z M18.2,13.7c0.3,0,0.5,0.2,0.5,0.5s-0.2,0.5-0.5,0.5s-0.5-0.2-0.5-0.5
	C17.7,14,18,13.7,18.2,13.7z M19.4,16.9c0.1-0.4,0.1-0.6-0.1-0.7s-0.5,0.2-0.3,0.4c0-0.1,0-0.1,0.1-0.1c0.2,0.1,0.1,0.3,0.1,0.4
	c-1.1,0.1-1.4-1.9-1.4-2c-0.5,1,0.2,2.4,1,2.6c0.1-0.8,0.9-0.5,0.7-0.1c-0.1,0.3-0.4,0.2-0.4,0c-0.1,0-0.1,0.1-0.1,0.2
	C19.7,18.4,20,17,19.4,16.9z M17.7,16.8c-0.1-0.6-0.3-1.1-0.7-1.4c0.1-1.4-1.2-0.3-0.3,0.2c0,0.2-0.1,0.4,0,0.6
	c0.1,0.7-0.1,1-0.1,1.2c-0.1,0.4,0,0.7,0.1,1.1c0.1-0.1,0.2-0.2,0.2-0.1s0,0.4,0,0.4c0,0.5,0.2,1.1,0.7,1.3c0,0,0.1,0.1,0,0.1
	c-0.1,0.2-0.2,0.3-0.4,0.4c-0.2,0.2-0.3,0.4-0.3,0.6c0.1,0,0.2-0.1,0.4-0.3c0.3,0,0.5-0.3,0.4-0.7c-0.2-0.2-0.3-0.5-0.4-0.7
	c0-0.2,0-0.2,0.1-0.3c0.2,0.4,0.4,0.8,0.7,1.2c-0.1,0.3-0.3,0.5-0.6,0.7c-0.4,0.3-0.5,0.6-0.6,0.9l-0.3,0.1c0.1,0.2,0.4,0.2,1,0
	c0-0.2,0.1-0.4,0.3-0.6c0.2-0.1,0.3-0.3,0.4-0.6l0,0l-0.1,0.4c-0.2,0.2-0.3,0.3-0.3,0.5c-0.3,0.6,0.8,0.5,1,0.2
	c-0.4-0.3-0.5-0.7-0.4-1c0.1-0.2,0.2-0.4,0.1-0.6c-0.2-0.3-0.4-0.6-0.6-0.9c0.2,0.2,0.5,0.3,0.5,0.6c0.1,0.2,0.2,0.3,0.3,0.4
	c-0.4,0.3-0.1,1.3,0.3,1.4c0-0.1,0-0.2-0.1-0.3c0.1,0,0.2,0,0.3,0.1c-0.1,0.8,1.2,1.2,0.8,0c0.2,0.1,0.3,0,0.1-0.2l-0.5-0.3
	c-0.2-0.1-0.2-0.4,0-0.8l0,0c0,0.5,0.2,0.8,0.5,0.9c-0.1-0.3,0.2-0.4,0.3-0.1v0.7c0,0.5,0.3,0.6,0.3,0v-0.5c0.1-0.2,0.2-0.3,0.3-0.3
	L21,21.5c-0.2,0.5,0.2,0.5,0.3-0.3c0-0.6-0.1-1-0.4-1.4c0,0.1,0,0.2,0.1,0.4c0.1,0.4-0.3,0.5-0.3,0.1V20c-0.1-0.2-0.1-0.3-0.1-0.5
	c-0.1-0.2-0.2-0.3-0.2-0.5c0-0.1-0.1-0.3-0.3-0.4c-0.2-0.4-0.4-0.5-0.6-0.5c-0.1,0-0.1,0.1,0,0.1c0.4,0.2,0.8,0.6,0.9,1.2v0.1
	c-0.1,0.1-0.1,0.2-0.1,0.3c-0.1,0-0.1,0-0.2,0.1c-0.1-0.1-0.1-0.2,0-0.3c0-0.4-0.1-0.5-0.4-0.7V19c0,0.1,0,0.1,0,0.1
	c0.1,0.1,0.1,0.1,0.1,0.2v0.1c0,0,0.1,0.2,0.2,0.5l0,0c0.1,0.1,0.1,0.1,0.2,0.3c0,0.2,0.1,0.3,0.3,0.3c0.1,0.1,0.2,0.2,0.2,0.4
	c-0.4,0-0.6-0.4-0.9-0.9c-0.1-0.1-0.2-0.2-0.4-0.3c-0.2-0.2-0.1-0.5,0.2-0.2c0.1-0.4-0.2-0.7-0.9-1c0,0.1,0.1,0.2,0.2,0.2v0.1
	c-0.4-0.1-0.7-0.2-0.8-0.4c-0.5-0.9,0.7-0.4,1,0.2c0.1-0.5-0.4-0.9-0.9-1L17.8,17v0.3h-0.1c0.2,0.3,0.3,0.5,0.2,0.8
	c0,0.1-0.1,0.1-0.1,0L17.6,18v0.2c-0.2,0-0.3-0.3-0.2-0.6c-0.2-0.3-0.2-0.7,0.1-1L17.7,16.8z M17.2,18.9c0.3,0,0.6,0.2,0.8,0.6
	c-0.1-0.1-0.1-0.1-0.2-0.2s-0.3-0.1-0.5-0.1C17.4,19.2,17.2,18.9,17.2,18.9z M13.9,7.9c3.8-2.9,10,0.5,8.3,6.4
	c-0.1,0.4-0.4,0.7-0.3,1.2c0.2,0.9-0.7,2.1-0.1,3.3c-0.7-0.1-1-0.9-0.9-1.5c0.1-0.5,0.1-0.9-0.1-1.2c-0.1-0.5-0.4-0.8-0.1-1.3
	c0.2,0,0.4-0.1,0.5,0l0,0h0.1v-0.1h-0.1l0,0c-0.1-0.1-0.2-0.3-0.2-0.5l0,0c0.1-0.1,0.3-0.2,0.5-0.1l0,0h0.1V14h-0.1l0,0
	c-0.2-0.1-0.2-0.3-0.3-0.4l0,0c0.1-0.1,0.3-0.2,0.5-0.2l0,0h0.1v-0.1h-0.1l0,0c-0.2,0-0.3-0.2-0.4-0.4l0,0c0.1-0.1,0.3-0.3,0.5-0.2
	l0,0h0.1v-0.1h-0.1l0,0c-0.2,0-0.3-0.2-0.4-0.3l0,0c0.1-0.1,0.3-0.3,0.4-0.3l0,0h0.1v-0.1h-0.1l0,0c-0.2,0-0.3-0.1-0.4-0.3l0,0
	c0.1-0.1,0.2-0.3,0.4-0.4l0,0h0.1v-0.1h-0.1l0,0c-0.2,0-0.3-0.1-0.5-0.2l0,0c0.1-0.1,0.2-0.4,0.3-0.4l0,0h0.1v-0.1h-0.1l0,0
	c-0.2,0.1-0.4,0-0.5-0.1l0,0c0-0.2,0.1-0.4,0.2-0.5l0,0h0.1V9.7h-0.1l0,0c-0.1,0.1-0.4,0-0.5,0l0,0c0-0.2,0-0.4,0.2-0.5l0,0l0,0.1
	l-0.1-0.1l-0.1,0.1l0,0c-0.1,0.1-0.4,0.1-0.5,0.1c0-0.2,0-0.4,0.1-0.5l0,0l0.1-0.1l-0.1-0.1l-0.1,0.1l0,0c-0.1,0.1-0.3,0.1-0.5,0.1
	l0,0c0-0.2-0.1-0.4,0-0.5l0,0V8.3l-0.1-0.1v0.1l0,0c-0.1,0.1-0.3,0.2-0.5,0.2l0,0c-0.1-0.2-0.1-0.4-0.1-0.5l0,0V7.9H19V8l0,0
	c-0.1,0.2-0.3,0.2-0.4,0.3l0,0c-0.1-0.1-0.2-0.3-0.1-0.5l0,0V7.7h-0.1v0.1l0,0c0,0.2-0.3,0.3-0.4,0.3l0,0c-0.1-0.1-0.2-0.3-0.2-0.5
	l0,0V7.5h-0.1v0.1l0,0c0,0.2-0.2,0.3-0.3,0.4l0,0c-0.1-0.1-0.3-0.3-0.3-0.4l0,0V7.5H17v0.1l0,0c0,0.2-0.2,0.3-0.3,0.4
	c-0.1-0.1-0.3-0.2-0.3-0.4l0,0V7.5h-0.1v0.1l0,0c0,0.2-0.1,0.3-0.2,0.5l0,0C16,8,15.8,7.9,15.7,7.7l0,0V7.6h-0.1v0.1l0,0
	c0,0.2-0.1,0.4-0.2,0.5C15.3,8,15.1,7.9,15,7.8l0,0V7.7h-0.1v0.1l0,0C15,8,14.8,8.2,14.8,8.3l0,0C14.7,8.1,14.3,8,13.9,7.9z
	 M14.9,8.5c0.2,0.3,0.3,0.6,0.2,0.7l0.5-0.1L16.1,9h0.4h0.4h0.4l0.4,0.1l0.4,0.1l0.4,0.1l0.3,0.2l0.3,0.2l0.3,0.2l0.3,0.2l0.2,0.3
	l0.2,0.3l0.2,0.3l0.2,0.3l0.1,0.3l0.1,0.3l0.1,0.3l0.1,0.3v0.3v0.3v0.3l-0.1,0.3l0,0C22.7,10.7,19.1,6.9,14.9,8.5z M18.5,13.6
	c0.3,0.1,0.5,0.4,0.5,0.7c0,0.2-0.1,0.3-0.2,0.4l0,0l0.1,0.3l0.1,0.4v0.3c3.7-1.6,1-7.8-3.7-6.2l0.2,0.1l0.2,0.1l0.2,0.1L16,10
	l0.2,0.2l0.2,0.2l0.2,0.2l0.2,0.2L17,11l0.2,0.2l0.2,0.2l0.2,0.2l0.2,0.3l0.2,0.3l0.1,0.3l0.1,0.3l0.1,0.3l0.1,0.3
	C18.4,13.4,18.5,13.6,18.5,13.6z M13.5,9.3c1.8,0,3.9,1.9,4.7,4.2c-0.2,0-0.4,0.1-0.5,0.2c-0.4-0.9-0.9-1.7-1.5-2.3v0.1
	c0,0.1,0.2,0.3,0.3,0.4c0.1,0.1,0.2,0.2,0.3,0.4c-0.1,0-0.2,0-0.2,0v0.1c-0.1-0.1-0.2-0.2-0.3-0.3c0,0.1,0.1,0.3,0.2,0.4
	c0.2,0.1,0.4,0.2,0.5,0.3s0.1,0.1,0.1,0.2c-0.2,0.1-0.2,0.2,0,0.3c0,0,0,0,0.1,0c-0.1,0-0.2,0.3-0.1,0.4c0.1,0.1,0.1,0.2,0.2,0.3
	l0.1-0.2h0.2l0.1,0.1c-0.1,0.2,0,0.6,0.1,0.6c-0.2,0.3-0.2,0.7-0.2,0.9c-0.2-0.2-0.4-0.8-0.3-1.1c0-0.1,0-0.1-0.1,0
	c-0.1,0-0.2-0.1-0.2-0.2c0-0.1-0.1,0-0.1,0.1c0,0,0,0,0,0.1s0.1,0.1,0.1,0.2v0.1h-0.1c-0.1-0.1-0.2-0.2-0.2-0.2s0,0-0.1-0.1
	s-0.1-0.1-0.2-0.2c0,0-0.1-0.1-0.2-0.1l0,0c0-0.2-0.1-0.3-0.2-0.4c0,0,0,0-0.1,0l0,0c0.1-0.1,0.3-0.1,0.4,0s0.2,0.2,0.2,0.4
	c0.1-0.2,0.1-0.4-0.1-0.5c-0.2,0-0.3,0-0.4-0.1s0-0.2,0.1-0.2c0.2,0.1,0.1-0.2-0.1-0.2c-0.1,0-0.1,0-0.2,0c-0.1,0-0.3,0-0.3-0.1
	c0.1-0.1,0.1-0.2,0-0.2c-0.3-0.2-0.1-0.4,0.1-0.4l0.2,0.1c0.1,0.1,0.2,0,0.1-0.1c-0.1-0.1-0.2-0.1-0.3-0.2l-0.1-0.2
	c-0.1,0.1-0.2,0.2-0.3,0.1c-0.2,0-0.2-0.2,0.1-0.2c0.1,0,0.1-0.1,0-0.1s-0.2,0.1-0.2,0.1c-0.1,0-0.2,0-0.3-0.1
	c0-0.1-0.1-0.2-0.1-0.3l0.2-0.1c-0.1-0.1-0.3-0.1-0.5-0.1h-0.2c0.1-0.2,0.2-0.3,0.4-0.3c-0.2-0.1-0.4-0.1-0.5,0
	c-0.2,0-0.4,0-0.5,0.2h-0.1c-0.2-0.5,0-0.7,0.4-0.8c-0.1,0.2,0,0.3,0.2,0.2l0.3-0.1c0,0,0.1,0,0.1,0.1c0.1,0,0.1,0.1,0.3,0.1
	l0.5,0.1l0.1,0.1l0.1,0.1h0.1c0,0.2,0.1,0.3,0.4,0.3c-0.1,0.3,0,0.4,0.3,0.4l-0.1-0.3V11c-0.7-0.7-1.5-1-2.3-1.1
	C13.6,9.8,13.6,9.5,13.5,9.3z M16.7,14.9C16.7,14.9,16.6,14.9,16.7,14.9C16.6,14.9,16.6,14.9,16.7,14.9L16.7,14.9
	c-0.1,0-0.1-0.1-0.1-0.1l0,0l0,0c0,0,0,0,0-0.1l0,0l0,0l0,0h-0.1c0,0,0,0-0.1,0c0,0,0,0-0.1,0c0,0-0.1,0-0.1-0.1
	c-0.1-0.1-0.1-0.1-0.2-0.2l-0.1-0.1c0,0,0,0-0.1-0.1l0,0l0,0l0,0v-0.1V14v-0.1v-0.1c0-0.1,0-0.2,0-0.2l0,0c0,0,0-0.1-0.1-0.1
	c0,0,0,0,0-0.1v-0.1l0,0l0,0l-0.1-0.1L15.3,13l0,0l0,0c0-0.1,0-0.1-0.1-0.2c0-0.1,0-0.2-0.1-0.2l0,0v-0.1c0,0,0-0.1-0.1-0.1
	c0,0,0-0.1-0.1-0.1l0,0l0,0l0,0c0,0-0.1,0-0.1-0.1c-0.1,0-0.1-0.1-0.2-0.1c0,0,0,0-0.1,0S14.4,12,14.3,12l0,0l0,0l0,0
	c0,0,0,0-0.1-0.1c0,0,0,0-0.1,0l0,0l0,0l0,0l0,0l0,0l0,0H14h-0.1c0,0,0,0-0.1,0c0,0,0,0-0.1,0h-0.1h-0.1h-0.1h-0.1l0,0l0,0l0,0l0,0
	l0,0l0,0l0,0c0,0,0,0.1-0.1,0.1v0.1l0,0v0.1v0.1c0,0,0,0,0,0.1v0.2c0,0.1,0,0.2,0,0.3s0,0.1,0,0.2c0,0,0,0,0,0.1l0,0
	c0,0.2-0.1,0.4-0.2,0.5l-0.5,0.8c0,0.1,0,0.1,0,0.1c0,0.1,0.2,0.1,0.2,0.2c0,0,0,0.1,0.1,0.1l0,0c0,0,0,0,0,0.1s0,0.2,0.1,0.3
	c0,0.2-0.2,0.4,0.6,0.4c0.1,0,0.1,0.2,0,0.2c-0.2,0-0.4,0-0.5,0l0,0l0,0l0,0l0,0l0,0l0,0l0,0l0,0l0,0l0,0l0,0l0,0l0,0l0.1,0.1v0.1
	v0.1v0.1v0.1c0,0.1,0,0.1-0.1,0.2l0,0c0,0,0,0,0,0.1l0,0l0,0l0,0l0,0l0,0l0,0l0,0l0,0l0,0l0,0l0,0l0,0l0,0l0,0c0.1,0,0.1,0,0.2,0.1
	c0.1,0,0.1,0,0.2,0c0.6,0.2,1.3,0.1,1.9-0.2c0.1,0,0.2-0.1,0.2-0.1l0.1-0.1l0,0l0,0l0,0l0,0c0,0,0,0,0.1,0l0,0l0,0l0,0l0.1-0.1
	c0,0,0,0,0-0.1c0,0,0-0.1,0.1-0.1l0,0l0,0l0,0l0,0l0,0V16v-0.1v-0.1c0-0.1,0-0.2,0-0.2s0,0,0-0.1v-0.1l0,0c0,0,0,0,0-0.1l0,0l0,0
	l0,0c0,0,0,0,0.1,0l0,0l0.1-0.1v0.1l0,0L16.7,14.9z M13.7,13.5L13.7,13.5L13.7,13.5c-0.2-0.1-0.2-0.2-0.2-0.4c0-0.1-0.1-0.1-0.1-0.1
	c-0.1-0.1-0.1-0.2,0-0.4c0-0.1-0.2-0.1-0.2-0.2c0.2-0.2,0.6-0.1,0.8-0.1c0.1,0,0.1,0.1,0.2,0.1c0.2,0.2,0.3,0.3,0.4,0.5l0,0l0,0
	c-0.1-0.1-0.3-0.2-0.4-0.3c-0.1,0-0.1,0-0.1,0.1c0.1,0.2,0.4,0.3,0.4,0.5h-0.1C14.1,13.3,14,13.5,13.7,13.5z M13,14.5
	c-0.1-0.1-0.2-0.1-0.2-0.2C12.9,14.1,13.4,14.5,13,14.5z M14.5,19.4L14.5,19.4c0.1,0,0.1,0.2,0.2,0.1c0.4-0.7-0.1-1.6-0.3-2.4
	c0.7-0.1,1.3-0.3,1.9-0.9c0.1,0.1,0.1,0.1,0.1,0.2c-0.1,0.3-0.2,0.7-0.2,1c0,0.6,0.7,1.3,0.6,1.7l0,0l0,0
	C16.1,21.9,11.5,21.6,14.5,19.4z M14.3,19.3c-1.7,0.3-3.3,2.1-0.9,2.9c1.3,0.3,2.5,0.2,3.6-0.4c0.1-0.2,0.1-0.4,0.3-0.6
	c0,0,0,0-0.1,0L17,21.4c0-0.1,0-0.2,0-0.3c0,0,0,0,0-0.1s0.1-0.2,0.1-0.3l0,0l0.1-0.1l0,0c0.1-0.1,0.2-0.1,0.2-0.2l0,0l0,0l0,0
	l-0.1-0.1h-0.1V20c-0.6,1.1-1.8,1.6-2.9,1.6C12.5,21.5,12.7,20.1,14.3,19.3z M12.1,24.3c-0.3,0-0.6,0-0.9,0c0-0.5,0-1,0-1.5
	c0.8,0,1.7,0,2.5,0c0,0,0,0,0.1,0c0.7,0,1.4,0,2,0c0.2,0,0.5,0,0.8,0s0.5,0,0.8,0c0.1,0,0.3,0,0.5,0c0.4,0,0.6,0,1,0H19
	c0.5,0,1.1,0,1.7,0c0,0,0.3,0,0.4,0c0.8,0,0.8,0,1.3,0c0,0.5,0,1,0,1.5c-1.3,0-2.6,0-3.8,0c-1.1,0-2.1,0-3.1,0c-0.1,0-0.1,0-0.2,0
	C13.4,24.3,13.4,24.3,12.1,24.3z M11.3,24.7h10.9l-1.6,0.7H13L11.3,24.7z M20.3,26.8L20.3,26.8v-1.1h-7.1c0,0.5,0,1,0,1.6
	c0.2,0.1,0.4,0.2,0.7,0.2c0-0.3,0-0.6,0-0.9c0-0.2,0.1-0.3,0.3-0.3s0.3,0.2,0.3,0.3c0,0.4,0,0.7,0,1.1c0.2,0,0.4,0.1,0.6,0.1
	c0-0.4,0-0.7,0-1.1c0-0.2,0.2-0.4,0.4-0.4s0.4,0.2,0.4,0.4c0,0.4,0,0.8,0,1.2c0.2,0,0.3,0,0.5,0c0-0.4,0-0.8,0-1.2
	c0-0.2,0.2-0.4,0.4-0.4c0.2,0,0.4,0.2,0.4,0.4c0,0.4,0,0.8,0,1.2c0.2,0,0.3,0,0.5,0c0-0.4,0-0.8,0-1.2c0-0.2,0.2-0.4,0.4-0.4
	c0.2,0,0.4,0.2,0.4,0.4c0,0.4,0,0.7,0,1.1c0.2,0,0.4-0.1,0.6-0.1c0-0.3,0-0.7,0-1c0-0.2,0.1-0.3,0.3-0.3c0.2,0,0.3,0.2,0.3,0.3
	c0,0.3,0,0.6,0,0.9c0.2-0.1,0.5-0.2,0.7-0.2L20.3,26.8L20.3,26.8z M13,30.6c0.2,0.1,0.5,0.1,0.7,0.2l0.5-1l1.5,0.2l0.2,1.1
	c0.5,0,1,0,1.6,0l0.2-1.1l1.5-0.2l0.5,1c0.5-0.1,1-0.2,1.5-0.4l-0.1-1.1l1.4-0.6l0.8,0.8c0.5-0.2,0.9-0.5,1.3-0.8l-0.4-1.1l1.2-0.9
	l0.9,0.6c0.4-0.4,0.8-0.7,1.1-1.1l-0.6-0.9l0.9-1.2l1.1,0.4c0.3-0.4,0.5-0.9,0.8-1.4l-0.9-0.7l0.6-1.4l1.1,0.1
	c0.2-0.5,0.3-1,0.4-1.5l-1-0.5l0.2-1.5l1.1-0.2c0-0.5,0-1,0-1.5L30,15.6l-0.2-1.5l1-0.5c-0.1-0.5-0.2-1-0.4-1.5l-1.1,0.1l-0.6-1.4
	l0.8-0.7c-0.2-0.5-0.5-0.9-0.8-1.4l-1,0.4l-0.9-1.2L27.4,7c-0.3-0.4-0.7-0.8-1.1-1.1l-0.9,0.6l-1.2-0.9l0.4-1.1
	c-0.4-0.3-0.9-0.5-1.3-0.8l-0.7,0.8l-1.4-0.6l0.1-1.1c-0.5-0.2-1-0.3-1.5-0.4l-0.5,1l-1.5-0.2l-0.2-1.1c-0.5,0-1,0-1.6,0l-0.2,1.1
	l-1.5,0.2l-0.5-1c-0.5,0.1-1,0.2-1.5,0.4l0.1,1.1L11,4.5l-0.8-0.8c-0.6,0.2-1,0.4-1.4,0.7l0.4,1l-1.3,1L7,5.8
	C6.6,6.1,6.3,6.5,5.9,6.9l0.6,0.9L5.6,9L4.5,8.7C4.3,9.1,4,9.5,3.8,10l0.9,0.7L4,12.1L2.9,12c-0.2,0.5-0.3,1-0.4,1.5l1,0.5l-0.2,1.5
	l-1.1,0.2c0,0.5,0,1,0,1.6l1.1,0.2L3.5,19l-1,0.5c0.1,0.5,0.2,1,0.4,1.5H4l0.6,1.4l-0.9,0.8C4,23.6,4.3,24,4.6,24.5l1-0.4l0.9,1.2
	l-0.6,0.9C6.3,26.6,6.6,27,7,27.4l0.9-0.6l1.2,0.9l-0.4,1.1c0.4,0.3,0.9,0.5,1.3,0.8l0.7-0.9l1.4,0.6L12,30.4
	C12.5,30.5,12.7,30.5,13,30.6z"/>
<path class="st0" d="M88.9,21.1l6.9-19.4h7.7l6.8,19.4h-7.5l-0.6-2.4H97l-0.6,2.4H88.9z M98.1,14.1h2.9l-0.6-2.2
	c-0.3-1.1-0.5-2-0.6-2.6c-0.1-0.6-0.2-1.2-0.2-1.7h-0.1c0,0.5-0.1,1.1-0.2,1.7c-0.1,0.6-0.3,1.5-0.6,2.6L98.1,14.1z"/>
<path class="st0" d="M54.9,21.1V1.8h8.7c2.5,0,4.5,0.6,5.8,1.7c1.3,1.1,2,2.7,2,4.8c0,1.4-0.3,2.5-1,3.4c-0.7,0.9-1.6,1.4-2.7,1.6
	l5.2,7.9h-7.8l-3.4-6.4v6.4L54.9,21.1L54.9,21.1z M61.7,6.7v3.8h1.1c0.7,0,1.2-0.2,1.5-0.5c0.4-0.3,0.5-0.8,0.5-1.4
	c0-0.6-0.2-1.1-0.5-1.4c-0.4-0.3-0.9-0.5-1.5-0.5C62.8,6.7,61.7,6.7,61.7,6.7z"/>
<path class="st0" d="M149.9,9.5c-0.6-0.6-1.3-1.1-1.9-1.4c-0.7-0.3-1.4-0.5-2.1-0.5c-1.1,0-2.1,0.4-2.7,1.1c-0.7,0.7-1,1.6-1,2.8
	c0,1.1,0.3,2,1,2.7s1.5,1,2.7,1c0.7,0,1.3-0.1,2-0.4c0.7-0.3,1.4-0.7,2.3-1.4l-0.2,7.3c-0.8,0.3-1.5,0.5-2.3,0.7s-1.5,0.2-2.3,0.2
	c-0.9,0-1.8-0.1-2.7-0.3c-0.9-0.2-1.7-0.5-2.4-0.9c-1.7-1-3-2.2-3.9-3.7s-1.3-3.2-1.3-5.2c0-1.4,0.2-2.8,0.7-4s1.2-2.3,2.2-3.3
	s2.1-1.7,3.3-2.2c1.3-0.5,2.6-0.7,4.1-0.7c0.8,0,1.6,0.1,2.3,0.2c0.8,0.2,1.5,0.4,2.2,0.7C149.9,2.3,149.9,9.5,149.9,9.5z"/>
<path class="st0" d="M118.7,19.5l2.2-5.4c1,0.7,1.9,1.2,2.7,1.5c0.8,0.3,1.5,0.5,2.2,0.5c0.5,0,0.9-0.1,1.1-0.3
	c0.3-0.2,0.4-0.4,0.4-0.7c0-0.5-0.7-0.9-2-1.2c-0.4-0.1-0.8-0.2-1-0.2c-1.4-0.4-2.5-1-3.3-1.9s-1.1-2-1.1-3.4c0-2.1,0.7-3.8,2.2-5.1
	s3.4-2,5.8-2c1.1,0,2.2,0.1,3.3,0.4c1.1,0.3,2.2,0.7,3.2,1.3l-2.1,5.1c-0.7-0.5-1.3-0.9-2-1.1c-0.7-0.3-1.3-0.4-2-0.4
	c-0.5,0-0.9,0.1-1.1,0.2c-0.3,0.2-0.4,0.4-0.4,0.7c0,0.5,1,1,2.9,1.4c0.3,0.1,0.5,0.1,0.7,0.2c1.3,0.3,2.4,0.9,3.1,1.8
	c0.8,0.9,1.1,2,1.1,3.4c0,2.1-0.8,3.9-2.3,5.3c-1.5,1.4-3.6,2-6,2c-1.3,0-2.5-0.2-3.8-0.5C121.2,20.7,120,20.2,118.7,19.5z"/>
<path class="st0" d="M116.7,9.6h-5.8v3.7h5.8V9.6z"/>
<path class="st0" d="M52.1,9.5c-0.6-0.6-1.3-1.1-1.9-1.4c-0.7-0.3-1.4-0.5-2.1-0.5C47,7.6,46,8,45.4,8.7c-0.7,0.7-1,1.6-1,2.8
	c0,1.1,0.3,2,1,2.7s1.5,1,2.7,1c0.7,0,1.3-0.1,2-0.4c0.7-0.3,1.4-0.7,2.3-1.4L52,20.7c-0.8,0.3-1.5,0.5-2.3,0.7s-1.5,0.2-2.3,0.2
	c-0.9,0-1.8-0.1-2.7-0.3c-0.9-0.2-1.7-0.5-2.4-0.9c-1.7-1-3-2.2-3.9-3.7s-1.3-3.2-1.3-5.2c0-1.4,0.2-2.8,0.7-4S39,5.2,40,4.2
	s2.1-1.7,3.3-2.2c1.3-0.5,2.6-0.7,4.1-0.7c0.8,0,1.6,0.1,2.3,0.2c0.8,0.2,1.5,0.4,2.2,0.7L52.1,9.5z"/>
<path class="st0" d="M74.2,21.1V1.8h12.9V7H81v1.9h5.5v5H81v2h6.3v5.3H74.2V21.1z"/>
<path class="st0" d="M55.2,27.8c-0.2,0-0.4,0-0.6-0.1c-0.2-0.1-0.4-0.2-0.5-0.3c-0.1-0.1-0.2-0.3-0.3-0.5s-0.1-0.4-0.1-0.7
	c0-0.2,0-0.5,0.1-0.7s0.2-0.4,0.3-0.5s0.3-0.2,0.5-0.3c0.2-0.1,0.4-0.1,0.6-0.1c0.1,0,0.2,0,0.3,0s0.2,0,0.3,0.1
	c0.1,0,0.2,0.1,0.2,0.1c0.1,0,0.1,0.1,0.2,0.1v0.7h-0.1L56,25.5c-0.1,0-0.1-0.1-0.2-0.1c-0.1,0-0.2-0.1-0.2-0.1c-0.1,0-0.2,0-0.3,0
	s-0.2,0-0.3,0.1c-0.1,0-0.2,0.1-0.3,0.2s-0.1,0.2-0.2,0.3c-0.1,0.1-0.1,0.3-0.1,0.5s0,0.4,0.1,0.5s0.1,0.2,0.2,0.3
	c0.1,0.1,0.2,0.1,0.3,0.2c0.1,0,0.2,0,0.3,0s0.2,0,0.3,0s0.2-0.1,0.3-0.1s0.1-0.1,0.2-0.1c0.1,0,0.1-0.1,0.1-0.1h0.1v0.7
	c-0.1,0-0.2,0.1-0.2,0.1C56,27.9,56,28,55.9,28c-0.1,0-0.2,0.1-0.3,0.1C55.5,27.8,55.4,27.8,55.2,27.8z M59.2,26.6
	c0,0.4-0.1,0.7-0.3,0.9c-0.2,0.2-0.5,0.3-0.9,0.3s-0.7-0.1-0.9-0.3c-0.2-0.2-0.3-0.5-0.3-0.9s0.1-0.7,0.3-0.9
	c0.2-0.2,0.5-0.3,0.9-0.3s0.7,0.1,0.9,0.3C59.1,25.9,59.2,26.2,59.2,26.6z M58.3,27.2c0-0.1,0.1-0.1,0.1-0.2s0-0.2,0-0.3
	c0-0.1,0-0.3,0-0.3c0-0.1-0.1-0.2-0.1-0.2c0-0.1-0.1-0.1-0.2-0.1c-0.1,0-0.1,0-0.2,0c-0.1,0-0.1,0-0.2,0c-0.1,0-0.1,0.1-0.2,0.1
	c0,0.1-0.1,0.1-0.1,0.2s0,0.2,0,0.4c0,0.1,0,0.2,0,0.3c0,0.1,0.1,0.2,0.1,0.2c0,0.1,0.1,0.1,0.2,0.1c0.1,0,0.1,0,0.2,0
	c0.1,0,0.1,0,0.2,0C58.2,27.3,58.3,27.2,58.3,27.2z M62.1,27.8h-0.7v-1.1c0-0.1,0-0.2,0-0.3c0-0.1,0-0.2,0-0.2
	c0-0.1-0.1-0.1-0.1-0.1c-0.1,0-0.1,0-0.2,0c-0.1,0-0.1,0-0.2,0c-0.1,0-0.1,0.1-0.2,0.1v1.6H60v-2.3h0.7v0.3c0.1-0.1,0.3-0.2,0.4-0.2
	c0.1-0.1,0.3-0.1,0.4-0.1c0.2,0,0.4,0.1,0.6,0.2c0.1,0.1,0.2,0.4,0.2,0.7v1.4H62.1z M64.8,27c0,0.2-0.1,0.4-0.3,0.6
	c-0.2,0.1-0.5,0.2-0.9,0.2c-0.2,0-0.4,0-0.6-0.1c-0.2,0-0.3-0.1-0.4-0.1V27h0.1l0.1,0.1c0,0,0.1,0.1,0.2,0.1c0.1,0,0.2,0.1,0.3,0.1
	s0.2,0,0.3,0s0.3,0,0.3,0c0.1,0,0.1-0.1,0.1-0.1c0-0.1,0-0.1-0.1-0.1c0,0-0.1,0-0.2-0.1c-0.1,0-0.1,0-0.2,0c-0.1,0-0.2,0-0.3-0.1
	c-0.2-0.1-0.4-0.1-0.5-0.3c-0.1-0.1-0.2-0.3-0.2-0.4c0-0.2,0.1-0.4,0.3-0.6c0.2-0.1,0.5-0.2,0.9-0.2c0.2,0,0.3,0,0.5,0.1
	c0.2,0,0.3,0.1,0.4,0.1v0.6h-0.1c-0.1-0.1-0.2-0.1-0.4-0.2c-0.1,0-0.3-0.1-0.4-0.1c-0.1,0-0.2,0-0.3,0S63.3,26,63.3,26
	c0,0.1,0,0.1,0.1,0.1c0,0,0.1,0.1,0.3,0.1c0.1,0,0.2,0,0.2,0c0.1,0,0.2,0,0.3,0.1c0.2,0.1,0.3,0.1,0.4,0.2
	C64.7,26.7,64.8,26.9,64.8,27z M67.5,26.7h-1.7c0,0.2,0.1,0.3,0.2,0.4s0.3,0.1,0.6,0.1c0.2,0,0.3,0,0.5-0.1c0.1-0.1,0.3-0.1,0.3-0.2
	h0.1v0.6c-0.2,0.1-0.3,0.1-0.5,0.1c-0.1,0-0.3,0-0.5,0c-0.5,0-0.8-0.1-1.1-0.3c-0.2-0.2-0.4-0.5-0.4-0.9s0.1-0.7,0.4-0.9
	c0.2-0.2,0.6-0.3,1-0.3s0.7,0.1,0.8,0.3c0.2,0.2,0.3,0.5,0.3,0.8L67.5,26.7z M66.8,26.3c0-0.2,0-0.3-0.1-0.4s-0.2-0.1-0.3-0.1
	c-0.1,0-0.3,0-0.4,0.1s-0.1,0.2-0.2,0.4H66.8z M68.8,27.8h-0.7v-3.2h0.7V27.8z M71.8,27.8h-0.7v-1.1c0-0.1,0-0.2,0-0.3
	c0-0.1,0-0.2,0-0.2c0-0.1-0.1-0.1-0.1-0.1c-0.1,0-0.1,0-0.2,0s-0.1,0-0.2,0s-0.1,0.1-0.2,0.1v1.6h-0.7v-3.2h0.7v1.1
	c0.1-0.1,0.3-0.2,0.4-0.2c0.1-0.1,0.3-0.1,0.4-0.1c0.2,0,0.4,0.1,0.6,0.2c0.1,0.1,0.2,0.4,0.2,0.7v1.5H71.8z M74.9,26.6
	c0,0.4-0.1,0.7-0.3,0.9c-0.2,0.2-0.5,0.3-0.9,0.3s-0.7-0.1-0.9-0.3c-0.2-0.2-0.3-0.5-0.3-0.9s0.1-0.7,0.3-0.9
	c0.2-0.2,0.5-0.3,0.9-0.3s0.7,0.1,0.9,0.3S74.9,26.2,74.9,26.6z M74,27.2c0-0.1,0.1-0.1,0.1-0.2s0-0.2,0-0.3c0-0.1,0-0.3,0-0.3
	c0-0.1-0.1-0.2-0.1-0.2c0-0.1-0.1-0.1-0.2-0.1s-0.1,0-0.2,0s-0.1,0-0.2,0s-0.1,0.1-0.2,0.1c0,0.1-0.1,0.1-0.1,0.2s0,0.2,0,0.4
	c0,0.1,0,0.2,0,0.3c0,0.1,0.1,0.2,0.1,0.2c0,0.1,0.1,0.1,0.2,0.1s0.1,0,0.2,0s0.1,0,0.2,0C73.9,27.3,73.9,27.2,74,27.2z M78.6,25.6
	c0-0.1,0-0.1,0-0.2s-0.1-0.1-0.2-0.1s-0.1,0-0.2,0s-0.2,0-0.2,0h-0.3v0.8h0.2c0.1,0,0.2,0,0.3,0c0.1,0,0.2,0,0.2-0.1
	c0.1,0,0.1-0.1,0.1-0.1C78.6,25.8,78.6,25.7,78.6,25.6z M79.8,27.8h-1L78,26.6h-0.4v1.1h-0.8v-3.1h1.3c0.2,0,0.3,0,0.5,0
	c0.1,0,0.3,0.1,0.4,0.1c0.1,0.1,0.2,0.2,0.3,0.3c0.1,0.1,0.1,0.2,0.1,0.4c0,0.2-0.1,0.4-0.2,0.6c-0.1,0.1-0.3,0.3-0.5,0.4L79.8,27.8
	z M82.4,26.7h-1.7c0,0.2,0.1,0.3,0.2,0.4s0.3,0.1,0.6,0.1c0.2,0,0.3,0,0.5-0.1c0.1-0.1,0.3-0.1,0.3-0.2h0.1v0.6
	c-0.2,0.1-0.3,0.1-0.5,0.1c-0.1,0-0.3,0-0.5,0c-0.5,0-0.8-0.1-1.1-0.3c-0.2,0-0.3-0.3-0.3-0.7s0.1-0.7,0.4-0.9
	c0.2-0.2,0.6-0.3,1-0.3s0.7,0.1,0.8,0.3c0.2,0.2,0.3,0.5,0.3,0.8L82.4,26.7L82.4,26.7z M81.7,26.3c0-0.2,0-0.3-0.1-0.4
	s-0.2-0.1-0.3-0.1c-0.1,0-0.3,0-0.4,0.1s-0.1,0.2-0.2,0.4H81.7z M85.2,27.5c0,0.2,0,0.4-0.1,0.5s-0.1,0.3-0.3,0.3
	c-0.1,0.1-0.2,0.1-0.4,0.2c-0.2,0-0.3,0.1-0.5,0.1s-0.3,0-0.5,0s-0.3,0-0.4-0.1V28h0.1c0.1,0,0.2,0.1,0.3,0.1c0.1,0,0.2,0,0.3,0
	c0.1,0,0.2,0,0.3,0c0.1,0,0.2-0.1,0.2-0.1s0.1-0.1,0.1-0.2s0-0.2,0-0.2l0,0c-0.1,0.1-0.2,0.1-0.3,0.2c-0.1,0-0.2,0.1-0.4,0.1
	c-0.3,0-0.6-0.1-0.7-0.3c-0.2-0.2-0.3-0.5-0.3-0.9c0-0.2,0-0.4,0.1-0.5s0.1-0.3,0.2-0.4s0.2-0.2,0.3-0.2c0.1-0.1,0.3-0.1,0.4-0.1
	s0.2,0,0.3,0c0.1,0,0.2,0.1,0.3,0.1v-0.1h0.7L85.2,27.5z M84.5,27v-1c0,0-0.1,0-0.2,0s-0.1,0-0.2,0c-0.2,0-0.3,0.1-0.4,0.2
	s-0.1,0.3-0.1,0.5s0,0.4,0.1,0.5s0.2,0.1,0.4,0.1c0.1,0,0.1,0,0.2,0C84.3,27.1,84.4,27.1,84.5,27z M86.6,27.8h-0.7v-2.3h0.7V27.8z
	 M86.7,25.1h-0.8v-0.6h0.8V25.1z M89.7,26.6c0,0.4-0.1,0.7-0.3,0.9c-0.2,0.2-0.5,0.3-0.9,0.3s-0.7-0.1-0.9-0.3
	c-0.2-0.2-0.3-0.5-0.3-0.9s0.1-0.7,0.3-0.9c0.2-0.2,0.5-0.3,0.9-0.3s0.7,0.1,0.9,0.3S89.7,26.2,89.7,26.6z M88.8,27.2
	c0-0.1,0.1-0.1,0.1-0.2s0-0.2,0-0.3c0-0.1,0-0.3,0-0.3c0-0.1-0.1-0.2-0.1-0.2c0-0.1-0.1-0.1-0.2-0.1s-0.1,0-0.2,0s-0.1,0-0.2,0
	s-0.1,0.1-0.2,0.1c0,0.1-0.1,0.1-0.1,0.2s0,0.2,0,0.4c0,0.1,0,0.2,0,0.3c0,0.1,0.1,0.2,0.1,0.2c0,0.1,0.1,0.1,0.2,0.1s0.1,0,0.2,0
	s0.1,0,0.2,0C88.7,27.3,88.8,27.2,88.8,27.2z M92.6,27.8h-0.7v-1.1c0-0.1,0-0.2,0-0.3c0-0.1,0-0.2,0-0.2c0-0.1-0.1-0.1-0.1-0.1
	c-0.1,0-0.1,0-0.2,0s-0.1,0-0.2,0s-0.1,0.1-0.2,0.1v1.6h-0.7v-2.3H91v0.3c0.1-0.1,0.3-0.2,0.4-0.2c0.1-0.1,0.3-0.1,0.4-0.1
	c0.2,0,0.4,0.1,0.6,0.2c0.1,0.1,0.2,0.4,0.2,0.7V27.8z M94.6,27.2v-0.5c-0.1,0-0.2,0-0.3,0c-0.1,0-0.2,0-0.3,0.1
	c-0.1,0-0.1,0.1-0.2,0.1c0,0-0.1,0.1-0.1,0.2v0.1c0,0,0,0.1,0.1,0.1c0,0,0.1,0,0.1,0.1c0,0,0.1,0,0.2,0s0.1,0,0.2,0
	C94.5,27.3,94.6,27.2,94.6,27.2z M94.6,27.5l-0.1,0.1c-0.1,0-0.1,0.1-0.2,0.1s-0.1,0.1-0.2,0.1s-0.2,0-0.3,0c-0.2,0-0.4-0.1-0.6-0.2
	c-0.1-0.1-0.2-0.3-0.2-0.5s0-0.3,0.1-0.4s0.2-0.2,0.3-0.3c0.1-0.1,0.3-0.1,0.5-0.1s0.4,0,0.6-0.1l0,0c0-0.1-0.1-0.2-0.2-0.3
	c-0.1,0-0.3-0.1-0.5-0.1c-0.1,0-0.3,0-0.4,0.1c-0.1,0-0.2,0.1-0.3,0.1H93v-0.6c0.1,0,0.2,0,0.4-0.1c0.2,0,0.4,0,0.5,0
	c0.4,0,0.7,0.1,0.9,0.2c0.2,0.1,0.3,0.3,0.3,0.6v1.6h-0.7v-0.2H94.6z M96.8,27.8h-0.7v-3.2h0.7V27.8z M101.2,27.8h-0.7v-0.2
	c-0.1,0.1-0.2,0.2-0.4,0.2c-0.1,0.1-0.2,0.1-0.4,0.1c-0.3,0-0.5-0.1-0.7-0.3c-0.2-0.2-0.3-0.5-0.3-0.9c0-0.2,0-0.4,0.1-0.5
	c0.1-0.2,0.1-0.3,0.2-0.4s0.2-0.2,0.3-0.2c0.1-0.1,0.3-0.1,0.4-0.1s0.3,0,0.3,0c0.1,0,0.2,0.1,0.3,0.1v-1h0.7
	C101.2,24.6,101.2,27.8,101.2,27.8z M100.5,27.1V26c-0.1,0-0.1,0-0.2,0s-0.1,0-0.2,0c-0.2,0-0.3,0.1-0.4,0.2s-0.1,0.3-0.1,0.5
	s0,0.4,0.1,0.5s0.2,0.2,0.4,0.2c0.1,0,0.1,0,0.2,0C100.3,27.2,100.4,27.2,100.5,27.1z M104.2,26.7h-1.7c0,0.2,0.1,0.3,0.2,0.4
	s0.3,0.1,0.6,0.1c0.2,0,0.3,0,0.5-0.1c0.1-0.1,0.3-0.1,0.3-0.2h0.1v0.6c-0.2,0.1-0.3,0.1-0.5,0.1c-0.1,0-0.3,0-0.5,0
	c-0.5,0-0.8-0.1-1.1-0.3c-0.2-0.2-0.4-0.5-0.4-0.9s0.1-0.7,0.4-0.9c0.2-0.2,0.6-0.3,1-0.3s0.7,0.1,0.8,0.3c0.2,0.2,0.3,0.5,0.3,0.8
	L104.2,26.7L104.2,26.7z M103.4,26.3c0-0.2,0-0.3-0.1-0.4s-0.2-0.1-0.3-0.1c-0.1,0-0.3,0-0.4,0.1s-0.1,0.2-0.2,0.4H103.4z
	 M108.4,27.8h-2.2v-3.1h2.2v0.6H107v0.5h1.3v0.6H107v0.8h1.4V27.8z M111.3,27.8h-0.7v-1.1c0-0.1,0-0.2,0-0.3c0-0.1,0-0.2,0-0.2
	c0-0.1-0.1-0.1-0.1-0.1c-0.1,0-0.1,0-0.2,0s-0.1,0-0.2,0s-0.1,0.1-0.2,0.1v1.6H109v-2.3h0.7v0.3c0.1-0.1,0.3-0.2,0.4-0.2
	c0.1-0.1,0.3-0.1,0.4-0.1c0.2,0,0.4,0.1,0.6,0.2c0.1,0.1,0.2,0.4,0.2,0.7L111.3,27.8z M114.3,27.5c0,0.2,0,0.4-0.1,0.5
	s-0.1,0.3-0.3,0.3c-0.1,0.1-0.2,0.1-0.4,0.2c-0.2,0-0.3,0.1-0.5,0.1s-0.3,0-0.5,0s-0.3,0-0.4-0.1V28h0.1c0.1,0,0.2,0.1,0.3,0.1
	c0.1,0,0.2,0,0.3,0c0.1,0,0.2,0,0.3,0c0.1,0,0.2-0.1,0.2-0.1s0.1-0.1,0.1-0.2s0-0.2,0-0.2l0,0c-0.1,0.1-0.2,0.1-0.3,0.2
	c-0.1,0-0.2,0.1-0.4,0.1c-0.3,0-0.6-0.1-0.7-0.3c-0.2-0.2-0.3-0.5-0.3-0.9c0-0.2,0-0.4,0.1-0.5s0.1-0.3,0.2-0.4s0.2-0.2,0.3-0.2
	c0.1-0.1,0.3-0.1,0.4-0.1s0.2,0,0.3,0c0.1,0,0.2,0.1,0.3,0.1v-0.1h0.7L114.3,27.5z M113.5,27v-1c0,0-0.1,0-0.2,0s-0.1,0-0.2,0
	c-0.2,0-0.3,0.1-0.4,0.2s-0.1,0.3-0.1,0.5s0,0.4,0.1,0.5s0.2,0.1,0.4,0.1c0.1,0,0.1,0,0.2,0C113.4,27.1,113.5,27.1,113.5,27z
	 M117.3,26.7h-1.7c0,0.2,0.1,0.3,0.2,0.4s0.3,0.1,0.6,0.1c0.2,0,0.3,0,0.5-0.1c0.1-0.1,0.3-0.1,0.3-0.2h0.1v0.6
	c-0.2,0.1-0.3,0.1-0.5,0.1s-0.3,0-0.5,0c-0.5,0-0.8-0.1-1.1-0.3c-0.2-0.2-0.4-0.5-0.4-0.9s0.1-0.7,0.3-0.9c0.2-0.2,0.6-0.3,1-0.3
	s0.7,0.1,0.8,0.3c0.2,0.2,0.3,0.5,0.3,0.8L117.3,26.7L117.3,26.7z M116.5,26.3c0-0.2,0-0.3-0.1-0.4s-0.2-0.1-0.3-0.1
	c-0.1,0-0.3,0-0.4,0.1s-0.1,0.2-0.2,0.4H116.5z M120.1,27.8h-0.7v-1.1c0-0.1,0-0.2,0-0.3c0-0.1,0-0.2,0-0.2c0-0.1-0.1-0.1-0.1-0.1
	c-0.1,0-0.1,0-0.2,0s-0.1,0-0.2,0s-0.1,0.1-0.2,0.1v1.6H118v-2.3h0.7v0.3c0.1-0.1,0.3-0.2,0.4-0.2c0.1-0.1,0.3-0.1,0.4-0.1
	c0.2,0,0.4,0.1,0.6,0.2c0.1,0.1,0.2,0.4,0.2,0.7v1.4H120.1z M123.1,27.8h-0.7v-1.1c0-0.1,0-0.2,0-0.3c0-0.1,0-0.2-0.1-0.2
	c0-0.1-0.1-0.1-0.1-0.1c-0.1,0-0.1,0-0.2,0s-0.1,0-0.2,0s-0.1,0.1-0.2,0.1v1.6h-0.7v-3.2h0.7v1.1c0.1-0.1,0.3-0.2,0.4-0.2
	c0.1-0.1,0.3-0.1,0.4-0.1c0.2,0,0.4,0.1,0.6,0.2c0.1,0.1,0.2,0.4,0.2,0.7v1.5H123.1z M125.2,27.2v-0.5c-0.1,0-0.2,0-0.3,0
	c-0.1,0-0.2,0-0.3,0.1c-0.1,0-0.1,0.1-0.2,0.1c0,0-0.1,0.1-0.1,0.2v0.1c0,0,0,0.1,0.1,0.1c0,0,0.1,0,0.1,0.1c0,0,0.1,0,0.2,0
	s0.1,0,0.2,0C125.1,27.3,125.1,27.2,125.2,27.2z M125.2,27.5l-0.1,0.1c-0.1,0-0.1,0.1-0.2,0.1s-0.1,0.1-0.2,0.1s-0.2,0-0.3,0
	c-0.2,0-0.4-0.1-0.6-0.2c-0.1-0.1-0.2-0.3-0.2-0.5s0-0.3,0.1-0.4s0.2-0.2,0.3-0.3c0.1-0.1,0.3-0.1,0.5-0.1s0.4,0,0.6-0.1l0,0
	c0-0.1-0.1-0.2-0.2-0.3c-0.1,0-0.3-0.1-0.5-0.1c-0.1,0-0.3,0-0.4,0.1c-0.1,0-0.2,0.1-0.3,0.1h-0.1v-0.6c0.1,0,0.2,0,0.4-0.1
	c0.2,0,0.4,0,0.5,0c0.4,0,0.7,0.1,0.9,0.2c0.2,0.1,0.3,0.3,0.3,0.6v1.6H125L125.2,27.5z M128.3,26.2L128.3,26.2c-0.1,0-0.1,0-0.2,0
	c-0.1,0-0.1,0-0.2,0c-0.1,0-0.2,0-0.3,0c-0.1,0-0.2,0-0.3,0.1v1.6h-0.7v-2.3h0.7v0.3c0.2-0.1,0.3-0.2,0.4-0.3c0.1,0,0.2-0.1,0.3-0.1
	h0.1h0.1C128.3,25.4,128.3,26.2,128.3,26.2z M129.4,27.8h-0.7v-2.3h0.7V27.8z M129.5,25.1h-0.8v-0.6h0.8V25.1z M131.5,27.2v-0.5
	c-0.1,0-0.2,0-0.3,0s-0.2,0-0.3,0.1c-0.1,0-0.1,0.1-0.2,0.1c0,0-0.1,0.1-0.1,0.2v0.1c0,0,0,0.1,0.1,0.1c0,0,0.1,0,0.1,0.1
	c0,0,0.1,0,0.2,0c0.1,0,0.1,0,0.2,0C131.4,27.3,131.5,27.2,131.5,27.2z M131.5,27.5l-0.1,0.1c-0.1,0-0.1,0.1-0.2,0.1
	c-0.1,0-0.1,0.1-0.2,0.1c-0.1,0-0.2,0-0.3,0c-0.2,0-0.4-0.1-0.6-0.2c-0.1-0.1-0.2-0.3-0.2-0.5s0-0.3,0.1-0.4s0.2-0.2,0.3-0.3
	c0.1-0.1,0.3-0.1,0.5-0.1s0.4,0,0.6-0.1l0,0c0-0.1-0.1-0.2-0.2-0.3c-0.1,0-0.3-0.1-0.5-0.1c-0.1,0-0.3,0-0.4,0.1
	c-0.1,0-0.2,0.1-0.3,0.1h-0.1v-0.6c0.1,0,0.2,0,0.4-0.1c0.2,0,0.4,0,0.5,0c0.4,0,0.7,0.1,0.9,0.2s0.3,0.3,0.3,0.6v1.6h-0.7
	L131.5,27.5z"/>
<path class="st0" d="M59.1,31.8h-1.7c0,0.2,0.1,0.3,0.2,0.4c0.1,0.1,0.3,0.1,0.6,0.1c0.2,0,0.3,0,0.5-0.1c0.1-0.1,0.3-0.1,0.3-0.2
	h0.1v0.6c-0.2,0.1-0.3,0.1-0.5,0.1c-0.1,0-0.3,0-0.5,0c-0.5,0-0.8-0.1-1.1-0.3c-0.2-0.2-0.4-0.5-0.4-0.9s0.1-0.7,0.4-0.9
	c0.2-0.2,0.6-0.3,1-0.3s0.7,0.1,0.8,0.3c0.2,0.2,0.3,0.5,0.3,0.8L59.1,31.8L59.1,31.8z M58.4,31.4c0-0.2,0-0.3-0.1-0.4
	s-0.2-0.1-0.3-0.1s-0.3,0-0.4,0.1c-0.1,0.1-0.1,0.2-0.2,0.4H58.4L58.4,31.4z M63.9,32.8h-0.8l-0.2-0.6h-1.1l-0.2,0.6h-0.8l1.1-3.1
	h0.9L63.9,32.8z M62.7,31.6l-0.4-1.1L62,31.6H62.7z M66.6,32.6c0,0.2,0,0.4-0.1,0.5s-0.1,0.3-0.3,0.3c-0.1,0.1-0.2,0.1-0.4,0.2
	c-0.2,0-0.3,0.1-0.5,0.1s-0.3,0-0.5,0s-0.3,0-0.4-0.1V33h0.1c0.1,0,0.2,0.1,0.3,0.1c0.1,0,0.2,0,0.3,0c0.1,0,0.2,0,0.3,0
	c0.1,0,0.2-0.1,0.2-0.1s0.1-0.1,0.1-0.2c0-0.1,0-0.2,0-0.2l0,0c-0.1,0.1-0.2,0.1-0.3,0.2c-0.1,0-0.2,0.1-0.4,0.1
	c-0.3,0-0.6-0.1-0.7-0.3c-0.2-0.2-0.3-0.5-0.3-0.9c0-0.2,0-0.4,0.1-0.5c0.1-0.1,0.1-0.3,0.2-0.4s0.2-0.2,0.3-0.2
	c0.1-0.1,0.3-0.1,0.4-0.1s0.2,0,0.3,0c0.1,0,0.2,0.1,0.3,0.1v-0.1h0.7v2.1H66.6z M65.8,32.1V31c0,0-0.1,0-0.2,0s-0.1,0-0.2,0
	c-0.2,0-0.3,0.1-0.4,0.2s-0.1,0.3-0.1,0.5s0,0.4,0.1,0.5s0.2,0.1,0.4,0.1c0.1,0,0.1,0,0.2,0C65.7,32.2,65.8,32.1,65.8,32.1z
	 M69,31.2L69,31.2c-0.1,0-0.1,0-0.2,0s-0.1,0-0.2,0s-0.2,0-0.3,0c-0.1,0-0.2,0-0.3,0.1v1.6h-0.7v-2.3H68v0.3
	c0.2-0.1,0.3-0.2,0.4-0.3c0.1,0,0.2-0.1,0.3-0.1h0.1h0.1C69,30.5,69,31.2,69,31.2z M71.7,31.7c0,0.4-0.1,0.7-0.3,0.9
	c-0.2,0.2-0.5,0.3-0.9,0.3s-0.7-0.1-0.9-0.3c-0.2-0.2-0.3-0.5-0.3-0.9s0.1-0.7,0.3-0.9c0.2-0.2,0.5-0.3,0.9-0.3s0.7,0.1,0.9,0.3
	C71.6,31,71.7,31.3,71.7,31.7z M70.8,32.2c0-0.1,0.1-0.1,0.1-0.2c0-0.1,0-0.2,0-0.3c0-0.1,0-0.3,0-0.3c0-0.1-0.1-0.2-0.1-0.2
	c0-0.1-0.1-0.1-0.2-0.1s-0.1,0-0.2,0s-0.1,0-0.2,0s-0.1,0.1-0.2,0.1c0,0.1-0.1,0.1-0.1,0.2s0,0.2,0,0.4c0,0.1,0,0.2,0,0.3
	c0,0.1,0.1,0.2,0.1,0.2c0,0.1,0.1,0.1,0.2,0.1s0.1,0,0.2,0s0.1,0,0.2,0C70.7,32.3,70.8,32.3,70.8,32.2z M74.6,32.8h-0.7v-1.1
	c0-0.1,0-0.2,0-0.3c0-0.1,0-0.2,0-0.2c0-0.1-0.1-0.1-0.1-0.1c-0.1,0-0.1,0-0.2,0s-0.1,0-0.2,0s-0.1,0.1-0.2,0.1v1.6h-0.7v-2.3H73
	v0.3c0.1-0.1,0.3-0.2,0.4-0.2c0.1-0.1,0.3-0.1,0.4-0.1c0.2,0,0.4,0.1,0.6,0.2c0.1,0.1,0.2,0.4,0.2,0.7V32.8z M77.7,31.7
	c0,0.4-0.1,0.7-0.3,0.9c-0.2,0.2-0.5,0.3-0.9,0.3s-0.7-0.1-0.9-0.3c-0.2-0.2-0.3-0.5-0.3-0.9s0.1-0.7,0.3-0.9
	c0.2-0.2,0.5-0.3,0.9-0.3s0.7,0.1,0.9,0.3C77.5,31,77.7,31.3,77.7,31.7z M76.7,32.2c0-0.1,0.1-0.1,0.1-0.2c0-0.1,0-0.2,0-0.3
	c0-0.1,0-0.3,0-0.3c0-0.1-0.1-0.2-0.1-0.2c0-0.1-0.1-0.1-0.2-0.1s-0.1,0-0.2,0s-0.1,0-0.2,0s-0.1,0.1-0.2,0.1c0,0.1-0.1,0.1-0.1,0.2
	s0,0.2,0,0.4c0,0.1,0,0.2,0,0.3c0,0.1,0.1,0.2,0.1,0.2c0,0.1,0.1,0.1,0.2,0.1s0.1,0,0.2,0s0.1,0,0.2,0
	C76.6,32.3,76.7,32.3,76.7,32.2z M80.4,31.2v1.6h-0.7v-1.2c0-0.1,0-0.2,0-0.3c0-0.1,0-0.1,0-0.2L79.6,31c0,0-0.1,0-0.2,0
	s-0.1,0-0.2,0s-0.1,0.1-0.2,0.1v1.6h-0.7v-2.3H79v0.3c0.1-0.1,0.2-0.2,0.4-0.2c0.1-0.1,0.2-0.1,0.4-0.1c0.2,0,0.3,0,0.4,0.1
	s0.2,0.2,0.3,0.3c0.1-0.1,0.3-0.2,0.4-0.3c0.1-0.1,0.3-0.1,0.4-0.1c0.3,0,0.4,0.1,0.6,0.2c0.1,0.2,0.2,0.4,0.2,0.6v1.5h-0.7v-1.2
	c0-0.1,0-0.2,0-0.3c0-0.1,0-0.1,0-0.2l-0.1-0.1c-0.1,0-0.1,0-0.2,0s-0.1,0-0.2,0C80.6,31.1,80.5,31.1,80.4,31.2z M83.4,32.8h-0.7
	v-2.3h0.7V32.8z M83.4,30.2h-0.8v-0.6h0.8V30.2z M85.5,32.2v-0.5c-0.1,0-0.2,0-0.3,0c-0.1,0-0.2,0-0.3,0.1c-0.1,0-0.1,0.1-0.2,0.1
	c0,0-0.1,0.1-0.1,0.2v0.1c0,0,0,0.1,0.1,0.1c0,0,0.1,0,0.1,0.1c0,0,0.1,0,0.2,0s0.1,0,0.2,0C85.4,32.3,85.4,32.3,85.5,32.2z
	 M85.5,32.6L85.5,32.6c-0.2,0.1-0.2,0.2-0.3,0.2s-0.1,0.1-0.2,0.1s-0.2,0-0.3,0c-0.2,0-0.4-0.1-0.6-0.2c-0.1-0.1-0.2-0.3-0.2-0.5
	s0-0.3,0.1-0.4s0.2-0.2,0.3-0.3c0.1-0.1,0.3-0.1,0.5-0.1s0.4,0,0.6-0.1l0,0c0-0.1-0.1-0.2-0.2-0.3c-0.1,0-0.3-0.1-0.5-0.1
	c-0.1,0-0.3,0-0.4,0.1c-0.1,0-0.2,0.1-0.3,0.1h-0.1v-0.6c0.1,0,0.2,0,0.4-0.1c0.2,0,0.4,0,0.5,0c0.4,0,0.7,0.1,0.9,0.2
	c0.2,0.1,0.3,0.3,0.3,0.6v1.6h-0.7C85.5,32.8,85.5,32.6,85.5,32.6z M90.6,32.8h-0.7v-0.2c-0.1,0.1-0.2,0.2-0.4,0.2
	c-0.1,0.1-0.2,0.1-0.4,0.1c-0.3,0-0.5-0.1-0.7-0.3s-0.3-0.5-0.3-0.9c0-0.2,0-0.4,0.1-0.5c0.1-0.2,0.1-0.3,0.2-0.4s0.2-0.2,0.3-0.2
	c0.1-0.1,0.3-0.1,0.4-0.1s0.3,0,0.3,0c0.1,0,0.2,0.1,0.3,0.1v-1h0.7L90.6,32.8L90.6,32.8z M89.9,32.2V31c-0.1,0-0.1,0-0.2,0
	s-0.1,0-0.2,0c-0.2,0-0.3,0.1-0.4,0.2S89,31.5,89,31.7s0,0.4,0.1,0.5s0.2,0.2,0.4,0.2c0.1,0,0.1,0,0.2,0
	C89.7,32.3,89.8,32.2,89.9,32.2z M93.6,31.8h-1.7c0,0.2,0.1,0.3,0.2,0.4c0.1,0.1,0.3,0.1,0.6,0.1c0.2,0,0.3,0,0.5-0.1
	c0.1-0.1,0.3-0.1,0.3-0.2h0.1v0.6c-0.2,0.1-0.3,0.1-0.5,0.1c-0.1,0-0.3,0-0.5,0c-0.5,0-0.8-0.1-1.1-0.3c-0.2-0.2-0.4-0.5-0.4-0.9
	s0.1-0.7,0.4-0.9c0.2-0.2,0.6-0.3,1-0.3s0.7,0.1,0.8,0.3c0.2,0.2,0.3,0.5,0.3,0.8L93.6,31.8L93.6,31.8z M92.8,31.4
	c0-0.2,0-0.3-0.1-0.4s-0.2-0.1-0.3-0.1c-0.1,0-0.3,0-0.4,0.1s-0.1,0.2-0.2,0.4H92.8L92.8,31.4z M98,31.9c0,0.3-0.1,0.5-0.4,0.7
	c-0.3,0.2-0.6,0.3-1,0.3c-0.3,0-0.5,0-0.7-0.1c-0.2,0-0.4-0.1-0.5-0.2v-0.7h0.1c0.2,0.1,0.3,0.2,0.5,0.3s0.4,0.1,0.6,0.1
	c0,0,0.1,0,0.2,0s0.1,0,0.2,0s0.1-0.1,0.1-0.1s0.1-0.1,0.1-0.2c0-0.1,0-0.1-0.1-0.2c-0.1,0-0.1-0.1-0.3-0.1c-0.1,0-0.2-0.1-0.4-0.1
	c-0.1,0-0.2-0.1-0.4-0.1c-0.3-0.1-0.4-0.2-0.6-0.3c-0.1-0.1-0.2-0.3-0.2-0.5c0-0.3,0.1-0.5,0.4-0.7s0.6-0.3,1-0.3
	c0.2,0,0.4,0,0.6,0.1c0.2,0,0.4,0.1,0.5,0.1v0.7h-0.1c-0.1-0.1-0.3-0.2-0.5-0.2c-0.2-0.1-0.4-0.1-0.5-0.1s-0.1,0-0.2,0
	s-0.1,0-0.2,0.1c-0.1,0-0.1,0.1-0.1,0.1L96,30.6c0,0.1,0,0.1,0.1,0.2c0.1,0,0.2,0.1,0.4,0.1c0.1,0,0.2,0,0.3,0.1
	c0.1,0,0.2,0.1,0.3,0.1c0.2,0.1,0.4,0.2,0.5,0.3C98,31.5,98,31.6,98,31.9z M99.9,32.2v-0.5c-0.1,0-0.2,0-0.3,0c-0.1,0-0.2,0-0.3,0.1
	c-0.1,0-0.1,0.1-0.2,0.1c0,0-0.1,0.1-0.1,0.2v0.1c0,0,0,0.1,0.1,0.1c0,0,0.1,0,0.1,0.1c0,0,0.1,0,0.2,0s0.1,0,0.2,0
	C99.8,32.3,99.9,32.3,99.9,32.2z M99.9,32.6L99.9,32.6c-0.2,0.1-0.2,0.2-0.3,0.2s-0.1,0.1-0.2,0.1s-0.2,0-0.3,0
	c-0.2,0-0.4-0.1-0.6-0.2c-0.1-0.1-0.2-0.3-0.2-0.5s0-0.3,0.1-0.4s0.2-0.2,0.3-0.3c0.1-0.1,0.3-0.1,0.5-0.1s0.4,0,0.6-0.1l0,0
	c0-0.1-0.1-0.2-0.2-0.3c-0.1,0-0.3-0.1-0.5-0.1c-0.1,0-0.3,0-0.4,0.1c-0.1,0-0.2,0.1-0.3,0.1h-0.1v-0.6c0.1,0,0.2,0,0.4-0.1
	c0.2,0,0.4,0,0.5,0c0.4,0,0.7,0.1,0.9,0.2c0.2,0.1,0.3,0.3,0.3,0.6v1.6h-0.7L99.9,32.6z M103.7,32.8H103v-1.1c0-0.1,0-0.2,0-0.3
	c0-0.1,0-0.2,0-0.2c0-0.1-0.1-0.1-0.1-0.1s-0.1,0-0.2,0s-0.1,0-0.2,0s-0.1,0.1-0.2,0.1v1.6h-0.7v-2.3h0.7v0.3
	c0.1-0.1,0.3-0.2,0.4-0.2c0.1-0.1,0.3-0.1,0.4-0.1c0.2,0,0.4,0.1,0.6,0.2c0.1,0.1,0.2,0.4,0.2,0.7v1.4H103.7z M105.8,32.8
	c-0.1,0-0.2,0-0.3,0c-0.1,0-0.2,0-0.3,0c-0.3,0-0.5-0.1-0.6-0.2c-0.1-0.1-0.2-0.3-0.2-0.6v-1h-0.3v-0.5h0.3v-0.7h0.7v0.7h0.7V31
	h-0.7v0.8c0,0.1,0,0.2,0,0.2c0,0.1,0,0.1,0,0.2l0.1,0.1c0,0,0.1,0,0.2,0c0,0,0.1,0,0.2,0s0.1,0,0.1,0h0.1
	C105.8,32.3,105.8,32.8,105.8,32.8z M107.7,32.2v-0.5c-0.1,0-0.2,0-0.3,0c-0.1,0-0.2,0-0.3,0.1c-0.1,0-0.1,0.1-0.2,0.1
	c0,0-0.1,0.1-0.1,0.2v0.1c0,0,0,0.1,0.1,0.1c0,0,0.1,0,0.1,0.1c0,0,0.1,0,0.2,0s0.1,0,0.2,0C107.6,32.3,107.6,32.3,107.7,32.2z
	 M107.7,32.6L107.7,32.6c-0.2,0.1-0.2,0.2-0.3,0.2s-0.1,0.1-0.2,0.1s-0.2,0-0.3,0c-0.2,0-0.4-0.1-0.6-0.2c-0.1-0.1-0.2-0.3-0.2-0.5
	s0-0.3,0.1-0.4s0.2-0.2,0.3-0.3c0.1-0.1,0.3-0.1,0.5-0.1s0.4,0,0.6-0.1l0,0c0-0.1-0.1-0.2-0.2-0.3c-0.1,0-0.3-0.1-0.5-0.1
	c-0.1,0-0.3,0-0.4,0.1c-0.1,0-0.2,0.1-0.3,0.1h-0.1v-0.6c0.1,0,0.2,0,0.4-0.1c0.2,0,0.4,0,0.5,0c0.4,0,0.7,0.1,0.9,0.2
	c0.2,0.1,0.3,0.3,0.3,0.6v1.6h-0.7L107.7,32.6z M112,32.9c-0.2,0-0.4,0-0.6-0.1s-0.4-0.2-0.5-0.3s-0.2-0.3-0.3-0.5
	c-0.1-0.2-0.1-0.4-0.1-0.7c0-0.2,0-0.5,0.1-0.7s0.2-0.4,0.3-0.5c0.1-0.1,0.3-0.2,0.5-0.3c0.2-0.1,0.4-0.1,0.6-0.1c0.1,0,0.2,0,0.3,0
	c0.1,0,0.2,0,0.3,0.1c0.1,0,0.2,0.1,0.2,0.1c0.1,0,0.1,0.1,0.2,0.1v0.7l0,0l-0.1-0.1c-0.1,0-0.1-0.1-0.2-0.1s-0.2-0.1-0.2-0.1
	c-0.1,0-0.2,0-0.3,0c-0.1,0-0.2,0-0.3,0.1c-0.1,0-0.2,0.1-0.3,0.2c-0.1,0.1-0.1,0.2-0.2,0.3c-0.1,0.1-0.1,0.3-0.1,0.5s0,0.4,0.1,0.5
	c0.1,0.1,0.1,0.2,0.2,0.3s0.2,0.1,0.3,0.2c0.1,0,0.2,0,0.3,0c0.1,0,0.2,0,0.3,0c0.1,0,0.2-0.1,0.3-0.1c0.1,0,0.1-0.1,0.2-0.1
	s0.1-0.1,0.1-0.1h0.1v0.7c-0.1,0-0.2,0.1-0.2,0.1c-0.1,0-0.1,0.1-0.2,0.1s-0.2,0.1-0.3,0.1C112.2,32.9,112.1,32.9,112,32.9z
	 M115,32.2v-0.5c-0.1,0-0.2,0-0.3,0c-0.1,0-0.2,0-0.3,0.1c-0.1,0-0.1,0.1-0.2,0.1c0,0-0.1,0.1-0.1,0.2v0.1c0,0,0,0.1,0.1,0.1
	c0,0,0.1,0,0.1,0.1c0,0,0.1,0,0.2,0s0.1,0,0.2,0C114.9,32.3,114.9,32.3,115,32.2z M115,32.6L115,32.6c-0.2,0.1-0.2,0.2-0.3,0.2
	s-0.1,0.1-0.2,0.1s-0.2,0-0.3,0c-0.2,0-0.4-0.1-0.6-0.2c-0.1-0.1-0.2-0.3-0.2-0.5s0-0.3,0.1-0.4s0.2-0.2,0.3-0.3
	c0.1-0.1,0.3-0.1,0.5-0.1s0.4,0,0.6-0.1l0,0c0-0.1-0.1-0.2-0.2-0.3c-0.1,0-0.3-0.1-0.5-0.1c-0.1,0-0.3,0-0.4,0.1
	c-0.1,0-0.2,0.1-0.3,0.1h-0.1v-0.6c0.1,0,0.2,0,0.4-0.1c0.2,0,0.4,0,0.5,0c0.4,0,0.7,0.1,0.9,0.2c0.2,0.1,0.3,0.3,0.3,0.6v1.6H115
	V32.6z M117.9,32.8c-0.1,0-0.2,0-0.3,0c-0.1,0-0.2,0-0.3,0c-0.3,0-0.5-0.1-0.6-0.2c-0.1-0.1-0.2-0.3-0.2-0.6v-1h-0.3v-0.5h0.3v-0.7
	h0.7v0.7h0.7V31h-0.7v0.8c0,0.1,0,0.2,0,0.2c0,0.1,0,0.1,0,0.2l0.1,0.1c0,0,0.1,0,0.2,0c0,0,0.1,0,0.2,0s0.1,0,0.1,0h0.1L117.9,32.8
	L117.9,32.8z M119.7,32.2v-0.5c-0.1,0-0.2,0-0.3,0c-0.1,0-0.2,0-0.3,0.1c-0.1,0-0.1,0.1-0.2,0.1c0,0-0.1,0.1-0.1,0.2v0.1
	c0,0,0,0.1,0.1,0.1c0,0,0.1,0,0.1,0.1c0,0,0.1,0,0.2,0s0.1,0,0.2,0C119.6,32.3,119.7,32.3,119.7,32.2z M119.7,32.6L119.7,32.6
	c-0.2,0.1-0.2,0.2-0.3,0.2s-0.1,0.1-0.2,0.1s-0.2,0-0.3,0c-0.2,0-0.4-0.1-0.6-0.2c-0.1-0.1-0.2-0.3-0.2-0.5s0-0.3,0.1-0.4
	s0.2-0.2,0.3-0.3c0.1-0.1,0.3-0.1,0.5-0.1s0.4,0,0.6-0.1l0,0c0-0.1-0.1-0.2-0.2-0.3c-0.1,0-0.3-0.1-0.5-0.1c-0.1,0-0.3,0-0.4,0.1
	c-0.1,0-0.2,0.1-0.3,0.1h-0.1v-0.6c0.1,0,0.2,0,0.4-0.1c0.2,0,0.4,0,0.5,0c0.4,0,0.7,0.1,0.9,0.2c0.2,0.1,0.3,0.3,0.3,0.6v1.6h-0.7
	v-0.2H119.7z M122.8,31.2L122.8,31.2c-0.1,0-0.1,0-0.2,0s-0.1,0-0.2,0s-0.2,0-0.3,0c-0.1,0-0.2,0-0.3,0.1v1.6h-0.7v-2.3h0.7v0.3
	c0.2-0.1,0.3-0.2,0.4-0.3c0.1,0,0.2-0.1,0.3-0.1h0.1h0.1C122.8,30.5,122.8,31.2,122.8,31.2z M124,32.8h-0.7v-2.3h0.7V32.8z
	 M124,30.2h-0.8v-0.6h0.8V30.2z M127,32.8h-0.7v-1.1c0-0.1,0-0.2,0-0.3c0-0.1,0-0.2,0-0.2c0-0.1-0.1-0.1-0.1-0.1c-0.1,0-0.1,0-0.2,0
	s-0.1,0-0.2,0s-0.1,0.1-0.2,0.1v1.6h-0.7v-2.3h0.7v0.3c0.1-0.1,0.3-0.2,0.4-0.2c0.1-0.1,0.3-0.1,0.4-0.1c0.2,0,0.4,0.1,0.6,0.2
	s0.2,0.4,0.2,0.7v1.4H127z"/>
<path class="st0" d="M129.1,32.2v-0.5c-0.1,0-0.2,0-0.3,0s-0.2,0-0.3,0.1c-0.1,0-0.1,0.1-0.2,0.1c0,0-0.1,0.1-0.1,0.2v0.1
	c0,0,0,0.1,0.1,0.1c0,0,0.1,0,0.1,0.1c0,0,0.1,0,0.2,0c0.1,0,0.1,0,0.2,0C129,32.3,129,32.3,129.1,32.2z M129.1,32.6l-0.1,0.1
	c-0.1,0-0.1,0.1-0.2,0.1c-0.1,0-0.1,0.1-0.2,0.1c-0.1,0-0.2,0-0.3,0c-0.2,0-0.4-0.1-0.6-0.2c-0.1-0.1-0.2-0.3-0.2-0.5s0-0.3,0.1-0.4
	s0.2-0.2,0.3-0.3c0.1-0.1,0.3-0.1,0.5-0.1s0.4,0,0.6-0.1l0,0c0-0.1-0.1-0.2-0.2-0.3c-0.1,0-0.3-0.1-0.5-0.1c-0.1,0-0.3,0-0.4,0.1
	c-0.1,0-0.2,0.1-0.3,0.1h-0.1v-0.6c0.1,0,0.2,0,0.4-0.1c0.2,0,0.4,0,0.5,0c0.4,0,0.7,0.1,0.9,0.2s0.3,0.3,0.3,0.6v1.6h-0.7
	L129.1,32.6z"/>
<path class="st0" d="M0,0h33.4v31c0,1.1-0.9,2-2,2H18.5c-0.8,0-1.4,0.6-1.8,1.8c-0.3-1-0.9-1.8-1.9-1.8H2c-1.1,0-2-0.9-2-2V0z
	 M32.9,0.4V31c0,0.9-0.7,1.6-1.6,1.6H18.5c-0.8,0-1.6,0.6-1.8,1.3c-0.2-0.7-1-1.3-1.8-1.3H2.1c-0.9,0-1.6-0.7-1.6-1.6V0.4H32.9z"/>
</svg>
