<svg width="135" height="23" viewBox="0 0 135 23" fill="none" xmlns="http://www.w3.org/2000/svg">
<path d="M37.1867 2.27752C36.8687 2.10666 36.5404 1.94918 36.1987 1.80507C34.9269 1.27171 33.5348 1.00577 32.0194 1.00577C30.504 1.00577 29.106 1.27171 27.8253 1.80507C26.5447 2.33695 25.4408 3.06642 24.5152 3.99349C24.4261 4.08411 24.3384 4.17474 24.2523 4.26686L24.2508 4.26537C23.9863 4.53131 23.7367 4.80616 23.5064 5.09141L23.5317 5.13153L24.5316 6.68853C24.2537 7.08669 24.0116 7.50268 23.8095 7.93205L22.0965 7.85331L21.9153 7.8444C21.6464 8.54119 21.4547 9.26026 21.3418 9.99122L21.6048 10.1264L23.0281 10.8618C22.9879 11.3387 22.9879 11.8201 23.0281 12.2985L21.6984 12.9849L21.3418 13.1691C21.4547 13.9001 21.6479 14.6191 21.9153 15.3159L22.3848 15.2936L23.808 15.2268C24.0101 15.6576 24.2523 16.0721 24.5301 16.4703L23.8006 17.6083L23.505 18.0674C23.7352 18.3527 23.9819 18.6305 24.2478 18.895C24.5137 19.1609 24.7901 19.4075 25.0768 19.6378L25.6057 19.2991L26.6739 18.6127C27.0721 18.8905 27.4881 19.1327 27.9189 19.3347L27.8625 20.5455L27.8313 21.2275C28.5281 21.4964 29.2471 21.688 29.9766 21.801L30.2886 21.1978L30.8472 20.1162C31.3256 20.1563 31.8055 20.1563 32.2839 20.1162L32.8841 21.2795L33.1545 21.801C33.884 21.6895 34.6031 21.4964 35.3013 21.2275L35.282 20.8293L35.2122 19.3377C35.643 19.1356 36.059 18.8935 36.4572 18.6156L37.9459 19.5709L38.0558 19.6408C38.341 19.4105 38.6025 19.1475 38.867 18.8816L38.8655 18.8801C39.075 18.7063 39.2755 18.5206 39.4687 18.3274C40.3943 17.4018 41.1193 16.3277 41.6423 15.102C41.6957 14.9787 41.7433 14.8524 41.7923 14.7261L37.1867 2.27752ZM37.9117 11.2169C37.9117 12.0578 37.7661 12.8497 37.4764 13.5881C37.1867 14.3279 36.784 14.9772 36.2715 15.5388C36.1511 15.668 36.0263 15.7928 35.8941 15.9102C35.7352 16.0528 35.5658 16.1865 35.389 16.3098C35.0859 16.5193 34.7591 16.7021 34.4055 16.8566C33.676 17.1745 32.8797 17.3335 32.0209 17.3335C31.1414 17.3335 30.3421 17.1701 29.623 16.8417C28.9025 16.5164 28.2755 16.0707 27.7421 15.5105C27.2103 14.949 26.7972 14.2953 26.509 13.5465C26.2193 12.7992 26.0737 12.0028 26.0737 11.1619V11.1055C26.0737 10.2646 26.2193 9.47271 26.509 8.73432C26.7987 7.99594 27.1999 7.3452 27.7139 6.78361C28.228 6.22351 28.846 5.78375 29.5666 5.46581C30.2856 5.14787 31.0849 4.9889 31.9645 4.9889C32.8232 4.9889 33.6195 5.15381 34.349 5.48066C35.0785 5.80751 35.7099 6.25174 36.2418 6.81184C36.7751 7.37343 37.1867 8.02713 37.4764 8.77592C37.7661 9.5247 37.9117 10.3196 37.9117 11.1605V11.2169Z" fill="white"/>
<path d="M59.2047 1.53915H63.0199L70.9595 21.3181H66.1904L61.0558 7.48785L55.9213 21.3181H51.2637L59.2047 1.53915Z" fill="white"/>
<path d="M38.5371 1.53915L45.8497 21.3166H49.6649L57.6044 1.53915H52.9483L47.8137 15.3694L42.6807 1.53915H38.5371Z" fill="white"/>
<path d="M22.0452 19.2337L22.3914 18.6944L22.644 18.3007C22.075 17.5891 21.598 16.8061 21.2118 15.9533L20.7274 15.9756L20.1762 16.0009C19.8613 15.1837 19.6355 14.3384 19.5017 13.4797L19.9207 13.2628L20.353 13.0399C20.2639 12.4501 20.2178 11.8469 20.2178 11.2259V11.162C20.2178 10.8158 20.2342 10.4756 20.2624 10.1398L19.8093 9.9051L19.5017 9.74613C19.6355 8.8874 19.8613 8.04353 20.1762 7.22491L20.3887 7.23531L20.8894 7.25909C20.9562 7.07635 21.0275 6.89509 21.1048 6.71532C21.4465 5.91453 21.8655 5.1717 22.3602 4.48531L22.0749 4.0396L22.0452 3.99206C22.2919 3.68749 22.5578 3.39332 22.8371 3.10659V1.68033H18.5732V13.7723L9.37083 1.68033H5.3877V21.3182H9.65162V8.83391L19.1615 21.3167H22.8371V20.1222C22.5563 19.8369 22.2919 19.5383 22.0452 19.2337Z" fill="white"/>
<path d="M4.32038 6.14029H0V21.3166H4.32038V6.14029Z" fill="white"/>
<path d="M4.32038 1.67877H0V4.98888H4.32038V1.67877Z" fill="white"/>
<path d="M76.5012 22.3031C74.9873 22.3031 73.5521 22.0505 72.2328 21.5543L72.4126 21.0774C73.6739 21.5528 75.0497 21.7935 76.5027 21.7935C81.0325 21.7935 83.7825 19.2381 84.3976 18.6008L82.1201 15.362C81.456 15.9919 79.3745 17.7346 76.7315 17.7346C72.778 17.7346 70.71 14.5196 70.71 11.3432C70.71 8.41638 72.5938 5.26524 76.7315 5.26524C79.1294 5.26524 81.1157 6.68407 81.7798 7.21743L83.8316 3.87314C83.2477 3.31749 80.7532 1.20634 76.5027 1.20634C72.2283 1.20634 68.5602 3.50767 66.9304 7.21149L66.4639 7.00646C68.1769 3.11396 72.0233 0.696747 76.5027 0.696747C81.6105 0.696747 84.2327 3.54332 84.3426 3.66366L84.4704 3.80481L81.8972 7.99742L81.6699 7.79091C81.6476 7.77011 79.422 5.77334 76.7315 5.77334C72.9236 5.77334 71.2196 8.57089 71.2196 11.3417C71.2196 14.2655 73.1123 17.225 76.7315 17.225C79.6642 17.225 81.9462 14.8182 81.9685 14.7944L82.1825 14.5656L85.0454 18.6364L84.9191 18.7865C84.7958 18.9306 81.8957 22.3031 76.5012 22.3031Z" fill="white"/>
<path d="M101.753 21.9598H95.5996L91.9745 15.0811H90.0416V21.9598H84.5371V1.03983H91.9002C93.94 1.03983 95.0023 1.17056 95.9606 1.54198C98.458 2.49876 99.8917 4.7481 99.8917 7.71651C99.8917 10.1501 98.7358 12.3444 96.9278 13.3859C97.06 13.5805 97.2828 13.9252 97.5755 14.4422L101.753 21.9598ZM95.9071 21.4502H100.887L97.1298 14.6918C96.6633 13.8673 96.3825 13.4988 96.3795 13.4958L96.3275 13.4275V13.1274L96.4672 13.0561C98.4803 12.0354 99.3821 9.63899 99.3821 7.71651C99.3821 4.97096 98.0688 2.89396 95.7778 2.0174C94.8835 1.67124 93.8702 1.54942 91.9002 1.54942H85.0467V21.4502H89.5335V14.5715H92.282L95.9071 21.4502ZM91.9566 10.7978H89.532V5.32157H91.4708C93.842 5.32157 94.8077 6.10602 94.8077 8.03148C94.8092 9.76379 93.7424 10.7978 91.9566 10.7978ZM90.0416 10.2897H91.9566C93.4676 10.2897 94.2996 9.48744 94.2996 8.03295C94.2996 6.63938 93.836 5.83265 91.4708 5.83265H90.0416V10.2897Z" fill="white"/>
<path d="M114.763 21.9598H101.065V1.03983H114.362V5.83117H106.57V9.03283H112.793V13.8242H106.57V17.1685H114.762V21.9598H114.763ZM101.576 21.4502H114.255V17.6781H106.063V13.3146H112.287V9.54242H106.063V5.32157H113.856V1.54942H101.576V21.4502Z" fill="white"/>
<path d="M134.002 21.9598H128.318L127.063 17.6781H121.08L119.853 21.9598H114.167L121.276 1.03983H126.893L126.953 1.21216L134.002 21.9598ZM128.7 21.4502H133.292L126.529 1.54942H121.641L114.879 21.4502H119.469L120.697 17.1685H127.445L128.7 21.4502ZM126.421 13.6815H121.717L122.985 9.38642C123.349 8.12805 123.803 5.91883 123.808 5.89654L123.849 5.69299H124.322L124.363 5.89654C124.368 5.91883 124.822 8.12805 125.186 9.38791L126.421 13.6815ZM122.398 13.172H125.743L124.695 9.52904C124.487 8.80848 124.25 7.78782 124.082 7.02864C123.915 7.78782 123.678 8.80848 123.47 9.52904L122.398 13.172Z" fill="white"/>
</svg>
